M48
; DRILL file {KiCad 9.0.8+1} date 2026-04-14T14:04:06+0100
; FORMAT={-:-/ absolute / metric / decimal}
; #@! TF.CreationDate,2026-04-14T14:04:06+01:00
; #@! TF.GenerationSoftware,Kicad,Pcbnew,9.0.8+1
; #@! TF.FileFunction,Plated,1,4,PTH
FMAT,2
METRIC
; #@! TA.AperFunction,Plated,PTH,ViaDrill
T1C0.300
; #@! TA.AperFunction,Plated,PTH,ViaDrill
T2C0.400
; #@! TA.AperFunction,Plated,PTH,ComponentDrill
T3C0.600
; #@! TA.AperFunction,Plated,PTH,ComponentDrill
T4C1.000
; #@! TA.AperFunction,Plated,PTH,ComponentDrill
T5C1.200
; #@! TA.AperFunction,Plated,PTH,ComponentDrill
T6C1.800
; #@! TA.AperFunction,Plated,PTH,ComponentDrill
T7C3.200
%
G90
G05
T1
X32.599Y-58.1
X32.6Y-50.175
X32.6Y-52.675
X32.6Y-54.975
X32.6Y-60.175
X32.6Y-62.675
X32.6Y-65.225
X32.6Y-67.725
X32.6Y-70.225
X32.6Y-72.725
X32.6Y-75.225
X32.6Y-77.725
X32.6Y-80.225
X32.6Y-82.775
X32.6Y-85.275
X32.6Y-87.775
X32.6Y-90.275
X32.6Y-92.775
X32.6Y-95.275
X34.77Y-63.215
X36.956Y-61.659
X38.098Y-50.302
X38.13Y-49.154
X38.154Y-48.096
X38.163Y-46.942
X38.748Y-46.942
X38.76Y-49.15
X38.779Y-48.097
X38.809Y-50.303
X39.025Y-101.475
X39.925Y-42.7
X40.02Y-43.89
X40.55Y-43.275
X40.698Y-49.516
X40.698Y-50.15
X40.703Y-47.037
X40.704Y-47.618
X41.22Y-66.01
X41.25Y-57.17
X41.394Y-56.136
X41.525Y-101.475
X41.583Y-49.102
X41.583Y-48.136
X41.95Y-67.15
X42.4Y-52.4
X42.539Y-42.65
X42.68Y-67.17
X43.633Y-44.793
X43.672Y-44.047
X44.025Y-101.475
X44.373Y-47.128
X44.929Y-61.609
X45.025Y-42.7
X45.17Y-64.655
X45.18Y-43.484
X45.61Y-65.77
X46.525Y-101.475
X46.76Y-63.81
X46.825Y-62.6
X46.835Y-66.297
X46.925Y-86.05
X46.925Y-86.7
X46.96Y-74.4
X47.025Y-84.9
X47.05Y-80.32
X47.47Y-53.43
X47.522Y-61.252
X47.525Y-42.7
X47.53Y-59.471
X47.65Y-68.654
X47.776Y-62.899
X47.802Y-69.838
X47.939Y-80.981
X48.148Y-54.013
X48.148Y-73.355
X48.175Y-86.05
X48.2Y-86.7
X48.3Y-67.55
X48.75Y-84.9
X48.987Y-70.378
X48.99Y-68.322
X49.025Y-101.475
X49.125Y-85.975
X49.2Y-67.234
X49.308Y-62.966
X49.317Y-61.213
X49.334Y-59.451
X49.47Y-75.19
X49.575Y-80.9
X49.848Y-67.218
X50.025Y-42.7
X50.11Y-56.03
X50.15Y-65.5
X50.15Y-66.1
X50.173Y-66.7
X50.374Y-70.322
X50.543Y-72.027
X51.0Y-53.925
X51.033Y-59.426
X51.047Y-62.943
X51.059Y-61.227
X51.29Y-85.832
X51.52Y-56.66
X51.525Y-101.475
X51.706Y-69.327
X51.86Y-70.311
X51.883Y-60.61
X51.89Y-73.6
X51.999Y-65.487
X52.05Y-66.2
X52.067Y-66.8
X52.189Y-67.397
X52.575Y-42.7
X52.589Y-85.046
X52.71Y-71.949
X52.85Y-69.95
X52.93Y-67.796
X53.125Y-68.925
X53.81Y-65.51
X53.9Y-61.28
X54.075Y-101.475
X54.094Y-79.907
X55.075Y-42.7
X55.125Y-67.325
X55.425Y-60.475
X56.022Y-63.154
X56.2Y-58.5
X56.827Y-63.655
X57.098Y-65.664
X57.181Y-67.779
X58.55Y-65.3
X61.4Y-54.075
X61.4Y-56.575
X61.4Y-59.075
X61.4Y-64.075
X61.4Y-71.625
X61.4Y-74.125
X61.4Y-76.625
X61.4Y-79.125
X61.4Y-81.625
X61.4Y-94.175
X61.408Y-84.622
X61.41Y-90.44
X61.414Y-87.94
T2
X35.2Y-86.45
X35.321Y-48.85
X36.15Y-85.35
X36.2Y-88.05
X36.3Y-81.45
X36.475Y-54.125
X37.2Y-86.45
X38.3Y-85.35
X38.3Y-88.05
X39.3Y-86.45
X39.35Y-81.5
X39.51Y-100.42
X39.59Y-98.67
X40.35Y-88.1
X40.55Y-85.35
X41.3Y-86.45
X41.96Y-98.52
X42.02Y-100.37
X42.08Y-95.62
X42.6Y-81.475
X42.7Y-83.5
X42.7Y-85.35
X44.58Y-95.62
X44.8Y-87.3
X45.504Y-84.251
X47.43Y-95.61
X49.35Y-96.72
X49.89Y-91.32
X50.05Y-98.77
X50.98Y-95.63
X51.48Y-97.44
X51.54Y-100.29
X52.673Y-88.414
X53.14Y-90.41
T4
X57.675Y-61.127
X57.676Y-49.923
X57.676Y-52.463
X57.676Y-55.003
X57.676Y-57.543
X60.215Y-61.127
X60.216Y-49.923
X60.216Y-52.463
X60.216Y-55.003
X60.216Y-57.543
X60.216Y-64.733
X60.216Y-67.273
T5
X55.79Y-71.05
X55.79Y-73.55
X55.79Y-76.05
X55.79Y-81.71
X55.79Y-84.21
X55.79Y-86.71
T6
X37.375Y-70.45
X37.375Y-74.65
X37.375Y-78.85
X42.875Y-70.45
X42.875Y-74.65
X42.875Y-78.85
T7
X35.0Y-45.09
X35.0Y-99.09
X59.0Y-45.09
X59.0Y-99.09
T3
G00X46.243Y-44.312
M15
G01X46.243Y-45.112
M16
G05
G00X46.243Y-48.332
M15
G01X46.243Y-49.432
M16
G05
G00X54.883Y-44.312
M15
G01X54.883Y-45.112
M16
G05
G00X54.883Y-48.332
M15
G01X54.883Y-49.432
M16
G05
M30
