%TF.GenerationSoftware,KiCad,Pcbnew,9.0.8+1*%
%TF.CreationDate,2026-04-14T14:04:01+01:00*%
%TF.ProjectId,Chad,43686164-2e6b-4696-9361-645f70636258,rev?*%
%TF.SameCoordinates,Original*%
%TF.FileFunction,Legend,Top*%
%TF.FilePolarity,Positive*%
%FSLAX46Y46*%
G04 Gerber Fmt 4.6, Leading zero omitted, Abs format (unit mm)*
G04 Created by KiCad (PCBNEW 9.0.8+1) date 2026-04-14 14:04:01*
%MOMM*%
%LPD*%
G01*
G04 APERTURE LIST*
G04 Aperture macros list*
%AMRoundRect*
0 Rectangle with rounded corners*
0 $1 Rounding radius*
0 $2 $3 $4 $5 $6 $7 $8 $9 X,Y pos of 4 corners*
0 Add a 4 corners polygon primitive as box body*
4,1,4,$2,$3,$4,$5,$6,$7,$8,$9,$2,$3,0*
0 Add four circle primitives for the rounded corners*
1,1,$1+$1,$2,$3*
1,1,$1+$1,$4,$5*
1,1,$1+$1,$6,$7*
1,1,$1+$1,$8,$9*
0 Add four rect primitives between the rounded corners*
20,1,$1+$1,$2,$3,$4,$5,0*
20,1,$1+$1,$4,$5,$6,$7,0*
20,1,$1+$1,$6,$7,$8,$9,0*
20,1,$1+$1,$8,$9,$2,$3,0*%
G04 Aperture macros list end*
%ADD10C,0.150000*%
%ADD11C,0.152400*%
%ADD12C,0.125000*%
%ADD13C,0.100000*%
%ADD14C,0.120000*%
%ADD15C,0.127000*%
%ADD16C,0.200000*%
%ADD17C,0.000000*%
%ADD18C,0.010000*%
%ADD19RoundRect,0.225000X0.225000X0.250000X-0.225000X0.250000X-0.225000X-0.250000X0.225000X-0.250000X0*%
%ADD20C,1.000000*%
%ADD21RoundRect,0.147500X-0.172500X0.147500X-0.172500X-0.147500X0.172500X-0.147500X0.172500X0.147500X0*%
%ADD22RoundRect,0.135000X-0.185000X0.135000X-0.185000X-0.135000X0.185000X-0.135000X0.185000X0.135000X0*%
%ADD23C,1.700000*%
%ADD24RoundRect,0.250000X-0.850000X-0.600000X0.850000X-0.600000X0.850000X0.600000X-0.850000X0.600000X0*%
%ADD25O,2.200000X1.700000*%
%ADD26RoundRect,0.140000X0.140000X0.170000X-0.140000X0.170000X-0.140000X-0.170000X0.140000X-0.170000X0*%
%ADD27RoundRect,0.135000X-0.135000X-0.185000X0.135000X-0.185000X0.135000X0.185000X-0.135000X0.185000X0*%
%ADD28C,5.600000*%
%ADD29RoundRect,0.135000X0.185000X-0.135000X0.185000X0.135000X-0.185000X0.135000X-0.185000X-0.135000X0*%
%ADD30RoundRect,0.135000X0.135000X0.185000X-0.135000X0.185000X-0.135000X-0.185000X0.135000X-0.185000X0*%
%ADD31RoundRect,0.175000X0.175000X0.325000X-0.175000X0.325000X-0.175000X-0.325000X0.175000X-0.325000X0*%
%ADD32RoundRect,0.150000X0.200000X0.150000X-0.200000X0.150000X-0.200000X-0.150000X0.200000X-0.150000X0*%
%ADD33RoundRect,0.200000X0.200000X0.275000X-0.200000X0.275000X-0.200000X-0.275000X0.200000X-0.275000X0*%
%ADD34RoundRect,0.147500X-0.147500X-0.172500X0.147500X-0.172500X0.147500X0.172500X-0.147500X0.172500X0*%
%ADD35RoundRect,0.140000X-0.170000X0.140000X-0.170000X-0.140000X0.170000X-0.140000X0.170000X0.140000X0*%
%ADD36RoundRect,0.100000X-0.100000X0.125000X-0.100000X-0.125000X0.100000X-0.125000X0.100000X0.125000X0*%
%ADD37RoundRect,0.140000X0.170000X-0.140000X0.170000X0.140000X-0.170000X0.140000X-0.170000X-0.140000X0*%
%ADD38R,1.700000X1.700000*%
%ADD39O,1.700000X1.700000*%
%ADD40C,1.500000*%
%ADD41RoundRect,0.200000X-0.200000X-0.275000X0.200000X-0.275000X0.200000X0.275000X-0.200000X0.275000X0*%
%ADD42RoundRect,0.250000X-1.875000X0.787500X-1.875000X-0.787500X1.875000X-0.787500X1.875000X0.787500X0*%
%ADD43RoundRect,0.147500X0.172500X-0.147500X0.172500X0.147500X-0.172500X0.147500X-0.172500X-0.147500X0*%
%ADD44C,0.600000*%
%ADD45R,0.600000X1.160000*%
%ADD46R,0.300000X1.160000*%
%ADD47O,0.900000X2.000000*%
%ADD48O,0.900000X1.700000*%
%ADD49RoundRect,0.042000X0.258000X-0.943000X0.258000X0.943000X-0.258000X0.943000X-0.258000X-0.943000X0*%
%ADD50R,2.150000X2.150000*%
%ADD51RoundRect,0.140000X-0.140000X-0.170000X0.140000X-0.170000X0.140000X0.170000X-0.140000X0.170000X0*%
%ADD52RoundRect,0.102000X2.250000X-1.475000X2.250000X1.475000X-2.250000X1.475000X-2.250000X-1.475000X0*%
%ADD53RoundRect,0.250000X-0.325000X-0.650000X0.325000X-0.650000X0.325000X0.650000X-0.325000X0.650000X0*%
%ADD54RoundRect,0.250000X0.650000X-0.325000X0.650000X0.325000X-0.650000X0.325000X-0.650000X-0.325000X0*%
%ADD55R,0.475000X0.300000*%
%ADD56R,0.650000X0.200000*%
%ADD57RoundRect,0.250000X0.325000X0.650000X-0.325000X0.650000X-0.325000X-0.650000X0.325000X-0.650000X0*%
%ADD58RoundRect,0.218750X-0.381250X0.218750X-0.381250X-0.218750X0.381250X-0.218750X0.381250X0.218750X0*%
%ADD59RoundRect,0.006600X0.398400X0.103400X-0.398400X0.103400X-0.398400X-0.103400X0.398400X-0.103400X0*%
%ADD60RoundRect,0.022000X0.088000X0.383000X-0.088000X0.383000X-0.088000X-0.383000X0.088000X-0.383000X0*%
%ADD61R,4.000000X4.000000*%
%ADD62RoundRect,0.150000X0.150000X-0.825000X0.150000X0.825000X-0.150000X0.825000X-0.150000X-0.825000X0*%
%ADD63R,0.550000X0.300000*%
%ADD64R,0.300000X0.450000*%
%ADD65R,0.300000X0.725000*%
%ADD66R,0.725000X0.300000*%
%ADD67R,1.575000X1.050000*%
%ADD68R,1.150000X1.050000*%
%ADD69R,2.175000X1.200000*%
%ADD70R,0.580000X0.380000*%
%ADD71R,0.650000X0.455000*%
%ADD72R,2.350000X0.275000*%
%ADD73C,3.000000*%
%ADD74RoundRect,0.250001X1.599999X-1.099999X1.599999X1.099999X-1.599999X1.099999X-1.599999X-1.099999X0*%
%ADD75O,3.700000X2.700000*%
%ADD76RoundRect,0.150000X0.150000X-0.587500X0.150000X0.587500X-0.150000X0.587500X-0.150000X-0.587500X0*%
%ADD77R,0.900000X0.800000*%
G04 APERTURE END LIST*
D10*
X51138000Y-80682000D02*
X50938000Y-80482000D01*
X51138000Y-80682000D02*
X51338000Y-80482000D01*
X51138000Y-80032000D02*
X51138000Y-80682000D01*
X57066541Y-56593771D02*
X57066541Y-55993771D01*
X57466540Y-55993771D02*
X57580826Y-55993771D01*
X57580826Y-55993771D02*
X57637969Y-56022342D01*
X57637969Y-56022342D02*
X57695112Y-56079485D01*
X57695112Y-56079485D02*
X57723683Y-56193771D01*
X57723683Y-56193771D02*
X57723683Y-56393771D01*
X57723683Y-56393771D02*
X57695112Y-56508057D01*
X57695112Y-56508057D02*
X57637969Y-56565200D01*
X57637969Y-56565200D02*
X57580826Y-56593771D01*
X57580826Y-56593771D02*
X57466540Y-56593771D01*
X57466540Y-56593771D02*
X57409398Y-56565200D01*
X57409398Y-56565200D02*
X57352255Y-56508057D01*
X57352255Y-56508057D02*
X57323683Y-56393771D01*
X57323683Y-56393771D02*
X57323683Y-56193771D01*
X57323683Y-56193771D02*
X57352255Y-56079485D01*
X57352255Y-56079485D02*
X57409398Y-56022342D01*
X57409398Y-56022342D02*
X57466540Y-55993771D01*
X58237969Y-55993771D02*
X58123683Y-55993771D01*
X58123683Y-55993771D02*
X58066540Y-56022342D01*
X58066540Y-56022342D02*
X58037969Y-56050914D01*
X58037969Y-56050914D02*
X57980826Y-56136628D01*
X57980826Y-56136628D02*
X57952254Y-56250914D01*
X57952254Y-56250914D02*
X57952254Y-56479485D01*
X57952254Y-56479485D02*
X57980826Y-56536628D01*
X57980826Y-56536628D02*
X58009397Y-56565200D01*
X58009397Y-56565200D02*
X58066540Y-56593771D01*
X58066540Y-56593771D02*
X58180826Y-56593771D01*
X58180826Y-56593771D02*
X58237969Y-56565200D01*
X58237969Y-56565200D02*
X58266540Y-56536628D01*
X58266540Y-56536628D02*
X58295111Y-56479485D01*
X58295111Y-56479485D02*
X58295111Y-56336628D01*
X58295111Y-56336628D02*
X58266540Y-56279485D01*
X58266540Y-56279485D02*
X58237969Y-56250914D01*
X58237969Y-56250914D02*
X58180826Y-56222342D01*
X58180826Y-56222342D02*
X58066540Y-56222342D01*
X58066540Y-56222342D02*
X58009397Y-56250914D01*
X58009397Y-56250914D02*
X57980826Y-56279485D01*
X57980826Y-56279485D02*
X57952254Y-56336628D01*
D11*
X55247882Y-79892979D02*
X55209786Y-79931075D01*
X55209786Y-79931075D02*
X55095501Y-79969170D01*
X55095501Y-79969170D02*
X55019310Y-79969170D01*
X55019310Y-79969170D02*
X54905024Y-79931075D01*
X54905024Y-79931075D02*
X54828834Y-79854884D01*
X54828834Y-79854884D02*
X54790739Y-79778694D01*
X54790739Y-79778694D02*
X54752643Y-79626313D01*
X54752643Y-79626313D02*
X54752643Y-79512027D01*
X54752643Y-79512027D02*
X54790739Y-79359646D01*
X54790739Y-79359646D02*
X54828834Y-79283455D01*
X54828834Y-79283455D02*
X54905024Y-79207265D01*
X54905024Y-79207265D02*
X55019310Y-79169170D01*
X55019310Y-79169170D02*
X55095501Y-79169170D01*
X55095501Y-79169170D02*
X55209786Y-79207265D01*
X55209786Y-79207265D02*
X55247882Y-79245360D01*
X55590739Y-79969170D02*
X55590739Y-79169170D01*
X55590739Y-79550122D02*
X56047882Y-79550122D01*
X56047882Y-79969170D02*
X56047882Y-79169170D01*
X56847881Y-79969170D02*
X56390738Y-79969170D01*
X56619310Y-79969170D02*
X56619310Y-79169170D01*
X56619310Y-79169170D02*
X56543119Y-79283455D01*
X56543119Y-79283455D02*
X56466929Y-79359646D01*
X56466929Y-79359646D02*
X56390738Y-79397741D01*
D10*
X55597342Y-50269173D02*
X55568771Y-50326316D01*
X55568771Y-50326316D02*
X55568771Y-50412030D01*
X55568771Y-50412030D02*
X55597342Y-50497744D01*
X55597342Y-50497744D02*
X55654485Y-50554887D01*
X55654485Y-50554887D02*
X55711628Y-50583458D01*
X55711628Y-50583458D02*
X55825914Y-50612030D01*
X55825914Y-50612030D02*
X55911628Y-50612030D01*
X55911628Y-50612030D02*
X56025914Y-50583458D01*
X56025914Y-50583458D02*
X56083057Y-50554887D01*
X56083057Y-50554887D02*
X56140200Y-50497744D01*
X56140200Y-50497744D02*
X56168771Y-50412030D01*
X56168771Y-50412030D02*
X56168771Y-50354887D01*
X56168771Y-50354887D02*
X56140200Y-50269173D01*
X56140200Y-50269173D02*
X56111628Y-50240601D01*
X56111628Y-50240601D02*
X55911628Y-50240601D01*
X55911628Y-50240601D02*
X55911628Y-50354887D01*
X56168771Y-49983458D02*
X55568771Y-49983458D01*
X55568771Y-49983458D02*
X56168771Y-49640601D01*
X56168771Y-49640601D02*
X55568771Y-49640601D01*
X56168771Y-49354887D02*
X55568771Y-49354887D01*
X55568771Y-49354887D02*
X55568771Y-49212030D01*
X55568771Y-49212030D02*
X55597342Y-49126316D01*
X55597342Y-49126316D02*
X55654485Y-49069173D01*
X55654485Y-49069173D02*
X55711628Y-49040602D01*
X55711628Y-49040602D02*
X55825914Y-49012030D01*
X55825914Y-49012030D02*
X55911628Y-49012030D01*
X55911628Y-49012030D02*
X56025914Y-49040602D01*
X56025914Y-49040602D02*
X56083057Y-49069173D01*
X56083057Y-49069173D02*
X56140200Y-49126316D01*
X56140200Y-49126316D02*
X56168771Y-49212030D01*
X56168771Y-49212030D02*
X56168771Y-49354887D01*
X54377805Y-51083458D02*
X53777805Y-51083458D01*
X53777805Y-50683459D02*
X53777805Y-50569173D01*
X53777805Y-50569173D02*
X53806376Y-50512030D01*
X53806376Y-50512030D02*
X53863519Y-50454887D01*
X53863519Y-50454887D02*
X53977805Y-50426316D01*
X53977805Y-50426316D02*
X54177805Y-50426316D01*
X54177805Y-50426316D02*
X54292091Y-50454887D01*
X54292091Y-50454887D02*
X54349234Y-50512030D01*
X54349234Y-50512030D02*
X54377805Y-50569173D01*
X54377805Y-50569173D02*
X54377805Y-50683459D01*
X54377805Y-50683459D02*
X54349234Y-50740602D01*
X54349234Y-50740602D02*
X54292091Y-50797744D01*
X54292091Y-50797744D02*
X54177805Y-50826316D01*
X54177805Y-50826316D02*
X53977805Y-50826316D01*
X53977805Y-50826316D02*
X53863519Y-50797744D01*
X53863519Y-50797744D02*
X53806376Y-50740602D01*
X53806376Y-50740602D02*
X53777805Y-50683459D01*
X55343771Y-50769173D02*
X55343771Y-51112030D01*
X55343771Y-50940601D02*
X54743771Y-50940601D01*
X54743771Y-50940601D02*
X54829485Y-50997744D01*
X54829485Y-50997744D02*
X54886628Y-51054887D01*
X54886628Y-51054887D02*
X54915200Y-51112030D01*
X54743771Y-50397744D02*
X54743771Y-50340601D01*
X54743771Y-50340601D02*
X54772342Y-50283458D01*
X54772342Y-50283458D02*
X54800914Y-50254887D01*
X54800914Y-50254887D02*
X54858057Y-50226315D01*
X54858057Y-50226315D02*
X54972342Y-50197744D01*
X54972342Y-50197744D02*
X55115200Y-50197744D01*
X55115200Y-50197744D02*
X55229485Y-50226315D01*
X55229485Y-50226315D02*
X55286628Y-50254887D01*
X55286628Y-50254887D02*
X55315200Y-50283458D01*
X55315200Y-50283458D02*
X55343771Y-50340601D01*
X55343771Y-50340601D02*
X55343771Y-50397744D01*
X55343771Y-50397744D02*
X55315200Y-50454887D01*
X55315200Y-50454887D02*
X55286628Y-50483458D01*
X55286628Y-50483458D02*
X55229485Y-50512029D01*
X55229485Y-50512029D02*
X55115200Y-50540601D01*
X55115200Y-50540601D02*
X54972342Y-50540601D01*
X54972342Y-50540601D02*
X54858057Y-50512029D01*
X54858057Y-50512029D02*
X54800914Y-50483458D01*
X54800914Y-50483458D02*
X54772342Y-50454887D01*
X54772342Y-50454887D02*
X54743771Y-50397744D01*
X55027805Y-55733458D02*
X54427805Y-55733458D01*
X54427805Y-55333459D02*
X54427805Y-55219173D01*
X54427805Y-55219173D02*
X54456376Y-55162030D01*
X54456376Y-55162030D02*
X54513519Y-55104887D01*
X54513519Y-55104887D02*
X54627805Y-55076316D01*
X54627805Y-55076316D02*
X54827805Y-55076316D01*
X54827805Y-55076316D02*
X54942091Y-55104887D01*
X54942091Y-55104887D02*
X54999234Y-55162030D01*
X54999234Y-55162030D02*
X55027805Y-55219173D01*
X55027805Y-55219173D02*
X55027805Y-55333459D01*
X55027805Y-55333459D02*
X54999234Y-55390602D01*
X54999234Y-55390602D02*
X54942091Y-55447744D01*
X54942091Y-55447744D02*
X54827805Y-55476316D01*
X54827805Y-55476316D02*
X54627805Y-55476316D01*
X54627805Y-55476316D02*
X54513519Y-55447744D01*
X54513519Y-55447744D02*
X54456376Y-55390602D01*
X54456376Y-55390602D02*
X54427805Y-55333459D01*
X54427805Y-54876316D02*
X54427805Y-54476316D01*
X54427805Y-54476316D02*
X55027805Y-54733459D01*
X55393771Y-55790601D02*
X55393771Y-55419173D01*
X55393771Y-55419173D02*
X55622342Y-55619173D01*
X55622342Y-55619173D02*
X55622342Y-55533458D01*
X55622342Y-55533458D02*
X55650914Y-55476316D01*
X55650914Y-55476316D02*
X55679485Y-55447744D01*
X55679485Y-55447744D02*
X55736628Y-55419173D01*
X55736628Y-55419173D02*
X55879485Y-55419173D01*
X55879485Y-55419173D02*
X55936628Y-55447744D01*
X55936628Y-55447744D02*
X55965200Y-55476316D01*
X55965200Y-55476316D02*
X55993771Y-55533458D01*
X55993771Y-55533458D02*
X55993771Y-55704887D01*
X55993771Y-55704887D02*
X55965200Y-55762030D01*
X55965200Y-55762030D02*
X55936628Y-55790601D01*
X55393771Y-55247744D02*
X55993771Y-55047744D01*
X55993771Y-55047744D02*
X55393771Y-54847744D01*
X55393771Y-54704886D02*
X55393771Y-54333458D01*
X55393771Y-54333458D02*
X55622342Y-54533458D01*
X55622342Y-54533458D02*
X55622342Y-54447743D01*
X55622342Y-54447743D02*
X55650914Y-54390601D01*
X55650914Y-54390601D02*
X55679485Y-54362029D01*
X55679485Y-54362029D02*
X55736628Y-54333458D01*
X55736628Y-54333458D02*
X55879485Y-54333458D01*
X55879485Y-54333458D02*
X55936628Y-54362029D01*
X55936628Y-54362029D02*
X55965200Y-54390601D01*
X55965200Y-54390601D02*
X55993771Y-54447743D01*
X55993771Y-54447743D02*
X55993771Y-54619172D01*
X55993771Y-54619172D02*
X55965200Y-54676315D01*
X55965200Y-54676315D02*
X55936628Y-54704886D01*
X55027805Y-53158458D02*
X54427805Y-53158458D01*
X54427805Y-52758459D02*
X54427805Y-52644173D01*
X54427805Y-52644173D02*
X54456376Y-52587030D01*
X54456376Y-52587030D02*
X54513519Y-52529887D01*
X54513519Y-52529887D02*
X54627805Y-52501316D01*
X54627805Y-52501316D02*
X54827805Y-52501316D01*
X54827805Y-52501316D02*
X54942091Y-52529887D01*
X54942091Y-52529887D02*
X54999234Y-52587030D01*
X54999234Y-52587030D02*
X55027805Y-52644173D01*
X55027805Y-52644173D02*
X55027805Y-52758459D01*
X55027805Y-52758459D02*
X54999234Y-52815602D01*
X54999234Y-52815602D02*
X54942091Y-52872744D01*
X54942091Y-52872744D02*
X54827805Y-52901316D01*
X54827805Y-52901316D02*
X54627805Y-52901316D01*
X54627805Y-52901316D02*
X54513519Y-52872744D01*
X54513519Y-52872744D02*
X54456376Y-52815602D01*
X54456376Y-52815602D02*
X54427805Y-52758459D01*
X55027805Y-52215602D02*
X55027805Y-52101316D01*
X55027805Y-52101316D02*
X54999234Y-52044173D01*
X54999234Y-52044173D02*
X54970662Y-52015602D01*
X54970662Y-52015602D02*
X54884948Y-51958459D01*
X54884948Y-51958459D02*
X54770662Y-51929888D01*
X54770662Y-51929888D02*
X54542091Y-51929888D01*
X54542091Y-51929888D02*
X54484948Y-51958459D01*
X54484948Y-51958459D02*
X54456376Y-51987031D01*
X54456376Y-51987031D02*
X54427805Y-52044173D01*
X54427805Y-52044173D02*
X54427805Y-52158459D01*
X54427805Y-52158459D02*
X54456376Y-52215602D01*
X54456376Y-52215602D02*
X54484948Y-52244173D01*
X54484948Y-52244173D02*
X54542091Y-52272745D01*
X54542091Y-52272745D02*
X54684948Y-52272745D01*
X54684948Y-52272745D02*
X54742091Y-52244173D01*
X54742091Y-52244173D02*
X54770662Y-52215602D01*
X54770662Y-52215602D02*
X54799234Y-52158459D01*
X54799234Y-52158459D02*
X54799234Y-52044173D01*
X54799234Y-52044173D02*
X54770662Y-51987031D01*
X54770662Y-51987031D02*
X54742091Y-51958459D01*
X54742091Y-51958459D02*
X54684948Y-51929888D01*
X55993771Y-53158458D02*
X55393771Y-53158458D01*
X55393771Y-52758459D02*
X55393771Y-52644173D01*
X55393771Y-52644173D02*
X55422342Y-52587030D01*
X55422342Y-52587030D02*
X55479485Y-52529887D01*
X55479485Y-52529887D02*
X55593771Y-52501316D01*
X55593771Y-52501316D02*
X55793771Y-52501316D01*
X55793771Y-52501316D02*
X55908057Y-52529887D01*
X55908057Y-52529887D02*
X55965200Y-52587030D01*
X55965200Y-52587030D02*
X55993771Y-52644173D01*
X55993771Y-52644173D02*
X55993771Y-52758459D01*
X55993771Y-52758459D02*
X55965200Y-52815602D01*
X55965200Y-52815602D02*
X55908057Y-52872744D01*
X55908057Y-52872744D02*
X55793771Y-52901316D01*
X55793771Y-52901316D02*
X55593771Y-52901316D01*
X55593771Y-52901316D02*
X55479485Y-52872744D01*
X55479485Y-52872744D02*
X55422342Y-52815602D01*
X55422342Y-52815602D02*
X55393771Y-52758459D01*
X55650914Y-52158459D02*
X55622342Y-52215602D01*
X55622342Y-52215602D02*
X55593771Y-52244173D01*
X55593771Y-52244173D02*
X55536628Y-52272745D01*
X55536628Y-52272745D02*
X55508057Y-52272745D01*
X55508057Y-52272745D02*
X55450914Y-52244173D01*
X55450914Y-52244173D02*
X55422342Y-52215602D01*
X55422342Y-52215602D02*
X55393771Y-52158459D01*
X55393771Y-52158459D02*
X55393771Y-52044173D01*
X55393771Y-52044173D02*
X55422342Y-51987031D01*
X55422342Y-51987031D02*
X55450914Y-51958459D01*
X55450914Y-51958459D02*
X55508057Y-51929888D01*
X55508057Y-51929888D02*
X55536628Y-51929888D01*
X55536628Y-51929888D02*
X55593771Y-51958459D01*
X55593771Y-51958459D02*
X55622342Y-51987031D01*
X55622342Y-51987031D02*
X55650914Y-52044173D01*
X55650914Y-52044173D02*
X55650914Y-52158459D01*
X55650914Y-52158459D02*
X55679485Y-52215602D01*
X55679485Y-52215602D02*
X55708057Y-52244173D01*
X55708057Y-52244173D02*
X55765200Y-52272745D01*
X55765200Y-52272745D02*
X55879485Y-52272745D01*
X55879485Y-52272745D02*
X55936628Y-52244173D01*
X55936628Y-52244173D02*
X55965200Y-52215602D01*
X55965200Y-52215602D02*
X55993771Y-52158459D01*
X55993771Y-52158459D02*
X55993771Y-52044173D01*
X55993771Y-52044173D02*
X55965200Y-51987031D01*
X55965200Y-51987031D02*
X55936628Y-51958459D01*
X55936628Y-51958459D02*
X55879485Y-51929888D01*
X55879485Y-51929888D02*
X55765200Y-51929888D01*
X55765200Y-51929888D02*
X55708057Y-51958459D01*
X55708057Y-51958459D02*
X55679485Y-51987031D01*
X55679485Y-51987031D02*
X55650914Y-52044173D01*
D11*
X55272882Y-69192979D02*
X55234786Y-69231075D01*
X55234786Y-69231075D02*
X55120501Y-69269170D01*
X55120501Y-69269170D02*
X55044310Y-69269170D01*
X55044310Y-69269170D02*
X54930024Y-69231075D01*
X54930024Y-69231075D02*
X54853834Y-69154884D01*
X54853834Y-69154884D02*
X54815739Y-69078694D01*
X54815739Y-69078694D02*
X54777643Y-68926313D01*
X54777643Y-68926313D02*
X54777643Y-68812027D01*
X54777643Y-68812027D02*
X54815739Y-68659646D01*
X54815739Y-68659646D02*
X54853834Y-68583455D01*
X54853834Y-68583455D02*
X54930024Y-68507265D01*
X54930024Y-68507265D02*
X55044310Y-68469170D01*
X55044310Y-68469170D02*
X55120501Y-68469170D01*
X55120501Y-68469170D02*
X55234786Y-68507265D01*
X55234786Y-68507265D02*
X55272882Y-68545360D01*
X55615739Y-69269170D02*
X55615739Y-68469170D01*
X55615739Y-68850122D02*
X56072882Y-68850122D01*
X56072882Y-69269170D02*
X56072882Y-68469170D01*
X56606215Y-68469170D02*
X56682405Y-68469170D01*
X56682405Y-68469170D02*
X56758596Y-68507265D01*
X56758596Y-68507265D02*
X56796691Y-68545360D01*
X56796691Y-68545360D02*
X56834786Y-68621551D01*
X56834786Y-68621551D02*
X56872881Y-68773932D01*
X56872881Y-68773932D02*
X56872881Y-68964408D01*
X56872881Y-68964408D02*
X56834786Y-69116789D01*
X56834786Y-69116789D02*
X56796691Y-69192979D01*
X56796691Y-69192979D02*
X56758596Y-69231075D01*
X56758596Y-69231075D02*
X56682405Y-69269170D01*
X56682405Y-69269170D02*
X56606215Y-69269170D01*
X56606215Y-69269170D02*
X56530024Y-69231075D01*
X56530024Y-69231075D02*
X56491929Y-69192979D01*
X56491929Y-69192979D02*
X56453834Y-69116789D01*
X56453834Y-69116789D02*
X56415738Y-68964408D01*
X56415738Y-68964408D02*
X56415738Y-68773932D01*
X56415738Y-68773932D02*
X56453834Y-68621551D01*
X56453834Y-68621551D02*
X56491929Y-68545360D01*
X56491929Y-68545360D02*
X56530024Y-68507265D01*
X56530024Y-68507265D02*
X56606215Y-68469170D01*
D12*
X50316700Y-78862071D02*
X50116700Y-78576357D01*
X49973843Y-78862071D02*
X49973843Y-78262071D01*
X49973843Y-78262071D02*
X50202414Y-78262071D01*
X50202414Y-78262071D02*
X50259557Y-78290642D01*
X50259557Y-78290642D02*
X50288128Y-78319214D01*
X50288128Y-78319214D02*
X50316700Y-78376357D01*
X50316700Y-78376357D02*
X50316700Y-78462071D01*
X50316700Y-78462071D02*
X50288128Y-78519214D01*
X50288128Y-78519214D02*
X50259557Y-78547785D01*
X50259557Y-78547785D02*
X50202414Y-78576357D01*
X50202414Y-78576357D02*
X49973843Y-78576357D01*
X50802414Y-78833500D02*
X50745271Y-78862071D01*
X50745271Y-78862071D02*
X50630986Y-78862071D01*
X50630986Y-78862071D02*
X50573843Y-78833500D01*
X50573843Y-78833500D02*
X50545271Y-78776357D01*
X50545271Y-78776357D02*
X50545271Y-78547785D01*
X50545271Y-78547785D02*
X50573843Y-78490642D01*
X50573843Y-78490642D02*
X50630986Y-78462071D01*
X50630986Y-78462071D02*
X50745271Y-78462071D01*
X50745271Y-78462071D02*
X50802414Y-78490642D01*
X50802414Y-78490642D02*
X50830986Y-78547785D01*
X50830986Y-78547785D02*
X50830986Y-78604928D01*
X50830986Y-78604928D02*
X50545271Y-78662071D01*
X51088129Y-78862071D02*
X51088129Y-78462071D01*
X51088129Y-78519214D02*
X51116700Y-78490642D01*
X51116700Y-78490642D02*
X51173843Y-78462071D01*
X51173843Y-78462071D02*
X51259557Y-78462071D01*
X51259557Y-78462071D02*
X51316700Y-78490642D01*
X51316700Y-78490642D02*
X51345272Y-78547785D01*
X51345272Y-78547785D02*
X51345272Y-78862071D01*
X51345272Y-78547785D02*
X51373843Y-78490642D01*
X51373843Y-78490642D02*
X51430986Y-78462071D01*
X51430986Y-78462071D02*
X51516700Y-78462071D01*
X51516700Y-78462071D02*
X51573843Y-78490642D01*
X51573843Y-78490642D02*
X51602414Y-78547785D01*
X51602414Y-78547785D02*
X51602414Y-78862071D01*
X51973843Y-78862071D02*
X51916700Y-78833500D01*
X51916700Y-78833500D02*
X51888129Y-78804928D01*
X51888129Y-78804928D02*
X51859557Y-78747785D01*
X51859557Y-78747785D02*
X51859557Y-78576357D01*
X51859557Y-78576357D02*
X51888129Y-78519214D01*
X51888129Y-78519214D02*
X51916700Y-78490642D01*
X51916700Y-78490642D02*
X51973843Y-78462071D01*
X51973843Y-78462071D02*
X52059557Y-78462071D01*
X52059557Y-78462071D02*
X52116700Y-78490642D01*
X52116700Y-78490642D02*
X52145272Y-78519214D01*
X52145272Y-78519214D02*
X52173843Y-78576357D01*
X52173843Y-78576357D02*
X52173843Y-78747785D01*
X52173843Y-78747785D02*
X52145272Y-78804928D01*
X52145272Y-78804928D02*
X52116700Y-78833500D01*
X52116700Y-78833500D02*
X52059557Y-78862071D01*
X52059557Y-78862071D02*
X51973843Y-78862071D01*
X52373843Y-78462071D02*
X52516700Y-78862071D01*
X52516700Y-78862071D02*
X52659557Y-78462071D01*
X53116700Y-78833500D02*
X53059557Y-78862071D01*
X53059557Y-78862071D02*
X52945272Y-78862071D01*
X52945272Y-78862071D02*
X52888129Y-78833500D01*
X52888129Y-78833500D02*
X52859557Y-78776357D01*
X52859557Y-78776357D02*
X52859557Y-78547785D01*
X52859557Y-78547785D02*
X52888129Y-78490642D01*
X52888129Y-78490642D02*
X52945272Y-78462071D01*
X52945272Y-78462071D02*
X53059557Y-78462071D01*
X53059557Y-78462071D02*
X53116700Y-78490642D01*
X53116700Y-78490642D02*
X53145272Y-78547785D01*
X53145272Y-78547785D02*
X53145272Y-78604928D01*
X53145272Y-78604928D02*
X52859557Y-78662071D01*
X49888128Y-79428037D02*
X50116700Y-79428037D01*
X49973843Y-79828037D02*
X49973843Y-79313751D01*
X49973843Y-79313751D02*
X50002414Y-79256608D01*
X50002414Y-79256608D02*
X50059557Y-79228037D01*
X50059557Y-79228037D02*
X50116700Y-79228037D01*
X50402414Y-79828037D02*
X50345271Y-79799466D01*
X50345271Y-79799466D02*
X50316700Y-79770894D01*
X50316700Y-79770894D02*
X50288128Y-79713751D01*
X50288128Y-79713751D02*
X50288128Y-79542323D01*
X50288128Y-79542323D02*
X50316700Y-79485180D01*
X50316700Y-79485180D02*
X50345271Y-79456608D01*
X50345271Y-79456608D02*
X50402414Y-79428037D01*
X50402414Y-79428037D02*
X50488128Y-79428037D01*
X50488128Y-79428037D02*
X50545271Y-79456608D01*
X50545271Y-79456608D02*
X50573843Y-79485180D01*
X50573843Y-79485180D02*
X50602414Y-79542323D01*
X50602414Y-79542323D02*
X50602414Y-79713751D01*
X50602414Y-79713751D02*
X50573843Y-79770894D01*
X50573843Y-79770894D02*
X50545271Y-79799466D01*
X50545271Y-79799466D02*
X50488128Y-79828037D01*
X50488128Y-79828037D02*
X50402414Y-79828037D01*
X50859557Y-79828037D02*
X50859557Y-79428037D01*
X50859557Y-79542323D02*
X50888128Y-79485180D01*
X50888128Y-79485180D02*
X50916700Y-79456608D01*
X50916700Y-79456608D02*
X50973842Y-79428037D01*
X50973842Y-79428037D02*
X51030985Y-79428037D01*
X51688129Y-79828037D02*
X51688129Y-79228037D01*
X51688129Y-79513751D02*
X52030986Y-79513751D01*
X52030986Y-79828037D02*
X52030986Y-79228037D01*
X52230985Y-79228037D02*
X52430985Y-79828037D01*
X52430985Y-79828037D02*
X52630985Y-79228037D01*
X39252190Y-46371428D02*
X39276000Y-46395237D01*
X39276000Y-46395237D02*
X39299809Y-46466666D01*
X39299809Y-46466666D02*
X39299809Y-46514285D01*
X39299809Y-46514285D02*
X39276000Y-46585713D01*
X39276000Y-46585713D02*
X39228380Y-46633332D01*
X39228380Y-46633332D02*
X39180761Y-46657142D01*
X39180761Y-46657142D02*
X39085523Y-46680951D01*
X39085523Y-46680951D02*
X39014095Y-46680951D01*
X39014095Y-46680951D02*
X38918857Y-46657142D01*
X38918857Y-46657142D02*
X38871238Y-46633332D01*
X38871238Y-46633332D02*
X38823619Y-46585713D01*
X38823619Y-46585713D02*
X38799809Y-46514285D01*
X38799809Y-46514285D02*
X38799809Y-46466666D01*
X38799809Y-46466666D02*
X38823619Y-46395237D01*
X38823619Y-46395237D02*
X38847428Y-46371428D01*
X38847428Y-46180951D02*
X38823619Y-46157142D01*
X38823619Y-46157142D02*
X38799809Y-46109523D01*
X38799809Y-46109523D02*
X38799809Y-45990475D01*
X38799809Y-45990475D02*
X38823619Y-45942856D01*
X38823619Y-45942856D02*
X38847428Y-45919047D01*
X38847428Y-45919047D02*
X38895047Y-45895237D01*
X38895047Y-45895237D02*
X38942666Y-45895237D01*
X38942666Y-45895237D02*
X39014095Y-45919047D01*
X39014095Y-45919047D02*
X39299809Y-46204761D01*
X39299809Y-46204761D02*
X39299809Y-45895237D01*
X39299809Y-45419047D02*
X39299809Y-45704761D01*
X39299809Y-45561904D02*
X38799809Y-45561904D01*
X38799809Y-45561904D02*
X38871238Y-45609523D01*
X38871238Y-45609523D02*
X38918857Y-45657142D01*
X38918857Y-45657142D02*
X38942666Y-45704761D01*
X45771190Y-70374809D02*
X45604524Y-70136714D01*
X45485476Y-70374809D02*
X45485476Y-69874809D01*
X45485476Y-69874809D02*
X45675952Y-69874809D01*
X45675952Y-69874809D02*
X45723571Y-69898619D01*
X45723571Y-69898619D02*
X45747381Y-69922428D01*
X45747381Y-69922428D02*
X45771190Y-69970047D01*
X45771190Y-69970047D02*
X45771190Y-70041476D01*
X45771190Y-70041476D02*
X45747381Y-70089095D01*
X45747381Y-70089095D02*
X45723571Y-70112904D01*
X45723571Y-70112904D02*
X45675952Y-70136714D01*
X45675952Y-70136714D02*
X45485476Y-70136714D01*
X45937857Y-69874809D02*
X46271190Y-70374809D01*
X46271190Y-69874809D02*
X45937857Y-70374809D01*
X46390238Y-69874809D02*
X46675952Y-69874809D01*
X46533095Y-70374809D02*
X46533095Y-69874809D01*
X46842618Y-70374809D02*
X46842618Y-69874809D01*
X46842618Y-69874809D02*
X47033094Y-69874809D01*
X47033094Y-69874809D02*
X47080713Y-69898619D01*
X47080713Y-69898619D02*
X47104523Y-69922428D01*
X47104523Y-69922428D02*
X47128332Y-69970047D01*
X47128332Y-69970047D02*
X47128332Y-70041476D01*
X47128332Y-70041476D02*
X47104523Y-70089095D01*
X47104523Y-70089095D02*
X47080713Y-70112904D01*
X47080713Y-70112904D02*
X47033094Y-70136714D01*
X47033094Y-70136714D02*
X46842618Y-70136714D01*
D10*
X45517143Y-77249771D02*
X45517143Y-76649771D01*
X45517143Y-76649771D02*
X45660000Y-76649771D01*
X45660000Y-76649771D02*
X45745714Y-76678342D01*
X45745714Y-76678342D02*
X45802857Y-76735485D01*
X45802857Y-76735485D02*
X45831428Y-76792628D01*
X45831428Y-76792628D02*
X45860000Y-76906914D01*
X45860000Y-76906914D02*
X45860000Y-76992628D01*
X45860000Y-76992628D02*
X45831428Y-77106914D01*
X45831428Y-77106914D02*
X45802857Y-77164057D01*
X45802857Y-77164057D02*
X45745714Y-77221200D01*
X45745714Y-77221200D02*
X45660000Y-77249771D01*
X45660000Y-77249771D02*
X45517143Y-77249771D01*
X46117143Y-76935485D02*
X46317143Y-76935485D01*
X46402857Y-77249771D02*
X46117143Y-77249771D01*
X46117143Y-77249771D02*
X46117143Y-76649771D01*
X46117143Y-76649771D02*
X46402857Y-76649771D01*
X46660000Y-77249771D02*
X46660000Y-76649771D01*
X46660000Y-76649771D02*
X46888571Y-76649771D01*
X46888571Y-76649771D02*
X46945714Y-76678342D01*
X46945714Y-76678342D02*
X46974285Y-76706914D01*
X46974285Y-76706914D02*
X47002857Y-76764057D01*
X47002857Y-76764057D02*
X47002857Y-76849771D01*
X47002857Y-76849771D02*
X46974285Y-76906914D01*
X46974285Y-76906914D02*
X46945714Y-76935485D01*
X46945714Y-76935485D02*
X46888571Y-76964057D01*
X46888571Y-76964057D02*
X46660000Y-76964057D01*
X47545714Y-77249771D02*
X47260000Y-77249771D01*
X47260000Y-77249771D02*
X47260000Y-76649771D01*
X47859999Y-76649771D02*
X47974285Y-76649771D01*
X47974285Y-76649771D02*
X48031428Y-76678342D01*
X48031428Y-76678342D02*
X48088571Y-76735485D01*
X48088571Y-76735485D02*
X48117142Y-76849771D01*
X48117142Y-76849771D02*
X48117142Y-77049771D01*
X48117142Y-77049771D02*
X48088571Y-77164057D01*
X48088571Y-77164057D02*
X48031428Y-77221200D01*
X48031428Y-77221200D02*
X47974285Y-77249771D01*
X47974285Y-77249771D02*
X47859999Y-77249771D01*
X47859999Y-77249771D02*
X47802857Y-77221200D01*
X47802857Y-77221200D02*
X47745714Y-77164057D01*
X47745714Y-77164057D02*
X47717142Y-77049771D01*
X47717142Y-77049771D02*
X47717142Y-76849771D01*
X47717142Y-76849771D02*
X47745714Y-76735485D01*
X47745714Y-76735485D02*
X47802857Y-76678342D01*
X47802857Y-76678342D02*
X47859999Y-76649771D01*
X48488570Y-76964057D02*
X48488570Y-77249771D01*
X48288570Y-76649771D02*
X48488570Y-76964057D01*
X48488570Y-76964057D02*
X48688570Y-76649771D01*
X46018572Y-78289771D02*
X46018572Y-77689771D01*
X46018572Y-77689771D02*
X46247143Y-77689771D01*
X46247143Y-77689771D02*
X46304286Y-77718342D01*
X46304286Y-77718342D02*
X46332857Y-77746914D01*
X46332857Y-77746914D02*
X46361429Y-77804057D01*
X46361429Y-77804057D02*
X46361429Y-77889771D01*
X46361429Y-77889771D02*
X46332857Y-77946914D01*
X46332857Y-77946914D02*
X46304286Y-77975485D01*
X46304286Y-77975485D02*
X46247143Y-78004057D01*
X46247143Y-78004057D02*
X46018572Y-78004057D01*
X46561429Y-77689771D02*
X46704286Y-78289771D01*
X46704286Y-78289771D02*
X46818572Y-77861200D01*
X46818572Y-77861200D02*
X46932857Y-78289771D01*
X46932857Y-78289771D02*
X47075715Y-77689771D01*
X47647143Y-78289771D02*
X47447143Y-78004057D01*
X47304286Y-78289771D02*
X47304286Y-77689771D01*
X47304286Y-77689771D02*
X47532857Y-77689771D01*
X47532857Y-77689771D02*
X47590000Y-77718342D01*
X47590000Y-77718342D02*
X47618571Y-77746914D01*
X47618571Y-77746914D02*
X47647143Y-77804057D01*
X47647143Y-77804057D02*
X47647143Y-77889771D01*
X47647143Y-77889771D02*
X47618571Y-77946914D01*
X47618571Y-77946914D02*
X47590000Y-77975485D01*
X47590000Y-77975485D02*
X47532857Y-78004057D01*
X47532857Y-78004057D02*
X47304286Y-78004057D01*
X47925000Y-67169771D02*
X47725000Y-66884057D01*
X47582143Y-67169771D02*
X47582143Y-66569771D01*
X47582143Y-66569771D02*
X47810714Y-66569771D01*
X47810714Y-66569771D02*
X47867857Y-66598342D01*
X47867857Y-66598342D02*
X47896428Y-66626914D01*
X47896428Y-66626914D02*
X47925000Y-66684057D01*
X47925000Y-66684057D02*
X47925000Y-66769771D01*
X47925000Y-66769771D02*
X47896428Y-66826914D01*
X47896428Y-66826914D02*
X47867857Y-66855485D01*
X47867857Y-66855485D02*
X47810714Y-66884057D01*
X47810714Y-66884057D02*
X47582143Y-66884057D01*
X48439286Y-66569771D02*
X48325000Y-66569771D01*
X48325000Y-66569771D02*
X48267857Y-66598342D01*
X48267857Y-66598342D02*
X48239286Y-66626914D01*
X48239286Y-66626914D02*
X48182143Y-66712628D01*
X48182143Y-66712628D02*
X48153571Y-66826914D01*
X48153571Y-66826914D02*
X48153571Y-67055485D01*
X48153571Y-67055485D02*
X48182143Y-67112628D01*
X48182143Y-67112628D02*
X48210714Y-67141200D01*
X48210714Y-67141200D02*
X48267857Y-67169771D01*
X48267857Y-67169771D02*
X48382143Y-67169771D01*
X48382143Y-67169771D02*
X48439286Y-67141200D01*
X48439286Y-67141200D02*
X48467857Y-67112628D01*
X48467857Y-67112628D02*
X48496428Y-67055485D01*
X48496428Y-67055485D02*
X48496428Y-66912628D01*
X48496428Y-66912628D02*
X48467857Y-66855485D01*
X48467857Y-66855485D02*
X48439286Y-66826914D01*
X48439286Y-66826914D02*
X48382143Y-66798342D01*
X48382143Y-66798342D02*
X48267857Y-66798342D01*
X48267857Y-66798342D02*
X48210714Y-66826914D01*
X48210714Y-66826914D02*
X48182143Y-66855485D01*
X48182143Y-66855485D02*
X48153571Y-66912628D01*
X50210000Y-72989771D02*
X50010000Y-72704057D01*
X49867143Y-72989771D02*
X49867143Y-72389771D01*
X49867143Y-72389771D02*
X50095714Y-72389771D01*
X50095714Y-72389771D02*
X50152857Y-72418342D01*
X50152857Y-72418342D02*
X50181428Y-72446914D01*
X50181428Y-72446914D02*
X50210000Y-72504057D01*
X50210000Y-72504057D02*
X50210000Y-72589771D01*
X50210000Y-72589771D02*
X50181428Y-72646914D01*
X50181428Y-72646914D02*
X50152857Y-72675485D01*
X50152857Y-72675485D02*
X50095714Y-72704057D01*
X50095714Y-72704057D02*
X49867143Y-72704057D01*
X50438571Y-72446914D02*
X50467143Y-72418342D01*
X50467143Y-72418342D02*
X50524286Y-72389771D01*
X50524286Y-72389771D02*
X50667143Y-72389771D01*
X50667143Y-72389771D02*
X50724286Y-72418342D01*
X50724286Y-72418342D02*
X50752857Y-72446914D01*
X50752857Y-72446914D02*
X50781428Y-72504057D01*
X50781428Y-72504057D02*
X50781428Y-72561200D01*
X50781428Y-72561200D02*
X50752857Y-72646914D01*
X50752857Y-72646914D02*
X50410000Y-72989771D01*
X50410000Y-72989771D02*
X50781428Y-72989771D01*
D12*
X32924809Y-49371428D02*
X32686714Y-49538094D01*
X32924809Y-49657142D02*
X32424809Y-49657142D01*
X32424809Y-49657142D02*
X32424809Y-49466666D01*
X32424809Y-49466666D02*
X32448619Y-49419047D01*
X32448619Y-49419047D02*
X32472428Y-49395237D01*
X32472428Y-49395237D02*
X32520047Y-49371428D01*
X32520047Y-49371428D02*
X32591476Y-49371428D01*
X32591476Y-49371428D02*
X32639095Y-49395237D01*
X32639095Y-49395237D02*
X32662904Y-49419047D01*
X32662904Y-49419047D02*
X32686714Y-49466666D01*
X32686714Y-49466666D02*
X32686714Y-49657142D01*
X32924809Y-48895237D02*
X32924809Y-49180951D01*
X32924809Y-49038094D02*
X32424809Y-49038094D01*
X32424809Y-49038094D02*
X32496238Y-49085713D01*
X32496238Y-49085713D02*
X32543857Y-49133332D01*
X32543857Y-49133332D02*
X32567666Y-49180951D01*
X32424809Y-48728571D02*
X32424809Y-48395238D01*
X32424809Y-48395238D02*
X32924809Y-48609523D01*
D10*
X51369771Y-55192856D02*
X50769771Y-55192856D01*
X50769771Y-55192856D02*
X50769771Y-55049999D01*
X50769771Y-55049999D02*
X50798342Y-54964285D01*
X50798342Y-54964285D02*
X50855485Y-54907142D01*
X50855485Y-54907142D02*
X50912628Y-54878571D01*
X50912628Y-54878571D02*
X51026914Y-54849999D01*
X51026914Y-54849999D02*
X51112628Y-54849999D01*
X51112628Y-54849999D02*
X51226914Y-54878571D01*
X51226914Y-54878571D02*
X51284057Y-54907142D01*
X51284057Y-54907142D02*
X51341200Y-54964285D01*
X51341200Y-54964285D02*
X51369771Y-55049999D01*
X51369771Y-55049999D02*
X51369771Y-55192856D01*
X50826914Y-54621428D02*
X50798342Y-54592856D01*
X50798342Y-54592856D02*
X50769771Y-54535714D01*
X50769771Y-54535714D02*
X50769771Y-54392856D01*
X50769771Y-54392856D02*
X50798342Y-54335714D01*
X50798342Y-54335714D02*
X50826914Y-54307142D01*
X50826914Y-54307142D02*
X50884057Y-54278571D01*
X50884057Y-54278571D02*
X50941200Y-54278571D01*
X50941200Y-54278571D02*
X51026914Y-54307142D01*
X51026914Y-54307142D02*
X51369771Y-54649999D01*
X51369771Y-54649999D02*
X51369771Y-54278571D01*
D12*
X42313286Y-55525309D02*
X42599000Y-55525309D01*
X42456143Y-56025309D02*
X42456143Y-55525309D01*
X42956142Y-56001500D02*
X42908523Y-56025309D01*
X42908523Y-56025309D02*
X42813285Y-56025309D01*
X42813285Y-56025309D02*
X42765666Y-56001500D01*
X42765666Y-56001500D02*
X42741857Y-55953880D01*
X42741857Y-55953880D02*
X42741857Y-55763404D01*
X42741857Y-55763404D02*
X42765666Y-55715785D01*
X42765666Y-55715785D02*
X42813285Y-55691976D01*
X42813285Y-55691976D02*
X42908523Y-55691976D01*
X42908523Y-55691976D02*
X42956142Y-55715785D01*
X42956142Y-55715785D02*
X42979952Y-55763404D01*
X42979952Y-55763404D02*
X42979952Y-55811023D01*
X42979952Y-55811023D02*
X42741857Y-55858642D01*
X43194237Y-56025309D02*
X43194237Y-55691976D01*
X43194237Y-55787214D02*
X43218047Y-55739595D01*
X43218047Y-55739595D02*
X43241856Y-55715785D01*
X43241856Y-55715785D02*
X43289475Y-55691976D01*
X43289475Y-55691976D02*
X43337094Y-55691976D01*
X43503761Y-56025309D02*
X43503761Y-55691976D01*
X43503761Y-55739595D02*
X43527571Y-55715785D01*
X43527571Y-55715785D02*
X43575190Y-55691976D01*
X43575190Y-55691976D02*
X43646618Y-55691976D01*
X43646618Y-55691976D02*
X43694237Y-55715785D01*
X43694237Y-55715785D02*
X43718047Y-55763404D01*
X43718047Y-55763404D02*
X43718047Y-56025309D01*
X43718047Y-55763404D02*
X43741856Y-55715785D01*
X43741856Y-55715785D02*
X43789475Y-55691976D01*
X43789475Y-55691976D02*
X43860904Y-55691976D01*
X43860904Y-55691976D02*
X43908523Y-55715785D01*
X43908523Y-55715785D02*
X43932333Y-55763404D01*
X43932333Y-55763404D02*
X43932333Y-56025309D01*
X44313285Y-55525309D02*
X44313285Y-55882452D01*
X44313285Y-55882452D02*
X44289476Y-55953880D01*
X44289476Y-55953880D02*
X44241857Y-56001500D01*
X44241857Y-56001500D02*
X44170428Y-56025309D01*
X44170428Y-56025309D02*
X44122809Y-56025309D01*
X44551380Y-56025309D02*
X44551380Y-55525309D01*
X44551380Y-55525309D02*
X44741856Y-55525309D01*
X44741856Y-55525309D02*
X44789475Y-55549119D01*
X44789475Y-55549119D02*
X44813285Y-55572928D01*
X44813285Y-55572928D02*
X44837094Y-55620547D01*
X44837094Y-55620547D02*
X44837094Y-55691976D01*
X44837094Y-55691976D02*
X44813285Y-55739595D01*
X44813285Y-55739595D02*
X44789475Y-55763404D01*
X44789475Y-55763404D02*
X44741856Y-55787214D01*
X44741856Y-55787214D02*
X44551380Y-55787214D01*
D10*
X47942856Y-72159771D02*
X48285714Y-72159771D01*
X48114285Y-72759771D02*
X48114285Y-72159771D01*
X48428571Y-72159771D02*
X48828571Y-72759771D01*
X48828571Y-72159771D02*
X48428571Y-72759771D01*
D11*
X52398809Y-76788360D02*
X52322619Y-76750265D01*
X52322619Y-76750265D02*
X52246428Y-76674075D01*
X52246428Y-76674075D02*
X52132142Y-76559789D01*
X52132142Y-76559789D02*
X52055952Y-76521694D01*
X52055952Y-76521694D02*
X51979761Y-76521694D01*
X52017857Y-76712170D02*
X51941666Y-76674075D01*
X51941666Y-76674075D02*
X51865476Y-76597884D01*
X51865476Y-76597884D02*
X51827380Y-76445503D01*
X51827380Y-76445503D02*
X51827380Y-76178836D01*
X51827380Y-76178836D02*
X51865476Y-76026455D01*
X51865476Y-76026455D02*
X51941666Y-75950265D01*
X51941666Y-75950265D02*
X52017857Y-75912170D01*
X52017857Y-75912170D02*
X52170238Y-75912170D01*
X52170238Y-75912170D02*
X52246428Y-75950265D01*
X52246428Y-75950265D02*
X52322619Y-76026455D01*
X52322619Y-76026455D02*
X52360714Y-76178836D01*
X52360714Y-76178836D02*
X52360714Y-76445503D01*
X52360714Y-76445503D02*
X52322619Y-76597884D01*
X52322619Y-76597884D02*
X52246428Y-76674075D01*
X52246428Y-76674075D02*
X52170238Y-76712170D01*
X52170238Y-76712170D02*
X52017857Y-76712170D01*
X53122618Y-76712170D02*
X52665475Y-76712170D01*
X52894047Y-76712170D02*
X52894047Y-75912170D01*
X52894047Y-75912170D02*
X52817856Y-76026455D01*
X52817856Y-76026455D02*
X52741666Y-76102646D01*
X52741666Y-76102646D02*
X52665475Y-76140741D01*
X38487170Y-58708332D02*
X38106217Y-58974999D01*
X38487170Y-59165475D02*
X37687170Y-59165475D01*
X37687170Y-59165475D02*
X37687170Y-58860713D01*
X37687170Y-58860713D02*
X37725265Y-58784523D01*
X37725265Y-58784523D02*
X37763360Y-58746428D01*
X37763360Y-58746428D02*
X37839551Y-58708332D01*
X37839551Y-58708332D02*
X37953836Y-58708332D01*
X37953836Y-58708332D02*
X38030027Y-58746428D01*
X38030027Y-58746428D02*
X38068122Y-58784523D01*
X38068122Y-58784523D02*
X38106217Y-58860713D01*
X38106217Y-58860713D02*
X38106217Y-59165475D01*
X38030027Y-58251190D02*
X37991932Y-58327380D01*
X37991932Y-58327380D02*
X37953836Y-58365475D01*
X37953836Y-58365475D02*
X37877646Y-58403571D01*
X37877646Y-58403571D02*
X37839551Y-58403571D01*
X37839551Y-58403571D02*
X37763360Y-58365475D01*
X37763360Y-58365475D02*
X37725265Y-58327380D01*
X37725265Y-58327380D02*
X37687170Y-58251190D01*
X37687170Y-58251190D02*
X37687170Y-58098809D01*
X37687170Y-58098809D02*
X37725265Y-58022618D01*
X37725265Y-58022618D02*
X37763360Y-57984523D01*
X37763360Y-57984523D02*
X37839551Y-57946428D01*
X37839551Y-57946428D02*
X37877646Y-57946428D01*
X37877646Y-57946428D02*
X37953836Y-57984523D01*
X37953836Y-57984523D02*
X37991932Y-58022618D01*
X37991932Y-58022618D02*
X38030027Y-58098809D01*
X38030027Y-58098809D02*
X38030027Y-58251190D01*
X38030027Y-58251190D02*
X38068122Y-58327380D01*
X38068122Y-58327380D02*
X38106217Y-58365475D01*
X38106217Y-58365475D02*
X38182408Y-58403571D01*
X38182408Y-58403571D02*
X38334789Y-58403571D01*
X38334789Y-58403571D02*
X38410979Y-58365475D01*
X38410979Y-58365475D02*
X38449075Y-58327380D01*
X38449075Y-58327380D02*
X38487170Y-58251190D01*
X38487170Y-58251190D02*
X38487170Y-58098809D01*
X38487170Y-58098809D02*
X38449075Y-58022618D01*
X38449075Y-58022618D02*
X38410979Y-57984523D01*
X38410979Y-57984523D02*
X38334789Y-57946428D01*
X38334789Y-57946428D02*
X38182408Y-57946428D01*
X38182408Y-57946428D02*
X38106217Y-57984523D01*
X38106217Y-57984523D02*
X38068122Y-58022618D01*
X38068122Y-58022618D02*
X38030027Y-58098809D01*
D10*
X58705485Y-68221427D02*
X58705485Y-68021427D01*
X59019771Y-67935713D02*
X59019771Y-68221427D01*
X59019771Y-68221427D02*
X58419771Y-68221427D01*
X58419771Y-68221427D02*
X58419771Y-67935713D01*
X59019771Y-67678570D02*
X58419771Y-67678570D01*
X58419771Y-67678570D02*
X59019771Y-67335713D01*
X59019771Y-67335713D02*
X58419771Y-67335713D01*
X58419771Y-66878571D02*
X58848342Y-66878571D01*
X58848342Y-66878571D02*
X58934057Y-66907142D01*
X58934057Y-66907142D02*
X58991200Y-66964285D01*
X58991200Y-66964285D02*
X59019771Y-67049999D01*
X59019771Y-67049999D02*
X59019771Y-67107142D01*
X59019771Y-66592856D02*
X58419771Y-66592856D01*
X58419771Y-66592856D02*
X58419771Y-66364285D01*
X58419771Y-66364285D02*
X58448342Y-66307142D01*
X58448342Y-66307142D02*
X58476914Y-66278571D01*
X58476914Y-66278571D02*
X58534057Y-66249999D01*
X58534057Y-66249999D02*
X58619771Y-66249999D01*
X58619771Y-66249999D02*
X58676914Y-66278571D01*
X58676914Y-66278571D02*
X58705485Y-66307142D01*
X58705485Y-66307142D02*
X58734057Y-66364285D01*
X58734057Y-66364285D02*
X58734057Y-66592856D01*
X38166143Y-52430485D02*
X38251857Y-52459057D01*
X38251857Y-52459057D02*
X38280428Y-52487628D01*
X38280428Y-52487628D02*
X38309000Y-52544771D01*
X38309000Y-52544771D02*
X38309000Y-52630485D01*
X38309000Y-52630485D02*
X38280428Y-52687628D01*
X38280428Y-52687628D02*
X38251857Y-52716200D01*
X38251857Y-52716200D02*
X38194714Y-52744771D01*
X38194714Y-52744771D02*
X37966143Y-52744771D01*
X37966143Y-52744771D02*
X37966143Y-52144771D01*
X37966143Y-52144771D02*
X38166143Y-52144771D01*
X38166143Y-52144771D02*
X38223286Y-52173342D01*
X38223286Y-52173342D02*
X38251857Y-52201914D01*
X38251857Y-52201914D02*
X38280428Y-52259057D01*
X38280428Y-52259057D02*
X38280428Y-52316200D01*
X38280428Y-52316200D02*
X38251857Y-52373342D01*
X38251857Y-52373342D02*
X38223286Y-52401914D01*
X38223286Y-52401914D02*
X38166143Y-52430485D01*
X38166143Y-52430485D02*
X37966143Y-52430485D01*
X38766143Y-52430485D02*
X38851857Y-52459057D01*
X38851857Y-52459057D02*
X38880428Y-52487628D01*
X38880428Y-52487628D02*
X38909000Y-52544771D01*
X38909000Y-52544771D02*
X38909000Y-52630485D01*
X38909000Y-52630485D02*
X38880428Y-52687628D01*
X38880428Y-52687628D02*
X38851857Y-52716200D01*
X38851857Y-52716200D02*
X38794714Y-52744771D01*
X38794714Y-52744771D02*
X38566143Y-52744771D01*
X38566143Y-52744771D02*
X38566143Y-52144771D01*
X38566143Y-52144771D02*
X38766143Y-52144771D01*
X38766143Y-52144771D02*
X38823286Y-52173342D01*
X38823286Y-52173342D02*
X38851857Y-52201914D01*
X38851857Y-52201914D02*
X38880428Y-52259057D01*
X38880428Y-52259057D02*
X38880428Y-52316200D01*
X38880428Y-52316200D02*
X38851857Y-52373342D01*
X38851857Y-52373342D02*
X38823286Y-52401914D01*
X38823286Y-52401914D02*
X38766143Y-52430485D01*
X38766143Y-52430485D02*
X38566143Y-52430485D01*
X39280428Y-52144771D02*
X39394714Y-52144771D01*
X39394714Y-52144771D02*
X39451857Y-52173342D01*
X39451857Y-52173342D02*
X39509000Y-52230485D01*
X39509000Y-52230485D02*
X39537571Y-52344771D01*
X39537571Y-52344771D02*
X39537571Y-52544771D01*
X39537571Y-52544771D02*
X39509000Y-52659057D01*
X39509000Y-52659057D02*
X39451857Y-52716200D01*
X39451857Y-52716200D02*
X39394714Y-52744771D01*
X39394714Y-52744771D02*
X39280428Y-52744771D01*
X39280428Y-52744771D02*
X39223286Y-52716200D01*
X39223286Y-52716200D02*
X39166143Y-52659057D01*
X39166143Y-52659057D02*
X39137571Y-52544771D01*
X39137571Y-52544771D02*
X39137571Y-52344771D01*
X39137571Y-52344771D02*
X39166143Y-52230485D01*
X39166143Y-52230485D02*
X39223286Y-52173342D01*
X39223286Y-52173342D02*
X39280428Y-52144771D01*
X39794714Y-52144771D02*
X39794714Y-52630485D01*
X39794714Y-52630485D02*
X39823285Y-52687628D01*
X39823285Y-52687628D02*
X39851857Y-52716200D01*
X39851857Y-52716200D02*
X39908999Y-52744771D01*
X39908999Y-52744771D02*
X40023285Y-52744771D01*
X40023285Y-52744771D02*
X40080428Y-52716200D01*
X40080428Y-52716200D02*
X40108999Y-52687628D01*
X40108999Y-52687628D02*
X40137571Y-52630485D01*
X40137571Y-52630485D02*
X40137571Y-52144771D01*
X40337570Y-52144771D02*
X40680428Y-52144771D01*
X40508999Y-52744771D02*
X40508999Y-52144771D01*
X40794713Y-52144771D02*
X41137571Y-52144771D01*
X40966142Y-52744771D02*
X40966142Y-52144771D01*
X41337571Y-52744771D02*
X41337571Y-52144771D01*
X41337571Y-52144771D02*
X41566142Y-52144771D01*
X41566142Y-52144771D02*
X41623285Y-52173342D01*
X41623285Y-52173342D02*
X41651856Y-52201914D01*
X41651856Y-52201914D02*
X41680428Y-52259057D01*
X41680428Y-52259057D02*
X41680428Y-52344771D01*
X41680428Y-52344771D02*
X41651856Y-52401914D01*
X41651856Y-52401914D02*
X41623285Y-52430485D01*
X41623285Y-52430485D02*
X41566142Y-52459057D01*
X41566142Y-52459057D02*
X41337571Y-52459057D01*
X44804628Y-84204714D02*
X44833200Y-84233286D01*
X44833200Y-84233286D02*
X44861771Y-84319000D01*
X44861771Y-84319000D02*
X44861771Y-84376143D01*
X44861771Y-84376143D02*
X44833200Y-84461857D01*
X44833200Y-84461857D02*
X44776057Y-84519000D01*
X44776057Y-84519000D02*
X44718914Y-84547571D01*
X44718914Y-84547571D02*
X44604628Y-84576143D01*
X44604628Y-84576143D02*
X44518914Y-84576143D01*
X44518914Y-84576143D02*
X44404628Y-84547571D01*
X44404628Y-84547571D02*
X44347485Y-84519000D01*
X44347485Y-84519000D02*
X44290342Y-84461857D01*
X44290342Y-84461857D02*
X44261771Y-84376143D01*
X44261771Y-84376143D02*
X44261771Y-84319000D01*
X44261771Y-84319000D02*
X44290342Y-84233286D01*
X44290342Y-84233286D02*
X44318914Y-84204714D01*
X44261771Y-84004714D02*
X44261771Y-83633286D01*
X44261771Y-83633286D02*
X44490342Y-83833286D01*
X44490342Y-83833286D02*
X44490342Y-83747571D01*
X44490342Y-83747571D02*
X44518914Y-83690429D01*
X44518914Y-83690429D02*
X44547485Y-83661857D01*
X44547485Y-83661857D02*
X44604628Y-83633286D01*
X44604628Y-83633286D02*
X44747485Y-83633286D01*
X44747485Y-83633286D02*
X44804628Y-83661857D01*
X44804628Y-83661857D02*
X44833200Y-83690429D01*
X44833200Y-83690429D02*
X44861771Y-83747571D01*
X44861771Y-83747571D02*
X44861771Y-83919000D01*
X44861771Y-83919000D02*
X44833200Y-83976143D01*
X44833200Y-83976143D02*
X44804628Y-84004714D01*
X44518914Y-83290428D02*
X44490342Y-83347571D01*
X44490342Y-83347571D02*
X44461771Y-83376142D01*
X44461771Y-83376142D02*
X44404628Y-83404714D01*
X44404628Y-83404714D02*
X44376057Y-83404714D01*
X44376057Y-83404714D02*
X44318914Y-83376142D01*
X44318914Y-83376142D02*
X44290342Y-83347571D01*
X44290342Y-83347571D02*
X44261771Y-83290428D01*
X44261771Y-83290428D02*
X44261771Y-83176142D01*
X44261771Y-83176142D02*
X44290342Y-83119000D01*
X44290342Y-83119000D02*
X44318914Y-83090428D01*
X44318914Y-83090428D02*
X44376057Y-83061857D01*
X44376057Y-83061857D02*
X44404628Y-83061857D01*
X44404628Y-83061857D02*
X44461771Y-83090428D01*
X44461771Y-83090428D02*
X44490342Y-83119000D01*
X44490342Y-83119000D02*
X44518914Y-83176142D01*
X44518914Y-83176142D02*
X44518914Y-83290428D01*
X44518914Y-83290428D02*
X44547485Y-83347571D01*
X44547485Y-83347571D02*
X44576057Y-83376142D01*
X44576057Y-83376142D02*
X44633200Y-83404714D01*
X44633200Y-83404714D02*
X44747485Y-83404714D01*
X44747485Y-83404714D02*
X44804628Y-83376142D01*
X44804628Y-83376142D02*
X44833200Y-83347571D01*
X44833200Y-83347571D02*
X44861771Y-83290428D01*
X44861771Y-83290428D02*
X44861771Y-83176142D01*
X44861771Y-83176142D02*
X44833200Y-83119000D01*
X44833200Y-83119000D02*
X44804628Y-83090428D01*
X44804628Y-83090428D02*
X44747485Y-83061857D01*
X44747485Y-83061857D02*
X44633200Y-83061857D01*
X44633200Y-83061857D02*
X44576057Y-83090428D01*
X44576057Y-83090428D02*
X44547485Y-83119000D01*
X44547485Y-83119000D02*
X44518914Y-83176142D01*
X36964285Y-63744771D02*
X36764285Y-63459057D01*
X36621428Y-63744771D02*
X36621428Y-63144771D01*
X36621428Y-63144771D02*
X36849999Y-63144771D01*
X36849999Y-63144771D02*
X36907142Y-63173342D01*
X36907142Y-63173342D02*
X36935713Y-63201914D01*
X36935713Y-63201914D02*
X36964285Y-63259057D01*
X36964285Y-63259057D02*
X36964285Y-63344771D01*
X36964285Y-63344771D02*
X36935713Y-63401914D01*
X36935713Y-63401914D02*
X36907142Y-63430485D01*
X36907142Y-63430485D02*
X36849999Y-63459057D01*
X36849999Y-63459057D02*
X36621428Y-63459057D01*
X37535713Y-63744771D02*
X37192856Y-63744771D01*
X37364285Y-63744771D02*
X37364285Y-63144771D01*
X37364285Y-63144771D02*
X37307142Y-63230485D01*
X37307142Y-63230485D02*
X37249999Y-63287628D01*
X37249999Y-63287628D02*
X37192856Y-63316200D01*
X37907142Y-63144771D02*
X37964285Y-63144771D01*
X37964285Y-63144771D02*
X38021428Y-63173342D01*
X38021428Y-63173342D02*
X38050000Y-63201914D01*
X38050000Y-63201914D02*
X38078571Y-63259057D01*
X38078571Y-63259057D02*
X38107142Y-63373342D01*
X38107142Y-63373342D02*
X38107142Y-63516200D01*
X38107142Y-63516200D02*
X38078571Y-63630485D01*
X38078571Y-63630485D02*
X38050000Y-63687628D01*
X38050000Y-63687628D02*
X38021428Y-63716200D01*
X38021428Y-63716200D02*
X37964285Y-63744771D01*
X37964285Y-63744771D02*
X37907142Y-63744771D01*
X37907142Y-63744771D02*
X37850000Y-63716200D01*
X37850000Y-63716200D02*
X37821428Y-63687628D01*
X37821428Y-63687628D02*
X37792857Y-63630485D01*
X37792857Y-63630485D02*
X37764285Y-63516200D01*
X37764285Y-63516200D02*
X37764285Y-63373342D01*
X37764285Y-63373342D02*
X37792857Y-63259057D01*
X37792857Y-63259057D02*
X37821428Y-63201914D01*
X37821428Y-63201914D02*
X37850000Y-63173342D01*
X37850000Y-63173342D02*
X37907142Y-63144771D01*
X53342628Y-68159999D02*
X53371200Y-68188571D01*
X53371200Y-68188571D02*
X53399771Y-68274285D01*
X53399771Y-68274285D02*
X53399771Y-68331428D01*
X53399771Y-68331428D02*
X53371200Y-68417142D01*
X53371200Y-68417142D02*
X53314057Y-68474285D01*
X53314057Y-68474285D02*
X53256914Y-68502856D01*
X53256914Y-68502856D02*
X53142628Y-68531428D01*
X53142628Y-68531428D02*
X53056914Y-68531428D01*
X53056914Y-68531428D02*
X52942628Y-68502856D01*
X52942628Y-68502856D02*
X52885485Y-68474285D01*
X52885485Y-68474285D02*
X52828342Y-68417142D01*
X52828342Y-68417142D02*
X52799771Y-68331428D01*
X52799771Y-68331428D02*
X52799771Y-68274285D01*
X52799771Y-68274285D02*
X52828342Y-68188571D01*
X52828342Y-68188571D02*
X52856914Y-68159999D01*
X53399771Y-67874285D02*
X53399771Y-67759999D01*
X53399771Y-67759999D02*
X53371200Y-67702856D01*
X53371200Y-67702856D02*
X53342628Y-67674285D01*
X53342628Y-67674285D02*
X53256914Y-67617142D01*
X53256914Y-67617142D02*
X53142628Y-67588571D01*
X53142628Y-67588571D02*
X52914057Y-67588571D01*
X52914057Y-67588571D02*
X52856914Y-67617142D01*
X52856914Y-67617142D02*
X52828342Y-67645714D01*
X52828342Y-67645714D02*
X52799771Y-67702856D01*
X52799771Y-67702856D02*
X52799771Y-67817142D01*
X52799771Y-67817142D02*
X52828342Y-67874285D01*
X52828342Y-67874285D02*
X52856914Y-67902856D01*
X52856914Y-67902856D02*
X52914057Y-67931428D01*
X52914057Y-67931428D02*
X53056914Y-67931428D01*
X53056914Y-67931428D02*
X53114057Y-67902856D01*
X53114057Y-67902856D02*
X53142628Y-67874285D01*
X53142628Y-67874285D02*
X53171200Y-67817142D01*
X53171200Y-67817142D02*
X53171200Y-67702856D01*
X53171200Y-67702856D02*
X53142628Y-67645714D01*
X53142628Y-67645714D02*
X53114057Y-67617142D01*
X53114057Y-67617142D02*
X53056914Y-67588571D01*
D11*
X34080979Y-87161785D02*
X34119075Y-87199881D01*
X34119075Y-87199881D02*
X34157170Y-87314166D01*
X34157170Y-87314166D02*
X34157170Y-87390357D01*
X34157170Y-87390357D02*
X34119075Y-87504643D01*
X34119075Y-87504643D02*
X34042884Y-87580833D01*
X34042884Y-87580833D02*
X33966694Y-87618928D01*
X33966694Y-87618928D02*
X33814313Y-87657024D01*
X33814313Y-87657024D02*
X33700027Y-87657024D01*
X33700027Y-87657024D02*
X33547646Y-87618928D01*
X33547646Y-87618928D02*
X33471455Y-87580833D01*
X33471455Y-87580833D02*
X33395265Y-87504643D01*
X33395265Y-87504643D02*
X33357170Y-87390357D01*
X33357170Y-87390357D02*
X33357170Y-87314166D01*
X33357170Y-87314166D02*
X33395265Y-87199881D01*
X33395265Y-87199881D02*
X33433360Y-87161785D01*
X33357170Y-86895119D02*
X33357170Y-86399881D01*
X33357170Y-86399881D02*
X33661932Y-86666547D01*
X33661932Y-86666547D02*
X33661932Y-86552262D01*
X33661932Y-86552262D02*
X33700027Y-86476071D01*
X33700027Y-86476071D02*
X33738122Y-86437976D01*
X33738122Y-86437976D02*
X33814313Y-86399881D01*
X33814313Y-86399881D02*
X34004789Y-86399881D01*
X34004789Y-86399881D02*
X34080979Y-86437976D01*
X34080979Y-86437976D02*
X34119075Y-86476071D01*
X34119075Y-86476071D02*
X34157170Y-86552262D01*
X34157170Y-86552262D02*
X34157170Y-86780833D01*
X34157170Y-86780833D02*
X34119075Y-86857024D01*
X34119075Y-86857024D02*
X34080979Y-86895119D01*
X33357170Y-85904642D02*
X33357170Y-85828452D01*
X33357170Y-85828452D02*
X33395265Y-85752261D01*
X33395265Y-85752261D02*
X33433360Y-85714166D01*
X33433360Y-85714166D02*
X33509551Y-85676071D01*
X33509551Y-85676071D02*
X33661932Y-85637976D01*
X33661932Y-85637976D02*
X33852408Y-85637976D01*
X33852408Y-85637976D02*
X34004789Y-85676071D01*
X34004789Y-85676071D02*
X34080979Y-85714166D01*
X34080979Y-85714166D02*
X34119075Y-85752261D01*
X34119075Y-85752261D02*
X34157170Y-85828452D01*
X34157170Y-85828452D02*
X34157170Y-85904642D01*
X34157170Y-85904642D02*
X34119075Y-85980833D01*
X34119075Y-85980833D02*
X34080979Y-86018928D01*
X34080979Y-86018928D02*
X34004789Y-86057023D01*
X34004789Y-86057023D02*
X33852408Y-86095119D01*
X33852408Y-86095119D02*
X33661932Y-86095119D01*
X33661932Y-86095119D02*
X33509551Y-86057023D01*
X33509551Y-86057023D02*
X33433360Y-86018928D01*
X33433360Y-86018928D02*
X33395265Y-85980833D01*
X33395265Y-85980833D02*
X33357170Y-85904642D01*
D10*
X35042628Y-64308714D02*
X35071200Y-64337286D01*
X35071200Y-64337286D02*
X35099771Y-64423000D01*
X35099771Y-64423000D02*
X35099771Y-64480143D01*
X35099771Y-64480143D02*
X35071200Y-64565857D01*
X35071200Y-64565857D02*
X35014057Y-64623000D01*
X35014057Y-64623000D02*
X34956914Y-64651571D01*
X34956914Y-64651571D02*
X34842628Y-64680143D01*
X34842628Y-64680143D02*
X34756914Y-64680143D01*
X34756914Y-64680143D02*
X34642628Y-64651571D01*
X34642628Y-64651571D02*
X34585485Y-64623000D01*
X34585485Y-64623000D02*
X34528342Y-64565857D01*
X34528342Y-64565857D02*
X34499771Y-64480143D01*
X34499771Y-64480143D02*
X34499771Y-64423000D01*
X34499771Y-64423000D02*
X34528342Y-64337286D01*
X34528342Y-64337286D02*
X34556914Y-64308714D01*
X35099771Y-63737286D02*
X35099771Y-64080143D01*
X35099771Y-63908714D02*
X34499771Y-63908714D01*
X34499771Y-63908714D02*
X34585485Y-63965857D01*
X34585485Y-63965857D02*
X34642628Y-64023000D01*
X34642628Y-64023000D02*
X34671200Y-64080143D01*
X34499771Y-63537285D02*
X34499771Y-63137285D01*
X34499771Y-63137285D02*
X35099771Y-63394428D01*
D11*
X46313151Y-80318428D02*
X46008389Y-80531762D01*
X46313151Y-80684143D02*
X45673151Y-80684143D01*
X45673151Y-80684143D02*
X45673151Y-80440333D01*
X45673151Y-80440333D02*
X45703627Y-80379381D01*
X45703627Y-80379381D02*
X45734103Y-80348904D01*
X45734103Y-80348904D02*
X45795055Y-80318428D01*
X45795055Y-80318428D02*
X45886484Y-80318428D01*
X45886484Y-80318428D02*
X45947436Y-80348904D01*
X45947436Y-80348904D02*
X45977913Y-80379381D01*
X45977913Y-80379381D02*
X46008389Y-80440333D01*
X46008389Y-80440333D02*
X46008389Y-80684143D01*
X45734103Y-80074619D02*
X45703627Y-80044143D01*
X45703627Y-80044143D02*
X45673151Y-79983190D01*
X45673151Y-79983190D02*
X45673151Y-79830809D01*
X45673151Y-79830809D02*
X45703627Y-79769857D01*
X45703627Y-79769857D02*
X45734103Y-79739381D01*
X45734103Y-79739381D02*
X45795055Y-79708904D01*
X45795055Y-79708904D02*
X45856008Y-79708904D01*
X45856008Y-79708904D02*
X45947436Y-79739381D01*
X45947436Y-79739381D02*
X46313151Y-80105095D01*
X46313151Y-80105095D02*
X46313151Y-79708904D01*
X46313151Y-79099380D02*
X46313151Y-79465095D01*
X46313151Y-79282238D02*
X45673151Y-79282238D01*
X45673151Y-79282238D02*
X45764579Y-79343190D01*
X45764579Y-79343190D02*
X45825532Y-79404142D01*
X45825532Y-79404142D02*
X45856008Y-79465095D01*
D10*
X37394771Y-51932142D02*
X37880485Y-51932142D01*
X37880485Y-51932142D02*
X37937628Y-51903571D01*
X37937628Y-51903571D02*
X37966200Y-51875000D01*
X37966200Y-51875000D02*
X37994771Y-51817857D01*
X37994771Y-51817857D02*
X37994771Y-51703571D01*
X37994771Y-51703571D02*
X37966200Y-51646428D01*
X37966200Y-51646428D02*
X37937628Y-51617857D01*
X37937628Y-51617857D02*
X37880485Y-51589285D01*
X37880485Y-51589285D02*
X37394771Y-51589285D01*
X37394771Y-51017857D02*
X37394771Y-51303571D01*
X37394771Y-51303571D02*
X37680485Y-51332143D01*
X37680485Y-51332143D02*
X37651914Y-51303571D01*
X37651914Y-51303571D02*
X37623342Y-51246429D01*
X37623342Y-51246429D02*
X37623342Y-51103571D01*
X37623342Y-51103571D02*
X37651914Y-51046429D01*
X37651914Y-51046429D02*
X37680485Y-51017857D01*
X37680485Y-51017857D02*
X37737628Y-50989286D01*
X37737628Y-50989286D02*
X37880485Y-50989286D01*
X37880485Y-50989286D02*
X37937628Y-51017857D01*
X37937628Y-51017857D02*
X37966200Y-51046429D01*
X37966200Y-51046429D02*
X37994771Y-51103571D01*
X37994771Y-51103571D02*
X37994771Y-51246429D01*
X37994771Y-51246429D02*
X37966200Y-51303571D01*
X37966200Y-51303571D02*
X37937628Y-51332143D01*
D12*
X43870385Y-44933682D02*
X43846576Y-44957492D01*
X43846576Y-44957492D02*
X43775147Y-44981301D01*
X43775147Y-44981301D02*
X43727528Y-44981301D01*
X43727528Y-44981301D02*
X43656100Y-44957492D01*
X43656100Y-44957492D02*
X43608481Y-44909872D01*
X43608481Y-44909872D02*
X43584671Y-44862253D01*
X43584671Y-44862253D02*
X43560862Y-44767015D01*
X43560862Y-44767015D02*
X43560862Y-44695587D01*
X43560862Y-44695587D02*
X43584671Y-44600349D01*
X43584671Y-44600349D02*
X43608481Y-44552730D01*
X43608481Y-44552730D02*
X43656100Y-44505111D01*
X43656100Y-44505111D02*
X43727528Y-44481301D01*
X43727528Y-44481301D02*
X43775147Y-44481301D01*
X43775147Y-44481301D02*
X43846576Y-44505111D01*
X43846576Y-44505111D02*
X43870385Y-44528920D01*
X44060862Y-44528920D02*
X44084671Y-44505111D01*
X44084671Y-44505111D02*
X44132290Y-44481301D01*
X44132290Y-44481301D02*
X44251338Y-44481301D01*
X44251338Y-44481301D02*
X44298957Y-44505111D01*
X44298957Y-44505111D02*
X44322766Y-44528920D01*
X44322766Y-44528920D02*
X44346576Y-44576539D01*
X44346576Y-44576539D02*
X44346576Y-44624158D01*
X44346576Y-44624158D02*
X44322766Y-44695587D01*
X44322766Y-44695587D02*
X44037052Y-44981301D01*
X44037052Y-44981301D02*
X44346576Y-44981301D01*
X44656099Y-44481301D02*
X44703718Y-44481301D01*
X44703718Y-44481301D02*
X44751337Y-44505111D01*
X44751337Y-44505111D02*
X44775147Y-44528920D01*
X44775147Y-44528920D02*
X44798956Y-44576539D01*
X44798956Y-44576539D02*
X44822766Y-44671777D01*
X44822766Y-44671777D02*
X44822766Y-44790825D01*
X44822766Y-44790825D02*
X44798956Y-44886063D01*
X44798956Y-44886063D02*
X44775147Y-44933682D01*
X44775147Y-44933682D02*
X44751337Y-44957492D01*
X44751337Y-44957492D02*
X44703718Y-44981301D01*
X44703718Y-44981301D02*
X44656099Y-44981301D01*
X44656099Y-44981301D02*
X44608480Y-44957492D01*
X44608480Y-44957492D02*
X44584671Y-44933682D01*
X44584671Y-44933682D02*
X44560861Y-44886063D01*
X44560861Y-44886063D02*
X44537052Y-44790825D01*
X44537052Y-44790825D02*
X44537052Y-44671777D01*
X44537052Y-44671777D02*
X44560861Y-44576539D01*
X44560861Y-44576539D02*
X44584671Y-44528920D01*
X44584671Y-44528920D02*
X44608480Y-44505111D01*
X44608480Y-44505111D02*
X44656099Y-44481301D01*
D10*
X52630228Y-52046429D02*
X53230228Y-52046429D01*
X53230228Y-52046429D02*
X53230228Y-52189286D01*
X53230228Y-52189286D02*
X53201657Y-52275000D01*
X53201657Y-52275000D02*
X53144514Y-52332143D01*
X53144514Y-52332143D02*
X53087371Y-52360714D01*
X53087371Y-52360714D02*
X52973085Y-52389286D01*
X52973085Y-52389286D02*
X52887371Y-52389286D01*
X52887371Y-52389286D02*
X52773085Y-52360714D01*
X52773085Y-52360714D02*
X52715942Y-52332143D01*
X52715942Y-52332143D02*
X52658800Y-52275000D01*
X52658800Y-52275000D02*
X52630228Y-52189286D01*
X52630228Y-52189286D02*
X52630228Y-52046429D01*
X52858800Y-52646429D02*
X52858800Y-53103572D01*
X37289285Y-66494771D02*
X37089285Y-66209057D01*
X36946428Y-66494771D02*
X36946428Y-65894771D01*
X36946428Y-65894771D02*
X37174999Y-65894771D01*
X37174999Y-65894771D02*
X37232142Y-65923342D01*
X37232142Y-65923342D02*
X37260713Y-65951914D01*
X37260713Y-65951914D02*
X37289285Y-66009057D01*
X37289285Y-66009057D02*
X37289285Y-66094771D01*
X37289285Y-66094771D02*
X37260713Y-66151914D01*
X37260713Y-66151914D02*
X37232142Y-66180485D01*
X37232142Y-66180485D02*
X37174999Y-66209057D01*
X37174999Y-66209057D02*
X36946428Y-66209057D01*
X37517856Y-65951914D02*
X37546428Y-65923342D01*
X37546428Y-65923342D02*
X37603571Y-65894771D01*
X37603571Y-65894771D02*
X37746428Y-65894771D01*
X37746428Y-65894771D02*
X37803571Y-65923342D01*
X37803571Y-65923342D02*
X37832142Y-65951914D01*
X37832142Y-65951914D02*
X37860713Y-66009057D01*
X37860713Y-66009057D02*
X37860713Y-66066200D01*
X37860713Y-66066200D02*
X37832142Y-66151914D01*
X37832142Y-66151914D02*
X37489285Y-66494771D01*
X37489285Y-66494771D02*
X37860713Y-66494771D01*
X38375000Y-65894771D02*
X38260714Y-65894771D01*
X38260714Y-65894771D02*
X38203571Y-65923342D01*
X38203571Y-65923342D02*
X38175000Y-65951914D01*
X38175000Y-65951914D02*
X38117857Y-66037628D01*
X38117857Y-66037628D02*
X38089285Y-66151914D01*
X38089285Y-66151914D02*
X38089285Y-66380485D01*
X38089285Y-66380485D02*
X38117857Y-66437628D01*
X38117857Y-66437628D02*
X38146428Y-66466200D01*
X38146428Y-66466200D02*
X38203571Y-66494771D01*
X38203571Y-66494771D02*
X38317857Y-66494771D01*
X38317857Y-66494771D02*
X38375000Y-66466200D01*
X38375000Y-66466200D02*
X38403571Y-66437628D01*
X38403571Y-66437628D02*
X38432142Y-66380485D01*
X38432142Y-66380485D02*
X38432142Y-66237628D01*
X38432142Y-66237628D02*
X38403571Y-66180485D01*
X38403571Y-66180485D02*
X38375000Y-66151914D01*
X38375000Y-66151914D02*
X38317857Y-66123342D01*
X38317857Y-66123342D02*
X38203571Y-66123342D01*
X38203571Y-66123342D02*
X38146428Y-66151914D01*
X38146428Y-66151914D02*
X38117857Y-66180485D01*
X38117857Y-66180485D02*
X38089285Y-66237628D01*
X59550000Y-56619771D02*
X59550000Y-56019771D01*
X59949999Y-56019771D02*
X60064285Y-56019771D01*
X60064285Y-56019771D02*
X60121428Y-56048342D01*
X60121428Y-56048342D02*
X60178571Y-56105485D01*
X60178571Y-56105485D02*
X60207142Y-56219771D01*
X60207142Y-56219771D02*
X60207142Y-56419771D01*
X60207142Y-56419771D02*
X60178571Y-56534057D01*
X60178571Y-56534057D02*
X60121428Y-56591200D01*
X60121428Y-56591200D02*
X60064285Y-56619771D01*
X60064285Y-56619771D02*
X59949999Y-56619771D01*
X59949999Y-56619771D02*
X59892857Y-56591200D01*
X59892857Y-56591200D02*
X59835714Y-56534057D01*
X59835714Y-56534057D02*
X59807142Y-56419771D01*
X59807142Y-56419771D02*
X59807142Y-56219771D01*
X59807142Y-56219771D02*
X59835714Y-56105485D01*
X59835714Y-56105485D02*
X59892857Y-56048342D01*
X59892857Y-56048342D02*
X59949999Y-56019771D01*
X60749999Y-56019771D02*
X60464285Y-56019771D01*
X60464285Y-56019771D02*
X60435713Y-56305485D01*
X60435713Y-56305485D02*
X60464285Y-56276914D01*
X60464285Y-56276914D02*
X60521428Y-56248342D01*
X60521428Y-56248342D02*
X60664285Y-56248342D01*
X60664285Y-56248342D02*
X60721428Y-56276914D01*
X60721428Y-56276914D02*
X60749999Y-56305485D01*
X60749999Y-56305485D02*
X60778570Y-56362628D01*
X60778570Y-56362628D02*
X60778570Y-56505485D01*
X60778570Y-56505485D02*
X60749999Y-56562628D01*
X60749999Y-56562628D02*
X60721428Y-56591200D01*
X60721428Y-56591200D02*
X60664285Y-56619771D01*
X60664285Y-56619771D02*
X60521428Y-56619771D01*
X60521428Y-56619771D02*
X60464285Y-56591200D01*
X60464285Y-56591200D02*
X60435713Y-56562628D01*
D12*
X39309004Y-51617920D02*
X39332814Y-51641729D01*
X39332814Y-51641729D02*
X39356623Y-51713158D01*
X39356623Y-51713158D02*
X39356623Y-51760777D01*
X39356623Y-51760777D02*
X39332814Y-51832205D01*
X39332814Y-51832205D02*
X39285194Y-51879824D01*
X39285194Y-51879824D02*
X39237575Y-51903634D01*
X39237575Y-51903634D02*
X39142337Y-51927443D01*
X39142337Y-51927443D02*
X39070909Y-51927443D01*
X39070909Y-51927443D02*
X38975671Y-51903634D01*
X38975671Y-51903634D02*
X38928052Y-51879824D01*
X38928052Y-51879824D02*
X38880433Y-51832205D01*
X38880433Y-51832205D02*
X38856623Y-51760777D01*
X38856623Y-51760777D02*
X38856623Y-51713158D01*
X38856623Y-51713158D02*
X38880433Y-51641729D01*
X38880433Y-51641729D02*
X38904242Y-51617920D01*
X38904242Y-51427443D02*
X38880433Y-51403634D01*
X38880433Y-51403634D02*
X38856623Y-51356015D01*
X38856623Y-51356015D02*
X38856623Y-51236967D01*
X38856623Y-51236967D02*
X38880433Y-51189348D01*
X38880433Y-51189348D02*
X38904242Y-51165539D01*
X38904242Y-51165539D02*
X38951861Y-51141729D01*
X38951861Y-51141729D02*
X38999480Y-51141729D01*
X38999480Y-51141729D02*
X39070909Y-51165539D01*
X39070909Y-51165539D02*
X39356623Y-51451253D01*
X39356623Y-51451253D02*
X39356623Y-51141729D01*
X38856623Y-50975063D02*
X38856623Y-50665539D01*
X38856623Y-50665539D02*
X39047099Y-50832206D01*
X39047099Y-50832206D02*
X39047099Y-50760777D01*
X39047099Y-50760777D02*
X39070909Y-50713158D01*
X39070909Y-50713158D02*
X39094718Y-50689349D01*
X39094718Y-50689349D02*
X39142337Y-50665539D01*
X39142337Y-50665539D02*
X39261385Y-50665539D01*
X39261385Y-50665539D02*
X39309004Y-50689349D01*
X39309004Y-50689349D02*
X39332814Y-50713158D01*
X39332814Y-50713158D02*
X39356623Y-50760777D01*
X39356623Y-50760777D02*
X39356623Y-50903634D01*
X39356623Y-50903634D02*
X39332814Y-50951253D01*
X39332814Y-50951253D02*
X39309004Y-50975063D01*
D10*
X41281876Y-99024666D02*
X41281876Y-99329428D01*
X41281876Y-99329428D02*
X40641876Y-99329428D01*
X40855209Y-98537047D02*
X41281876Y-98537047D01*
X40611400Y-98689428D02*
X41068542Y-98841809D01*
X41068542Y-98841809D02*
X41068542Y-98445618D01*
X57507143Y-59355485D02*
X57592857Y-59384057D01*
X57592857Y-59384057D02*
X57621428Y-59412628D01*
X57621428Y-59412628D02*
X57650000Y-59469771D01*
X57650000Y-59469771D02*
X57650000Y-59555485D01*
X57650000Y-59555485D02*
X57621428Y-59612628D01*
X57621428Y-59612628D02*
X57592857Y-59641200D01*
X57592857Y-59641200D02*
X57535714Y-59669771D01*
X57535714Y-59669771D02*
X57307143Y-59669771D01*
X57307143Y-59669771D02*
X57307143Y-59069771D01*
X57307143Y-59069771D02*
X57507143Y-59069771D01*
X57507143Y-59069771D02*
X57564286Y-59098342D01*
X57564286Y-59098342D02*
X57592857Y-59126914D01*
X57592857Y-59126914D02*
X57621428Y-59184057D01*
X57621428Y-59184057D02*
X57621428Y-59241200D01*
X57621428Y-59241200D02*
X57592857Y-59298342D01*
X57592857Y-59298342D02*
X57564286Y-59326914D01*
X57564286Y-59326914D02*
X57507143Y-59355485D01*
X57507143Y-59355485D02*
X57307143Y-59355485D01*
X58021428Y-59069771D02*
X58135714Y-59069771D01*
X58135714Y-59069771D02*
X58192857Y-59098342D01*
X58192857Y-59098342D02*
X58250000Y-59155485D01*
X58250000Y-59155485D02*
X58278571Y-59269771D01*
X58278571Y-59269771D02*
X58278571Y-59469771D01*
X58278571Y-59469771D02*
X58250000Y-59584057D01*
X58250000Y-59584057D02*
X58192857Y-59641200D01*
X58192857Y-59641200D02*
X58135714Y-59669771D01*
X58135714Y-59669771D02*
X58021428Y-59669771D01*
X58021428Y-59669771D02*
X57964286Y-59641200D01*
X57964286Y-59641200D02*
X57907143Y-59584057D01*
X57907143Y-59584057D02*
X57878571Y-59469771D01*
X57878571Y-59469771D02*
X57878571Y-59269771D01*
X57878571Y-59269771D02*
X57907143Y-59155485D01*
X57907143Y-59155485D02*
X57964286Y-59098342D01*
X57964286Y-59098342D02*
X58021428Y-59069771D01*
X58649999Y-59069771D02*
X58764285Y-59069771D01*
X58764285Y-59069771D02*
X58821428Y-59098342D01*
X58821428Y-59098342D02*
X58878571Y-59155485D01*
X58878571Y-59155485D02*
X58907142Y-59269771D01*
X58907142Y-59269771D02*
X58907142Y-59469771D01*
X58907142Y-59469771D02*
X58878571Y-59584057D01*
X58878571Y-59584057D02*
X58821428Y-59641200D01*
X58821428Y-59641200D02*
X58764285Y-59669771D01*
X58764285Y-59669771D02*
X58649999Y-59669771D01*
X58649999Y-59669771D02*
X58592857Y-59641200D01*
X58592857Y-59641200D02*
X58535714Y-59584057D01*
X58535714Y-59584057D02*
X58507142Y-59469771D01*
X58507142Y-59469771D02*
X58507142Y-59269771D01*
X58507142Y-59269771D02*
X58535714Y-59155485D01*
X58535714Y-59155485D02*
X58592857Y-59098342D01*
X58592857Y-59098342D02*
X58649999Y-59069771D01*
X59078570Y-59069771D02*
X59421428Y-59069771D01*
X59249999Y-59669771D02*
X59249999Y-59069771D01*
X59792856Y-59069771D02*
X59792856Y-59498342D01*
X59792856Y-59498342D02*
X59764285Y-59584057D01*
X59764285Y-59584057D02*
X59707142Y-59641200D01*
X59707142Y-59641200D02*
X59621428Y-59669771D01*
X59621428Y-59669771D02*
X59564285Y-59669771D01*
X60078571Y-59669771D02*
X60078571Y-59069771D01*
X60078571Y-59069771D02*
X60307142Y-59069771D01*
X60307142Y-59069771D02*
X60364285Y-59098342D01*
X60364285Y-59098342D02*
X60392856Y-59126914D01*
X60392856Y-59126914D02*
X60421428Y-59184057D01*
X60421428Y-59184057D02*
X60421428Y-59269771D01*
X60421428Y-59269771D02*
X60392856Y-59326914D01*
X60392856Y-59326914D02*
X60364285Y-59355485D01*
X60364285Y-59355485D02*
X60307142Y-59384057D01*
X60307142Y-59384057D02*
X60078571Y-59384057D01*
X45298700Y-55209187D02*
X45143408Y-54629632D01*
X45143408Y-54629632D02*
X45281398Y-54592658D01*
X45281398Y-54592658D02*
X45371586Y-54598071D01*
X45371586Y-54598071D02*
X45441572Y-54638477D01*
X45441572Y-54638477D02*
X45483959Y-54686278D01*
X45483959Y-54686278D02*
X45541137Y-54789275D01*
X45541137Y-54789275D02*
X45563321Y-54872069D01*
X45563321Y-54872069D02*
X45565302Y-54989855D01*
X45565302Y-54989855D02*
X45552494Y-55052445D01*
X45552494Y-55052445D02*
X45512088Y-55122431D01*
X45512088Y-55122431D02*
X45436689Y-55172213D01*
X45436689Y-55172213D02*
X45298700Y-55209187D01*
X45819097Y-54833113D02*
X46260663Y-54714796D01*
X46099038Y-54994737D02*
X45980721Y-54553171D01*
X46357715Y-54304259D02*
X46688890Y-54215521D01*
X46678594Y-54839446D02*
X46523302Y-54259890D01*
X47037366Y-54743313D02*
X46882075Y-54163758D01*
X46882075Y-54163758D02*
X47102858Y-54104599D01*
X47102858Y-54104599D02*
X47165449Y-54117407D01*
X47165449Y-54117407D02*
X47200441Y-54137610D01*
X47200441Y-54137610D02*
X47242829Y-54185411D01*
X47242829Y-54185411D02*
X47265013Y-54268205D01*
X47265013Y-54268205D02*
X47252205Y-54330795D01*
X47252205Y-54330795D02*
X47232002Y-54365788D01*
X47232002Y-54365788D02*
X47184201Y-54408176D01*
X47184201Y-54408176D02*
X46963418Y-54467334D01*
X54610714Y-77741200D02*
X54696429Y-77769771D01*
X54696429Y-77769771D02*
X54839286Y-77769771D01*
X54839286Y-77769771D02*
X54896429Y-77741200D01*
X54896429Y-77741200D02*
X54925000Y-77712628D01*
X54925000Y-77712628D02*
X54953571Y-77655485D01*
X54953571Y-77655485D02*
X54953571Y-77598342D01*
X54953571Y-77598342D02*
X54925000Y-77541200D01*
X54925000Y-77541200D02*
X54896429Y-77512628D01*
X54896429Y-77512628D02*
X54839286Y-77484057D01*
X54839286Y-77484057D02*
X54725000Y-77455485D01*
X54725000Y-77455485D02*
X54667857Y-77426914D01*
X54667857Y-77426914D02*
X54639286Y-77398342D01*
X54639286Y-77398342D02*
X54610714Y-77341200D01*
X54610714Y-77341200D02*
X54610714Y-77284057D01*
X54610714Y-77284057D02*
X54639286Y-77226914D01*
X54639286Y-77226914D02*
X54667857Y-77198342D01*
X54667857Y-77198342D02*
X54725000Y-77169771D01*
X54725000Y-77169771D02*
X54867857Y-77169771D01*
X54867857Y-77169771D02*
X54953571Y-77198342D01*
X55210715Y-77455485D02*
X55410715Y-77455485D01*
X55496429Y-77769771D02*
X55210715Y-77769771D01*
X55210715Y-77769771D02*
X55210715Y-77169771D01*
X55210715Y-77169771D02*
X55496429Y-77169771D01*
X56096429Y-77769771D02*
X55896429Y-77484057D01*
X55753572Y-77769771D02*
X55753572Y-77169771D01*
X55753572Y-77169771D02*
X55982143Y-77169771D01*
X55982143Y-77169771D02*
X56039286Y-77198342D01*
X56039286Y-77198342D02*
X56067857Y-77226914D01*
X56067857Y-77226914D02*
X56096429Y-77284057D01*
X56096429Y-77284057D02*
X56096429Y-77369771D01*
X56096429Y-77369771D02*
X56067857Y-77426914D01*
X56067857Y-77426914D02*
X56039286Y-77455485D01*
X56039286Y-77455485D02*
X55982143Y-77484057D01*
X55982143Y-77484057D02*
X55753572Y-77484057D01*
X56267857Y-77169771D02*
X56467857Y-77769771D01*
X56467857Y-77769771D02*
X56667857Y-77169771D01*
X56982143Y-77169771D02*
X57096429Y-77169771D01*
X57096429Y-77169771D02*
X57153572Y-77198342D01*
X57153572Y-77198342D02*
X57210715Y-77255485D01*
X57210715Y-77255485D02*
X57239286Y-77369771D01*
X57239286Y-77369771D02*
X57239286Y-77569771D01*
X57239286Y-77569771D02*
X57210715Y-77684057D01*
X57210715Y-77684057D02*
X57153572Y-77741200D01*
X57153572Y-77741200D02*
X57096429Y-77769771D01*
X57096429Y-77769771D02*
X56982143Y-77769771D01*
X56982143Y-77769771D02*
X56925001Y-77741200D01*
X56925001Y-77741200D02*
X56867858Y-77684057D01*
X56867858Y-77684057D02*
X56839286Y-77569771D01*
X56839286Y-77569771D02*
X56839286Y-77369771D01*
X56839286Y-77369771D02*
X56867858Y-77255485D01*
X56867858Y-77255485D02*
X56925001Y-77198342D01*
X56925001Y-77198342D02*
X56982143Y-77169771D01*
X55150000Y-78644771D02*
X55150000Y-78044771D01*
X55150000Y-78044771D02*
X55378571Y-78044771D01*
X55378571Y-78044771D02*
X55435714Y-78073342D01*
X55435714Y-78073342D02*
X55464285Y-78101914D01*
X55464285Y-78101914D02*
X55492857Y-78159057D01*
X55492857Y-78159057D02*
X55492857Y-78244771D01*
X55492857Y-78244771D02*
X55464285Y-78301914D01*
X55464285Y-78301914D02*
X55435714Y-78330485D01*
X55435714Y-78330485D02*
X55378571Y-78359057D01*
X55378571Y-78359057D02*
X55150000Y-78359057D01*
X55692857Y-78044771D02*
X55835714Y-78644771D01*
X55835714Y-78644771D02*
X55950000Y-78216200D01*
X55950000Y-78216200D02*
X56064285Y-78644771D01*
X56064285Y-78644771D02*
X56207143Y-78044771D01*
X56778571Y-78644771D02*
X56578571Y-78359057D01*
X56435714Y-78644771D02*
X56435714Y-78044771D01*
X56435714Y-78044771D02*
X56664285Y-78044771D01*
X56664285Y-78044771D02*
X56721428Y-78073342D01*
X56721428Y-78073342D02*
X56749999Y-78101914D01*
X56749999Y-78101914D02*
X56778571Y-78159057D01*
X56778571Y-78159057D02*
X56778571Y-78244771D01*
X56778571Y-78244771D02*
X56749999Y-78301914D01*
X56749999Y-78301914D02*
X56721428Y-78330485D01*
X56721428Y-78330485D02*
X56664285Y-78359057D01*
X56664285Y-78359057D02*
X56435714Y-78359057D01*
D12*
X35828571Y-58566405D02*
X35804762Y-58590215D01*
X35804762Y-58590215D02*
X35733333Y-58614024D01*
X35733333Y-58614024D02*
X35685714Y-58614024D01*
X35685714Y-58614024D02*
X35614286Y-58590215D01*
X35614286Y-58590215D02*
X35566667Y-58542595D01*
X35566667Y-58542595D02*
X35542857Y-58494976D01*
X35542857Y-58494976D02*
X35519048Y-58399738D01*
X35519048Y-58399738D02*
X35519048Y-58328310D01*
X35519048Y-58328310D02*
X35542857Y-58233072D01*
X35542857Y-58233072D02*
X35566667Y-58185453D01*
X35566667Y-58185453D02*
X35614286Y-58137834D01*
X35614286Y-58137834D02*
X35685714Y-58114024D01*
X35685714Y-58114024D02*
X35733333Y-58114024D01*
X35733333Y-58114024D02*
X35804762Y-58137834D01*
X35804762Y-58137834D02*
X35828571Y-58161643D01*
X36019048Y-58161643D02*
X36042857Y-58137834D01*
X36042857Y-58137834D02*
X36090476Y-58114024D01*
X36090476Y-58114024D02*
X36209524Y-58114024D01*
X36209524Y-58114024D02*
X36257143Y-58137834D01*
X36257143Y-58137834D02*
X36280952Y-58161643D01*
X36280952Y-58161643D02*
X36304762Y-58209262D01*
X36304762Y-58209262D02*
X36304762Y-58256881D01*
X36304762Y-58256881D02*
X36280952Y-58328310D01*
X36280952Y-58328310D02*
X35995238Y-58614024D01*
X35995238Y-58614024D02*
X36304762Y-58614024D01*
X36733333Y-58280691D02*
X36733333Y-58614024D01*
X36614285Y-58090215D02*
X36495238Y-58447357D01*
X36495238Y-58447357D02*
X36804761Y-58447357D01*
D10*
X37089856Y-64985271D02*
X37432714Y-64985271D01*
X37261285Y-65585271D02*
X37261285Y-64985271D01*
X37575571Y-64985271D02*
X37975571Y-65585271D01*
X37975571Y-64985271D02*
X37575571Y-65585271D01*
X37161286Y-64628128D02*
X37132714Y-64656700D01*
X37132714Y-64656700D02*
X37047000Y-64685271D01*
X37047000Y-64685271D02*
X36989857Y-64685271D01*
X36989857Y-64685271D02*
X36904143Y-64656700D01*
X36904143Y-64656700D02*
X36847000Y-64599557D01*
X36847000Y-64599557D02*
X36818429Y-64542414D01*
X36818429Y-64542414D02*
X36789857Y-64428128D01*
X36789857Y-64428128D02*
X36789857Y-64342414D01*
X36789857Y-64342414D02*
X36818429Y-64228128D01*
X36818429Y-64228128D02*
X36847000Y-64170985D01*
X36847000Y-64170985D02*
X36904143Y-64113842D01*
X36904143Y-64113842D02*
X36989857Y-64085271D01*
X36989857Y-64085271D02*
X37047000Y-64085271D01*
X37047000Y-64085271D02*
X37132714Y-64113842D01*
X37132714Y-64113842D02*
X37161286Y-64142414D01*
X37389857Y-64513842D02*
X37675572Y-64513842D01*
X37332714Y-64685271D02*
X37532714Y-64085271D01*
X37532714Y-64085271D02*
X37732714Y-64685271D01*
X37932715Y-64685271D02*
X37932715Y-64085271D01*
X37932715Y-64085271D02*
X38275572Y-64685271D01*
X38275572Y-64685271D02*
X38275572Y-64085271D01*
X49889771Y-66649999D02*
X49889771Y-66935713D01*
X49889771Y-66935713D02*
X49289771Y-66935713D01*
X49346914Y-66478571D02*
X49318342Y-66449999D01*
X49318342Y-66449999D02*
X49289771Y-66392857D01*
X49289771Y-66392857D02*
X49289771Y-66249999D01*
X49289771Y-66249999D02*
X49318342Y-66192857D01*
X49318342Y-66192857D02*
X49346914Y-66164285D01*
X49346914Y-66164285D02*
X49404057Y-66135714D01*
X49404057Y-66135714D02*
X49461200Y-66135714D01*
X49461200Y-66135714D02*
X49546914Y-66164285D01*
X49546914Y-66164285D02*
X49889771Y-66507142D01*
X49889771Y-66507142D02*
X49889771Y-66135714D01*
D12*
X40244809Y-43361428D02*
X40006714Y-43528094D01*
X40244809Y-43647142D02*
X39744809Y-43647142D01*
X39744809Y-43647142D02*
X39744809Y-43456666D01*
X39744809Y-43456666D02*
X39768619Y-43409047D01*
X39768619Y-43409047D02*
X39792428Y-43385237D01*
X39792428Y-43385237D02*
X39840047Y-43361428D01*
X39840047Y-43361428D02*
X39911476Y-43361428D01*
X39911476Y-43361428D02*
X39959095Y-43385237D01*
X39959095Y-43385237D02*
X39982904Y-43409047D01*
X39982904Y-43409047D02*
X40006714Y-43456666D01*
X40006714Y-43456666D02*
X40006714Y-43647142D01*
X40244809Y-42885237D02*
X40244809Y-43170951D01*
X40244809Y-43028094D02*
X39744809Y-43028094D01*
X39744809Y-43028094D02*
X39816238Y-43075713D01*
X39816238Y-43075713D02*
X39863857Y-43123332D01*
X39863857Y-43123332D02*
X39887666Y-43170951D01*
X39911476Y-42456666D02*
X40244809Y-42456666D01*
X39721000Y-42575714D02*
X40078142Y-42694761D01*
X40078142Y-42694761D02*
X40078142Y-42385238D01*
D13*
X44332214Y-55247618D02*
X44656024Y-55247618D01*
X44656024Y-55247618D02*
X44694119Y-55228571D01*
X44694119Y-55228571D02*
X44713167Y-55209523D01*
X44713167Y-55209523D02*
X44732214Y-55171428D01*
X44732214Y-55171428D02*
X44732214Y-55095237D01*
X44732214Y-55095237D02*
X44713167Y-55057142D01*
X44713167Y-55057142D02*
X44694119Y-55038095D01*
X44694119Y-55038095D02*
X44656024Y-55019047D01*
X44656024Y-55019047D02*
X44332214Y-55019047D01*
X44713167Y-54847618D02*
X44732214Y-54790475D01*
X44732214Y-54790475D02*
X44732214Y-54695237D01*
X44732214Y-54695237D02*
X44713167Y-54657142D01*
X44713167Y-54657142D02*
X44694119Y-54638094D01*
X44694119Y-54638094D02*
X44656024Y-54619047D01*
X44656024Y-54619047D02*
X44617928Y-54619047D01*
X44617928Y-54619047D02*
X44579833Y-54638094D01*
X44579833Y-54638094D02*
X44560786Y-54657142D01*
X44560786Y-54657142D02*
X44541738Y-54695237D01*
X44541738Y-54695237D02*
X44522690Y-54771428D01*
X44522690Y-54771428D02*
X44503643Y-54809523D01*
X44503643Y-54809523D02*
X44484595Y-54828570D01*
X44484595Y-54828570D02*
X44446500Y-54847618D01*
X44446500Y-54847618D02*
X44408405Y-54847618D01*
X44408405Y-54847618D02*
X44370309Y-54828570D01*
X44370309Y-54828570D02*
X44351262Y-54809523D01*
X44351262Y-54809523D02*
X44332214Y-54771428D01*
X44332214Y-54771428D02*
X44332214Y-54676189D01*
X44332214Y-54676189D02*
X44351262Y-54619047D01*
X44522690Y-54314285D02*
X44541738Y-54257142D01*
X44541738Y-54257142D02*
X44560786Y-54238095D01*
X44560786Y-54238095D02*
X44598881Y-54219047D01*
X44598881Y-54219047D02*
X44656024Y-54219047D01*
X44656024Y-54219047D02*
X44694119Y-54238095D01*
X44694119Y-54238095D02*
X44713167Y-54257142D01*
X44713167Y-54257142D02*
X44732214Y-54295237D01*
X44732214Y-54295237D02*
X44732214Y-54447618D01*
X44732214Y-54447618D02*
X44332214Y-54447618D01*
X44332214Y-54447618D02*
X44332214Y-54314285D01*
X44332214Y-54314285D02*
X44351262Y-54276190D01*
X44351262Y-54276190D02*
X44370309Y-54257142D01*
X44370309Y-54257142D02*
X44408405Y-54238095D01*
X44408405Y-54238095D02*
X44446500Y-54238095D01*
X44446500Y-54238095D02*
X44484595Y-54257142D01*
X44484595Y-54257142D02*
X44503643Y-54276190D01*
X44503643Y-54276190D02*
X44522690Y-54314285D01*
X44522690Y-54314285D02*
X44522690Y-54447618D01*
X44732214Y-53857142D02*
X44732214Y-54047618D01*
X44732214Y-54047618D02*
X44332214Y-54047618D01*
X44522690Y-53723808D02*
X44522690Y-53590475D01*
X44732214Y-53533332D02*
X44732214Y-53723808D01*
X44732214Y-53723808D02*
X44332214Y-53723808D01*
X44332214Y-53723808D02*
X44332214Y-53533332D01*
X44732214Y-53361903D02*
X44332214Y-53361903D01*
X44332214Y-53361903D02*
X44332214Y-53266665D01*
X44332214Y-53266665D02*
X44351262Y-53209522D01*
X44351262Y-53209522D02*
X44389357Y-53171427D01*
X44389357Y-53171427D02*
X44427452Y-53152380D01*
X44427452Y-53152380D02*
X44503643Y-53133332D01*
X44503643Y-53133332D02*
X44560786Y-53133332D01*
X44560786Y-53133332D02*
X44636976Y-53152380D01*
X44636976Y-53152380D02*
X44675071Y-53171427D01*
X44675071Y-53171427D02*
X44713167Y-53209522D01*
X44713167Y-53209522D02*
X44732214Y-53266665D01*
X44732214Y-53266665D02*
X44732214Y-53361903D01*
D11*
X38796241Y-95124000D02*
X38829575Y-95157333D01*
X38829575Y-95157333D02*
X38862908Y-95257333D01*
X38862908Y-95257333D02*
X38862908Y-95324000D01*
X38862908Y-95324000D02*
X38829575Y-95424000D01*
X38829575Y-95424000D02*
X38762908Y-95490667D01*
X38762908Y-95490667D02*
X38696241Y-95524000D01*
X38696241Y-95524000D02*
X38562908Y-95557333D01*
X38562908Y-95557333D02*
X38462908Y-95557333D01*
X38462908Y-95557333D02*
X38329575Y-95524000D01*
X38329575Y-95524000D02*
X38262908Y-95490667D01*
X38262908Y-95490667D02*
X38196241Y-95424000D01*
X38196241Y-95424000D02*
X38162908Y-95324000D01*
X38162908Y-95324000D02*
X38162908Y-95257333D01*
X38162908Y-95257333D02*
X38196241Y-95157333D01*
X38196241Y-95157333D02*
X38229575Y-95124000D01*
X38162908Y-94890667D02*
X38162908Y-94457333D01*
X38162908Y-94457333D02*
X38429575Y-94690667D01*
X38429575Y-94690667D02*
X38429575Y-94590667D01*
X38429575Y-94590667D02*
X38462908Y-94524000D01*
X38462908Y-94524000D02*
X38496241Y-94490667D01*
X38496241Y-94490667D02*
X38562908Y-94457333D01*
X38562908Y-94457333D02*
X38729575Y-94457333D01*
X38729575Y-94457333D02*
X38796241Y-94490667D01*
X38796241Y-94490667D02*
X38829575Y-94524000D01*
X38829575Y-94524000D02*
X38862908Y-94590667D01*
X38862908Y-94590667D02*
X38862908Y-94790667D01*
X38862908Y-94790667D02*
X38829575Y-94857333D01*
X38829575Y-94857333D02*
X38796241Y-94890667D01*
X38162908Y-93824000D02*
X38162908Y-94157333D01*
X38162908Y-94157333D02*
X38496241Y-94190666D01*
X38496241Y-94190666D02*
X38462908Y-94157333D01*
X38462908Y-94157333D02*
X38429575Y-94090666D01*
X38429575Y-94090666D02*
X38429575Y-93924000D01*
X38429575Y-93924000D02*
X38462908Y-93857333D01*
X38462908Y-93857333D02*
X38496241Y-93824000D01*
X38496241Y-93824000D02*
X38562908Y-93790666D01*
X38562908Y-93790666D02*
X38729575Y-93790666D01*
X38729575Y-93790666D02*
X38796241Y-93824000D01*
X38796241Y-93824000D02*
X38829575Y-93857333D01*
X38829575Y-93857333D02*
X38862908Y-93924000D01*
X38862908Y-93924000D02*
X38862908Y-94090666D01*
X38862908Y-94090666D02*
X38829575Y-94157333D01*
X38829575Y-94157333D02*
X38796241Y-94190666D01*
X48718151Y-80681428D02*
X48413389Y-80894762D01*
X48718151Y-81047143D02*
X48078151Y-81047143D01*
X48078151Y-81047143D02*
X48078151Y-80803333D01*
X48078151Y-80803333D02*
X48108627Y-80742381D01*
X48108627Y-80742381D02*
X48139103Y-80711904D01*
X48139103Y-80711904D02*
X48200055Y-80681428D01*
X48200055Y-80681428D02*
X48291484Y-80681428D01*
X48291484Y-80681428D02*
X48352436Y-80711904D01*
X48352436Y-80711904D02*
X48382913Y-80742381D01*
X48382913Y-80742381D02*
X48413389Y-80803333D01*
X48413389Y-80803333D02*
X48413389Y-81047143D01*
X48139103Y-80437619D02*
X48108627Y-80407143D01*
X48108627Y-80407143D02*
X48078151Y-80346190D01*
X48078151Y-80346190D02*
X48078151Y-80193809D01*
X48078151Y-80193809D02*
X48108627Y-80132857D01*
X48108627Y-80132857D02*
X48139103Y-80102381D01*
X48139103Y-80102381D02*
X48200055Y-80071904D01*
X48200055Y-80071904D02*
X48261008Y-80071904D01*
X48261008Y-80071904D02*
X48352436Y-80102381D01*
X48352436Y-80102381D02*
X48718151Y-80468095D01*
X48718151Y-80468095D02*
X48718151Y-80071904D01*
X48078151Y-79858571D02*
X48078151Y-79462380D01*
X48078151Y-79462380D02*
X48321960Y-79675714D01*
X48321960Y-79675714D02*
X48321960Y-79584285D01*
X48321960Y-79584285D02*
X48352436Y-79523333D01*
X48352436Y-79523333D02*
X48382913Y-79492857D01*
X48382913Y-79492857D02*
X48443865Y-79462380D01*
X48443865Y-79462380D02*
X48596246Y-79462380D01*
X48596246Y-79462380D02*
X48657198Y-79492857D01*
X48657198Y-79492857D02*
X48687675Y-79523333D01*
X48687675Y-79523333D02*
X48718151Y-79584285D01*
X48718151Y-79584285D02*
X48718151Y-79767142D01*
X48718151Y-79767142D02*
X48687675Y-79828095D01*
X48687675Y-79828095D02*
X48657198Y-79858571D01*
D10*
X44196428Y-50644771D02*
X44396428Y-51244771D01*
X44396428Y-51244771D02*
X44596428Y-50644771D01*
X44996429Y-50930485D02*
X45082143Y-50959057D01*
X45082143Y-50959057D02*
X45110714Y-50987628D01*
X45110714Y-50987628D02*
X45139286Y-51044771D01*
X45139286Y-51044771D02*
X45139286Y-51130485D01*
X45139286Y-51130485D02*
X45110714Y-51187628D01*
X45110714Y-51187628D02*
X45082143Y-51216200D01*
X45082143Y-51216200D02*
X45025000Y-51244771D01*
X45025000Y-51244771D02*
X44796429Y-51244771D01*
X44796429Y-51244771D02*
X44796429Y-50644771D01*
X44796429Y-50644771D02*
X44996429Y-50644771D01*
X44996429Y-50644771D02*
X45053572Y-50673342D01*
X45053572Y-50673342D02*
X45082143Y-50701914D01*
X45082143Y-50701914D02*
X45110714Y-50759057D01*
X45110714Y-50759057D02*
X45110714Y-50816200D01*
X45110714Y-50816200D02*
X45082143Y-50873342D01*
X45082143Y-50873342D02*
X45053572Y-50901914D01*
X45053572Y-50901914D02*
X44996429Y-50930485D01*
X44996429Y-50930485D02*
X44796429Y-50930485D01*
X45396429Y-50644771D02*
X45396429Y-51130485D01*
X45396429Y-51130485D02*
X45425000Y-51187628D01*
X45425000Y-51187628D02*
X45453572Y-51216200D01*
X45453572Y-51216200D02*
X45510714Y-51244771D01*
X45510714Y-51244771D02*
X45625000Y-51244771D01*
X45625000Y-51244771D02*
X45682143Y-51216200D01*
X45682143Y-51216200D02*
X45710714Y-51187628D01*
X45710714Y-51187628D02*
X45739286Y-51130485D01*
X45739286Y-51130485D02*
X45739286Y-50644771D01*
X45996428Y-51216200D02*
X46082143Y-51244771D01*
X46082143Y-51244771D02*
X46225000Y-51244771D01*
X46225000Y-51244771D02*
X46282143Y-51216200D01*
X46282143Y-51216200D02*
X46310714Y-51187628D01*
X46310714Y-51187628D02*
X46339285Y-51130485D01*
X46339285Y-51130485D02*
X46339285Y-51073342D01*
X46339285Y-51073342D02*
X46310714Y-51016200D01*
X46310714Y-51016200D02*
X46282143Y-50987628D01*
X46282143Y-50987628D02*
X46225000Y-50959057D01*
X46225000Y-50959057D02*
X46110714Y-50930485D01*
X46110714Y-50930485D02*
X46053571Y-50901914D01*
X46053571Y-50901914D02*
X46025000Y-50873342D01*
X46025000Y-50873342D02*
X45996428Y-50816200D01*
X45996428Y-50816200D02*
X45996428Y-50759057D01*
X45996428Y-50759057D02*
X46025000Y-50701914D01*
X46025000Y-50701914D02*
X46053571Y-50673342D01*
X46053571Y-50673342D02*
X46110714Y-50644771D01*
X46110714Y-50644771D02*
X46253571Y-50644771D01*
X46253571Y-50644771D02*
X46339285Y-50673342D01*
X46510714Y-50644771D02*
X46853572Y-50644771D01*
X46682143Y-51244771D02*
X46682143Y-50644771D01*
X47053572Y-51244771D02*
X47053572Y-50644771D01*
X47053572Y-50644771D02*
X47282143Y-50644771D01*
X47282143Y-50644771D02*
X47339286Y-50673342D01*
X47339286Y-50673342D02*
X47367857Y-50701914D01*
X47367857Y-50701914D02*
X47396429Y-50759057D01*
X47396429Y-50759057D02*
X47396429Y-50844771D01*
X47396429Y-50844771D02*
X47367857Y-50901914D01*
X47367857Y-50901914D02*
X47339286Y-50930485D01*
X47339286Y-50930485D02*
X47282143Y-50959057D01*
X47282143Y-50959057D02*
X47053572Y-50959057D01*
D12*
X43524809Y-43270952D02*
X43929571Y-43270952D01*
X43929571Y-43270952D02*
X43977190Y-43247142D01*
X43977190Y-43247142D02*
X44001000Y-43223333D01*
X44001000Y-43223333D02*
X44024809Y-43175714D01*
X44024809Y-43175714D02*
X44024809Y-43080476D01*
X44024809Y-43080476D02*
X44001000Y-43032857D01*
X44001000Y-43032857D02*
X43977190Y-43009047D01*
X43977190Y-43009047D02*
X43929571Y-42985238D01*
X43929571Y-42985238D02*
X43524809Y-42985238D01*
X43524809Y-42794761D02*
X43524809Y-42485237D01*
X43524809Y-42485237D02*
X43715285Y-42651904D01*
X43715285Y-42651904D02*
X43715285Y-42580475D01*
X43715285Y-42580475D02*
X43739095Y-42532856D01*
X43739095Y-42532856D02*
X43762904Y-42509047D01*
X43762904Y-42509047D02*
X43810523Y-42485237D01*
X43810523Y-42485237D02*
X43929571Y-42485237D01*
X43929571Y-42485237D02*
X43977190Y-42509047D01*
X43977190Y-42509047D02*
X44001000Y-42532856D01*
X44001000Y-42532856D02*
X44024809Y-42580475D01*
X44024809Y-42580475D02*
X44024809Y-42723332D01*
X44024809Y-42723332D02*
X44001000Y-42770951D01*
X44001000Y-42770951D02*
X43977190Y-42794761D01*
X38091666Y-46599809D02*
X37853571Y-46599809D01*
X37853571Y-46599809D02*
X37853571Y-46099809D01*
X38210714Y-46099809D02*
X38520238Y-46099809D01*
X38520238Y-46099809D02*
X38353571Y-46290285D01*
X38353571Y-46290285D02*
X38425000Y-46290285D01*
X38425000Y-46290285D02*
X38472619Y-46314095D01*
X38472619Y-46314095D02*
X38496428Y-46337904D01*
X38496428Y-46337904D02*
X38520238Y-46385523D01*
X38520238Y-46385523D02*
X38520238Y-46504571D01*
X38520238Y-46504571D02*
X38496428Y-46552190D01*
X38496428Y-46552190D02*
X38472619Y-46576000D01*
X38472619Y-46576000D02*
X38425000Y-46599809D01*
X38425000Y-46599809D02*
X38282143Y-46599809D01*
X38282143Y-46599809D02*
X38234524Y-46576000D01*
X38234524Y-46576000D02*
X38210714Y-46552190D01*
D10*
X45384285Y-72629771D02*
X45727143Y-72629771D01*
X45555714Y-73229771D02*
X45555714Y-72629771D01*
X45870000Y-72629771D02*
X46270000Y-73229771D01*
X46270000Y-72629771D02*
X45870000Y-73229771D01*
X46412857Y-72629771D02*
X46755715Y-72629771D01*
X46584286Y-73229771D02*
X46584286Y-72629771D01*
X46955715Y-73229771D02*
X46955715Y-72629771D01*
X46955715Y-72629771D02*
X47184286Y-72629771D01*
X47184286Y-72629771D02*
X47241429Y-72658342D01*
X47241429Y-72658342D02*
X47270000Y-72686914D01*
X47270000Y-72686914D02*
X47298572Y-72744057D01*
X47298572Y-72744057D02*
X47298572Y-72829771D01*
X47298572Y-72829771D02*
X47270000Y-72886914D01*
X47270000Y-72886914D02*
X47241429Y-72915485D01*
X47241429Y-72915485D02*
X47184286Y-72944057D01*
X47184286Y-72944057D02*
X46955715Y-72944057D01*
X45317857Y-56944771D02*
X45317857Y-57430485D01*
X45317857Y-57430485D02*
X45346428Y-57487628D01*
X45346428Y-57487628D02*
X45375000Y-57516200D01*
X45375000Y-57516200D02*
X45432142Y-57544771D01*
X45432142Y-57544771D02*
X45546428Y-57544771D01*
X45546428Y-57544771D02*
X45603571Y-57516200D01*
X45603571Y-57516200D02*
X45632142Y-57487628D01*
X45632142Y-57487628D02*
X45660714Y-57430485D01*
X45660714Y-57430485D02*
X45660714Y-56944771D01*
X46260713Y-57544771D02*
X45917856Y-57544771D01*
X46089285Y-57544771D02*
X46089285Y-56944771D01*
X46089285Y-56944771D02*
X46032142Y-57030485D01*
X46032142Y-57030485D02*
X45974999Y-57087628D01*
X45974999Y-57087628D02*
X45917856Y-57116200D01*
X43135771Y-54620570D02*
X42850057Y-54820570D01*
X43135771Y-54963427D02*
X42535771Y-54963427D01*
X42535771Y-54963427D02*
X42535771Y-54734856D01*
X42535771Y-54734856D02*
X42564342Y-54677713D01*
X42564342Y-54677713D02*
X42592914Y-54649142D01*
X42592914Y-54649142D02*
X42650057Y-54620570D01*
X42650057Y-54620570D02*
X42735771Y-54620570D01*
X42735771Y-54620570D02*
X42792914Y-54649142D01*
X42792914Y-54649142D02*
X42821485Y-54677713D01*
X42821485Y-54677713D02*
X42850057Y-54734856D01*
X42850057Y-54734856D02*
X42850057Y-54963427D01*
X42821485Y-54163427D02*
X42850057Y-54077713D01*
X42850057Y-54077713D02*
X42878628Y-54049142D01*
X42878628Y-54049142D02*
X42935771Y-54020570D01*
X42935771Y-54020570D02*
X43021485Y-54020570D01*
X43021485Y-54020570D02*
X43078628Y-54049142D01*
X43078628Y-54049142D02*
X43107200Y-54077713D01*
X43107200Y-54077713D02*
X43135771Y-54134856D01*
X43135771Y-54134856D02*
X43135771Y-54363427D01*
X43135771Y-54363427D02*
X42535771Y-54363427D01*
X42535771Y-54363427D02*
X42535771Y-54163427D01*
X42535771Y-54163427D02*
X42564342Y-54106285D01*
X42564342Y-54106285D02*
X42592914Y-54077713D01*
X42592914Y-54077713D02*
X42650057Y-54049142D01*
X42650057Y-54049142D02*
X42707200Y-54049142D01*
X42707200Y-54049142D02*
X42764342Y-54077713D01*
X42764342Y-54077713D02*
X42792914Y-54106285D01*
X42792914Y-54106285D02*
X42821485Y-54163427D01*
X42821485Y-54163427D02*
X42821485Y-54363427D01*
X42735771Y-53763427D02*
X43335771Y-53763427D01*
X43050057Y-53477713D02*
X43107200Y-53449142D01*
X43107200Y-53449142D02*
X43135771Y-53391999D01*
X43050057Y-53763427D02*
X43107200Y-53734856D01*
X43107200Y-53734856D02*
X43135771Y-53677713D01*
X43135771Y-53677713D02*
X43135771Y-53563427D01*
X43135771Y-53563427D02*
X43107200Y-53506285D01*
X43107200Y-53506285D02*
X43050057Y-53477713D01*
X43050057Y-53477713D02*
X42735771Y-53477713D01*
X43078628Y-52791999D02*
X43107200Y-52820571D01*
X43107200Y-52820571D02*
X43135771Y-52906285D01*
X43135771Y-52906285D02*
X43135771Y-52963428D01*
X43135771Y-52963428D02*
X43107200Y-53049142D01*
X43107200Y-53049142D02*
X43050057Y-53106285D01*
X43050057Y-53106285D02*
X42992914Y-53134856D01*
X42992914Y-53134856D02*
X42878628Y-53163428D01*
X42878628Y-53163428D02*
X42792914Y-53163428D01*
X42792914Y-53163428D02*
X42678628Y-53134856D01*
X42678628Y-53134856D02*
X42621485Y-53106285D01*
X42621485Y-53106285D02*
X42564342Y-53049142D01*
X42564342Y-53049142D02*
X42535771Y-52963428D01*
X42535771Y-52963428D02*
X42535771Y-52906285D01*
X42535771Y-52906285D02*
X42564342Y-52820571D01*
X42564342Y-52820571D02*
X42592914Y-52791999D01*
X41096857Y-56866271D02*
X41096857Y-57351985D01*
X41096857Y-57351985D02*
X41125428Y-57409128D01*
X41125428Y-57409128D02*
X41154000Y-57437700D01*
X41154000Y-57437700D02*
X41211142Y-57466271D01*
X41211142Y-57466271D02*
X41325428Y-57466271D01*
X41325428Y-57466271D02*
X41382571Y-57437700D01*
X41382571Y-57437700D02*
X41411142Y-57409128D01*
X41411142Y-57409128D02*
X41439714Y-57351985D01*
X41439714Y-57351985D02*
X41439714Y-56866271D01*
X41696856Y-56923414D02*
X41725428Y-56894842D01*
X41725428Y-56894842D02*
X41782571Y-56866271D01*
X41782571Y-56866271D02*
X41925428Y-56866271D01*
X41925428Y-56866271D02*
X41982571Y-56894842D01*
X41982571Y-56894842D02*
X42011142Y-56923414D01*
X42011142Y-56923414D02*
X42039713Y-56980557D01*
X42039713Y-56980557D02*
X42039713Y-57037700D01*
X42039713Y-57037700D02*
X42011142Y-57123414D01*
X42011142Y-57123414D02*
X41668285Y-57466271D01*
X41668285Y-57466271D02*
X42039713Y-57466271D01*
D12*
X36678571Y-48267190D02*
X36654762Y-48291000D01*
X36654762Y-48291000D02*
X36583333Y-48314809D01*
X36583333Y-48314809D02*
X36535714Y-48314809D01*
X36535714Y-48314809D02*
X36464286Y-48291000D01*
X36464286Y-48291000D02*
X36416667Y-48243380D01*
X36416667Y-48243380D02*
X36392857Y-48195761D01*
X36392857Y-48195761D02*
X36369048Y-48100523D01*
X36369048Y-48100523D02*
X36369048Y-48029095D01*
X36369048Y-48029095D02*
X36392857Y-47933857D01*
X36392857Y-47933857D02*
X36416667Y-47886238D01*
X36416667Y-47886238D02*
X36464286Y-47838619D01*
X36464286Y-47838619D02*
X36535714Y-47814809D01*
X36535714Y-47814809D02*
X36583333Y-47814809D01*
X36583333Y-47814809D02*
X36654762Y-47838619D01*
X36654762Y-47838619D02*
X36678571Y-47862428D01*
X36869048Y-47862428D02*
X36892857Y-47838619D01*
X36892857Y-47838619D02*
X36940476Y-47814809D01*
X36940476Y-47814809D02*
X37059524Y-47814809D01*
X37059524Y-47814809D02*
X37107143Y-47838619D01*
X37107143Y-47838619D02*
X37130952Y-47862428D01*
X37130952Y-47862428D02*
X37154762Y-47910047D01*
X37154762Y-47910047D02*
X37154762Y-47957666D01*
X37154762Y-47957666D02*
X37130952Y-48029095D01*
X37130952Y-48029095D02*
X36845238Y-48314809D01*
X36845238Y-48314809D02*
X37154762Y-48314809D01*
X37321428Y-47814809D02*
X37654761Y-47814809D01*
X37654761Y-47814809D02*
X37440476Y-48314809D01*
D10*
X37250000Y-60119771D02*
X37050000Y-59834057D01*
X36907143Y-60119771D02*
X36907143Y-59519771D01*
X36907143Y-59519771D02*
X37135714Y-59519771D01*
X37135714Y-59519771D02*
X37192857Y-59548342D01*
X37192857Y-59548342D02*
X37221428Y-59576914D01*
X37221428Y-59576914D02*
X37250000Y-59634057D01*
X37250000Y-59634057D02*
X37250000Y-59719771D01*
X37250000Y-59719771D02*
X37221428Y-59776914D01*
X37221428Y-59776914D02*
X37192857Y-59805485D01*
X37192857Y-59805485D02*
X37135714Y-59834057D01*
X37135714Y-59834057D02*
X36907143Y-59834057D01*
X37535714Y-60119771D02*
X37650000Y-60119771D01*
X37650000Y-60119771D02*
X37707143Y-60091200D01*
X37707143Y-60091200D02*
X37735714Y-60062628D01*
X37735714Y-60062628D02*
X37792857Y-59976914D01*
X37792857Y-59976914D02*
X37821428Y-59862628D01*
X37821428Y-59862628D02*
X37821428Y-59634057D01*
X37821428Y-59634057D02*
X37792857Y-59576914D01*
X37792857Y-59576914D02*
X37764286Y-59548342D01*
X37764286Y-59548342D02*
X37707143Y-59519771D01*
X37707143Y-59519771D02*
X37592857Y-59519771D01*
X37592857Y-59519771D02*
X37535714Y-59548342D01*
X37535714Y-59548342D02*
X37507143Y-59576914D01*
X37507143Y-59576914D02*
X37478571Y-59634057D01*
X37478571Y-59634057D02*
X37478571Y-59776914D01*
X37478571Y-59776914D02*
X37507143Y-59834057D01*
X37507143Y-59834057D02*
X37535714Y-59862628D01*
X37535714Y-59862628D02*
X37592857Y-59891200D01*
X37592857Y-59891200D02*
X37707143Y-59891200D01*
X37707143Y-59891200D02*
X37764286Y-59862628D01*
X37764286Y-59862628D02*
X37792857Y-59834057D01*
X37792857Y-59834057D02*
X37821428Y-59776914D01*
X53412628Y-87535714D02*
X53441200Y-87564286D01*
X53441200Y-87564286D02*
X53469771Y-87650000D01*
X53469771Y-87650000D02*
X53469771Y-87707143D01*
X53469771Y-87707143D02*
X53441200Y-87792857D01*
X53441200Y-87792857D02*
X53384057Y-87850000D01*
X53384057Y-87850000D02*
X53326914Y-87878571D01*
X53326914Y-87878571D02*
X53212628Y-87907143D01*
X53212628Y-87907143D02*
X53126914Y-87907143D01*
X53126914Y-87907143D02*
X53012628Y-87878571D01*
X53012628Y-87878571D02*
X52955485Y-87850000D01*
X52955485Y-87850000D02*
X52898342Y-87792857D01*
X52898342Y-87792857D02*
X52869771Y-87707143D01*
X52869771Y-87707143D02*
X52869771Y-87650000D01*
X52869771Y-87650000D02*
X52898342Y-87564286D01*
X52898342Y-87564286D02*
X52926914Y-87535714D01*
X52926914Y-87307143D02*
X52898342Y-87278571D01*
X52898342Y-87278571D02*
X52869771Y-87221429D01*
X52869771Y-87221429D02*
X52869771Y-87078571D01*
X52869771Y-87078571D02*
X52898342Y-87021429D01*
X52898342Y-87021429D02*
X52926914Y-86992857D01*
X52926914Y-86992857D02*
X52984057Y-86964286D01*
X52984057Y-86964286D02*
X53041200Y-86964286D01*
X53041200Y-86964286D02*
X53126914Y-86992857D01*
X53126914Y-86992857D02*
X53469771Y-87335714D01*
X53469771Y-87335714D02*
X53469771Y-86964286D01*
X53469771Y-86678571D02*
X53469771Y-86564285D01*
X53469771Y-86564285D02*
X53441200Y-86507142D01*
X53441200Y-86507142D02*
X53412628Y-86478571D01*
X53412628Y-86478571D02*
X53326914Y-86421428D01*
X53326914Y-86421428D02*
X53212628Y-86392857D01*
X53212628Y-86392857D02*
X52984057Y-86392857D01*
X52984057Y-86392857D02*
X52926914Y-86421428D01*
X52926914Y-86421428D02*
X52898342Y-86450000D01*
X52898342Y-86450000D02*
X52869771Y-86507142D01*
X52869771Y-86507142D02*
X52869771Y-86621428D01*
X52869771Y-86621428D02*
X52898342Y-86678571D01*
X52898342Y-86678571D02*
X52926914Y-86707142D01*
X52926914Y-86707142D02*
X52984057Y-86735714D01*
X52984057Y-86735714D02*
X53126914Y-86735714D01*
X53126914Y-86735714D02*
X53184057Y-86707142D01*
X53184057Y-86707142D02*
X53212628Y-86678571D01*
X53212628Y-86678571D02*
X53241200Y-86621428D01*
X53241200Y-86621428D02*
X53241200Y-86507142D01*
X53241200Y-86507142D02*
X53212628Y-86450000D01*
X53212628Y-86450000D02*
X53184057Y-86421428D01*
X53184057Y-86421428D02*
X53126914Y-86392857D01*
D12*
X45249809Y-87805952D02*
X45654571Y-87805952D01*
X45654571Y-87805952D02*
X45702190Y-87782142D01*
X45702190Y-87782142D02*
X45726000Y-87758333D01*
X45726000Y-87758333D02*
X45749809Y-87710714D01*
X45749809Y-87710714D02*
X45749809Y-87615476D01*
X45749809Y-87615476D02*
X45726000Y-87567857D01*
X45726000Y-87567857D02*
X45702190Y-87544047D01*
X45702190Y-87544047D02*
X45654571Y-87520238D01*
X45654571Y-87520238D02*
X45249809Y-87520238D01*
X45249809Y-87067856D02*
X45249809Y-87163094D01*
X45249809Y-87163094D02*
X45273619Y-87210713D01*
X45273619Y-87210713D02*
X45297428Y-87234523D01*
X45297428Y-87234523D02*
X45368857Y-87282142D01*
X45368857Y-87282142D02*
X45464095Y-87305951D01*
X45464095Y-87305951D02*
X45654571Y-87305951D01*
X45654571Y-87305951D02*
X45702190Y-87282142D01*
X45702190Y-87282142D02*
X45726000Y-87258332D01*
X45726000Y-87258332D02*
X45749809Y-87210713D01*
X45749809Y-87210713D02*
X45749809Y-87115475D01*
X45749809Y-87115475D02*
X45726000Y-87067856D01*
X45726000Y-87067856D02*
X45702190Y-87044047D01*
X45702190Y-87044047D02*
X45654571Y-87020237D01*
X45654571Y-87020237D02*
X45535523Y-87020237D01*
X45535523Y-87020237D02*
X45487904Y-87044047D01*
X45487904Y-87044047D02*
X45464095Y-87067856D01*
X45464095Y-87067856D02*
X45440285Y-87115475D01*
X45440285Y-87115475D02*
X45440285Y-87210713D01*
X45440285Y-87210713D02*
X45464095Y-87258332D01*
X45464095Y-87258332D02*
X45487904Y-87282142D01*
X45487904Y-87282142D02*
X45535523Y-87305951D01*
D10*
X39069523Y-77303819D02*
X38736190Y-76827628D01*
X38498095Y-77303819D02*
X38498095Y-76303819D01*
X38498095Y-76303819D02*
X38879047Y-76303819D01*
X38879047Y-76303819D02*
X38974285Y-76351438D01*
X38974285Y-76351438D02*
X39021904Y-76399057D01*
X39021904Y-76399057D02*
X39069523Y-76494295D01*
X39069523Y-76494295D02*
X39069523Y-76637152D01*
X39069523Y-76637152D02*
X39021904Y-76732390D01*
X39021904Y-76732390D02*
X38974285Y-76780009D01*
X38974285Y-76780009D02*
X38879047Y-76827628D01*
X38879047Y-76827628D02*
X38498095Y-76827628D01*
X39831428Y-76780009D02*
X39974285Y-76827628D01*
X39974285Y-76827628D02*
X40021904Y-76875247D01*
X40021904Y-76875247D02*
X40069523Y-76970485D01*
X40069523Y-76970485D02*
X40069523Y-77113342D01*
X40069523Y-77113342D02*
X40021904Y-77208580D01*
X40021904Y-77208580D02*
X39974285Y-77256200D01*
X39974285Y-77256200D02*
X39879047Y-77303819D01*
X39879047Y-77303819D02*
X39498095Y-77303819D01*
X39498095Y-77303819D02*
X39498095Y-76303819D01*
X39498095Y-76303819D02*
X39831428Y-76303819D01*
X39831428Y-76303819D02*
X39926666Y-76351438D01*
X39926666Y-76351438D02*
X39974285Y-76399057D01*
X39974285Y-76399057D02*
X40021904Y-76494295D01*
X40021904Y-76494295D02*
X40021904Y-76589533D01*
X40021904Y-76589533D02*
X39974285Y-76684771D01*
X39974285Y-76684771D02*
X39926666Y-76732390D01*
X39926666Y-76732390D02*
X39831428Y-76780009D01*
X39831428Y-76780009D02*
X39498095Y-76780009D01*
X40498095Y-76303819D02*
X40498095Y-77113342D01*
X40498095Y-77113342D02*
X40545714Y-77208580D01*
X40545714Y-77208580D02*
X40593333Y-77256200D01*
X40593333Y-77256200D02*
X40688571Y-77303819D01*
X40688571Y-77303819D02*
X40879047Y-77303819D01*
X40879047Y-77303819D02*
X40974285Y-77256200D01*
X40974285Y-77256200D02*
X41021904Y-77208580D01*
X41021904Y-77208580D02*
X41069523Y-77113342D01*
X41069523Y-77113342D02*
X41069523Y-76303819D01*
X41498095Y-77256200D02*
X41640952Y-77303819D01*
X41640952Y-77303819D02*
X41879047Y-77303819D01*
X41879047Y-77303819D02*
X41974285Y-77256200D01*
X41974285Y-77256200D02*
X42021904Y-77208580D01*
X42021904Y-77208580D02*
X42069523Y-77113342D01*
X42069523Y-77113342D02*
X42069523Y-77018104D01*
X42069523Y-77018104D02*
X42021904Y-76922866D01*
X42021904Y-76922866D02*
X41974285Y-76875247D01*
X41974285Y-76875247D02*
X41879047Y-76827628D01*
X41879047Y-76827628D02*
X41688571Y-76780009D01*
X41688571Y-76780009D02*
X41593333Y-76732390D01*
X41593333Y-76732390D02*
X41545714Y-76684771D01*
X41545714Y-76684771D02*
X41498095Y-76589533D01*
X41498095Y-76589533D02*
X41498095Y-76494295D01*
X41498095Y-76494295D02*
X41545714Y-76399057D01*
X41545714Y-76399057D02*
X41593333Y-76351438D01*
X41593333Y-76351438D02*
X41688571Y-76303819D01*
X41688571Y-76303819D02*
X41926666Y-76303819D01*
X41926666Y-76303819D02*
X42069523Y-76351438D01*
X44300000Y-68819771D02*
X44100000Y-68534057D01*
X43957143Y-68819771D02*
X43957143Y-68219771D01*
X43957143Y-68219771D02*
X44185714Y-68219771D01*
X44185714Y-68219771D02*
X44242857Y-68248342D01*
X44242857Y-68248342D02*
X44271428Y-68276914D01*
X44271428Y-68276914D02*
X44300000Y-68334057D01*
X44300000Y-68334057D02*
X44300000Y-68419771D01*
X44300000Y-68419771D02*
X44271428Y-68476914D01*
X44271428Y-68476914D02*
X44242857Y-68505485D01*
X44242857Y-68505485D02*
X44185714Y-68534057D01*
X44185714Y-68534057D02*
X43957143Y-68534057D01*
X44500000Y-68219771D02*
X44900000Y-68819771D01*
X44900000Y-68219771D02*
X44500000Y-68819771D01*
X43764286Y-67937628D02*
X43735714Y-67966200D01*
X43735714Y-67966200D02*
X43650000Y-67994771D01*
X43650000Y-67994771D02*
X43592857Y-67994771D01*
X43592857Y-67994771D02*
X43507143Y-67966200D01*
X43507143Y-67966200D02*
X43450000Y-67909057D01*
X43450000Y-67909057D02*
X43421429Y-67851914D01*
X43421429Y-67851914D02*
X43392857Y-67737628D01*
X43392857Y-67737628D02*
X43392857Y-67651914D01*
X43392857Y-67651914D02*
X43421429Y-67537628D01*
X43421429Y-67537628D02*
X43450000Y-67480485D01*
X43450000Y-67480485D02*
X43507143Y-67423342D01*
X43507143Y-67423342D02*
X43592857Y-67394771D01*
X43592857Y-67394771D02*
X43650000Y-67394771D01*
X43650000Y-67394771D02*
X43735714Y-67423342D01*
X43735714Y-67423342D02*
X43764286Y-67451914D01*
X43992857Y-67823342D02*
X44278572Y-67823342D01*
X43935714Y-67994771D02*
X44135714Y-67394771D01*
X44135714Y-67394771D02*
X44335714Y-67994771D01*
X44535715Y-67994771D02*
X44535715Y-67394771D01*
X44535715Y-67394771D02*
X44878572Y-67994771D01*
X44878572Y-67994771D02*
X44878572Y-67394771D01*
X56200000Y-63537628D02*
X56171428Y-63566200D01*
X56171428Y-63566200D02*
X56085714Y-63594771D01*
X56085714Y-63594771D02*
X56028571Y-63594771D01*
X56028571Y-63594771D02*
X55942857Y-63566200D01*
X55942857Y-63566200D02*
X55885714Y-63509057D01*
X55885714Y-63509057D02*
X55857143Y-63451914D01*
X55857143Y-63451914D02*
X55828571Y-63337628D01*
X55828571Y-63337628D02*
X55828571Y-63251914D01*
X55828571Y-63251914D02*
X55857143Y-63137628D01*
X55857143Y-63137628D02*
X55885714Y-63080485D01*
X55885714Y-63080485D02*
X55942857Y-63023342D01*
X55942857Y-63023342D02*
X56028571Y-62994771D01*
X56028571Y-62994771D02*
X56085714Y-62994771D01*
X56085714Y-62994771D02*
X56171428Y-63023342D01*
X56171428Y-63023342D02*
X56200000Y-63051914D01*
X56714286Y-62994771D02*
X56600000Y-62994771D01*
X56600000Y-62994771D02*
X56542857Y-63023342D01*
X56542857Y-63023342D02*
X56514286Y-63051914D01*
X56514286Y-63051914D02*
X56457143Y-63137628D01*
X56457143Y-63137628D02*
X56428571Y-63251914D01*
X56428571Y-63251914D02*
X56428571Y-63480485D01*
X56428571Y-63480485D02*
X56457143Y-63537628D01*
X56457143Y-63537628D02*
X56485714Y-63566200D01*
X56485714Y-63566200D02*
X56542857Y-63594771D01*
X56542857Y-63594771D02*
X56657143Y-63594771D01*
X56657143Y-63594771D02*
X56714286Y-63566200D01*
X56714286Y-63566200D02*
X56742857Y-63537628D01*
X56742857Y-63537628D02*
X56771428Y-63480485D01*
X56771428Y-63480485D02*
X56771428Y-63337628D01*
X56771428Y-63337628D02*
X56742857Y-63280485D01*
X56742857Y-63280485D02*
X56714286Y-63251914D01*
X56714286Y-63251914D02*
X56657143Y-63223342D01*
X56657143Y-63223342D02*
X56542857Y-63223342D01*
X56542857Y-63223342D02*
X56485714Y-63251914D01*
X56485714Y-63251914D02*
X56457143Y-63280485D01*
X56457143Y-63280485D02*
X56428571Y-63337628D01*
D12*
X45127190Y-46571428D02*
X45151000Y-46595237D01*
X45151000Y-46595237D02*
X45174809Y-46666666D01*
X45174809Y-46666666D02*
X45174809Y-46714285D01*
X45174809Y-46714285D02*
X45151000Y-46785713D01*
X45151000Y-46785713D02*
X45103380Y-46833332D01*
X45103380Y-46833332D02*
X45055761Y-46857142D01*
X45055761Y-46857142D02*
X44960523Y-46880951D01*
X44960523Y-46880951D02*
X44889095Y-46880951D01*
X44889095Y-46880951D02*
X44793857Y-46857142D01*
X44793857Y-46857142D02*
X44746238Y-46833332D01*
X44746238Y-46833332D02*
X44698619Y-46785713D01*
X44698619Y-46785713D02*
X44674809Y-46714285D01*
X44674809Y-46714285D02*
X44674809Y-46666666D01*
X44674809Y-46666666D02*
X44698619Y-46595237D01*
X44698619Y-46595237D02*
X44722428Y-46571428D01*
X44722428Y-46380951D02*
X44698619Y-46357142D01*
X44698619Y-46357142D02*
X44674809Y-46309523D01*
X44674809Y-46309523D02*
X44674809Y-46190475D01*
X44674809Y-46190475D02*
X44698619Y-46142856D01*
X44698619Y-46142856D02*
X44722428Y-46119047D01*
X44722428Y-46119047D02*
X44770047Y-46095237D01*
X44770047Y-46095237D02*
X44817666Y-46095237D01*
X44817666Y-46095237D02*
X44889095Y-46119047D01*
X44889095Y-46119047D02*
X45174809Y-46404761D01*
X45174809Y-46404761D02*
X45174809Y-46095237D01*
X44722428Y-45904761D02*
X44698619Y-45880952D01*
X44698619Y-45880952D02*
X44674809Y-45833333D01*
X44674809Y-45833333D02*
X44674809Y-45714285D01*
X44674809Y-45714285D02*
X44698619Y-45666666D01*
X44698619Y-45666666D02*
X44722428Y-45642857D01*
X44722428Y-45642857D02*
X44770047Y-45619047D01*
X44770047Y-45619047D02*
X44817666Y-45619047D01*
X44817666Y-45619047D02*
X44889095Y-45642857D01*
X44889095Y-45642857D02*
X45174809Y-45928571D01*
X45174809Y-45928571D02*
X45174809Y-45619047D01*
D10*
X47716628Y-69196714D02*
X47745200Y-69225286D01*
X47745200Y-69225286D02*
X47773771Y-69311000D01*
X47773771Y-69311000D02*
X47773771Y-69368143D01*
X47773771Y-69368143D02*
X47745200Y-69453857D01*
X47745200Y-69453857D02*
X47688057Y-69511000D01*
X47688057Y-69511000D02*
X47630914Y-69539571D01*
X47630914Y-69539571D02*
X47516628Y-69568143D01*
X47516628Y-69568143D02*
X47430914Y-69568143D01*
X47430914Y-69568143D02*
X47316628Y-69539571D01*
X47316628Y-69539571D02*
X47259485Y-69511000D01*
X47259485Y-69511000D02*
X47202342Y-69453857D01*
X47202342Y-69453857D02*
X47173771Y-69368143D01*
X47173771Y-69368143D02*
X47173771Y-69311000D01*
X47173771Y-69311000D02*
X47202342Y-69225286D01*
X47202342Y-69225286D02*
X47230914Y-69196714D01*
X47773771Y-68625286D02*
X47773771Y-68968143D01*
X47773771Y-68796714D02*
X47173771Y-68796714D01*
X47173771Y-68796714D02*
X47259485Y-68853857D01*
X47259485Y-68853857D02*
X47316628Y-68911000D01*
X47316628Y-68911000D02*
X47345200Y-68968143D01*
X47173771Y-68425285D02*
X47173771Y-68053857D01*
X47173771Y-68053857D02*
X47402342Y-68253857D01*
X47402342Y-68253857D02*
X47402342Y-68168142D01*
X47402342Y-68168142D02*
X47430914Y-68111000D01*
X47430914Y-68111000D02*
X47459485Y-68082428D01*
X47459485Y-68082428D02*
X47516628Y-68053857D01*
X47516628Y-68053857D02*
X47659485Y-68053857D01*
X47659485Y-68053857D02*
X47716628Y-68082428D01*
X47716628Y-68082428D02*
X47745200Y-68111000D01*
X47745200Y-68111000D02*
X47773771Y-68168142D01*
X47773771Y-68168142D02*
X47773771Y-68339571D01*
X47773771Y-68339571D02*
X47745200Y-68396714D01*
X47745200Y-68396714D02*
X47716628Y-68425285D01*
D12*
X35803571Y-59366405D02*
X35779762Y-59390215D01*
X35779762Y-59390215D02*
X35708333Y-59414024D01*
X35708333Y-59414024D02*
X35660714Y-59414024D01*
X35660714Y-59414024D02*
X35589286Y-59390215D01*
X35589286Y-59390215D02*
X35541667Y-59342595D01*
X35541667Y-59342595D02*
X35517857Y-59294976D01*
X35517857Y-59294976D02*
X35494048Y-59199738D01*
X35494048Y-59199738D02*
X35494048Y-59128310D01*
X35494048Y-59128310D02*
X35517857Y-59033072D01*
X35517857Y-59033072D02*
X35541667Y-58985453D01*
X35541667Y-58985453D02*
X35589286Y-58937834D01*
X35589286Y-58937834D02*
X35660714Y-58914024D01*
X35660714Y-58914024D02*
X35708333Y-58914024D01*
X35708333Y-58914024D02*
X35779762Y-58937834D01*
X35779762Y-58937834D02*
X35803571Y-58961643D01*
X35994048Y-58961643D02*
X36017857Y-58937834D01*
X36017857Y-58937834D02*
X36065476Y-58914024D01*
X36065476Y-58914024D02*
X36184524Y-58914024D01*
X36184524Y-58914024D02*
X36232143Y-58937834D01*
X36232143Y-58937834D02*
X36255952Y-58961643D01*
X36255952Y-58961643D02*
X36279762Y-59009262D01*
X36279762Y-59009262D02*
X36279762Y-59056881D01*
X36279762Y-59056881D02*
X36255952Y-59128310D01*
X36255952Y-59128310D02*
X35970238Y-59414024D01*
X35970238Y-59414024D02*
X36279762Y-59414024D01*
X36732142Y-58914024D02*
X36494047Y-58914024D01*
X36494047Y-58914024D02*
X36470238Y-59152119D01*
X36470238Y-59152119D02*
X36494047Y-59128310D01*
X36494047Y-59128310D02*
X36541666Y-59104500D01*
X36541666Y-59104500D02*
X36660714Y-59104500D01*
X36660714Y-59104500D02*
X36708333Y-59128310D01*
X36708333Y-59128310D02*
X36732142Y-59152119D01*
X36732142Y-59152119D02*
X36755952Y-59199738D01*
X36755952Y-59199738D02*
X36755952Y-59318786D01*
X36755952Y-59318786D02*
X36732142Y-59366405D01*
X36732142Y-59366405D02*
X36708333Y-59390215D01*
X36708333Y-59390215D02*
X36660714Y-59414024D01*
X36660714Y-59414024D02*
X36541666Y-59414024D01*
X36541666Y-59414024D02*
X36494047Y-59390215D01*
X36494047Y-59390215D02*
X36470238Y-59366405D01*
X34528571Y-49049809D02*
X34361905Y-48811714D01*
X34242857Y-49049809D02*
X34242857Y-48549809D01*
X34242857Y-48549809D02*
X34433333Y-48549809D01*
X34433333Y-48549809D02*
X34480952Y-48573619D01*
X34480952Y-48573619D02*
X34504762Y-48597428D01*
X34504762Y-48597428D02*
X34528571Y-48645047D01*
X34528571Y-48645047D02*
X34528571Y-48716476D01*
X34528571Y-48716476D02*
X34504762Y-48764095D01*
X34504762Y-48764095D02*
X34480952Y-48787904D01*
X34480952Y-48787904D02*
X34433333Y-48811714D01*
X34433333Y-48811714D02*
X34242857Y-48811714D01*
X35004762Y-49049809D02*
X34719048Y-49049809D01*
X34861905Y-49049809D02*
X34861905Y-48549809D01*
X34861905Y-48549809D02*
X34814286Y-48621238D01*
X34814286Y-48621238D02*
X34766667Y-48668857D01*
X34766667Y-48668857D02*
X34719048Y-48692666D01*
X35433333Y-48549809D02*
X35338095Y-48549809D01*
X35338095Y-48549809D02*
X35290476Y-48573619D01*
X35290476Y-48573619D02*
X35266666Y-48597428D01*
X35266666Y-48597428D02*
X35219047Y-48668857D01*
X35219047Y-48668857D02*
X35195238Y-48764095D01*
X35195238Y-48764095D02*
X35195238Y-48954571D01*
X35195238Y-48954571D02*
X35219047Y-49002190D01*
X35219047Y-49002190D02*
X35242857Y-49026000D01*
X35242857Y-49026000D02*
X35290476Y-49049809D01*
X35290476Y-49049809D02*
X35385714Y-49049809D01*
X35385714Y-49049809D02*
X35433333Y-49026000D01*
X35433333Y-49026000D02*
X35457142Y-49002190D01*
X35457142Y-49002190D02*
X35480952Y-48954571D01*
X35480952Y-48954571D02*
X35480952Y-48835523D01*
X35480952Y-48835523D02*
X35457142Y-48787904D01*
X35457142Y-48787904D02*
X35433333Y-48764095D01*
X35433333Y-48764095D02*
X35385714Y-48740285D01*
X35385714Y-48740285D02*
X35290476Y-48740285D01*
X35290476Y-48740285D02*
X35242857Y-48764095D01*
X35242857Y-48764095D02*
X35219047Y-48787904D01*
X35219047Y-48787904D02*
X35195238Y-48835523D01*
D10*
X54202628Y-68119999D02*
X54231200Y-68148571D01*
X54231200Y-68148571D02*
X54259771Y-68234285D01*
X54259771Y-68234285D02*
X54259771Y-68291428D01*
X54259771Y-68291428D02*
X54231200Y-68377142D01*
X54231200Y-68377142D02*
X54174057Y-68434285D01*
X54174057Y-68434285D02*
X54116914Y-68462856D01*
X54116914Y-68462856D02*
X54002628Y-68491428D01*
X54002628Y-68491428D02*
X53916914Y-68491428D01*
X53916914Y-68491428D02*
X53802628Y-68462856D01*
X53802628Y-68462856D02*
X53745485Y-68434285D01*
X53745485Y-68434285D02*
X53688342Y-68377142D01*
X53688342Y-68377142D02*
X53659771Y-68291428D01*
X53659771Y-68291428D02*
X53659771Y-68234285D01*
X53659771Y-68234285D02*
X53688342Y-68148571D01*
X53688342Y-68148571D02*
X53716914Y-68119999D01*
X53659771Y-67919999D02*
X53659771Y-67519999D01*
X53659771Y-67519999D02*
X54259771Y-67777142D01*
D11*
X50568151Y-82391428D02*
X50263389Y-82604762D01*
X50568151Y-82757143D02*
X49928151Y-82757143D01*
X49928151Y-82757143D02*
X49928151Y-82513333D01*
X49928151Y-82513333D02*
X49958627Y-82452381D01*
X49958627Y-82452381D02*
X49989103Y-82421904D01*
X49989103Y-82421904D02*
X50050055Y-82391428D01*
X50050055Y-82391428D02*
X50141484Y-82391428D01*
X50141484Y-82391428D02*
X50202436Y-82421904D01*
X50202436Y-82421904D02*
X50232913Y-82452381D01*
X50232913Y-82452381D02*
X50263389Y-82513333D01*
X50263389Y-82513333D02*
X50263389Y-82757143D01*
X49989103Y-82147619D02*
X49958627Y-82117143D01*
X49958627Y-82117143D02*
X49928151Y-82056190D01*
X49928151Y-82056190D02*
X49928151Y-81903809D01*
X49928151Y-81903809D02*
X49958627Y-81842857D01*
X49958627Y-81842857D02*
X49989103Y-81812381D01*
X49989103Y-81812381D02*
X50050055Y-81781904D01*
X50050055Y-81781904D02*
X50111008Y-81781904D01*
X50111008Y-81781904D02*
X50202436Y-81812381D01*
X50202436Y-81812381D02*
X50568151Y-82178095D01*
X50568151Y-82178095D02*
X50568151Y-81781904D01*
X49989103Y-81538095D02*
X49958627Y-81507619D01*
X49958627Y-81507619D02*
X49928151Y-81446666D01*
X49928151Y-81446666D02*
X49928151Y-81294285D01*
X49928151Y-81294285D02*
X49958627Y-81233333D01*
X49958627Y-81233333D02*
X49989103Y-81202857D01*
X49989103Y-81202857D02*
X50050055Y-81172380D01*
X50050055Y-81172380D02*
X50111008Y-81172380D01*
X50111008Y-81172380D02*
X50202436Y-81202857D01*
X50202436Y-81202857D02*
X50568151Y-81568571D01*
X50568151Y-81568571D02*
X50568151Y-81172380D01*
D10*
X47312628Y-80385714D02*
X47341200Y-80414286D01*
X47341200Y-80414286D02*
X47369771Y-80500000D01*
X47369771Y-80500000D02*
X47369771Y-80557143D01*
X47369771Y-80557143D02*
X47341200Y-80642857D01*
X47341200Y-80642857D02*
X47284057Y-80700000D01*
X47284057Y-80700000D02*
X47226914Y-80728571D01*
X47226914Y-80728571D02*
X47112628Y-80757143D01*
X47112628Y-80757143D02*
X47026914Y-80757143D01*
X47026914Y-80757143D02*
X46912628Y-80728571D01*
X46912628Y-80728571D02*
X46855485Y-80700000D01*
X46855485Y-80700000D02*
X46798342Y-80642857D01*
X46798342Y-80642857D02*
X46769771Y-80557143D01*
X46769771Y-80557143D02*
X46769771Y-80500000D01*
X46769771Y-80500000D02*
X46798342Y-80414286D01*
X46798342Y-80414286D02*
X46826914Y-80385714D01*
X46769771Y-80185714D02*
X46769771Y-79814286D01*
X46769771Y-79814286D02*
X46998342Y-80014286D01*
X46998342Y-80014286D02*
X46998342Y-79928571D01*
X46998342Y-79928571D02*
X47026914Y-79871429D01*
X47026914Y-79871429D02*
X47055485Y-79842857D01*
X47055485Y-79842857D02*
X47112628Y-79814286D01*
X47112628Y-79814286D02*
X47255485Y-79814286D01*
X47255485Y-79814286D02*
X47312628Y-79842857D01*
X47312628Y-79842857D02*
X47341200Y-79871429D01*
X47341200Y-79871429D02*
X47369771Y-79928571D01*
X47369771Y-79928571D02*
X47369771Y-80100000D01*
X47369771Y-80100000D02*
X47341200Y-80157143D01*
X47341200Y-80157143D02*
X47312628Y-80185714D01*
X47369771Y-79528571D02*
X47369771Y-79414285D01*
X47369771Y-79414285D02*
X47341200Y-79357142D01*
X47341200Y-79357142D02*
X47312628Y-79328571D01*
X47312628Y-79328571D02*
X47226914Y-79271428D01*
X47226914Y-79271428D02*
X47112628Y-79242857D01*
X47112628Y-79242857D02*
X46884057Y-79242857D01*
X46884057Y-79242857D02*
X46826914Y-79271428D01*
X46826914Y-79271428D02*
X46798342Y-79300000D01*
X46798342Y-79300000D02*
X46769771Y-79357142D01*
X46769771Y-79357142D02*
X46769771Y-79471428D01*
X46769771Y-79471428D02*
X46798342Y-79528571D01*
X46798342Y-79528571D02*
X46826914Y-79557142D01*
X46826914Y-79557142D02*
X46884057Y-79585714D01*
X46884057Y-79585714D02*
X47026914Y-79585714D01*
X47026914Y-79585714D02*
X47084057Y-79557142D01*
X47084057Y-79557142D02*
X47112628Y-79528571D01*
X47112628Y-79528571D02*
X47141200Y-79471428D01*
X47141200Y-79471428D02*
X47141200Y-79357142D01*
X47141200Y-79357142D02*
X47112628Y-79300000D01*
X47112628Y-79300000D02*
X47084057Y-79271428D01*
X47084057Y-79271428D02*
X47026914Y-79242857D01*
X33060771Y-64615856D02*
X32460771Y-64615856D01*
X32460771Y-64615856D02*
X32460771Y-64472999D01*
X32460771Y-64472999D02*
X32489342Y-64387285D01*
X32489342Y-64387285D02*
X32546485Y-64330142D01*
X32546485Y-64330142D02*
X32603628Y-64301571D01*
X32603628Y-64301571D02*
X32717914Y-64272999D01*
X32717914Y-64272999D02*
X32803628Y-64272999D01*
X32803628Y-64272999D02*
X32917914Y-64301571D01*
X32917914Y-64301571D02*
X32975057Y-64330142D01*
X32975057Y-64330142D02*
X33032200Y-64387285D01*
X33032200Y-64387285D02*
X33060771Y-64472999D01*
X33060771Y-64472999D02*
X33060771Y-64615856D01*
X33060771Y-63701571D02*
X33060771Y-64044428D01*
X33060771Y-63872999D02*
X32460771Y-63872999D01*
X32460771Y-63872999D02*
X32546485Y-63930142D01*
X32546485Y-63930142D02*
X32603628Y-63987285D01*
X32603628Y-63987285D02*
X32632200Y-64044428D01*
D11*
X51569048Y-70556217D02*
X51569048Y-70937170D01*
X51302381Y-70137170D02*
X51569048Y-70556217D01*
X51569048Y-70556217D02*
X51835714Y-70137170D01*
X52521428Y-70937170D02*
X52064285Y-70937170D01*
X52292857Y-70937170D02*
X52292857Y-70137170D01*
X52292857Y-70137170D02*
X52216666Y-70251455D01*
X52216666Y-70251455D02*
X52140476Y-70327646D01*
X52140476Y-70327646D02*
X52064285Y-70365741D01*
D10*
X52057142Y-53544771D02*
X52428570Y-53544771D01*
X52428570Y-53544771D02*
X52228570Y-53773342D01*
X52228570Y-53773342D02*
X52314285Y-53773342D01*
X52314285Y-53773342D02*
X52371428Y-53801914D01*
X52371428Y-53801914D02*
X52399999Y-53830485D01*
X52399999Y-53830485D02*
X52428570Y-53887628D01*
X52428570Y-53887628D02*
X52428570Y-54030485D01*
X52428570Y-54030485D02*
X52399999Y-54087628D01*
X52399999Y-54087628D02*
X52371428Y-54116200D01*
X52371428Y-54116200D02*
X52314285Y-54144771D01*
X52314285Y-54144771D02*
X52142856Y-54144771D01*
X52142856Y-54144771D02*
X52085713Y-54116200D01*
X52085713Y-54116200D02*
X52057142Y-54087628D01*
X52599999Y-53544771D02*
X52799999Y-54144771D01*
X52799999Y-54144771D02*
X52999999Y-53544771D01*
X53142857Y-53544771D02*
X53514285Y-53544771D01*
X53514285Y-53544771D02*
X53314285Y-53773342D01*
X53314285Y-53773342D02*
X53400000Y-53773342D01*
X53400000Y-53773342D02*
X53457143Y-53801914D01*
X53457143Y-53801914D02*
X53485714Y-53830485D01*
X53485714Y-53830485D02*
X53514285Y-53887628D01*
X53514285Y-53887628D02*
X53514285Y-54030485D01*
X53514285Y-54030485D02*
X53485714Y-54087628D01*
X53485714Y-54087628D02*
X53457143Y-54116200D01*
X53457143Y-54116200D02*
X53400000Y-54144771D01*
X53400000Y-54144771D02*
X53228571Y-54144771D01*
X53228571Y-54144771D02*
X53171428Y-54116200D01*
X53171428Y-54116200D02*
X53142857Y-54087628D01*
D12*
X42464047Y-50429809D02*
X42464047Y-50834571D01*
X42464047Y-50834571D02*
X42487857Y-50882190D01*
X42487857Y-50882190D02*
X42511666Y-50906000D01*
X42511666Y-50906000D02*
X42559285Y-50929809D01*
X42559285Y-50929809D02*
X42654523Y-50929809D01*
X42654523Y-50929809D02*
X42702142Y-50906000D01*
X42702142Y-50906000D02*
X42725952Y-50882190D01*
X42725952Y-50882190D02*
X42749761Y-50834571D01*
X42749761Y-50834571D02*
X42749761Y-50429809D01*
X43202143Y-50596476D02*
X43202143Y-50929809D01*
X43083095Y-50406000D02*
X42964048Y-50763142D01*
X42964048Y-50763142D02*
X43273571Y-50763142D01*
D10*
X38336085Y-56285239D02*
X38694857Y-56381372D01*
X38694857Y-56381372D02*
X38442513Y-56550391D01*
X38442513Y-56550391D02*
X38525307Y-56572576D01*
X38525307Y-56572576D02*
X38573108Y-56614963D01*
X38573108Y-56614963D02*
X38593311Y-56649956D01*
X38593311Y-56649956D02*
X38606119Y-56712546D01*
X38606119Y-56712546D02*
X38569145Y-56850536D01*
X38569145Y-56850536D02*
X38526758Y-56898337D01*
X38526758Y-56898337D02*
X38491765Y-56918540D01*
X38491765Y-56918540D02*
X38429174Y-56931348D01*
X38429174Y-56931348D02*
X38263587Y-56886979D01*
X38263587Y-56886979D02*
X38215786Y-56844592D01*
X38215786Y-56844592D02*
X38195583Y-56809599D01*
X38802737Y-56972285D02*
X38822940Y-57007278D01*
X38822940Y-57007278D02*
X38787947Y-57027481D01*
X38787947Y-57027481D02*
X38767744Y-56992488D01*
X38767744Y-56992488D02*
X38802737Y-56972285D01*
X38802737Y-56972285D02*
X38787947Y-57027481D01*
X39164021Y-56507084D02*
X39522794Y-56603217D01*
X39522794Y-56603217D02*
X39270450Y-56772236D01*
X39270450Y-56772236D02*
X39353244Y-56794421D01*
X39353244Y-56794421D02*
X39401045Y-56836808D01*
X39401045Y-56836808D02*
X39421248Y-56871801D01*
X39421248Y-56871801D02*
X39434056Y-56934391D01*
X39434056Y-56934391D02*
X39397082Y-57072381D01*
X39397082Y-57072381D02*
X39354694Y-57120182D01*
X39354694Y-57120182D02*
X39319701Y-57140385D01*
X39319701Y-57140385D02*
X39257111Y-57153193D01*
X39257111Y-57153193D02*
X39091524Y-57108824D01*
X39091524Y-57108824D02*
X39043723Y-57066436D01*
X39043723Y-57066436D02*
X39023520Y-57031444D01*
X39688382Y-56647586D02*
X39726275Y-57278905D01*
X39726275Y-57278905D02*
X40074752Y-56751114D01*
X40185144Y-56780693D02*
X40516318Y-56869431D01*
X40195440Y-57404617D02*
X40350731Y-56825062D01*
X40554212Y-57500750D02*
X40709504Y-56921195D01*
X40709504Y-56921195D02*
X40930287Y-56980353D01*
X40930287Y-56980353D02*
X40978088Y-57022741D01*
X40978088Y-57022741D02*
X40998291Y-57057734D01*
X40998291Y-57057734D02*
X41011099Y-57120324D01*
X41011099Y-57120324D02*
X40988914Y-57203118D01*
X40988914Y-57203118D02*
X40946527Y-57250919D01*
X40946527Y-57250919D02*
X40911534Y-57271122D01*
X40911534Y-57271122D02*
X40848943Y-57283930D01*
X40848943Y-57283930D02*
X40628160Y-57224771D01*
D14*
%TO.C,C21*%
X40964538Y-45570869D02*
X40683378Y-45570869D01*
X40964538Y-46590869D02*
X40683378Y-46590869D01*
%TO.C,TP10*%
X46975000Y-68850000D02*
G75*
G02*
X45575000Y-68850000I-700000J0D01*
G01*
X45575000Y-68850000D02*
G75*
G02*
X46975000Y-68850000I700000J0D01*
G01*
D13*
%TO.C,12VLED1*%
X48402000Y-77424000D02*
G75*
G02*
X48302000Y-77424000I-50000J0D01*
G01*
X48302000Y-77424000D02*
G75*
G02*
X48402000Y-77424000I50000J0D01*
G01*
D14*
%TO.C,R37*%
X53256000Y-70860359D02*
X53256000Y-71167641D01*
X54016000Y-70860359D02*
X54016000Y-71167641D01*
%TO.C,J4*%
X55490000Y-80175736D02*
X55790000Y-80600000D01*
X55790000Y-80600000D02*
X56090000Y-80175736D01*
X56090000Y-80175736D02*
X55490000Y-80175736D01*
X57150000Y-81560000D02*
X57150000Y-81860000D01*
X57150000Y-81860000D02*
X57600000Y-81860000D01*
X57150000Y-84060000D02*
X57150000Y-84360000D01*
X57150000Y-84360000D02*
X57600000Y-84360000D01*
X57150000Y-86560000D02*
X57150000Y-86860000D01*
X57150000Y-86860000D02*
X57600000Y-86860000D01*
X57600000Y-79880000D02*
X57600000Y-88540000D01*
X57600000Y-81560000D02*
X57150000Y-81560000D01*
X57600000Y-81860000D02*
X57600000Y-81560000D01*
X57600000Y-84060000D02*
X57150000Y-84060000D01*
X57600000Y-84360000D02*
X57600000Y-84060000D01*
X57600000Y-86560000D02*
X57150000Y-86560000D01*
X57600000Y-86860000D02*
X57600000Y-86560000D01*
X57600000Y-88540000D02*
X66280000Y-88540000D01*
X66280000Y-79880000D02*
X57600000Y-79880000D01*
X66280000Y-88540000D02*
X66280000Y-79880000D01*
%TO.C,C11*%
X46785836Y-65409000D02*
X46570164Y-65409000D01*
X46785836Y-66129000D02*
X46570164Y-66129000D01*
%TO.C,R6*%
X46296359Y-66695000D02*
X46603641Y-66695000D01*
X46296359Y-67455000D02*
X46603641Y-67455000D01*
%TO.C,R15*%
X44081814Y-48590133D02*
X44081814Y-48282851D01*
X44841814Y-48590133D02*
X44841814Y-48282851D01*
%TO.C,R2*%
X50460641Y-71094000D02*
X50153359Y-71094000D01*
X50460641Y-71854000D02*
X50153359Y-71854000D01*
%TO.C,R17*%
X33060000Y-49463641D02*
X33060000Y-49156359D01*
X33820000Y-49463641D02*
X33820000Y-49156359D01*
%TO.C,D2*%
X48500000Y-55360000D02*
X49770000Y-55360000D01*
X49800000Y-52240000D02*
X48500000Y-52240000D01*
X50390000Y-55640000D02*
X49910000Y-55640000D01*
X50150000Y-55310000D01*
X50390000Y-55640000D01*
G36*
X50390000Y-55640000D02*
G01*
X49910000Y-55640000D01*
X50150000Y-55310000D01*
X50390000Y-55640000D01*
G37*
%TO.C,R1*%
X57338002Y-64054535D02*
X57338002Y-63747253D01*
X58098002Y-64054535D02*
X58098002Y-63747253D01*
%TO.C,R18*%
X52656641Y-85365000D02*
X52349359Y-85365000D01*
X52656641Y-86125000D02*
X52349359Y-86125000D01*
D13*
%TO.C,TXLED1*%
X47356000Y-71466000D02*
G75*
G02*
X47256000Y-71466000I-50000J0D01*
G01*
X47256000Y-71466000D02*
G75*
G02*
X47356000Y-71466000I50000J0D01*
G01*
D14*
%TO.C,C28*%
X52785000Y-84206164D02*
X52785000Y-84421836D01*
X53505000Y-84206164D02*
X53505000Y-84421836D01*
%TO.C,R34*%
X46110000Y-75373641D02*
X46110000Y-75066359D01*
X46870000Y-75373641D02*
X46870000Y-75066359D01*
%TO.C,Q1*%
X49913000Y-76869000D02*
X49913000Y-76269000D01*
X51633000Y-77069000D02*
X51633000Y-75869000D01*
D10*
X51248000Y-75419000D02*
G75*
G02*
X51098000Y-75419000I-75000J0D01*
G01*
X51098000Y-75419000D02*
G75*
G02*
X51248000Y-75419000I75000J0D01*
G01*
D14*
%TO.C,R8*%
X38670000Y-58718641D02*
X38670000Y-58411359D01*
X39430000Y-58718641D02*
X39430000Y-58411359D01*
%TO.C,C1*%
X56376278Y-64815793D02*
X56376278Y-64600121D01*
X57096278Y-64815793D02*
X57096278Y-64600121D01*
%TO.C,ENJUMPER1*%
X58886232Y-66002660D02*
X58886232Y-63402660D01*
X61546232Y-63402660D02*
X58886232Y-63402660D01*
X61546232Y-66002660D02*
X58886232Y-66002660D01*
X61546232Y-66002660D02*
X61546232Y-63402660D01*
X61546232Y-67272660D02*
X61546232Y-68602660D01*
X61546232Y-68602660D02*
X60216232Y-68602660D01*
%TO.C,C45*%
X52302000Y-73051836D02*
X52302000Y-72836164D01*
X53022000Y-73051836D02*
X53022000Y-72836164D01*
%TO.C,C16*%
X42497836Y-66140000D02*
X42282164Y-66140000D01*
X42497836Y-66860000D02*
X42282164Y-66860000D01*
D13*
%TO.C,SERVOLED1*%
X53923564Y-75168415D02*
G75*
G02*
X53823564Y-75168415I-50000J0D01*
G01*
X53823564Y-75168415D02*
G75*
G02*
X53923564Y-75168415I50000J0D01*
G01*
D14*
%TO.C,R4*%
X51720000Y-54996359D02*
X51720000Y-55303641D01*
X52480000Y-54996359D02*
X52480000Y-55303641D01*
%TO.C,R19*%
X51885641Y-81844000D02*
X51578359Y-81844000D01*
X51885641Y-82604000D02*
X51578359Y-82604000D01*
%TO.C,C3*%
X57439672Y-65691923D02*
X57439672Y-65907595D01*
X58159672Y-65691923D02*
X58159672Y-65907595D01*
%TO.C,TP8*%
X40275000Y-53850000D02*
G75*
G02*
X38375000Y-53850000I-950000J0D01*
G01*
X38375000Y-53850000D02*
G75*
G02*
X40275000Y-53850000I950000J0D01*
G01*
%TO.C,C38*%
X44271000Y-85687164D02*
X44271000Y-85902836D01*
X44991000Y-85687164D02*
X44991000Y-85902836D01*
%TO.C,R7*%
X48960000Y-78356359D02*
X48960000Y-78663641D01*
X49720000Y-78356359D02*
X49720000Y-78663641D01*
%TO.C,R10*%
X37120742Y-61804500D02*
X37595258Y-61804500D01*
X37120742Y-62849500D02*
X37595258Y-62849500D01*
%TO.C,C9*%
X52442000Y-66404164D02*
X52442000Y-66619836D01*
X53162000Y-66404164D02*
X53162000Y-66619836D01*
%TO.C,C30*%
X35110000Y-82312500D02*
X35110000Y-90372500D01*
X41330000Y-82312500D02*
X35110000Y-82312500D01*
X41330000Y-90372500D02*
X41330000Y-82312500D01*
%TO.C,J5*%
X46093000Y-42112000D02*
X46093000Y-43572000D01*
X46093000Y-42112000D02*
X55033000Y-42112000D01*
X46093000Y-47622000D02*
X46093000Y-45822000D01*
X55033000Y-42112000D02*
X55033000Y-43572000D01*
X55033000Y-47622000D02*
X55033000Y-45822000D01*
%TO.C,C17*%
X34430000Y-61992164D02*
X34430000Y-62207836D01*
X35150000Y-61992164D02*
X35150000Y-62207836D01*
%TO.C,C8*%
X55040456Y-61255204D02*
X55040456Y-61470876D01*
X55760456Y-61255204D02*
X55760456Y-61470876D01*
%TO.C,R21*%
X45639000Y-81974641D02*
X45639000Y-81667359D01*
X46399000Y-81974641D02*
X46399000Y-81667359D01*
D15*
%TO.C,U5*%
X32475000Y-56100000D02*
X32475000Y-52100000D01*
X37475000Y-56100000D02*
X37475000Y-52100000D01*
D16*
X33196633Y-58262444D02*
G75*
G02*
X32996633Y-58262444I-100000J0D01*
G01*
X32996633Y-58262444D02*
G75*
G02*
X33196633Y-58262444I100000J0D01*
G01*
D14*
%TO.C,C20*%
X43493978Y-45076492D02*
X43709650Y-45076492D01*
X43493978Y-45796492D02*
X43709650Y-45796492D01*
%TO.C,TP1*%
X52450000Y-52725000D02*
G75*
G02*
X51050000Y-52725000I-700000J0D01*
G01*
X51050000Y-52725000D02*
G75*
G02*
X52450000Y-52725000I700000J0D01*
G01*
%TO.C,C14*%
X51879000Y-68701164D02*
X51879000Y-68916836D01*
X52599000Y-68701164D02*
X52599000Y-68916836D01*
D17*
%TO.C,G\u002A\u002A\u002A*%
G36*
X35935096Y-92570152D02*
G01*
X35543576Y-92961439D01*
X35956724Y-93432372D01*
X35978440Y-93457126D01*
X35999875Y-93481561D01*
X36021001Y-93505645D01*
X36041789Y-93529345D01*
X36062210Y-93552628D01*
X36082236Y-93575462D01*
X36101838Y-93597814D01*
X36120988Y-93619652D01*
X36139657Y-93640942D01*
X36157816Y-93661652D01*
X36175437Y-93681750D01*
X36192491Y-93701203D01*
X36208950Y-93719977D01*
X36224784Y-93738042D01*
X36239966Y-93755363D01*
X36254466Y-93771908D01*
X36268256Y-93787645D01*
X36281308Y-93802540D01*
X36293592Y-93816562D01*
X36305081Y-93829678D01*
X36315745Y-93841854D01*
X36325556Y-93853058D01*
X36334485Y-93863258D01*
X36342504Y-93872421D01*
X36349584Y-93880515D01*
X36355696Y-93887505D01*
X36360813Y-93893361D01*
X36364904Y-93898049D01*
X36367942Y-93901537D01*
X36369898Y-93903792D01*
X36370743Y-93904781D01*
X36370777Y-93904824D01*
X36370804Y-93904964D01*
X36370679Y-93905095D01*
X36370346Y-93905218D01*
X36369751Y-93905332D01*
X36368839Y-93905438D01*
X36367557Y-93905536D01*
X36365848Y-93905627D01*
X36363659Y-93905711D01*
X36360936Y-93905788D01*
X36357623Y-93905859D01*
X36353667Y-93905923D01*
X36349012Y-93905981D01*
X36343604Y-93906033D01*
X36337389Y-93906080D01*
X36330312Y-93906121D01*
X36322318Y-93906158D01*
X36313353Y-93906190D01*
X36303363Y-93906218D01*
X36292293Y-93906242D01*
X36280088Y-93906262D01*
X36266694Y-93906278D01*
X36252056Y-93906291D01*
X36236120Y-93906302D01*
X36218831Y-93906309D01*
X36200135Y-93906315D01*
X36179977Y-93906318D01*
X36158303Y-93906319D01*
X36135058Y-93906319D01*
X36110187Y-93906318D01*
X36083637Y-93906316D01*
X36082797Y-93906316D01*
X35793913Y-93906288D01*
X35444538Y-93504178D01*
X35095162Y-93102068D01*
X35048922Y-93055626D01*
X35002682Y-93009183D01*
X35254630Y-92757223D01*
X35506578Y-92505263D01*
X35104875Y-92505263D01*
X34703172Y-92505263D01*
X34703172Y-92342064D01*
X34703172Y-92178866D01*
X35514894Y-92178866D01*
X36326616Y-92178866D01*
X35935096Y-92570152D01*
G37*
G36*
X35544289Y-91040386D02*
G01*
X35552192Y-91040465D01*
X35559609Y-91040619D01*
X35566224Y-91040849D01*
X35571720Y-91041154D01*
X35575591Y-91041510D01*
X35599932Y-91045304D01*
X35623330Y-91050540D01*
X35645844Y-91057240D01*
X35667534Y-91065428D01*
X35688459Y-91075129D01*
X35708677Y-91086365D01*
X35728249Y-91099159D01*
X35737054Y-91105577D01*
X35741981Y-91109391D01*
X35747360Y-91113727D01*
X35752626Y-91118118D01*
X35757212Y-91122097D01*
X35758322Y-91123096D01*
X35759298Y-91124039D01*
X35761478Y-91126188D01*
X35764841Y-91129520D01*
X35769364Y-91134012D01*
X35775024Y-91139642D01*
X35781800Y-91146389D01*
X35789668Y-91154228D01*
X35798606Y-91163138D01*
X35808592Y-91173097D01*
X35819603Y-91184082D01*
X35831617Y-91196070D01*
X35844611Y-91209039D01*
X35858563Y-91222966D01*
X35873450Y-91237830D01*
X35889250Y-91253608D01*
X35905941Y-91270277D01*
X35923499Y-91287814D01*
X35941903Y-91306199D01*
X35961130Y-91325407D01*
X35981158Y-91345416D01*
X36001963Y-91366205D01*
X36023525Y-91387750D01*
X36045819Y-91410029D01*
X36068825Y-91433020D01*
X36092518Y-91456700D01*
X36116878Y-91481047D01*
X36141881Y-91506039D01*
X36167504Y-91531652D01*
X36193726Y-91557865D01*
X36220524Y-91584655D01*
X36247876Y-91611999D01*
X36275758Y-91639876D01*
X36304150Y-91668262D01*
X36333027Y-91697136D01*
X36362368Y-91726474D01*
X36392150Y-91756255D01*
X36422351Y-91786456D01*
X36452948Y-91817054D01*
X36483919Y-91848027D01*
X36515241Y-91879353D01*
X36546892Y-91911009D01*
X36578850Y-91942972D01*
X36611091Y-91975221D01*
X36613905Y-91978036D01*
X36655498Y-92019640D01*
X36695876Y-92060030D01*
X36735051Y-92099219D01*
X36773037Y-92137220D01*
X36809847Y-92174047D01*
X36845494Y-92209712D01*
X36879991Y-92244228D01*
X36913351Y-92277609D01*
X36945587Y-92309867D01*
X36976712Y-92341016D01*
X37006740Y-92371069D01*
X37035682Y-92400038D01*
X37063553Y-92427937D01*
X37090364Y-92454779D01*
X37116130Y-92480577D01*
X37140864Y-92505344D01*
X37164577Y-92529093D01*
X37187284Y-92551837D01*
X37208998Y-92573590D01*
X37229731Y-92594364D01*
X37249496Y-92614172D01*
X37268307Y-92633027D01*
X37286176Y-92650943D01*
X37303117Y-92667933D01*
X37319143Y-92684010D01*
X37334266Y-92699186D01*
X37348500Y-92713475D01*
X37361858Y-92726889D01*
X37374353Y-92739443D01*
X37385997Y-92751149D01*
X37396804Y-92762020D01*
X37406787Y-92772069D01*
X37415959Y-92781309D01*
X37424333Y-92789754D01*
X37431922Y-92797415D01*
X37438739Y-92804308D01*
X37444798Y-92810444D01*
X37450110Y-92815836D01*
X37454689Y-92820498D01*
X37458549Y-92824443D01*
X37461702Y-92827684D01*
X37464161Y-92830233D01*
X37465939Y-92832104D01*
X37467050Y-92833311D01*
X37467412Y-92833734D01*
X37481767Y-92853093D01*
X37494468Y-92872794D01*
X37505559Y-92892947D01*
X37515088Y-92913663D01*
X37523099Y-92935050D01*
X37529637Y-92957218D01*
X37534749Y-92980276D01*
X37538481Y-93004335D01*
X37538490Y-93004409D01*
X37538867Y-93008545D01*
X37539175Y-93014215D01*
X37539407Y-93021219D01*
X37539558Y-93029358D01*
X37539620Y-93038430D01*
X37539621Y-93040000D01*
X37539574Y-93049207D01*
X37539438Y-93057513D01*
X37539219Y-93064718D01*
X37538923Y-93070622D01*
X37538557Y-93075024D01*
X37538490Y-93075591D01*
X37534636Y-93100172D01*
X37529280Y-93123887D01*
X37522416Y-93146748D01*
X37514038Y-93168769D01*
X37504140Y-93189962D01*
X37492716Y-93210342D01*
X37479761Y-93229921D01*
X37465269Y-93248713D01*
X37460085Y-93254816D01*
X37459127Y-93255826D01*
X37456970Y-93258033D01*
X37453641Y-93261411D01*
X37449168Y-93265931D01*
X37443577Y-93271567D01*
X37436895Y-93278293D01*
X37429150Y-93286080D01*
X37420369Y-93294903D01*
X37410578Y-93304733D01*
X37399805Y-93315544D01*
X37388076Y-93327309D01*
X37375419Y-93340001D01*
X37361861Y-93353593D01*
X37347429Y-93368057D01*
X37332149Y-93383368D01*
X37316050Y-93399497D01*
X37299157Y-93416417D01*
X37281498Y-93434102D01*
X37263101Y-93452525D01*
X37243991Y-93471658D01*
X37224197Y-93491475D01*
X37203744Y-93511948D01*
X37182661Y-93533051D01*
X37160974Y-93554756D01*
X37138711Y-93577036D01*
X37115898Y-93599865D01*
X37092562Y-93623215D01*
X37068730Y-93647059D01*
X37044431Y-93671370D01*
X37019689Y-93696122D01*
X36994533Y-93721287D01*
X36968990Y-93746837D01*
X36943086Y-93772747D01*
X36916850Y-93798989D01*
X36890306Y-93825536D01*
X36863484Y-93852361D01*
X36836410Y-93879437D01*
X36809110Y-93906737D01*
X36781612Y-93934233D01*
X36753944Y-93961899D01*
X36726131Y-93989709D01*
X36698201Y-94017633D01*
X36670182Y-94045647D01*
X36642099Y-94073722D01*
X36613981Y-94101832D01*
X36585854Y-94129950D01*
X36557745Y-94158048D01*
X36529682Y-94186099D01*
X36501691Y-94214077D01*
X36473800Y-94241955D01*
X36446035Y-94269705D01*
X36418423Y-94297300D01*
X36390992Y-94324713D01*
X36363769Y-94351918D01*
X36336780Y-94378888D01*
X36310053Y-94405594D01*
X36283614Y-94432011D01*
X36257492Y-94458110D01*
X36231712Y-94483866D01*
X36206302Y-94509251D01*
X36181289Y-94534238D01*
X36156700Y-94558801D01*
X36132562Y-94582911D01*
X36108903Y-94606542D01*
X36085748Y-94629667D01*
X36063125Y-94652258D01*
X36041062Y-94674290D01*
X36019584Y-94695735D01*
X35998720Y-94716565D01*
X35978497Y-94736754D01*
X35958941Y-94756274D01*
X35940079Y-94775100D01*
X35921938Y-94793203D01*
X35904546Y-94810556D01*
X35887930Y-94827133D01*
X35872116Y-94842907D01*
X35857132Y-94857850D01*
X35843005Y-94871935D01*
X35829761Y-94885136D01*
X35817428Y-94897425D01*
X35806033Y-94908776D01*
X35795603Y-94919161D01*
X35786164Y-94928553D01*
X35777745Y-94936925D01*
X35770372Y-94944251D01*
X35764071Y-94950503D01*
X35758871Y-94955653D01*
X35754798Y-94959676D01*
X35751879Y-94962544D01*
X35750141Y-94964230D01*
X35749641Y-94964693D01*
X35730495Y-94979297D01*
X35710946Y-94992260D01*
X35690893Y-95003626D01*
X35670236Y-95013437D01*
X35648875Y-95021738D01*
X35626709Y-95028570D01*
X35603637Y-95033979D01*
X35579559Y-95038007D01*
X35579498Y-95038015D01*
X35575540Y-95038422D01*
X35570164Y-95038782D01*
X35563689Y-95039091D01*
X35556433Y-95039344D01*
X35548715Y-95039535D01*
X35540852Y-95039660D01*
X35533162Y-95039712D01*
X35525964Y-95039687D01*
X35519577Y-95039580D01*
X35514317Y-95039385D01*
X35510920Y-95039141D01*
X35486496Y-95035861D01*
X35462775Y-95031004D01*
X35439776Y-95024578D01*
X35417516Y-95016591D01*
X35396015Y-95007050D01*
X35375291Y-94995963D01*
X35355363Y-94983339D01*
X35336249Y-94969185D01*
X35326764Y-94961331D01*
X35325697Y-94960327D01*
X35323432Y-94958125D01*
X35319996Y-94954750D01*
X35315418Y-94950230D01*
X35309723Y-94944591D01*
X35302938Y-94937862D01*
X35295091Y-94930069D01*
X35286210Y-94921239D01*
X35276320Y-94911399D01*
X35265449Y-94900576D01*
X35253624Y-94888798D01*
X35240872Y-94876092D01*
X35227221Y-94862484D01*
X35212697Y-94848001D01*
X35197327Y-94832671D01*
X35181138Y-94816521D01*
X35164159Y-94799578D01*
X35146414Y-94781869D01*
X35127933Y-94763421D01*
X35108741Y-94744261D01*
X35088866Y-94724417D01*
X35068335Y-94703914D01*
X35047175Y-94682781D01*
X35025413Y-94661045D01*
X35003076Y-94638732D01*
X34980191Y-94615869D01*
X34956786Y-94592485D01*
X34932887Y-94568605D01*
X34908521Y-94544257D01*
X34883716Y-94519468D01*
X34858499Y-94494265D01*
X34832896Y-94468675D01*
X34806935Y-94442726D01*
X34780642Y-94416443D01*
X34754046Y-94389855D01*
X34727172Y-94362989D01*
X34700049Y-94335871D01*
X34672702Y-94308529D01*
X34645160Y-94280989D01*
X34617449Y-94253279D01*
X34589597Y-94225426D01*
X34561630Y-94197457D01*
X34533575Y-94169399D01*
X34505460Y-94141279D01*
X34477312Y-94113125D01*
X34449157Y-94084962D01*
X34421023Y-94056819D01*
X34392937Y-94028723D01*
X34364926Y-94000700D01*
X34337017Y-93972777D01*
X34309237Y-93944983D01*
X34281613Y-93917343D01*
X34254172Y-93889885D01*
X34226942Y-93862635D01*
X34199949Y-93835622D01*
X34173221Y-93808872D01*
X34146784Y-93782413D01*
X34120666Y-93756270D01*
X34094893Y-93730472D01*
X34069494Y-93705045D01*
X34044494Y-93680017D01*
X34019921Y-93655414D01*
X33995802Y-93631265D01*
X33972164Y-93607594D01*
X33949034Y-93584431D01*
X33926440Y-93561802D01*
X33904407Y-93539734D01*
X33882965Y-93518253D01*
X33862138Y-93497388D01*
X33841955Y-93477166D01*
X33822443Y-93457612D01*
X33803629Y-93438755D01*
X33785539Y-93420622D01*
X33768201Y-93403239D01*
X33751642Y-93386634D01*
X33735889Y-93370833D01*
X33720969Y-93355865D01*
X33706909Y-93341755D01*
X33693736Y-93328532D01*
X33681478Y-93316221D01*
X33670161Y-93304851D01*
X33659813Y-93294448D01*
X33650460Y-93285039D01*
X33642129Y-93276652D01*
X33634848Y-93269313D01*
X33628644Y-93263050D01*
X33623544Y-93257889D01*
X33619575Y-93253858D01*
X33616763Y-93250985D01*
X33615137Y-93249295D01*
X33614743Y-93248862D01*
X33600182Y-93229846D01*
X33587188Y-93210119D01*
X33575747Y-93189656D01*
X33565851Y-93168428D01*
X33557487Y-93146412D01*
X33550646Y-93123581D01*
X33545314Y-93099908D01*
X33541510Y-93075591D01*
X33541134Y-93071441D01*
X33540834Y-93065873D01*
X33540608Y-93059204D01*
X33540458Y-93051751D01*
X33540384Y-93043830D01*
X33540385Y-93036094D01*
X33745938Y-93036094D01*
X33746241Y-93050367D01*
X33748173Y-93064118D01*
X33751758Y-93077423D01*
X33757017Y-93090356D01*
X33763972Y-93102994D01*
X33766590Y-93107032D01*
X33766929Y-93107494D01*
X33767450Y-93108134D01*
X33768172Y-93108971D01*
X33769113Y-93110023D01*
X33770292Y-93111310D01*
X33771727Y-93112850D01*
X33773438Y-93114661D01*
X33775443Y-93116764D01*
X33777761Y-93119176D01*
X33780411Y-93121917D01*
X33783411Y-93125005D01*
X33786780Y-93128459D01*
X33790538Y-93132298D01*
X33794702Y-93136541D01*
X33799291Y-93141206D01*
X33804324Y-93146312D01*
X33809821Y-93151879D01*
X33815799Y-93157924D01*
X33822278Y-93164467D01*
X33829275Y-93171527D01*
X33836811Y-93179122D01*
X33844903Y-93187271D01*
X33853571Y-93195994D01*
X33862833Y-93205308D01*
X33872707Y-93215232D01*
X33883214Y-93225787D01*
X33894371Y-93236989D01*
X33906197Y-93248858D01*
X33918711Y-93261414D01*
X33931931Y-93274674D01*
X33945877Y-93288657D01*
X33960568Y-93303383D01*
X33976021Y-93318870D01*
X33992255Y-93335136D01*
X34009291Y-93352202D01*
X34027145Y-93370085D01*
X34045837Y-93388804D01*
X34065386Y-93408379D01*
X34085810Y-93428828D01*
X34107129Y-93450169D01*
X34129360Y-93472422D01*
X34152523Y-93495605D01*
X34176636Y-93519738D01*
X34201719Y-93544839D01*
X34227789Y-93570926D01*
X34254867Y-93598019D01*
X34282969Y-93626137D01*
X34312116Y-93655298D01*
X34342325Y-93685521D01*
X34373616Y-93716825D01*
X34406008Y-93749229D01*
X34439519Y-93782751D01*
X34474167Y-93817411D01*
X34509973Y-93853226D01*
X34546953Y-93890217D01*
X34585128Y-93928402D01*
X34616288Y-93959569D01*
X34654914Y-93998203D01*
X34692813Y-94036107D01*
X34729973Y-94073270D01*
X34766380Y-94109677D01*
X34802021Y-94145317D01*
X34836885Y-94180176D01*
X34870958Y-94214242D01*
X34904226Y-94247501D01*
X34936678Y-94279941D01*
X34968300Y-94311550D01*
X34999080Y-94342313D01*
X35029004Y-94372219D01*
X35058060Y-94401254D01*
X35086235Y-94429406D01*
X35113516Y-94456661D01*
X35139890Y-94483008D01*
X35165345Y-94508432D01*
X35189866Y-94532922D01*
X35213443Y-94556464D01*
X35236060Y-94579046D01*
X35257707Y-94600654D01*
X35278369Y-94621277D01*
X35298035Y-94640900D01*
X35316691Y-94659511D01*
X35334324Y-94677098D01*
X35350921Y-94693646D01*
X35366470Y-94709145D01*
X35380957Y-94723580D01*
X35394371Y-94736939D01*
X35406697Y-94749209D01*
X35417924Y-94760378D01*
X35428037Y-94770431D01*
X35437025Y-94779357D01*
X35444874Y-94787143D01*
X35451572Y-94793776D01*
X35457106Y-94799242D01*
X35461462Y-94803529D01*
X35464629Y-94806625D01*
X35466592Y-94808516D01*
X35467308Y-94809169D01*
X35479463Y-94817383D01*
X35492183Y-94824014D01*
X35505365Y-94829036D01*
X35518911Y-94832422D01*
X35532720Y-94834145D01*
X35546692Y-94834179D01*
X35557362Y-94833057D01*
X35570988Y-94830207D01*
X35583885Y-94825876D01*
X35596217Y-94819991D01*
X35608148Y-94812481D01*
X35613353Y-94808612D01*
X35614247Y-94807781D01*
X35616339Y-94805749D01*
X35619603Y-94802544D01*
X35624012Y-94798193D01*
X35629538Y-94792723D01*
X35636155Y-94786161D01*
X35643835Y-94778534D01*
X35652551Y-94769870D01*
X35662276Y-94760195D01*
X35672983Y-94749537D01*
X35684645Y-94737922D01*
X35697235Y-94725378D01*
X35710725Y-94711932D01*
X35725088Y-94697611D01*
X35740298Y-94682442D01*
X35756328Y-94666453D01*
X35773149Y-94649670D01*
X35790735Y-94632120D01*
X35809060Y-94613831D01*
X35828095Y-94594830D01*
X35847814Y-94575143D01*
X35868189Y-94554798D01*
X35889194Y-94533823D01*
X35910801Y-94512244D01*
X35932984Y-94490088D01*
X35955714Y-94467382D01*
X35978966Y-94444154D01*
X36002711Y-94420430D01*
X36026923Y-94396239D01*
X36051575Y-94371606D01*
X36076640Y-94346559D01*
X36102090Y-94321125D01*
X36127898Y-94295332D01*
X36154037Y-94269206D01*
X36180481Y-94242774D01*
X36207202Y-94216064D01*
X36234172Y-94189103D01*
X36261365Y-94161917D01*
X36288754Y-94134535D01*
X36316312Y-94106982D01*
X36344011Y-94079286D01*
X36371824Y-94051475D01*
X36399724Y-94023575D01*
X36427685Y-93995614D01*
X36455678Y-93967618D01*
X36483678Y-93939615D01*
X36511656Y-93911632D01*
X36539585Y-93883696D01*
X36567440Y-93855834D01*
X36595191Y-93828073D01*
X36622813Y-93800441D01*
X36650279Y-93772963D01*
X36677560Y-93745669D01*
X36704630Y-93718584D01*
X36731462Y-93691736D01*
X36758029Y-93665151D01*
X36784304Y-93638858D01*
X36810259Y-93612883D01*
X36835867Y-93587253D01*
X36861102Y-93561996D01*
X36885936Y-93537138D01*
X36910342Y-93512706D01*
X36934293Y-93488728D01*
X36957762Y-93465231D01*
X36980721Y-93442242D01*
X37003144Y-93419788D01*
X37025004Y-93397896D01*
X37046273Y-93376594D01*
X37066924Y-93355908D01*
X37086931Y-93335865D01*
X37106265Y-93316493D01*
X37124901Y-93297819D01*
X37142810Y-93279869D01*
X37159966Y-93262672D01*
X37176341Y-93246253D01*
X37191910Y-93230641D01*
X37206643Y-93215862D01*
X37220515Y-93201944D01*
X37233498Y-93188913D01*
X37245565Y-93176797D01*
X37256689Y-93165623D01*
X37266842Y-93155417D01*
X37275999Y-93146208D01*
X37284131Y-93138021D01*
X37291211Y-93130885D01*
X37297213Y-93124826D01*
X37302109Y-93119872D01*
X37305872Y-93116050D01*
X37308475Y-93113386D01*
X37309892Y-93111908D01*
X37310150Y-93111617D01*
X37318281Y-93099321D01*
X37324715Y-93086698D01*
X37329470Y-93073691D01*
X37332565Y-93060241D01*
X37334017Y-93046293D01*
X37334062Y-93036094D01*
X37332910Y-93022495D01*
X37330374Y-93009673D01*
X37326374Y-92997374D01*
X37320825Y-92985347D01*
X37313644Y-92973339D01*
X37313234Y-92972724D01*
X37312890Y-92972261D01*
X37312341Y-92971595D01*
X37311568Y-92970710D01*
X37310551Y-92969585D01*
X37309274Y-92968202D01*
X37307716Y-92966542D01*
X37305860Y-92964588D01*
X37303687Y-92962319D01*
X37301178Y-92959718D01*
X37298315Y-92956766D01*
X37295079Y-92953443D01*
X37291451Y-92949733D01*
X37287413Y-92945615D01*
X37282946Y-92941071D01*
X37278031Y-92936082D01*
X37272651Y-92930630D01*
X37266786Y-92924697D01*
X37260418Y-92918262D01*
X37253528Y-92911309D01*
X37246097Y-92903817D01*
X37238107Y-92895769D01*
X37229540Y-92887146D01*
X37220376Y-92877929D01*
X37210598Y-92868099D01*
X37200186Y-92857638D01*
X37189122Y-92846527D01*
X37177387Y-92834747D01*
X37164963Y-92822280D01*
X37151831Y-92809108D01*
X37137972Y-92795210D01*
X37123369Y-92780570D01*
X37108001Y-92765167D01*
X37091851Y-92748984D01*
X37074900Y-92732001D01*
X37057130Y-92714201D01*
X37038521Y-92695564D01*
X37019056Y-92676071D01*
X36998715Y-92655705D01*
X36977481Y-92634446D01*
X36955333Y-92612276D01*
X36932255Y-92589175D01*
X36908226Y-92565126D01*
X36883229Y-92540110D01*
X36857245Y-92514108D01*
X36830256Y-92487101D01*
X36802242Y-92459071D01*
X36773185Y-92429999D01*
X36743067Y-92399867D01*
X36711869Y-92368655D01*
X36679572Y-92336345D01*
X36646158Y-92302918D01*
X36611607Y-92268356D01*
X36575903Y-92232640D01*
X36539025Y-92195751D01*
X36500955Y-92157672D01*
X36464146Y-92120853D01*
X36429425Y-92086124D01*
X36395155Y-92051849D01*
X36361357Y-92018048D01*
X36328048Y-91984739D01*
X36295249Y-91951941D01*
X36262977Y-91919673D01*
X36231253Y-91887955D01*
X36200094Y-91856804D01*
X36169521Y-91826241D01*
X36139552Y-91796284D01*
X36110205Y-91766952D01*
X36081501Y-91738265D01*
X36053458Y-91710240D01*
X36026096Y-91682898D01*
X35999432Y-91656257D01*
X35973487Y-91630335D01*
X35948279Y-91605153D01*
X35923827Y-91580730D01*
X35900150Y-91557083D01*
X35877268Y-91534232D01*
X35855199Y-91512196D01*
X35833963Y-91490995D01*
X35813577Y-91470647D01*
X35794063Y-91451170D01*
X35775437Y-91432585D01*
X35757720Y-91414910D01*
X35740931Y-91398163D01*
X35725088Y-91382365D01*
X35710210Y-91367534D01*
X35696317Y-91353689D01*
X35683428Y-91340849D01*
X35671561Y-91329033D01*
X35660736Y-91318260D01*
X35650971Y-91308548D01*
X35642286Y-91299918D01*
X35634700Y-91292388D01*
X35628231Y-91285977D01*
X35622900Y-91280704D01*
X35618723Y-91276588D01*
X35615722Y-91273647D01*
X35613914Y-91271902D01*
X35613353Y-91271388D01*
X35601324Y-91262995D01*
X35588951Y-91256293D01*
X35576170Y-91251264D01*
X35562917Y-91247884D01*
X35549129Y-91246134D01*
X35536094Y-91245938D01*
X35522846Y-91247037D01*
X35510387Y-91249441D01*
X35498428Y-91253244D01*
X35486681Y-91258541D01*
X35474856Y-91265424D01*
X35473641Y-91266215D01*
X35473197Y-91266521D01*
X35472669Y-91266915D01*
X35472038Y-91267417D01*
X35471284Y-91268045D01*
X35470389Y-91268819D01*
X35469333Y-91269758D01*
X35468097Y-91270881D01*
X35466661Y-91272207D01*
X35465007Y-91273756D01*
X35463116Y-91275546D01*
X35460967Y-91277596D01*
X35458543Y-91279926D01*
X35455823Y-91282555D01*
X35452789Y-91285501D01*
X35449421Y-91288785D01*
X35445701Y-91292425D01*
X35441609Y-91296440D01*
X35437125Y-91300849D01*
X35432231Y-91305672D01*
X35426908Y-91310927D01*
X35421136Y-91316634D01*
X35414896Y-91322812D01*
X35408169Y-91329480D01*
X35400936Y-91336657D01*
X35393177Y-91344363D01*
X35384874Y-91352615D01*
X35376007Y-91361434D01*
X35366557Y-91370839D01*
X35356504Y-91380848D01*
X35345831Y-91391481D01*
X35334516Y-91402757D01*
X35322542Y-91414695D01*
X35309889Y-91427314D01*
X35296538Y-91440634D01*
X35282469Y-91454673D01*
X35267664Y-91469450D01*
X35252104Y-91484985D01*
X35235768Y-91501297D01*
X35218638Y-91518405D01*
X35200695Y-91536328D01*
X35181920Y-91555085D01*
X35162293Y-91574695D01*
X35141795Y-91595178D01*
X35120407Y-91616552D01*
X35098110Y-91638837D01*
X35074884Y-91662052D01*
X35050711Y-91686215D01*
X35025571Y-91711346D01*
X34999445Y-91737465D01*
X34972314Y-91764590D01*
X34944159Y-91792740D01*
X34914960Y-91821934D01*
X34884698Y-91852193D01*
X34853355Y-91883533D01*
X34820910Y-91915976D01*
X34787345Y-91949540D01*
X34752641Y-91984244D01*
X34716778Y-92020107D01*
X34679737Y-92057148D01*
X34641499Y-92095387D01*
X34618458Y-92118429D01*
X34579193Y-92157696D01*
X34541138Y-92195753D01*
X34504273Y-92232621D01*
X34468580Y-92268317D01*
X34434042Y-92302860D01*
X34400638Y-92336269D01*
X34368350Y-92368563D01*
X34337160Y-92399760D01*
X34307050Y-92429878D01*
X34278000Y-92458937D01*
X34249992Y-92486955D01*
X34223008Y-92513951D01*
X34197028Y-92539943D01*
X34172035Y-92564950D01*
X34148010Y-92588991D01*
X34124933Y-92612084D01*
X34102788Y-92634248D01*
X34081554Y-92655501D01*
X34061213Y-92675863D01*
X34041747Y-92695352D01*
X34023138Y-92713986D01*
X34005366Y-92731784D01*
X33988413Y-92748765D01*
X33972260Y-92764947D01*
X33956890Y-92780350D01*
X33942282Y-92794991D01*
X33928420Y-92808890D01*
X33915283Y-92822064D01*
X33902854Y-92834534D01*
X33891113Y-92846316D01*
X33880043Y-92857431D01*
X33869625Y-92867896D01*
X33859840Y-92877730D01*
X33850669Y-92886952D01*
X33842095Y-92895581D01*
X33834097Y-92903635D01*
X33826659Y-92911132D01*
X33819761Y-92918092D01*
X33813384Y-92924533D01*
X33807511Y-92930474D01*
X33802121Y-92935933D01*
X33797198Y-92940930D01*
X33792722Y-92945482D01*
X33788675Y-92949608D01*
X33785038Y-92953327D01*
X33781792Y-92956658D01*
X33778919Y-92959619D01*
X33776401Y-92962229D01*
X33774218Y-92964506D01*
X33772352Y-92966470D01*
X33770785Y-92968138D01*
X33769498Y-92969530D01*
X33768473Y-92970664D01*
X33767690Y-92971559D01*
X33767131Y-92972233D01*
X33766778Y-92972705D01*
X33766766Y-92972724D01*
X33759501Y-92984737D01*
X33753871Y-92996756D01*
X33749794Y-93009032D01*
X33747187Y-93021819D01*
X33745965Y-93035368D01*
X33745938Y-93036094D01*
X33540385Y-93036094D01*
X33540385Y-93035758D01*
X33540462Y-93027852D01*
X33540615Y-93020428D01*
X33540843Y-93013804D01*
X33541147Y-93008296D01*
X33541503Y-93004409D01*
X33545207Y-92980375D01*
X33550296Y-92957337D01*
X33556815Y-92935185D01*
X33564810Y-92913811D01*
X33574326Y-92893104D01*
X33585408Y-92872956D01*
X33598103Y-92853258D01*
X33612455Y-92833900D01*
X33612509Y-92833831D01*
X33613195Y-92833047D01*
X33614513Y-92831635D01*
X33616476Y-92829579D01*
X33619098Y-92826868D01*
X33622392Y-92823487D01*
X33626371Y-92819423D01*
X33631050Y-92814662D01*
X33636442Y-92809191D01*
X33642559Y-92802997D01*
X33649417Y-92796065D01*
X33657027Y-92788382D01*
X33665405Y-92779935D01*
X33674562Y-92770710D01*
X33684514Y-92760694D01*
X33695272Y-92749873D01*
X33706851Y-92738233D01*
X33719265Y-92725762D01*
X33732526Y-92712444D01*
X33746648Y-92698268D01*
X33761645Y-92683219D01*
X33777530Y-92667284D01*
X33794317Y-92650450D01*
X33812019Y-92632702D01*
X33830650Y-92614028D01*
X33850223Y-92594413D01*
X33870752Y-92573844D01*
X33892250Y-92552308D01*
X33914731Y-92529791D01*
X33938207Y-92506280D01*
X33962694Y-92481761D01*
X33988204Y-92456221D01*
X34014750Y-92429645D01*
X34042347Y-92402021D01*
X34071007Y-92373334D01*
X34100745Y-92343573D01*
X34131573Y-92312722D01*
X34163506Y-92280768D01*
X34196556Y-92247698D01*
X34230737Y-92213498D01*
X34266063Y-92178155D01*
X34302547Y-92141656D01*
X34340203Y-92103986D01*
X34379045Y-92065132D01*
X34419085Y-92025080D01*
X34460337Y-91983818D01*
X34468265Y-91975888D01*
X34500567Y-91943579D01*
X34532586Y-91911556D01*
X34564299Y-91879839D01*
X34595685Y-91848452D01*
X34626720Y-91817417D01*
X34657382Y-91786757D01*
X34687650Y-91756493D01*
X34717499Y-91726648D01*
X34746909Y-91697245D01*
X34775856Y-91668305D01*
X34804319Y-91639852D01*
X34832275Y-91611907D01*
X34859701Y-91584493D01*
X34886575Y-91557633D01*
X34912874Y-91531348D01*
X34938577Y-91505661D01*
X34963661Y-91480595D01*
X34988103Y-91456172D01*
X35011881Y-91432414D01*
X35034973Y-91409343D01*
X35057356Y-91386983D01*
X35079008Y-91365355D01*
X35099906Y-91344481D01*
X35120028Y-91324385D01*
X35139352Y-91305088D01*
X35157856Y-91286614D01*
X35175516Y-91268983D01*
X35192310Y-91252219D01*
X35208216Y-91236344D01*
X35223212Y-91221380D01*
X35237275Y-91207351D01*
X35250383Y-91194277D01*
X35262514Y-91182182D01*
X35273644Y-91171087D01*
X35283752Y-91161016D01*
X35292816Y-91151991D01*
X35300811Y-91144034D01*
X35307718Y-91137167D01*
X35313512Y-91131413D01*
X35318172Y-91126794D01*
X35321675Y-91123332D01*
X35323999Y-91121051D01*
X35325122Y-91119971D01*
X35325184Y-91119915D01*
X35343748Y-91104887D01*
X35363108Y-91091396D01*
X35383270Y-91079440D01*
X35404243Y-91069016D01*
X35426033Y-91060121D01*
X35448646Y-91052752D01*
X35472089Y-91046905D01*
X35496371Y-91042578D01*
X35504409Y-91041503D01*
X35508575Y-91041127D01*
X35514155Y-91040828D01*
X35520834Y-91040604D01*
X35528293Y-91040456D01*
X35536218Y-91040383D01*
X35544289Y-91040386D01*
G37*
D14*
%TO.C,R26*%
X39816641Y-65407532D02*
X39509359Y-65407532D01*
X39816641Y-66167532D02*
X39509359Y-66167532D01*
%TO.C,C4*%
X55382278Y-66475121D02*
X55382278Y-66690793D01*
X56102278Y-66475121D02*
X56102278Y-66690793D01*
%TO.C,J2*%
X56345722Y-48593068D02*
X56345722Y-58873068D01*
X56345722Y-48593068D02*
X58945722Y-48593068D01*
X56345722Y-58873068D02*
X61545722Y-58873068D01*
X58945722Y-48593068D02*
X58945722Y-51193068D01*
X58945722Y-51193068D02*
X61545722Y-51193068D01*
X60215722Y-48593068D02*
X61545722Y-48593068D01*
X61545722Y-48593068D02*
X61545722Y-49923068D01*
X61545722Y-51193068D02*
X61545722Y-58873068D01*
%TO.C,R27*%
X43399761Y-66099297D02*
X43399761Y-66406579D01*
X44159761Y-66099297D02*
X44159761Y-66406579D01*
%TO.C,C23*%
X41152394Y-50641492D02*
X40871234Y-50641492D01*
X41152394Y-51661492D02*
X40871234Y-51661492D01*
%TO.C,R3*%
X54090000Y-61186359D02*
X54090000Y-61493641D01*
X54850000Y-61186359D02*
X54850000Y-61493641D01*
D15*
%TO.C,L4*%
X41900000Y-89450000D02*
X44330000Y-89450000D01*
X41900000Y-99950000D02*
X41900000Y-89450000D01*
X41900000Y-99950000D02*
X44330000Y-99950000D01*
X51900000Y-89450000D02*
X49470000Y-89450000D01*
X51900000Y-99950000D02*
X49470000Y-99950000D01*
X51900000Y-99950000D02*
X51900000Y-89450000D01*
D14*
%TO.C,BOOTJUMPER1*%
X56344778Y-59796857D02*
X56344778Y-62456857D01*
X58944778Y-59796857D02*
X56344778Y-59796857D01*
X58944778Y-59796857D02*
X58944778Y-62456857D01*
X58944778Y-62456857D02*
X56344778Y-62456857D01*
X60214778Y-59796857D02*
X61544778Y-59796857D01*
X61544778Y-59796857D02*
X61544778Y-61126857D01*
%TO.C,R11*%
X51552764Y-50672799D02*
X51245482Y-50672799D01*
X51552764Y-51432799D02*
X51245482Y-51432799D01*
%TO.C,TP2*%
X47275000Y-56050000D02*
G75*
G02*
X45875000Y-56050000I-700000J0D01*
G01*
X45875000Y-56050000D02*
G75*
G02*
X47275000Y-56050000I700000J0D01*
G01*
%TO.C,R25*%
X53486564Y-78316556D02*
X53486564Y-78009274D01*
X54246564Y-78316556D02*
X54246564Y-78009274D01*
%TO.C,C2*%
X57442000Y-67571164D02*
X57442000Y-67786836D01*
X58162000Y-67571164D02*
X58162000Y-67786836D01*
%TO.C,C24*%
X34557836Y-57904215D02*
X34342164Y-57904215D01*
X34557836Y-58624215D02*
X34342164Y-58624215D01*
%TO.C,C5*%
X56340278Y-66474121D02*
X56340278Y-66689793D01*
X57060278Y-66474121D02*
X57060278Y-66689793D01*
%TO.C,R38*%
X48930000Y-76396359D02*
X48930000Y-76703641D01*
X49690000Y-76396359D02*
X49690000Y-76703641D01*
%TO.C,R36*%
X53256000Y-72772359D02*
X53256000Y-73079641D01*
X54016000Y-72772359D02*
X54016000Y-73079641D01*
D13*
%TO.C,CANTXLED1*%
X39049000Y-63212032D02*
G75*
G02*
X38949000Y-63212032I-50000J0D01*
G01*
X38949000Y-63212032D02*
G75*
G02*
X39049000Y-63212032I50000J0D01*
G01*
D14*
%TO.C,C49*%
X58518748Y-89740000D02*
X59941252Y-89740000D01*
X58518748Y-91560000D02*
X59941252Y-91560000D01*
%TO.C,R14*%
X39866173Y-44116492D02*
X40173455Y-44116492D01*
X39866173Y-44876492D02*
X40173455Y-44876492D01*
D13*
%TO.C,USBLED1*%
X43783830Y-55192421D02*
G75*
G02*
X43683830Y-55192421I-50000J0D01*
G01*
X43683830Y-55192421D02*
G75*
G02*
X43783830Y-55192421I50000J0D01*
G01*
D14*
%TO.C,C35*%
X39150000Y-95386252D02*
X39150000Y-93963748D01*
X40970000Y-95386252D02*
X40970000Y-93963748D01*
%TO.C,R39*%
X50616359Y-74760000D02*
X50923641Y-74760000D01*
X50616359Y-75520000D02*
X50923641Y-75520000D01*
%TO.C,R23*%
X47794000Y-82118641D02*
X47794000Y-81811359D01*
X48554000Y-82118641D02*
X48554000Y-81811359D01*
%TO.C,TP7*%
X46300000Y-52400000D02*
G75*
G02*
X44400000Y-52400000I-950000J0D01*
G01*
X44400000Y-52400000D02*
G75*
G02*
X46300000Y-52400000I950000J0D01*
G01*
D16*
%TO.C,U3*%
X41919814Y-42666492D02*
X42419814Y-42666492D01*
X41919814Y-44766492D02*
X41919814Y-42666492D01*
X42419814Y-42666492D02*
X42419814Y-44766492D01*
X42419814Y-44766492D02*
X41919814Y-44766492D01*
X43244814Y-44866492D02*
X42769814Y-44866492D01*
D13*
%TO.C,D4*%
X54275000Y-56975000D02*
X54275000Y-57125000D01*
X54275000Y-59675000D02*
X54275000Y-59525000D01*
X54375000Y-56975000D02*
X54275000Y-56975000D01*
X54375000Y-59675000D02*
X54275000Y-59675000D01*
D14*
%TO.C,C33*%
X55211252Y-88390000D02*
X53788748Y-88390000D01*
X55211252Y-90210000D02*
X53788748Y-90210000D01*
%TO.C,L3*%
X37883853Y-48224436D02*
X37883853Y-49023680D01*
X39003853Y-48224436D02*
X39003853Y-49023680D01*
%TO.C,J3*%
X55490000Y-69515736D02*
X55790000Y-69940000D01*
X55790000Y-69940000D02*
X56090000Y-69515736D01*
X56090000Y-69515736D02*
X55490000Y-69515736D01*
X57150000Y-70900000D02*
X57150000Y-71200000D01*
X57150000Y-71200000D02*
X57600000Y-71200000D01*
X57150000Y-73400000D02*
X57150000Y-73700000D01*
X57150000Y-73700000D02*
X57600000Y-73700000D01*
X57150000Y-75900000D02*
X57150000Y-76200000D01*
X57150000Y-76200000D02*
X57600000Y-76200000D01*
X57600000Y-69220000D02*
X57600000Y-77880000D01*
X57600000Y-70900000D02*
X57150000Y-70900000D01*
X57600000Y-71200000D02*
X57600000Y-70900000D01*
X57600000Y-73400000D02*
X57150000Y-73400000D01*
X57600000Y-73700000D02*
X57600000Y-73400000D01*
X57600000Y-75900000D02*
X57150000Y-75900000D01*
X57600000Y-76200000D02*
X57600000Y-75900000D01*
X57600000Y-77880000D02*
X66280000Y-77880000D01*
X66280000Y-69220000D02*
X57600000Y-69220000D01*
X66280000Y-77880000D02*
X66280000Y-69220000D01*
%TO.C,TP9*%
X47100000Y-71550000D02*
G75*
G02*
X45700000Y-71550000I-700000J0D01*
G01*
X45700000Y-71550000D02*
G75*
G02*
X47100000Y-71550000I700000J0D01*
G01*
D15*
%TO.C,U1*%
X45800000Y-57710000D02*
X45800000Y-58180000D01*
X45800000Y-57710000D02*
X46270000Y-57710000D01*
X45800000Y-64710000D02*
X45800000Y-64240000D01*
X45800000Y-64710000D02*
X46270000Y-64710000D01*
X52800000Y-57710000D02*
X52330000Y-57710000D01*
X52800000Y-57710000D02*
X52800000Y-58180000D01*
X52800000Y-64710000D02*
X52330000Y-64710000D01*
X52800000Y-64710000D02*
X52800000Y-64240000D01*
D16*
X53855000Y-63810000D02*
G75*
G02*
X53655000Y-63810000I-100000J0D01*
G01*
X53655000Y-63810000D02*
G75*
G02*
X53855000Y-63810000I100000J0D01*
G01*
D14*
%TO.C,TP5*%
X42324941Y-53816246D02*
G75*
G02*
X40424941Y-53816246I-950000J0D01*
G01*
X40424941Y-53816246D02*
G75*
G02*
X42324941Y-53816246I950000J0D01*
G01*
%TO.C,U2*%
X39715000Y-61340500D02*
X39715000Y-59390500D01*
X39715000Y-61340500D02*
X39715000Y-63290500D01*
X44835000Y-61340500D02*
X44835000Y-59390500D01*
X44835000Y-61340500D02*
X44835000Y-63290500D01*
X39810000Y-64040500D02*
X39480000Y-64280500D01*
X39480000Y-63800500D01*
X39810000Y-64040500D01*
G36*
X39810000Y-64040500D02*
G01*
X39480000Y-64280500D01*
X39480000Y-63800500D01*
X39810000Y-64040500D01*
G37*
%TO.C,C27*%
X36793344Y-48504814D02*
X36577672Y-48504814D01*
X36793344Y-49224814D02*
X36577672Y-49224814D01*
%TO.C,R12*%
X46695000Y-52428641D02*
X46695000Y-52121359D01*
X47455000Y-52428641D02*
X47455000Y-52121359D01*
%TO.C,C47*%
X58518748Y-92120000D02*
X59941252Y-92120000D01*
X58518748Y-93940000D02*
X59941252Y-93940000D01*
%TO.C,R9*%
X37595258Y-60347500D02*
X37120742Y-60347500D01*
X37595258Y-61392500D02*
X37120742Y-61392500D01*
%TO.C,R20*%
X51792000Y-83820641D02*
X51792000Y-83513359D01*
X52552000Y-83820641D02*
X52552000Y-83513359D01*
%TO.C,C29*%
X51724000Y-87068164D02*
X51724000Y-87283836D01*
X52444000Y-87068164D02*
X52444000Y-87283836D01*
D13*
%TO.C,U6*%
X45700000Y-84856000D02*
X45700000Y-84856000D01*
X45800000Y-84856000D02*
X45800000Y-84856000D01*
X46200000Y-83750000D02*
X46200000Y-84550000D01*
X46200000Y-86950000D02*
X46200000Y-87756000D01*
X46200000Y-87756000D02*
X46400000Y-87756000D01*
X46400000Y-83750000D02*
X46200000Y-83750000D01*
X50000000Y-83744000D02*
X50200000Y-83744000D01*
X50200000Y-83744000D02*
X50200000Y-84150000D01*
X50200000Y-87550000D02*
X50200000Y-87756000D01*
X50200000Y-87756000D02*
X49600000Y-87756000D01*
X45700000Y-84856000D02*
G75*
G02*
X45800000Y-84856000I50000J0D01*
G01*
X45800000Y-84856000D02*
G75*
G02*
X45700000Y-84856000I-50000J0D01*
G01*
D14*
%TO.C,J1*%
X23365000Y-67640000D02*
X23365000Y-74650000D01*
X23365000Y-81660000D02*
X23365000Y-74650000D01*
X36375000Y-73040000D02*
X36375000Y-72060000D01*
X36375000Y-77240000D02*
X36375000Y-76260000D01*
X36385000Y-67640000D02*
X23365000Y-67640000D01*
X36385000Y-68450000D02*
X36385000Y-67640000D01*
X36385000Y-80850000D02*
X36385000Y-81660000D01*
X36385000Y-81660000D02*
X23365000Y-81660000D01*
X37075000Y-81450000D02*
X37375000Y-80850000D01*
X37375000Y-80850000D02*
X37675000Y-81450000D01*
X37675000Y-81450000D02*
X37075000Y-81450000D01*
X39485000Y-70150000D02*
X40765000Y-70150000D01*
X39485000Y-70750000D02*
X40765000Y-70750000D01*
X39485000Y-74350000D02*
X40765000Y-74350000D01*
X39485000Y-74950000D02*
X40765000Y-74950000D01*
X39485000Y-78550000D02*
X40765000Y-78550000D01*
X39485000Y-79150000D02*
X40765000Y-79150000D01*
D13*
%TO.C,CANRXLED1*%
X44840000Y-65160000D02*
G75*
G02*
X44740000Y-65160000I-50000J0D01*
G01*
X44740000Y-65160000D02*
G75*
G02*
X44840000Y-65160000I50000J0D01*
G01*
D14*
%TO.C,TP4*%
X39525000Y-43675000D02*
G75*
G02*
X37625000Y-43675000I-950000J0D01*
G01*
X37625000Y-43675000D02*
G75*
G02*
X39525000Y-43675000I950000J0D01*
G01*
%TO.C,C6*%
X54836407Y-62892642D02*
X55052079Y-62892642D01*
X54836407Y-63612642D02*
X55052079Y-63612642D01*
%TO.C,C15*%
X42498836Y-65171000D02*
X42283164Y-65171000D01*
X42498836Y-65891000D02*
X42283164Y-65891000D01*
%TO.C,C22*%
X43493978Y-45996492D02*
X43709650Y-45996492D01*
X43493978Y-46716492D02*
X43709650Y-46716492D01*
%TO.C,C13*%
X48160000Y-68909836D02*
X48160000Y-68694164D01*
X48880000Y-68909836D02*
X48880000Y-68694164D01*
%TO.C,C25*%
X34557854Y-58826291D02*
X34342182Y-58826291D01*
X34557854Y-59546291D02*
X34342182Y-59546291D01*
%TO.C,R16*%
X34991864Y-49394814D02*
X34684582Y-49394814D01*
X34991864Y-50154814D02*
X34684582Y-50154814D01*
%TO.C,C37*%
X55221252Y-90780000D02*
X53798748Y-90780000D01*
X55221252Y-92600000D02*
X53798748Y-92600000D01*
%TO.C,R24*%
X51879641Y-80857000D02*
X51572359Y-80857000D01*
X51879641Y-81617000D02*
X51572359Y-81617000D01*
%TO.C,C10*%
X50291740Y-56291006D02*
X50507412Y-56291006D01*
X50291740Y-57011006D02*
X50507412Y-57011006D01*
%TO.C,C26*%
X36793344Y-49424814D02*
X36577672Y-49424814D01*
X36793344Y-50144814D02*
X36577672Y-50144814D01*
%TO.C,C7*%
X53413000Y-66398164D02*
X53413000Y-66613836D01*
X54133000Y-66398164D02*
X54133000Y-66613836D01*
%TO.C,R22*%
X48796000Y-82118641D02*
X48796000Y-81811359D01*
X49556000Y-82118641D02*
X49556000Y-81811359D01*
%TO.C,C39*%
X46655000Y-81930836D02*
X46655000Y-81715164D01*
X47375000Y-81930836D02*
X47375000Y-81715164D01*
%TO.C,D1*%
X33214999Y-65262500D02*
X33214999Y-64612500D01*
X33214999Y-65262500D02*
X33214999Y-65912500D01*
X36334999Y-65262500D02*
X36334999Y-64612500D01*
X36334999Y-65262500D02*
X36334999Y-65912500D01*
X33264999Y-66425000D02*
X32934999Y-66665000D01*
X32934999Y-66185000D01*
X33264999Y-66425000D01*
G36*
X33264999Y-66425000D02*
G01*
X32934999Y-66665000D01*
X32934999Y-66185000D01*
X33264999Y-66425000D01*
G37*
%TO.C,R13*%
X43348248Y-52091750D02*
X43348248Y-52399032D01*
X44108248Y-52091750D02*
X44108248Y-52399032D01*
%TO.C,Y1*%
X51728000Y-67678000D02*
X49028000Y-67678000D01*
X51728000Y-69978000D02*
X51728000Y-67678000D01*
D13*
%TO.C,3V3LED1*%
X53093159Y-56235521D02*
G75*
G02*
X52993159Y-56235521I-50000J0D01*
G01*
X52993159Y-56235521D02*
G75*
G02*
X53093159Y-56235521I50000J0D01*
G01*
D15*
%TO.C,U4*%
X40691814Y-47119418D02*
X40691814Y-47399418D01*
X40691814Y-47119418D02*
X40971814Y-47119418D01*
X40691814Y-50119418D02*
X40691814Y-49839418D01*
X40691814Y-50119418D02*
X40971814Y-50119418D01*
X43691814Y-47119418D02*
X43411814Y-47119418D01*
X43691814Y-47119418D02*
X43691814Y-47399418D01*
X43691814Y-50119418D02*
X43411814Y-50119418D01*
X43691814Y-50119418D02*
X43691814Y-49839418D01*
D16*
X44441814Y-49569418D02*
G75*
G02*
X44241814Y-49569418I-100000J0D01*
G01*
X44241814Y-49569418D02*
G75*
G02*
X44441814Y-49569418I100000J0D01*
G01*
D14*
%TO.C,TP6*%
X41340000Y-55610000D02*
G75*
G02*
X39440000Y-55610000I-950000J0D01*
G01*
X39440000Y-55610000D02*
G75*
G02*
X41340000Y-55610000I950000J0D01*
G01*
%TD*%
%LPC*%
D18*
%TO.C,U4*%
X41316814Y-48844418D02*
X40591814Y-48844418D01*
X40591814Y-48394418D01*
X41316814Y-48394418D01*
X41316814Y-48844418D01*
G36*
X41316814Y-48844418D02*
G01*
X40591814Y-48844418D01*
X40591814Y-48394418D01*
X41316814Y-48394418D01*
X41316814Y-48844418D01*
G37*
X42641814Y-47744418D02*
X42241814Y-47744418D01*
X42241814Y-47019418D01*
X42641814Y-47019418D01*
X42641814Y-47744418D01*
G36*
X42641814Y-47744418D02*
G01*
X42241814Y-47744418D01*
X42241814Y-47019418D01*
X42641814Y-47019418D01*
X42641814Y-47744418D01*
G37*
X42641814Y-50219418D02*
X42241814Y-50219418D01*
X42241814Y-49494418D01*
X42641814Y-49494418D01*
X42641814Y-50219418D01*
G36*
X42641814Y-50219418D02*
G01*
X42241814Y-50219418D01*
X42241814Y-49494418D01*
X42641814Y-49494418D01*
X42641814Y-50219418D01*
G37*
X43141814Y-47744418D02*
X42741814Y-47744418D01*
X42741814Y-47019418D01*
X43141814Y-47019418D01*
X43141814Y-47744418D01*
G36*
X43141814Y-47744418D02*
G01*
X42741814Y-47744418D01*
X42741814Y-47019418D01*
X43141814Y-47019418D01*
X43141814Y-47744418D01*
G37*
X43141814Y-50219418D02*
X42741814Y-50219418D01*
X42741814Y-49494418D01*
X43141814Y-49494418D01*
X43141814Y-50219418D01*
G36*
X43141814Y-50219418D02*
G01*
X42741814Y-50219418D01*
X42741814Y-49494418D01*
X43141814Y-49494418D01*
X43141814Y-50219418D01*
G37*
X43791814Y-48319418D02*
X43066814Y-48319418D01*
X43066814Y-47919418D01*
X43791814Y-47919418D01*
X43791814Y-48319418D01*
G36*
X43791814Y-48319418D02*
G01*
X43066814Y-48319418D01*
X43066814Y-47919418D01*
X43791814Y-47919418D01*
X43791814Y-48319418D01*
G37*
X43791814Y-48819418D02*
X43066814Y-48819418D01*
X43066814Y-48419418D01*
X43791814Y-48419418D01*
X43791814Y-48819418D01*
G36*
X43791814Y-48819418D02*
G01*
X43066814Y-48819418D01*
X43066814Y-48419418D01*
X43791814Y-48419418D01*
X43791814Y-48819418D01*
G37*
X41316814Y-47802418D02*
X41316814Y-48194418D01*
X40591814Y-48194418D01*
X40591814Y-47744418D01*
X41215814Y-47744418D01*
X41316814Y-47802418D01*
G36*
X41316814Y-47802418D02*
G01*
X41316814Y-48194418D01*
X40591814Y-48194418D01*
X40591814Y-47744418D01*
X41215814Y-47744418D01*
X41316814Y-47802418D01*
G37*
X41316814Y-49436418D02*
X41215814Y-49494418D01*
X40591814Y-49494418D01*
X40591814Y-49044418D01*
X41316814Y-49044418D01*
X41316814Y-49436418D01*
G36*
X41316814Y-49436418D02*
G01*
X41215814Y-49494418D01*
X40591814Y-49494418D01*
X40591814Y-49044418D01*
X41316814Y-49044418D01*
X41316814Y-49436418D01*
G37*
X42141814Y-47744418D02*
X41342814Y-47744418D01*
X41241814Y-47686418D01*
X41241814Y-47019418D01*
X42141814Y-47019418D01*
X42141814Y-47744418D01*
G36*
X42141814Y-47744418D02*
G01*
X41342814Y-47744418D01*
X41241814Y-47686418D01*
X41241814Y-47019418D01*
X42141814Y-47019418D01*
X42141814Y-47744418D01*
G37*
X42141814Y-50219418D02*
X41241814Y-50219418D01*
X41241814Y-49552418D01*
X41342814Y-49494418D01*
X42141814Y-49494418D01*
X42141814Y-50219418D01*
G36*
X42141814Y-50219418D02*
G01*
X41241814Y-50219418D01*
X41241814Y-49552418D01*
X41342814Y-49494418D01*
X42141814Y-49494418D01*
X42141814Y-50219418D01*
G37*
X43791814Y-49319418D02*
X43201814Y-49319418D01*
X43066814Y-49184418D01*
X43066814Y-48919418D01*
X43791814Y-48919418D01*
X43791814Y-49319418D01*
G36*
X43791814Y-49319418D02*
G01*
X43201814Y-49319418D01*
X43066814Y-49184418D01*
X43066814Y-48919418D01*
X43791814Y-48919418D01*
X43791814Y-49319418D01*
G37*
%TD*%
D19*
%TO.C,C21*%
X41598958Y-46080869D03*
X40048958Y-46080869D03*
%TD*%
D20*
%TO.C,TP10*%
X46275000Y-68850000D03*
%TD*%
D21*
%TO.C,12VLED1*%
X48352000Y-78029000D03*
X48352000Y-78999000D03*
%TD*%
D22*
%TO.C,R37*%
X53636000Y-70504000D03*
X53636000Y-71524000D03*
%TD*%
D23*
%TO.C,J4*%
X62970000Y-81710000D03*
X62970000Y-86710000D03*
D24*
X55790000Y-81710000D03*
D25*
X55790000Y-84210000D03*
X55790000Y-86710000D03*
%TD*%
D26*
%TO.C,C11*%
X47158000Y-65769000D03*
X46198000Y-65769000D03*
%TD*%
D27*
%TO.C,R6*%
X45940000Y-67075000D03*
X46960000Y-67075000D03*
%TD*%
D28*
%TO.C,H3*%
X59000000Y-99090000D03*
%TD*%
D29*
%TO.C,R15*%
X44461814Y-48946492D03*
X44461814Y-47926492D03*
%TD*%
D30*
%TO.C,R2*%
X50817000Y-71474000D03*
X49797000Y-71474000D03*
%TD*%
D29*
%TO.C,R17*%
X33440000Y-49820000D03*
X33440000Y-48800000D03*
%TD*%
D31*
%TO.C,D2*%
X50150000Y-54550000D03*
D32*
X50150000Y-52850000D03*
X48150000Y-52850000D03*
X48150000Y-54750000D03*
%TD*%
D29*
%TO.C,R1*%
X57718002Y-64410894D03*
X57718002Y-63390894D03*
%TD*%
D30*
%TO.C,R18*%
X53013000Y-85745000D03*
X51993000Y-85745000D03*
%TD*%
D33*
%TO.C,JP1*%
X44097000Y-56906500D03*
X42992000Y-56906500D03*
%TD*%
D34*
%TO.C,TXLED1*%
X47911000Y-71466000D03*
X48881000Y-71466000D03*
%TD*%
D35*
%TO.C,C28*%
X53145000Y-83834000D03*
X53145000Y-84794000D03*
%TD*%
D29*
%TO.C,R34*%
X46490000Y-75730000D03*
X46490000Y-74710000D03*
%TD*%
D36*
%TO.C,Q1*%
X51173000Y-75994000D03*
X50373000Y-75994000D03*
X50773000Y-77144000D03*
%TD*%
D29*
%TO.C,R8*%
X39050000Y-59075000D03*
X39050000Y-58055000D03*
%TD*%
D37*
%TO.C,C1*%
X56736278Y-65187957D03*
X56736278Y-64227957D03*
%TD*%
D38*
%TO.C,ENJUMPER1*%
X60216232Y-67272660D03*
D39*
X60216232Y-64732660D03*
%TD*%
D37*
%TO.C,C45*%
X52662000Y-73424000D03*
X52662000Y-72464000D03*
%TD*%
D26*
%TO.C,C16*%
X42870000Y-66500000D03*
X41910000Y-66500000D03*
%TD*%
D21*
%TO.C,SERVOLED1*%
X53873564Y-75773415D03*
X53873564Y-76743415D03*
%TD*%
D22*
%TO.C,R4*%
X52100000Y-54640000D03*
X52100000Y-55660000D03*
%TD*%
D30*
%TO.C,R19*%
X52242000Y-82224000D03*
X51222000Y-82224000D03*
%TD*%
D35*
%TO.C,C3*%
X57799672Y-65319759D03*
X57799672Y-66279759D03*
%TD*%
D40*
%TO.C,TP8*%
X39325000Y-53850000D03*
%TD*%
D35*
%TO.C,C38*%
X44631000Y-85315000D03*
X44631000Y-86275000D03*
%TD*%
D22*
%TO.C,R7*%
X49340000Y-78000000D03*
X49340000Y-79020000D03*
%TD*%
D41*
%TO.C,R10*%
X36533000Y-62327000D03*
X38183000Y-62327000D03*
%TD*%
D35*
%TO.C,C9*%
X52802000Y-66032000D03*
X52802000Y-66992000D03*
%TD*%
D42*
%TO.C,C30*%
X38220000Y-83610000D03*
X38220000Y-89835000D03*
%TD*%
D43*
%TO.C,L1*%
X55759278Y-65175957D03*
X55759278Y-64205957D03*
%TD*%
D44*
%TO.C,J5*%
X53453000Y-48402000D03*
X47673000Y-48402000D03*
D45*
X53763000Y-49462000D03*
X52963000Y-49462000D03*
D46*
X51813000Y-49462000D03*
X50813000Y-49462000D03*
X50313000Y-49462000D03*
X49313000Y-49462000D03*
D45*
X48163000Y-49462000D03*
X47363000Y-49462000D03*
X47363000Y-49462000D03*
X48163000Y-49462000D03*
D46*
X48813000Y-49462000D03*
X49813000Y-49462000D03*
X51313000Y-49462000D03*
X52313000Y-49462000D03*
D45*
X52963000Y-49462000D03*
X53763000Y-49462000D03*
D47*
X54883000Y-48882000D03*
D48*
X54883000Y-44712000D03*
D47*
X46243000Y-48882000D03*
D48*
X46243000Y-44712000D03*
%TD*%
D35*
%TO.C,C17*%
X34790000Y-61620000D03*
X34790000Y-62580000D03*
%TD*%
%TO.C,C8*%
X55400456Y-60883040D03*
X55400456Y-61843040D03*
%TD*%
D29*
%TO.C,R21*%
X46019000Y-82331000D03*
X46019000Y-81311000D03*
%TD*%
D49*
%TO.C,U5*%
X33070000Y-56570000D03*
X34340000Y-56570000D03*
X35610000Y-56570000D03*
X36880000Y-56570000D03*
X36880000Y-51630000D03*
X35610000Y-51630000D03*
X34340000Y-51630000D03*
X33070000Y-51630000D03*
D50*
X34975000Y-54100000D03*
%TD*%
D51*
%TO.C,C20*%
X43121814Y-45436492D03*
X44081814Y-45436492D03*
%TD*%
D20*
%TO.C,TP1*%
X51750000Y-52725000D03*
%TD*%
D35*
%TO.C,C14*%
X52239000Y-68329000D03*
X52239000Y-69289000D03*
%TD*%
D30*
%TO.C,R26*%
X40173000Y-65787532D03*
X39153000Y-65787532D03*
%TD*%
D35*
%TO.C,C4*%
X55742278Y-66102957D03*
X55742278Y-67062957D03*
%TD*%
D38*
%TO.C,J2*%
X60215722Y-49923068D03*
D39*
X57675722Y-49923068D03*
X60215722Y-52463068D03*
X57675722Y-52463068D03*
X60215722Y-55003068D03*
X57675722Y-55003068D03*
X60215722Y-57543068D03*
X57675722Y-57543068D03*
%TD*%
D22*
%TO.C,R27*%
X43779761Y-65742938D03*
X43779761Y-66762938D03*
%TD*%
D19*
%TO.C,C23*%
X41786814Y-51151492D03*
X40236814Y-51151492D03*
%TD*%
D22*
%TO.C,R3*%
X54470000Y-60830000D03*
X54470000Y-61850000D03*
%TD*%
D52*
%TO.C,L4*%
X46900000Y-99225000D03*
X46900000Y-90175000D03*
%TD*%
D38*
%TO.C,BOOTJUMPER1*%
X60214778Y-61126857D03*
D39*
X57674778Y-61126857D03*
%TD*%
D30*
%TO.C,R11*%
X51909123Y-51052799D03*
X50889123Y-51052799D03*
%TD*%
D20*
%TO.C,TP2*%
X46575000Y-56050000D03*
%TD*%
D29*
%TO.C,R25*%
X53866564Y-78672915D03*
X53866564Y-77652915D03*
%TD*%
D35*
%TO.C,C2*%
X57802000Y-67199000D03*
X57802000Y-68159000D03*
%TD*%
D26*
%TO.C,C24*%
X34930000Y-58264215D03*
X33970000Y-58264215D03*
%TD*%
D35*
%TO.C,C5*%
X56700278Y-66101957D03*
X56700278Y-67061957D03*
%TD*%
D22*
%TO.C,R38*%
X49310000Y-76040000D03*
X49310000Y-77060000D03*
%TD*%
%TO.C,R36*%
X53636000Y-72416000D03*
X53636000Y-73436000D03*
%TD*%
D21*
%TO.C,CANTXLED1*%
X38999000Y-63817032D03*
X38999000Y-64787032D03*
%TD*%
D53*
%TO.C,C49*%
X57755000Y-90650000D03*
X60705000Y-90650000D03*
%TD*%
D21*
%TO.C,L2*%
X51320000Y-65908616D03*
X51320000Y-66878616D03*
%TD*%
D27*
%TO.C,R14*%
X39509814Y-44496492D03*
X40529814Y-44496492D03*
%TD*%
D28*
%TO.C,H4*%
X35000000Y-45090000D03*
%TD*%
D43*
%TO.C,USBLED1*%
X43733830Y-54587421D03*
X43733830Y-53617421D03*
%TD*%
D54*
%TO.C,C35*%
X40060000Y-96150000D03*
X40060000Y-93200000D03*
%TD*%
D27*
%TO.C,R39*%
X50260000Y-75140000D03*
X51280000Y-75140000D03*
%TD*%
D29*
%TO.C,R23*%
X48174000Y-82475000D03*
X48174000Y-81455000D03*
%TD*%
D40*
%TO.C,TP7*%
X45350000Y-52400000D03*
%TD*%
D55*
%TO.C,U3*%
X43007814Y-44466492D03*
X43007814Y-43966492D03*
X43007814Y-43466492D03*
X43007814Y-42966492D03*
X41331814Y-42966492D03*
X41331814Y-43466492D03*
X41331814Y-43966492D03*
X41331814Y-44466492D03*
%TD*%
D56*
%TO.C,D4*%
X54975000Y-59525000D03*
X54975000Y-58725000D03*
X54975000Y-57925000D03*
X54975000Y-57125000D03*
X54375000Y-59125000D03*
X54375000Y-58325000D03*
X54375000Y-57525000D03*
%TD*%
D57*
%TO.C,C33*%
X55975000Y-89300000D03*
X53025000Y-89300000D03*
%TD*%
D58*
%TO.C,L3*%
X38443853Y-47561558D03*
X38443853Y-49686558D03*
%TD*%
D23*
%TO.C,J3*%
X62970000Y-71050000D03*
X62970000Y-76050000D03*
D24*
X55790000Y-71050000D03*
D25*
X55790000Y-73550000D03*
X55790000Y-76050000D03*
%TD*%
D20*
%TO.C,TP9*%
X46400000Y-71550000D03*
%TD*%
D59*
%TO.C,U1*%
X52745000Y-63810000D03*
X52745000Y-63410000D03*
X52745000Y-63010000D03*
X52745000Y-62610000D03*
X52745000Y-62210000D03*
X52745000Y-61810000D03*
X52745000Y-61410000D03*
X52745000Y-61010000D03*
X52745000Y-60610000D03*
X52745000Y-60210000D03*
X52745000Y-59810000D03*
X52745000Y-59410000D03*
X52745000Y-59010000D03*
X52745000Y-58610000D03*
D60*
X51900000Y-57765000D03*
X51500000Y-57765000D03*
X51100000Y-57765000D03*
X50700000Y-57765000D03*
X50300000Y-57765000D03*
X49900000Y-57765000D03*
X49500000Y-57765000D03*
X49100000Y-57765000D03*
X48700000Y-57765000D03*
X48300000Y-57765000D03*
X47900000Y-57765000D03*
X47500000Y-57765000D03*
X47100000Y-57765000D03*
X46700000Y-57765000D03*
D59*
X45855000Y-58610000D03*
X45855000Y-59010000D03*
X45855000Y-59410000D03*
X45855000Y-59810000D03*
X45855000Y-60210000D03*
X45855000Y-60610000D03*
X45855000Y-61010000D03*
X45855000Y-61410000D03*
X45855000Y-61810000D03*
X45855000Y-62210000D03*
X45855000Y-62610000D03*
X45855000Y-63010000D03*
X45855000Y-63410000D03*
X45855000Y-63810000D03*
D60*
X46700000Y-64655000D03*
X47100000Y-64655000D03*
X47500000Y-64655000D03*
X47900000Y-64655000D03*
X48300000Y-64655000D03*
X48700000Y-64655000D03*
X49100000Y-64655000D03*
X49500000Y-64655000D03*
X49900000Y-64655000D03*
X50300000Y-64655000D03*
X50700000Y-64655000D03*
X51100000Y-64655000D03*
X51500000Y-64655000D03*
X51900000Y-64655000D03*
D61*
X49300000Y-61210000D03*
%TD*%
D40*
%TO.C,TP5*%
X41374941Y-53816246D03*
%TD*%
D62*
%TO.C,U2*%
X40370000Y-63815500D03*
X41640000Y-63815500D03*
X42910000Y-63815500D03*
X44180000Y-63815500D03*
X44180000Y-58865500D03*
X42910000Y-58865500D03*
X41640000Y-58865500D03*
X40370000Y-58865500D03*
%TD*%
D26*
%TO.C,C27*%
X37165508Y-48864814D03*
X36205508Y-48864814D03*
%TD*%
D29*
%TO.C,R12*%
X47075000Y-52785000D03*
X47075000Y-51765000D03*
%TD*%
D53*
%TO.C,C47*%
X57755000Y-93030000D03*
X60705000Y-93030000D03*
%TD*%
D33*
%TO.C,R9*%
X38183000Y-60870000D03*
X36533000Y-60870000D03*
%TD*%
D28*
%TO.C,H2*%
X59000000Y-45090000D03*
%TD*%
D29*
%TO.C,R20*%
X52172000Y-84177000D03*
X52172000Y-83157000D03*
%TD*%
D35*
%TO.C,C29*%
X52084000Y-86696000D03*
X52084000Y-87656000D03*
%TD*%
D63*
%TO.C,U6*%
X46219000Y-84856000D03*
X46219000Y-85306000D03*
X46219000Y-86206000D03*
X46219000Y-86656000D03*
D64*
X46769000Y-87756000D03*
X47219000Y-87756000D03*
X47669000Y-87756000D03*
X48369000Y-87756000D03*
X48819000Y-87756000D03*
D65*
X49269000Y-87619000D03*
D66*
X50181000Y-87106000D03*
X50181000Y-86656000D03*
X50181000Y-86206000D03*
X50181000Y-85756000D03*
X50181000Y-85306000D03*
X50181000Y-84856000D03*
X50181000Y-84406000D03*
D65*
X49719000Y-83744000D03*
X49269000Y-83744000D03*
X48819000Y-83744000D03*
X48369000Y-83744000D03*
X47669000Y-83744000D03*
X47219000Y-83744000D03*
X46769000Y-83744000D03*
D67*
X48731000Y-84931000D03*
D68*
X47069000Y-84931000D03*
D69*
X47581000Y-86356000D03*
D70*
X49229000Y-86671000D03*
D71*
X48994000Y-85984000D03*
D72*
X47794000Y-87394000D03*
%TD*%
D73*
%TO.C,J1*%
X30075000Y-78850000D03*
X30075000Y-70450000D03*
D74*
X37375000Y-78850000D03*
D75*
X37375000Y-74650000D03*
X37375000Y-70450000D03*
X42875000Y-78850000D03*
X42875000Y-74650000D03*
X42875000Y-70450000D03*
%TD*%
D21*
%TO.C,CANRXLED1*%
X44790000Y-65765000D03*
X44790000Y-66735000D03*
%TD*%
D28*
%TO.C,H1*%
X35000000Y-99090000D03*
%TD*%
D40*
%TO.C,TP4*%
X38575000Y-43675000D03*
%TD*%
D51*
%TO.C,C6*%
X54464243Y-63252642D03*
X55424243Y-63252642D03*
%TD*%
D26*
%TO.C,C15*%
X42871000Y-65531000D03*
X41911000Y-65531000D03*
%TD*%
D51*
%TO.C,C22*%
X43121814Y-46356492D03*
X44081814Y-46356492D03*
%TD*%
D37*
%TO.C,C13*%
X48520000Y-69282000D03*
X48520000Y-68322000D03*
%TD*%
D26*
%TO.C,C25*%
X34930018Y-59186291D03*
X33970018Y-59186291D03*
%TD*%
D30*
%TO.C,R16*%
X35348223Y-49774814D03*
X34328223Y-49774814D03*
%TD*%
D57*
%TO.C,C37*%
X55985000Y-91690000D03*
X53035000Y-91690000D03*
%TD*%
D30*
%TO.C,R24*%
X52236000Y-81237000D03*
X51216000Y-81237000D03*
%TD*%
D51*
%TO.C,C10*%
X49919576Y-56651006D03*
X50879576Y-56651006D03*
%TD*%
D26*
%TO.C,C26*%
X37165508Y-49784814D03*
X36205508Y-49784814D03*
%TD*%
D35*
%TO.C,C7*%
X53773000Y-66026000D03*
X53773000Y-66986000D03*
%TD*%
D29*
%TO.C,R22*%
X49176000Y-82475000D03*
X49176000Y-81455000D03*
%TD*%
D37*
%TO.C,C39*%
X47015000Y-82303000D03*
X47015000Y-81343000D03*
%TD*%
D76*
%TO.C,D1*%
X33824999Y-66200000D03*
X35724999Y-66200000D03*
X34774999Y-64325000D03*
%TD*%
D22*
%TO.C,R13*%
X43728248Y-51735391D03*
X43728248Y-52755391D03*
%TD*%
D77*
%TO.C,Y1*%
X51078000Y-68278000D03*
X49678000Y-68278000D03*
X49678000Y-69378000D03*
X51078000Y-69378000D03*
%TD*%
D43*
%TO.C,3V3LED1*%
X53043159Y-55630521D03*
X53043159Y-54660521D03*
%TD*%
D40*
%TO.C,TP6*%
X40390000Y-55610000D03*
%TD*%
%LPD*%
M02*
