%TF.GenerationSoftware,KiCad,Pcbnew,9.0.8+1*%
%TF.CreationDate,2026-04-14T14:04:00+01:00*%
%TF.ProjectId,Chad,43686164-2e6b-4696-9361-645f70636258,rev?*%
%TF.SameCoordinates,Original*%
%TF.FileFunction,Paste,Top*%
%TF.FilePolarity,Positive*%
%FSLAX46Y46*%
G04 Gerber Fmt 4.6, Leading zero omitted, Abs format (unit mm)*
G04 Created by KiCad (PCBNEW 9.0.8+1) date 2026-04-14 14:04:00*
%MOMM*%
%LPD*%
G01*
G04 APERTURE LIST*
G04 Aperture macros list*
%AMRoundRect*
0 Rectangle with rounded corners*
0 $1 Rounding radius*
0 $2 $3 $4 $5 $6 $7 $8 $9 X,Y pos of 4 corners*
0 Add a 4 corners polygon primitive as box body*
4,1,4,$2,$3,$4,$5,$6,$7,$8,$9,$2,$3,0*
0 Add four circle primitives for the rounded corners*
1,1,$1+$1,$2,$3*
1,1,$1+$1,$4,$5*
1,1,$1+$1,$6,$7*
1,1,$1+$1,$8,$9*
0 Add four rect primitives between the rounded corners*
20,1,$1+$1,$2,$3,$4,$5,0*
20,1,$1+$1,$4,$5,$6,$7,0*
20,1,$1+$1,$6,$7,$8,$9,0*
20,1,$1+$1,$8,$9,$2,$3,0*%
G04 Aperture macros list end*
%ADD10C,0.010000*%
%ADD11RoundRect,0.225000X0.225000X0.250000X-0.225000X0.250000X-0.225000X-0.250000X0.225000X-0.250000X0*%
%ADD12RoundRect,0.147500X-0.172500X0.147500X-0.172500X-0.147500X0.172500X-0.147500X0.172500X0.147500X0*%
%ADD13RoundRect,0.135000X-0.185000X0.135000X-0.185000X-0.135000X0.185000X-0.135000X0.185000X0.135000X0*%
%ADD14RoundRect,0.140000X0.140000X0.170000X-0.140000X0.170000X-0.140000X-0.170000X0.140000X-0.170000X0*%
%ADD15RoundRect,0.135000X-0.135000X-0.185000X0.135000X-0.185000X0.135000X0.185000X-0.135000X0.185000X0*%
%ADD16RoundRect,0.135000X0.185000X-0.135000X0.185000X0.135000X-0.185000X0.135000X-0.185000X-0.135000X0*%
%ADD17RoundRect,0.135000X0.135000X0.185000X-0.135000X0.185000X-0.135000X-0.185000X0.135000X-0.185000X0*%
%ADD18RoundRect,0.175000X0.175000X0.325000X-0.175000X0.325000X-0.175000X-0.325000X0.175000X-0.325000X0*%
%ADD19RoundRect,0.150000X0.200000X0.150000X-0.200000X0.150000X-0.200000X-0.150000X0.200000X-0.150000X0*%
%ADD20RoundRect,0.200000X0.200000X0.275000X-0.200000X0.275000X-0.200000X-0.275000X0.200000X-0.275000X0*%
%ADD21RoundRect,0.147500X-0.147500X-0.172500X0.147500X-0.172500X0.147500X0.172500X-0.147500X0.172500X0*%
%ADD22RoundRect,0.140000X-0.170000X0.140000X-0.170000X-0.140000X0.170000X-0.140000X0.170000X0.140000X0*%
%ADD23RoundRect,0.100000X-0.100000X0.125000X-0.100000X-0.125000X0.100000X-0.125000X0.100000X0.125000X0*%
%ADD24RoundRect,0.140000X0.170000X-0.140000X0.170000X0.140000X-0.170000X0.140000X-0.170000X-0.140000X0*%
%ADD25RoundRect,0.200000X-0.200000X-0.275000X0.200000X-0.275000X0.200000X0.275000X-0.200000X0.275000X0*%
%ADD26RoundRect,0.250000X-1.875000X0.787500X-1.875000X-0.787500X1.875000X-0.787500X1.875000X0.787500X0*%
%ADD27RoundRect,0.147500X0.172500X-0.147500X0.172500X0.147500X-0.172500X0.147500X-0.172500X-0.147500X0*%
%ADD28R,0.600000X1.160000*%
%ADD29R,0.300000X1.160000*%
%ADD30RoundRect,0.042000X0.258000X-0.943000X0.258000X0.943000X-0.258000X0.943000X-0.258000X-0.943000X0*%
%ADD31RoundRect,0.140000X-0.140000X-0.170000X0.140000X-0.170000X0.140000X0.170000X-0.140000X0.170000X0*%
%ADD32R,4.500000X2.950000*%
%ADD33RoundRect,0.250000X-0.325000X-0.650000X0.325000X-0.650000X0.325000X0.650000X-0.325000X0.650000X0*%
%ADD34RoundRect,0.250000X0.650000X-0.325000X0.650000X0.325000X-0.650000X0.325000X-0.650000X-0.325000X0*%
%ADD35R,0.475000X0.300000*%
%ADD36R,0.650000X0.200000*%
%ADD37RoundRect,0.250000X0.325000X0.650000X-0.325000X0.650000X-0.325000X-0.650000X0.325000X-0.650000X0*%
%ADD38RoundRect,0.218750X-0.381250X0.218750X-0.381250X-0.218750X0.381250X-0.218750X0.381250X0.218750X0*%
%ADD39RoundRect,0.006600X0.398400X0.103400X-0.398400X0.103400X-0.398400X-0.103400X0.398400X-0.103400X0*%
%ADD40RoundRect,0.022000X0.088000X0.383000X-0.088000X0.383000X-0.088000X-0.383000X0.088000X-0.383000X0*%
%ADD41RoundRect,0.150000X0.150000X-0.825000X0.150000X0.825000X-0.150000X0.825000X-0.150000X-0.825000X0*%
%ADD42R,0.550000X0.300000*%
%ADD43R,0.300000X0.450000*%
%ADD44R,0.300000X0.725000*%
%ADD45R,0.725000X0.300000*%
%ADD46R,1.575000X1.050000*%
%ADD47R,1.150000X1.050000*%
%ADD48R,2.175000X1.200000*%
%ADD49R,0.580000X0.380000*%
%ADD50R,0.650000X0.455000*%
%ADD51R,2.350000X0.275000*%
%ADD52RoundRect,0.150000X0.150000X-0.587500X0.150000X0.587500X-0.150000X0.587500X-0.150000X-0.587500X0*%
%ADD53R,0.900000X0.800000*%
G04 APERTURE END LIST*
D10*
%TO.C,U5*%
X35676976Y-54801976D02*
X34275000Y-54801976D01*
X34275000Y-53400000D01*
X35676976Y-53400000D01*
X35676976Y-54801976D01*
G36*
X35676976Y-54801976D02*
G01*
X34275000Y-54801976D01*
X34275000Y-53400000D01*
X35676976Y-53400000D01*
X35676976Y-54801976D01*
G37*
%TO.C,U1*%
X49055000Y-60965000D02*
X47785000Y-60965000D01*
X47785000Y-59695000D01*
X49055000Y-59695000D01*
X49055000Y-60965000D01*
G36*
X49055000Y-60965000D02*
G01*
X47785000Y-60965000D01*
X47785000Y-59695000D01*
X49055000Y-59695000D01*
X49055000Y-60965000D01*
G37*
X49055000Y-62725000D02*
X47785000Y-62725000D01*
X47785000Y-61455000D01*
X49055000Y-61455000D01*
X49055000Y-62725000D01*
G36*
X49055000Y-62725000D02*
G01*
X47785000Y-62725000D01*
X47785000Y-61455000D01*
X49055000Y-61455000D01*
X49055000Y-62725000D01*
G37*
X50815000Y-60965000D02*
X49545000Y-60965000D01*
X49545000Y-59695000D01*
X50815000Y-59695000D01*
X50815000Y-60965000D01*
G36*
X50815000Y-60965000D02*
G01*
X49545000Y-60965000D01*
X49545000Y-59695000D01*
X50815000Y-59695000D01*
X50815000Y-60965000D01*
G37*
X50815000Y-62725000D02*
X49545000Y-62725000D01*
X49545000Y-61455000D01*
X50815000Y-61455000D01*
X50815000Y-62725000D01*
G36*
X50815000Y-62725000D02*
G01*
X49545000Y-62725000D01*
X49545000Y-61455000D01*
X50815000Y-61455000D01*
X50815000Y-62725000D01*
G37*
%TO.C,U4*%
X41266814Y-48794418D02*
X40641814Y-48794418D01*
X40641814Y-48444418D01*
X41266814Y-48444418D01*
X41266814Y-48794418D01*
G36*
X41266814Y-48794418D02*
G01*
X40641814Y-48794418D01*
X40641814Y-48444418D01*
X41266814Y-48444418D01*
X41266814Y-48794418D01*
G37*
X42591814Y-47694418D02*
X42291814Y-47694418D01*
X42291814Y-47069418D01*
X42591814Y-47069418D01*
X42591814Y-47694418D01*
G36*
X42591814Y-47694418D02*
G01*
X42291814Y-47694418D01*
X42291814Y-47069418D01*
X42591814Y-47069418D01*
X42591814Y-47694418D01*
G37*
X42591814Y-50169418D02*
X42291814Y-50169418D01*
X42291814Y-49544418D01*
X42591814Y-49544418D01*
X42591814Y-50169418D01*
G36*
X42591814Y-50169418D02*
G01*
X42291814Y-50169418D01*
X42291814Y-49544418D01*
X42591814Y-49544418D01*
X42591814Y-50169418D01*
G37*
X43091814Y-47694418D02*
X42791814Y-47694418D01*
X42791814Y-47069418D01*
X43091814Y-47069418D01*
X43091814Y-47694418D01*
G36*
X43091814Y-47694418D02*
G01*
X42791814Y-47694418D01*
X42791814Y-47069418D01*
X43091814Y-47069418D01*
X43091814Y-47694418D01*
G37*
X43091814Y-50169418D02*
X42791814Y-50169418D01*
X42791814Y-49544418D01*
X43091814Y-49544418D01*
X43091814Y-50169418D01*
G36*
X43091814Y-50169418D02*
G01*
X42791814Y-50169418D01*
X42791814Y-49544418D01*
X43091814Y-49544418D01*
X43091814Y-50169418D01*
G37*
X43741814Y-48269418D02*
X43116814Y-48269418D01*
X43116814Y-47969418D01*
X43741814Y-47969418D01*
X43741814Y-48269418D01*
G36*
X43741814Y-48269418D02*
G01*
X43116814Y-48269418D01*
X43116814Y-47969418D01*
X43741814Y-47969418D01*
X43741814Y-48269418D01*
G37*
X43741814Y-48769418D02*
X43116814Y-48769418D01*
X43116814Y-48469418D01*
X43741814Y-48469418D01*
X43741814Y-48769418D01*
G36*
X43741814Y-48769418D02*
G01*
X43116814Y-48769418D01*
X43116814Y-48469418D01*
X43741814Y-48469418D01*
X43741814Y-48769418D01*
G37*
X41266814Y-47852418D02*
X41266814Y-48144418D01*
X40641814Y-48144418D01*
X40641814Y-47794418D01*
X41165814Y-47794418D01*
X41266814Y-47852418D01*
G36*
X41266814Y-47852418D02*
G01*
X41266814Y-48144418D01*
X40641814Y-48144418D01*
X40641814Y-47794418D01*
X41165814Y-47794418D01*
X41266814Y-47852418D01*
G37*
X41266814Y-49386418D02*
X41165814Y-49444418D01*
X40641814Y-49444418D01*
X40641814Y-49094418D01*
X41266814Y-49094418D01*
X41266814Y-49386418D01*
G36*
X41266814Y-49386418D02*
G01*
X41165814Y-49444418D01*
X40641814Y-49444418D01*
X40641814Y-49094418D01*
X41266814Y-49094418D01*
X41266814Y-49386418D01*
G37*
X42091814Y-47694418D02*
X41392814Y-47694418D01*
X41291814Y-47636418D01*
X41291814Y-47069418D01*
X42091814Y-47069418D01*
X42091814Y-47694418D01*
G36*
X42091814Y-47694418D02*
G01*
X41392814Y-47694418D01*
X41291814Y-47636418D01*
X41291814Y-47069418D01*
X42091814Y-47069418D01*
X42091814Y-47694418D01*
G37*
X42091814Y-50169418D02*
X41291814Y-50169418D01*
X41291814Y-49602418D01*
X41392814Y-49544418D01*
X42091814Y-49544418D01*
X42091814Y-50169418D01*
G36*
X42091814Y-50169418D02*
G01*
X41291814Y-50169418D01*
X41291814Y-49602418D01*
X41392814Y-49544418D01*
X42091814Y-49544418D01*
X42091814Y-50169418D01*
G37*
X43741814Y-49269418D02*
X43251814Y-49269418D01*
X43116814Y-49134418D01*
X43116814Y-48969418D01*
X43741814Y-48969418D01*
X43741814Y-49269418D01*
G36*
X43741814Y-49269418D02*
G01*
X43251814Y-49269418D01*
X43116814Y-49134418D01*
X43116814Y-48969418D01*
X43741814Y-48969418D01*
X43741814Y-49269418D01*
G37*
%TD*%
D11*
%TO.C,C21*%
X41598958Y-46080869D03*
X40048958Y-46080869D03*
%TD*%
D12*
%TO.C,12VLED1*%
X48352000Y-78029000D03*
X48352000Y-78999000D03*
%TD*%
D13*
%TO.C,R37*%
X53636000Y-70504000D03*
X53636000Y-71524000D03*
%TD*%
D14*
%TO.C,C11*%
X47158000Y-65769000D03*
X46198000Y-65769000D03*
%TD*%
D15*
%TO.C,R6*%
X45940000Y-67075000D03*
X46960000Y-67075000D03*
%TD*%
D16*
%TO.C,R15*%
X44461814Y-48946492D03*
X44461814Y-47926492D03*
%TD*%
D17*
%TO.C,R2*%
X50817000Y-71474000D03*
X49797000Y-71474000D03*
%TD*%
D16*
%TO.C,R17*%
X33440000Y-49820000D03*
X33440000Y-48800000D03*
%TD*%
D18*
%TO.C,D2*%
X50150000Y-54550000D03*
D19*
X50150000Y-52850000D03*
X48150000Y-52850000D03*
X48150000Y-54750000D03*
%TD*%
D16*
%TO.C,R1*%
X57718002Y-64410894D03*
X57718002Y-63390894D03*
%TD*%
D17*
%TO.C,R18*%
X53013000Y-85745000D03*
X51993000Y-85745000D03*
%TD*%
D20*
%TO.C,JP1*%
X44097000Y-56906500D03*
X42992000Y-56906500D03*
%TD*%
D21*
%TO.C,TXLED1*%
X47911000Y-71466000D03*
X48881000Y-71466000D03*
%TD*%
D22*
%TO.C,C28*%
X53145000Y-83834000D03*
X53145000Y-84794000D03*
%TD*%
D16*
%TO.C,R34*%
X46490000Y-75730000D03*
X46490000Y-74710000D03*
%TD*%
D23*
%TO.C,Q1*%
X51173000Y-75994000D03*
X50373000Y-75994000D03*
X50773000Y-77144000D03*
%TD*%
D16*
%TO.C,R8*%
X39050000Y-59075000D03*
X39050000Y-58055000D03*
%TD*%
D24*
%TO.C,C1*%
X56736278Y-65187957D03*
X56736278Y-64227957D03*
%TD*%
%TO.C,C45*%
X52662000Y-73424000D03*
X52662000Y-72464000D03*
%TD*%
D14*
%TO.C,C16*%
X42870000Y-66500000D03*
X41910000Y-66500000D03*
%TD*%
D12*
%TO.C,SERVOLED1*%
X53873564Y-75773415D03*
X53873564Y-76743415D03*
%TD*%
D13*
%TO.C,R4*%
X52100000Y-54640000D03*
X52100000Y-55660000D03*
%TD*%
D17*
%TO.C,R19*%
X52242000Y-82224000D03*
X51222000Y-82224000D03*
%TD*%
D22*
%TO.C,C3*%
X57799672Y-65319759D03*
X57799672Y-66279759D03*
%TD*%
%TO.C,C38*%
X44631000Y-85315000D03*
X44631000Y-86275000D03*
%TD*%
D13*
%TO.C,R7*%
X49340000Y-78000000D03*
X49340000Y-79020000D03*
%TD*%
D25*
%TO.C,R10*%
X36533000Y-62327000D03*
X38183000Y-62327000D03*
%TD*%
D22*
%TO.C,C9*%
X52802000Y-66032000D03*
X52802000Y-66992000D03*
%TD*%
D26*
%TO.C,C30*%
X38220000Y-83610000D03*
X38220000Y-89835000D03*
%TD*%
D27*
%TO.C,L1*%
X55759278Y-65175957D03*
X55759278Y-64205957D03*
%TD*%
D28*
%TO.C,J5*%
X53763000Y-49462000D03*
X52963000Y-49462000D03*
D29*
X51813000Y-49462000D03*
X50813000Y-49462000D03*
X50313000Y-49462000D03*
X49313000Y-49462000D03*
D28*
X48163000Y-49462000D03*
X47363000Y-49462000D03*
X47363000Y-49462000D03*
X48163000Y-49462000D03*
D29*
X48813000Y-49462000D03*
X49813000Y-49462000D03*
X51313000Y-49462000D03*
X52313000Y-49462000D03*
D28*
X52963000Y-49462000D03*
X53763000Y-49462000D03*
%TD*%
D22*
%TO.C,C17*%
X34790000Y-61620000D03*
X34790000Y-62580000D03*
%TD*%
%TO.C,C8*%
X55400456Y-60883040D03*
X55400456Y-61843040D03*
%TD*%
D16*
%TO.C,R21*%
X46019000Y-82331000D03*
X46019000Y-81311000D03*
%TD*%
D30*
%TO.C,U5*%
X33070000Y-56570000D03*
X34340000Y-56570000D03*
X35610000Y-56570000D03*
X36880000Y-56570000D03*
X36880000Y-51630000D03*
X35610000Y-51630000D03*
X34340000Y-51630000D03*
X33070000Y-51630000D03*
%TD*%
D31*
%TO.C,C20*%
X43121814Y-45436492D03*
X44081814Y-45436492D03*
%TD*%
D22*
%TO.C,C14*%
X52239000Y-68329000D03*
X52239000Y-69289000D03*
%TD*%
D17*
%TO.C,R26*%
X40173000Y-65787532D03*
X39153000Y-65787532D03*
%TD*%
D22*
%TO.C,C4*%
X55742278Y-66102957D03*
X55742278Y-67062957D03*
%TD*%
D13*
%TO.C,R27*%
X43779761Y-65742938D03*
X43779761Y-66762938D03*
%TD*%
D11*
%TO.C,C23*%
X41786814Y-51151492D03*
X40236814Y-51151492D03*
%TD*%
D13*
%TO.C,R3*%
X54470000Y-60830000D03*
X54470000Y-61850000D03*
%TD*%
D32*
%TO.C,L4*%
X46900000Y-99225000D03*
X46900000Y-90175000D03*
%TD*%
D17*
%TO.C,R11*%
X51909123Y-51052799D03*
X50889123Y-51052799D03*
%TD*%
D16*
%TO.C,R25*%
X53866564Y-78672915D03*
X53866564Y-77652915D03*
%TD*%
D22*
%TO.C,C2*%
X57802000Y-67199000D03*
X57802000Y-68159000D03*
%TD*%
D14*
%TO.C,C24*%
X34930000Y-58264215D03*
X33970000Y-58264215D03*
%TD*%
D22*
%TO.C,C5*%
X56700278Y-66101957D03*
X56700278Y-67061957D03*
%TD*%
D13*
%TO.C,R38*%
X49310000Y-76040000D03*
X49310000Y-77060000D03*
%TD*%
%TO.C,R36*%
X53636000Y-72416000D03*
X53636000Y-73436000D03*
%TD*%
D12*
%TO.C,CANTXLED1*%
X38999000Y-63817032D03*
X38999000Y-64787032D03*
%TD*%
D33*
%TO.C,C49*%
X57755000Y-90650000D03*
X60705000Y-90650000D03*
%TD*%
D12*
%TO.C,L2*%
X51320000Y-65908616D03*
X51320000Y-66878616D03*
%TD*%
D15*
%TO.C,R14*%
X39509814Y-44496492D03*
X40529814Y-44496492D03*
%TD*%
D27*
%TO.C,USBLED1*%
X43733830Y-54587421D03*
X43733830Y-53617421D03*
%TD*%
D34*
%TO.C,C35*%
X40060000Y-96150000D03*
X40060000Y-93200000D03*
%TD*%
D15*
%TO.C,R39*%
X50260000Y-75140000D03*
X51280000Y-75140000D03*
%TD*%
D16*
%TO.C,R23*%
X48174000Y-82475000D03*
X48174000Y-81455000D03*
%TD*%
D35*
%TO.C,U3*%
X43007814Y-44466492D03*
X43007814Y-43966492D03*
X43007814Y-43466492D03*
X43007814Y-42966492D03*
X41331814Y-42966492D03*
X41331814Y-43466492D03*
X41331814Y-43966492D03*
X41331814Y-44466492D03*
%TD*%
D36*
%TO.C,D4*%
X54975000Y-59525000D03*
X54975000Y-58725000D03*
X54975000Y-57925000D03*
X54975000Y-57125000D03*
X54375000Y-59125000D03*
X54375000Y-58325000D03*
X54375000Y-57525000D03*
%TD*%
D37*
%TO.C,C33*%
X55975000Y-89300000D03*
X53025000Y-89300000D03*
%TD*%
D38*
%TO.C,L3*%
X38443853Y-47561558D03*
X38443853Y-49686558D03*
%TD*%
D39*
%TO.C,U1*%
X52745000Y-63810000D03*
X52745000Y-63410000D03*
X52745000Y-63010000D03*
X52745000Y-62610000D03*
X52745000Y-62210000D03*
X52745000Y-61810000D03*
X52745000Y-61410000D03*
X52745000Y-61010000D03*
X52745000Y-60610000D03*
X52745000Y-60210000D03*
X52745000Y-59810000D03*
X52745000Y-59410000D03*
X52745000Y-59010000D03*
X52745000Y-58610000D03*
D40*
X51900000Y-57765000D03*
X51500000Y-57765000D03*
X51100000Y-57765000D03*
X50700000Y-57765000D03*
X50300000Y-57765000D03*
X49900000Y-57765000D03*
X49500000Y-57765000D03*
X49100000Y-57765000D03*
X48700000Y-57765000D03*
X48300000Y-57765000D03*
X47900000Y-57765000D03*
X47500000Y-57765000D03*
X47100000Y-57765000D03*
X46700000Y-57765000D03*
D39*
X45855000Y-58610000D03*
X45855000Y-59010000D03*
X45855000Y-59410000D03*
X45855000Y-59810000D03*
X45855000Y-60210000D03*
X45855000Y-60610000D03*
X45855000Y-61010000D03*
X45855000Y-61410000D03*
X45855000Y-61810000D03*
X45855000Y-62210000D03*
X45855000Y-62610000D03*
X45855000Y-63010000D03*
X45855000Y-63410000D03*
X45855000Y-63810000D03*
D40*
X46700000Y-64655000D03*
X47100000Y-64655000D03*
X47500000Y-64655000D03*
X47900000Y-64655000D03*
X48300000Y-64655000D03*
X48700000Y-64655000D03*
X49100000Y-64655000D03*
X49500000Y-64655000D03*
X49900000Y-64655000D03*
X50300000Y-64655000D03*
X50700000Y-64655000D03*
X51100000Y-64655000D03*
X51500000Y-64655000D03*
X51900000Y-64655000D03*
%TD*%
D41*
%TO.C,U2*%
X40370000Y-63815500D03*
X41640000Y-63815500D03*
X42910000Y-63815500D03*
X44180000Y-63815500D03*
X44180000Y-58865500D03*
X42910000Y-58865500D03*
X41640000Y-58865500D03*
X40370000Y-58865500D03*
%TD*%
D14*
%TO.C,C27*%
X37165508Y-48864814D03*
X36205508Y-48864814D03*
%TD*%
D16*
%TO.C,R12*%
X47075000Y-52785000D03*
X47075000Y-51765000D03*
%TD*%
D33*
%TO.C,C47*%
X57755000Y-93030000D03*
X60705000Y-93030000D03*
%TD*%
D20*
%TO.C,R9*%
X38183000Y-60870000D03*
X36533000Y-60870000D03*
%TD*%
D16*
%TO.C,R20*%
X52172000Y-84177000D03*
X52172000Y-83157000D03*
%TD*%
D22*
%TO.C,C29*%
X52084000Y-86696000D03*
X52084000Y-87656000D03*
%TD*%
D42*
%TO.C,U6*%
X46219000Y-84856000D03*
X46219000Y-85306000D03*
X46219000Y-86206000D03*
X46219000Y-86656000D03*
D43*
X46769000Y-87756000D03*
X47219000Y-87756000D03*
X47669000Y-87756000D03*
X48369000Y-87756000D03*
X48819000Y-87756000D03*
D44*
X49269000Y-87619000D03*
D45*
X50181000Y-87106000D03*
X50181000Y-86656000D03*
X50181000Y-86206000D03*
X50181000Y-85756000D03*
X50181000Y-85306000D03*
X50181000Y-84856000D03*
X50181000Y-84406000D03*
D44*
X49719000Y-83744000D03*
X49269000Y-83744000D03*
X48819000Y-83744000D03*
X48369000Y-83744000D03*
X47669000Y-83744000D03*
X47219000Y-83744000D03*
X46769000Y-83744000D03*
D46*
X48731000Y-84931000D03*
D47*
X47069000Y-84931000D03*
D48*
X47581000Y-86356000D03*
D49*
X49229000Y-86671000D03*
D50*
X48994000Y-85984000D03*
D51*
X47794000Y-87394000D03*
%TD*%
D12*
%TO.C,CANRXLED1*%
X44790000Y-65765000D03*
X44790000Y-66735000D03*
%TD*%
D31*
%TO.C,C6*%
X54464243Y-63252642D03*
X55424243Y-63252642D03*
%TD*%
D14*
%TO.C,C15*%
X42871000Y-65531000D03*
X41911000Y-65531000D03*
%TD*%
D31*
%TO.C,C22*%
X43121814Y-46356492D03*
X44081814Y-46356492D03*
%TD*%
D24*
%TO.C,C13*%
X48520000Y-69282000D03*
X48520000Y-68322000D03*
%TD*%
D14*
%TO.C,C25*%
X34930018Y-59186291D03*
X33970018Y-59186291D03*
%TD*%
D17*
%TO.C,R16*%
X35348223Y-49774814D03*
X34328223Y-49774814D03*
%TD*%
D37*
%TO.C,C37*%
X55985000Y-91690000D03*
X53035000Y-91690000D03*
%TD*%
D17*
%TO.C,R24*%
X52236000Y-81237000D03*
X51216000Y-81237000D03*
%TD*%
D31*
%TO.C,C10*%
X49919576Y-56651006D03*
X50879576Y-56651006D03*
%TD*%
D14*
%TO.C,C26*%
X37165508Y-49784814D03*
X36205508Y-49784814D03*
%TD*%
D22*
%TO.C,C7*%
X53773000Y-66026000D03*
X53773000Y-66986000D03*
%TD*%
D16*
%TO.C,R22*%
X49176000Y-82475000D03*
X49176000Y-81455000D03*
%TD*%
D24*
%TO.C,C39*%
X47015000Y-82303000D03*
X47015000Y-81343000D03*
%TD*%
D52*
%TO.C,D1*%
X33824999Y-66200000D03*
X35724999Y-66200000D03*
X34774999Y-64325000D03*
%TD*%
D13*
%TO.C,R13*%
X43728248Y-51735391D03*
X43728248Y-52755391D03*
%TD*%
D53*
%TO.C,Y1*%
X51078000Y-68278000D03*
X49678000Y-68278000D03*
X49678000Y-69378000D03*
X51078000Y-69378000D03*
%TD*%
D27*
%TO.C,3V3LED1*%
X53043159Y-55630521D03*
X53043159Y-54660521D03*
%TD*%
M02*
