%TF.GenerationSoftware,KiCad,Pcbnew,9.0.8+1*%
%TF.CreationDate,2026-04-14T14:04:00+01:00*%
%TF.ProjectId,Chad,43686164-2e6b-4696-9361-645f70636258,rev?*%
%TF.SameCoordinates,Original*%
%TF.FileFunction,Copper,L2,Inr*%
%TF.FilePolarity,Positive*%
%FSLAX46Y46*%
G04 Gerber Fmt 4.6, Leading zero omitted, Abs format (unit mm)*
G04 Created by KiCad (PCBNEW 9.0.8+1) date 2026-04-14 14:04:00*
%MOMM*%
%LPD*%
G01*
G04 APERTURE LIST*
G04 Aperture macros list*
%AMRoundRect*
0 Rectangle with rounded corners*
0 $1 Rounding radius*
0 $2 $3 $4 $5 $6 $7 $8 $9 X,Y pos of 4 corners*
0 Add a 4 corners polygon primitive as box body*
4,1,4,$2,$3,$4,$5,$6,$7,$8,$9,$2,$3,0*
0 Add four circle primitives for the rounded corners*
1,1,$1+$1,$2,$3*
1,1,$1+$1,$4,$5*
1,1,$1+$1,$6,$7*
1,1,$1+$1,$8,$9*
0 Add four rect primitives between the rounded corners*
20,1,$1+$1,$2,$3,$4,$5,0*
20,1,$1+$1,$4,$5,$6,$7,0*
20,1,$1+$1,$6,$7,$8,$9,0*
20,1,$1+$1,$8,$9,$2,$3,0*%
G04 Aperture macros list end*
%TA.AperFunction,ComponentPad*%
%ADD10RoundRect,0.250000X-0.850000X-0.600000X0.850000X-0.600000X0.850000X0.600000X-0.850000X0.600000X0*%
%TD*%
%TA.AperFunction,ComponentPad*%
%ADD11O,2.200000X1.700000*%
%TD*%
%TA.AperFunction,ComponentPad*%
%ADD12C,5.600000*%
%TD*%
%TA.AperFunction,ComponentPad*%
%ADD13R,1.700000X1.700000*%
%TD*%
%TA.AperFunction,ComponentPad*%
%ADD14O,1.700000X1.700000*%
%TD*%
%TA.AperFunction,ComponentPad*%
%ADD15O,0.900000X2.000000*%
%TD*%
%TA.AperFunction,ComponentPad*%
%ADD16O,0.900000X1.700000*%
%TD*%
%TA.AperFunction,ComponentPad*%
%ADD17RoundRect,0.250001X1.599999X-1.099999X1.599999X1.099999X-1.599999X1.099999X-1.599999X-1.099999X0*%
%TD*%
%TA.AperFunction,ComponentPad*%
%ADD18O,3.700000X2.700000*%
%TD*%
%TA.AperFunction,ViaPad*%
%ADD19C,0.600000*%
%TD*%
%TA.AperFunction,ViaPad*%
%ADD20C,0.800000*%
%TD*%
G04 APERTURE END LIST*
D10*
%TO.N,GND*%
%TO.C,J4*%
X55790000Y-81710000D03*
D11*
%TO.N,+6V*%
X55790000Y-84210000D03*
%TO.N,Net-(J4-Pin_3)*%
X55790000Y-86710000D03*
%TD*%
D12*
%TO.N,GND*%
%TO.C,H3*%
X59000000Y-99090000D03*
%TD*%
D13*
%TO.N,GND*%
%TO.C,ENJUMPER1*%
X60216232Y-67272660D03*
D14*
%TO.N,/CHIP_PU*%
X60216232Y-64732660D03*
%TD*%
D15*
%TO.N,GND*%
%TO.C,J5*%
X54883000Y-48882000D03*
D16*
X54883000Y-44712000D03*
D15*
X46243000Y-48882000D03*
D16*
X46243000Y-44712000D03*
%TD*%
D13*
%TO.N,GND*%
%TO.C,J2*%
X60215722Y-49923068D03*
D14*
%TO.N,/GPIO10*%
X57675722Y-49923068D03*
%TO.N,/GPIO8*%
X60215722Y-52463068D03*
%TO.N,/GPIO9*%
X57675722Y-52463068D03*
%TO.N,+3V3*%
X60215722Y-55003068D03*
%TO.N,/GPIO7*%
X57675722Y-55003068D03*
%TO.N,/GPIO5*%
X60215722Y-57543068D03*
%TO.N,/GPIO6*%
X57675722Y-57543068D03*
%TD*%
D13*
%TO.N,GND*%
%TO.C,BOOTJUMPER1*%
X60214778Y-61126857D03*
D14*
%TO.N,/BOOT*%
X57674778Y-61126857D03*
%TD*%
D12*
%TO.N,GND*%
%TO.C,H4*%
X35000000Y-45090000D03*
%TD*%
D10*
%TO.N,GND*%
%TO.C,J3*%
X55790000Y-71050000D03*
D11*
%TO.N,+6V*%
X55790000Y-73550000D03*
%TO.N,Net-(J3-Pin_3)*%
X55790000Y-76050000D03*
%TD*%
D12*
%TO.N,GND*%
%TO.C,H2*%
X59000000Y-45090000D03*
%TD*%
D17*
%TO.N,GND*%
%TO.C,J1*%
X37375000Y-78850000D03*
D18*
X37375000Y-74650000D03*
%TO.N,RBUS_uC_V*%
X37375000Y-70450000D03*
%TO.N,+16.8V*%
X42875000Y-78850000D03*
%TO.N,/CAN+*%
X42875000Y-74650000D03*
%TO.N,/CAN-*%
X42875000Y-70450000D03*
%TD*%
D12*
%TO.N,GND*%
%TO.C,H1*%
X35000000Y-99090000D03*
%TD*%
D19*
%TO.N,GND*%
X52850000Y-69950000D03*
X56022000Y-63154000D03*
X61400000Y-59075000D03*
X32600000Y-90275000D03*
X32600000Y-82775000D03*
X32600000Y-75225000D03*
X61400000Y-54075000D03*
X47050000Y-80320000D03*
X53125000Y-68925000D03*
X48750000Y-84900000D03*
X50150000Y-66100000D03*
X61400000Y-74125000D03*
X55125000Y-67325000D03*
X47522000Y-61252000D03*
X41220000Y-66010000D03*
X61400000Y-76625000D03*
D20*
X36200000Y-88050000D03*
D19*
X50373703Y-70321851D03*
X52067000Y-66800000D03*
D20*
X35200000Y-86450000D03*
D19*
X48175000Y-86050000D03*
X32600000Y-67725000D03*
X50025000Y-42700000D03*
X32600000Y-60175000D03*
X47650000Y-68653703D03*
X45025000Y-42700000D03*
X52050000Y-66200000D03*
X32600000Y-72725000D03*
X51059000Y-61227000D03*
X51047000Y-62943000D03*
X61400000Y-81625000D03*
X55425000Y-60475000D03*
D20*
X40350000Y-88100000D03*
D19*
X51000000Y-53925000D03*
X32600000Y-87775000D03*
D20*
X44800000Y-87300000D03*
D19*
X51999389Y-65486900D03*
X47470000Y-53430000D03*
X49470000Y-75190000D03*
X55075000Y-42700000D03*
X61414000Y-87940000D03*
D20*
X53140000Y-90410000D03*
D19*
X32600000Y-85275000D03*
X46925000Y-86700000D03*
X50173000Y-66700000D03*
X46925000Y-86050000D03*
X47530000Y-59471000D03*
X61400000Y-94175000D03*
D20*
X52673000Y-88414000D03*
D19*
X39025000Y-101475000D03*
X32600000Y-77725000D03*
X49025000Y-101475000D03*
X58550000Y-65300000D03*
X50150000Y-65500000D03*
X47939055Y-80980945D03*
X61400000Y-79125000D03*
X48990000Y-68322000D03*
X32600000Y-92775000D03*
X54075000Y-101475000D03*
X51706000Y-69327000D03*
X32600000Y-54975000D03*
X45610000Y-65770000D03*
X61408000Y-84622000D03*
X51890000Y-73600000D03*
X32599500Y-58100000D03*
X51520000Y-56660000D03*
X49308000Y-62966000D03*
X46525000Y-101475000D03*
D20*
X38300000Y-88050000D03*
D19*
X39925000Y-42700000D03*
D20*
X36475000Y-54125000D03*
D19*
X32600000Y-95275000D03*
X49199598Y-67234397D03*
X51860446Y-70311334D03*
X57181000Y-67779000D03*
X34770000Y-63215000D03*
X49334000Y-59451000D03*
X43633109Y-44792911D03*
X56200000Y-58500000D03*
X41525000Y-101475000D03*
X32600000Y-70225000D03*
X32600000Y-50175000D03*
X47525000Y-42700000D03*
X61400000Y-64075000D03*
X42539000Y-42650000D03*
X61400000Y-56575000D03*
X61400000Y-71625000D03*
X48987492Y-70378106D03*
X32600000Y-52675000D03*
X51525000Y-101475000D03*
X56827000Y-63655000D03*
X52189000Y-67397000D03*
X48200000Y-86700000D03*
X52930000Y-67796000D03*
D20*
X37200000Y-86450000D03*
D19*
X61410000Y-90440000D03*
X48300169Y-67549633D03*
X32600000Y-62675000D03*
D20*
X39300000Y-86450000D03*
D19*
X49317000Y-61213000D03*
X47776000Y-62899000D03*
X41950000Y-67150000D03*
D20*
X41300000Y-86450000D03*
D19*
X32600000Y-80225000D03*
X47802278Y-69837583D03*
X49125000Y-85975000D03*
X32600000Y-65225000D03*
X44372814Y-47128492D03*
X54094000Y-79907000D03*
X49847879Y-67217687D03*
X51033000Y-59426000D03*
X44025000Y-101475000D03*
X52575000Y-42700000D03*
%TO.N,+3V3*%
X53810000Y-65510000D03*
X53900000Y-61280000D03*
X57098003Y-65664370D03*
X50110000Y-56030000D03*
X41394215Y-56136334D03*
X50543000Y-72027000D03*
X46835000Y-66297000D03*
D20*
X35320508Y-48849814D03*
D19*
X42680000Y-67170000D03*
%TO.N,Net-(JP1-B)*%
X41250000Y-57170000D03*
X36956053Y-61659500D03*
%TO.N,VBUS*%
X40020000Y-43890000D03*
X43672316Y-44047048D03*
X48148000Y-54013000D03*
X45180000Y-43484000D03*
%TO.N,RBUS_uC_V*%
X40550000Y-43275000D03*
X42400000Y-52400000D03*
%TO.N,/Servo1PWM*%
X46760000Y-63810000D03*
%TO.N,/BuckPGOOD*%
X51290000Y-85832168D03*
X44929000Y-61609000D03*
X46960000Y-74400000D03*
%TO.N,/Power/LX1*%
X38153576Y-48096290D03*
X38163173Y-46941885D03*
X38747818Y-46941885D03*
X41583329Y-48136418D03*
X38778579Y-48097381D03*
X40703000Y-47037000D03*
X40704000Y-47618000D03*
%TO.N,/Power/LX2*%
X38097686Y-50302139D03*
X38760000Y-49150000D03*
X38808858Y-50303229D03*
X40697814Y-49516365D03*
X38129580Y-49153664D03*
X41583328Y-49102418D03*
X40697814Y-50150000D03*
D20*
%TO.N,+6V*%
X47430000Y-95610000D03*
X42020000Y-100370000D03*
X49350000Y-96720000D03*
X39510000Y-100420000D03*
X50050000Y-98770000D03*
X41960000Y-98520000D03*
X51540000Y-100290000D03*
X44580000Y-95620000D03*
X39590000Y-98670000D03*
X51480000Y-97440000D03*
X42080000Y-95620000D03*
X50980000Y-95630000D03*
D19*
%TO.N,/Servo0PWM*%
X46825000Y-62600000D03*
D20*
%TO.N,/buckC/SW*%
X49890000Y-91320000D03*
D19*
%TO.N,/buckC/VDD*%
X52589000Y-85046000D03*
X49575000Y-80900000D03*
%TO.N,/ServoV_LOG*%
X51883445Y-60610000D03*
X52710000Y-71949000D03*
%TO.N,/BUCK_EN*%
X48148000Y-73355000D03*
X45170000Y-64655000D03*
D20*
%TO.N,+16.8V*%
X39350000Y-81500000D03*
D19*
X47025000Y-84900000D03*
D20*
X40550000Y-85350000D03*
X42700000Y-85350000D03*
X38300000Y-85350000D03*
X42700000Y-83500000D03*
X42600000Y-81475000D03*
X36300000Y-81450000D03*
X45504000Y-84251000D03*
X36150000Y-85350000D03*
%TD*%
%TA.AperFunction,Conductor*%
%TO.N,GND*%
G36*
X55825000Y-48750000D02*
G01*
X61719500Y-48678406D01*
X61719500Y-99088623D01*
X61719423Y-99091371D01*
X61702554Y-99391737D01*
X61701939Y-99397197D01*
X61651776Y-99692435D01*
X61650553Y-99697792D01*
X61567650Y-99985552D01*
X61565835Y-99990738D01*
X61451238Y-100267402D01*
X61448854Y-100272353D01*
X61303996Y-100534454D01*
X61301072Y-100539107D01*
X61127785Y-100783330D01*
X61124360Y-100787626D01*
X60924810Y-101010924D01*
X60920924Y-101014810D01*
X60697626Y-101214360D01*
X60693330Y-101217785D01*
X60449107Y-101391072D01*
X60444454Y-101393996D01*
X60182353Y-101538854D01*
X60177402Y-101541238D01*
X59900738Y-101655835D01*
X59895552Y-101657650D01*
X59607792Y-101740553D01*
X59602435Y-101741776D01*
X59307197Y-101791939D01*
X59301737Y-101792554D01*
X59001371Y-101809423D01*
X58998623Y-101809500D01*
X35001377Y-101809500D01*
X34998629Y-101809423D01*
X34698262Y-101792554D01*
X34692802Y-101791939D01*
X34397564Y-101741776D01*
X34392207Y-101740553D01*
X34104447Y-101657650D01*
X34099261Y-101655835D01*
X33822597Y-101541238D01*
X33817646Y-101538854D01*
X33623809Y-101431724D01*
X33555541Y-101393993D01*
X33550892Y-101391072D01*
X33306669Y-101217785D01*
X33302373Y-101214360D01*
X33079075Y-101014810D01*
X33075189Y-101010924D01*
X32875639Y-100787626D01*
X32872214Y-100783330D01*
X32765183Y-100632485D01*
X32698922Y-100539099D01*
X32696008Y-100534463D01*
X32592689Y-100347522D01*
X38959500Y-100347522D01*
X38959500Y-100492477D01*
X38997015Y-100632483D01*
X38997016Y-100632487D01*
X39040623Y-100708015D01*
X39069491Y-100758015D01*
X39171985Y-100860509D01*
X39204255Y-100879140D01*
X39297512Y-100932983D01*
X39297514Y-100932983D01*
X39297515Y-100932984D01*
X39332517Y-100942363D01*
X39437522Y-100970500D01*
X39437525Y-100970500D01*
X39582477Y-100970500D01*
X39652480Y-100951742D01*
X39722485Y-100932984D01*
X39848015Y-100860509D01*
X39950509Y-100758015D01*
X40022984Y-100632485D01*
X40049252Y-100534454D01*
X40060500Y-100492477D01*
X40060500Y-100347522D01*
X40060499Y-100347521D01*
X40049641Y-100306995D01*
X40047102Y-100297522D01*
X41469500Y-100297522D01*
X41469500Y-100442477D01*
X41507015Y-100582483D01*
X41507016Y-100582487D01*
X41579491Y-100708015D01*
X41681985Y-100810509D01*
X41727930Y-100837035D01*
X41807512Y-100882983D01*
X41807514Y-100882983D01*
X41807515Y-100882984D01*
X41842517Y-100892363D01*
X41947522Y-100920500D01*
X41947525Y-100920500D01*
X42092477Y-100920500D01*
X42162480Y-100901742D01*
X42232485Y-100882984D01*
X42358015Y-100810509D01*
X42460509Y-100708015D01*
X42532984Y-100582485D01*
X42557102Y-100492477D01*
X42570500Y-100442477D01*
X42570500Y-100297522D01*
X42570499Y-100297521D01*
X42551602Y-100226995D01*
X42549064Y-100217522D01*
X50989500Y-100217522D01*
X50989500Y-100362477D01*
X51027015Y-100502483D01*
X51027016Y-100502487D01*
X51073203Y-100582483D01*
X51099491Y-100628015D01*
X51201985Y-100730509D01*
X51247930Y-100757035D01*
X51327512Y-100802983D01*
X51327514Y-100802983D01*
X51327515Y-100802984D01*
X51362517Y-100812363D01*
X51467522Y-100840500D01*
X51467525Y-100840500D01*
X51612477Y-100840500D01*
X51682480Y-100821742D01*
X51752485Y-100802984D01*
X51878015Y-100730509D01*
X51980509Y-100628015D01*
X52052984Y-100502485D01*
X52089016Y-100368015D01*
X52090500Y-100362477D01*
X52090500Y-100217522D01*
X52052984Y-100077516D01*
X52052983Y-100077512D01*
X51996390Y-99979492D01*
X51980509Y-99951985D01*
X51878015Y-99849491D01*
X51752487Y-99777016D01*
X51752483Y-99777015D01*
X51612478Y-99739500D01*
X51612475Y-99739500D01*
X51467525Y-99739500D01*
X51467522Y-99739500D01*
X51327516Y-99777015D01*
X51327512Y-99777016D01*
X51201984Y-99849491D01*
X51201984Y-99849492D01*
X51099492Y-99951984D01*
X51099491Y-99951984D01*
X51027016Y-100077512D01*
X51027015Y-100077516D01*
X50989500Y-100217522D01*
X42549064Y-100217522D01*
X42532984Y-100157516D01*
X42532984Y-100157515D01*
X42532983Y-100157513D01*
X42532983Y-100157512D01*
X42460508Y-100031984D01*
X42358015Y-99929491D01*
X42232487Y-99857016D01*
X42232483Y-99857015D01*
X42092478Y-99819500D01*
X42092475Y-99819500D01*
X41947525Y-99819500D01*
X41947522Y-99819500D01*
X41807516Y-99857015D01*
X41807512Y-99857016D01*
X41681984Y-99929491D01*
X41681984Y-99929492D01*
X41579492Y-100031984D01*
X41579491Y-100031984D01*
X41507016Y-100157512D01*
X41507015Y-100157516D01*
X41469500Y-100297522D01*
X40047102Y-100297522D01*
X40033598Y-100247128D01*
X40022984Y-100207515D01*
X40022983Y-100207513D01*
X40022983Y-100207512D01*
X39950508Y-100081984D01*
X39848015Y-99979491D01*
X39722487Y-99907016D01*
X39722483Y-99907015D01*
X39582478Y-99869500D01*
X39582475Y-99869500D01*
X39437525Y-99869500D01*
X39437522Y-99869500D01*
X39297516Y-99907015D01*
X39297512Y-99907016D01*
X39171984Y-99979491D01*
X39171984Y-99979492D01*
X39069492Y-100081984D01*
X39069491Y-100081984D01*
X38997016Y-100207512D01*
X38997015Y-100207516D01*
X38959500Y-100347522D01*
X32592689Y-100347522D01*
X32551145Y-100272353D01*
X32548761Y-100267402D01*
X32434164Y-99990738D01*
X32432349Y-99985552D01*
X32349446Y-99697792D01*
X32348223Y-99692435D01*
X32298059Y-99397189D01*
X32297446Y-99391744D01*
X32280577Y-99091370D01*
X32280500Y-99088623D01*
X32280500Y-98597522D01*
X39039500Y-98597522D01*
X39039500Y-98742477D01*
X39077015Y-98882483D01*
X39077016Y-98882487D01*
X39122063Y-98960509D01*
X39149491Y-99008015D01*
X39251985Y-99110509D01*
X39297930Y-99137035D01*
X39377512Y-99182983D01*
X39377514Y-99182983D01*
X39377515Y-99182984D01*
X39412517Y-99192363D01*
X39517522Y-99220500D01*
X39517525Y-99220500D01*
X39662477Y-99220500D01*
X39732480Y-99201742D01*
X39802485Y-99182984D01*
X39928015Y-99110509D01*
X40030509Y-99008015D01*
X40102984Y-98882485D01*
X40121742Y-98812480D01*
X40140500Y-98742477D01*
X40140500Y-98597522D01*
X40117990Y-98513519D01*
X40102984Y-98457515D01*
X40102983Y-98457513D01*
X40102983Y-98457512D01*
X40097215Y-98447522D01*
X41409500Y-98447522D01*
X41409500Y-98592477D01*
X41447015Y-98732483D01*
X41447016Y-98732487D01*
X41510519Y-98842475D01*
X41519491Y-98858015D01*
X41621985Y-98960509D01*
X41660052Y-98982487D01*
X41747512Y-99032983D01*
X41747514Y-99032983D01*
X41747515Y-99032984D01*
X41775714Y-99040540D01*
X41887522Y-99070500D01*
X41887525Y-99070500D01*
X42032477Y-99070500D01*
X42102480Y-99051742D01*
X42172485Y-99032984D01*
X42298015Y-98960509D01*
X42400509Y-98858015D01*
X42472984Y-98732485D01*
X42482353Y-98697522D01*
X49499500Y-98697522D01*
X49499500Y-98842477D01*
X49537015Y-98982483D01*
X49537016Y-98982487D01*
X49609491Y-99108015D01*
X49711985Y-99210509D01*
X49729290Y-99220500D01*
X49837512Y-99282983D01*
X49837514Y-99282983D01*
X49837515Y-99282984D01*
X49872517Y-99292363D01*
X49977522Y-99320500D01*
X49977525Y-99320500D01*
X50122477Y-99320500D01*
X50192480Y-99301742D01*
X50262485Y-99282984D01*
X50388015Y-99210509D01*
X50490509Y-99108015D01*
X50562984Y-98982485D01*
X50596336Y-98858015D01*
X50600500Y-98842477D01*
X50600500Y-98697522D01*
X50562984Y-98557516D01*
X50562983Y-98557512D01*
X50490508Y-98431984D01*
X50388015Y-98329491D01*
X50262487Y-98257016D01*
X50262483Y-98257015D01*
X50122478Y-98219500D01*
X50122475Y-98219500D01*
X49977525Y-98219500D01*
X49977522Y-98219500D01*
X49837516Y-98257015D01*
X49837512Y-98257016D01*
X49711984Y-98329491D01*
X49711984Y-98329492D01*
X49609492Y-98431984D01*
X49609491Y-98431984D01*
X49537016Y-98557512D01*
X49537015Y-98557516D01*
X49499500Y-98697522D01*
X42482353Y-98697522D01*
X42509148Y-98597522D01*
X42510500Y-98592477D01*
X42510500Y-98447522D01*
X42479541Y-98331985D01*
X42472984Y-98307515D01*
X42472983Y-98307514D01*
X42472983Y-98307512D01*
X42400508Y-98181984D01*
X42298015Y-98079491D01*
X42172487Y-98007016D01*
X42172483Y-98007015D01*
X42032478Y-97969500D01*
X42032475Y-97969500D01*
X41887525Y-97969500D01*
X41887522Y-97969500D01*
X41747516Y-98007015D01*
X41747512Y-98007016D01*
X41621984Y-98079491D01*
X41621984Y-98079492D01*
X41519492Y-98181984D01*
X41519491Y-98181984D01*
X41447016Y-98307512D01*
X41447015Y-98307516D01*
X41409500Y-98447522D01*
X40097215Y-98447522D01*
X40030508Y-98331984D01*
X39928015Y-98229491D01*
X39802487Y-98157016D01*
X39802483Y-98157015D01*
X39662478Y-98119500D01*
X39662475Y-98119500D01*
X39517525Y-98119500D01*
X39517522Y-98119500D01*
X39377516Y-98157015D01*
X39377512Y-98157016D01*
X39251984Y-98229491D01*
X39251984Y-98229492D01*
X39149492Y-98331984D01*
X39149491Y-98331984D01*
X39077016Y-98457512D01*
X39077015Y-98457516D01*
X39039500Y-98597522D01*
X32280500Y-98597522D01*
X32280500Y-97367522D01*
X50929500Y-97367522D01*
X50929500Y-97512477D01*
X50967015Y-97652483D01*
X50967016Y-97652487D01*
X51039491Y-97778015D01*
X51141985Y-97880509D01*
X51187930Y-97907035D01*
X51267512Y-97952983D01*
X51267514Y-97952983D01*
X51267515Y-97952984D01*
X51302517Y-97962363D01*
X51407522Y-97990500D01*
X51407525Y-97990500D01*
X51552477Y-97990500D01*
X51630847Y-97969500D01*
X51692485Y-97952984D01*
X51818015Y-97880509D01*
X51920509Y-97778015D01*
X51992984Y-97652485D01*
X52011742Y-97582480D01*
X52030500Y-97512477D01*
X52030500Y-97367522D01*
X51992984Y-97227516D01*
X51992983Y-97227512D01*
X51920508Y-97101984D01*
X51818015Y-96999491D01*
X51692487Y-96927016D01*
X51692483Y-96927015D01*
X51552478Y-96889500D01*
X51552475Y-96889500D01*
X51407525Y-96889500D01*
X51407522Y-96889500D01*
X51267516Y-96927015D01*
X51267512Y-96927016D01*
X51141984Y-96999491D01*
X51141984Y-96999492D01*
X51039492Y-97101984D01*
X51039491Y-97101984D01*
X50967016Y-97227512D01*
X50967015Y-97227516D01*
X50929500Y-97367522D01*
X32280500Y-97367522D01*
X32280500Y-96647522D01*
X48799500Y-96647522D01*
X48799500Y-96792477D01*
X48837015Y-96932483D01*
X48837016Y-96932487D01*
X48909491Y-97058015D01*
X49011985Y-97160509D01*
X49057930Y-97187035D01*
X49137512Y-97232983D01*
X49137514Y-97232983D01*
X49137515Y-97232984D01*
X49172517Y-97242363D01*
X49277522Y-97270500D01*
X49277525Y-97270500D01*
X49422477Y-97270500D01*
X49492480Y-97251742D01*
X49562485Y-97232984D01*
X49688015Y-97160509D01*
X49790509Y-97058015D01*
X49862984Y-96932485D01*
X49881742Y-96862480D01*
X49900500Y-96792477D01*
X49900500Y-96647522D01*
X49862984Y-96507516D01*
X49862983Y-96507512D01*
X49790508Y-96381984D01*
X49688015Y-96279491D01*
X49562487Y-96207016D01*
X49562483Y-96207015D01*
X49422478Y-96169500D01*
X49422475Y-96169500D01*
X49277525Y-96169500D01*
X49277522Y-96169500D01*
X49137516Y-96207015D01*
X49137512Y-96207016D01*
X49011984Y-96279491D01*
X49011984Y-96279492D01*
X48909492Y-96381984D01*
X48909491Y-96381984D01*
X48837016Y-96507512D01*
X48837015Y-96507516D01*
X48799500Y-96647522D01*
X32280500Y-96647522D01*
X32280500Y-95547522D01*
X41529500Y-95547522D01*
X41529500Y-95692477D01*
X41567015Y-95832483D01*
X41567016Y-95832487D01*
X41633717Y-95948015D01*
X41639491Y-95958015D01*
X41741985Y-96060509D01*
X41787930Y-96087035D01*
X41867512Y-96132983D01*
X41867514Y-96132983D01*
X41867515Y-96132984D01*
X41902517Y-96142363D01*
X42007522Y-96170500D01*
X42007525Y-96170500D01*
X42152477Y-96170500D01*
X42222480Y-96151742D01*
X42292485Y-96132984D01*
X42418015Y-96060509D01*
X42520509Y-95958015D01*
X42587209Y-95842487D01*
X42592983Y-95832487D01*
X42592983Y-95832486D01*
X42592984Y-95832485D01*
X42627820Y-95702477D01*
X42630500Y-95692477D01*
X42630500Y-95547522D01*
X44029500Y-95547522D01*
X44029500Y-95692477D01*
X44067015Y-95832483D01*
X44067016Y-95832487D01*
X44133717Y-95948015D01*
X44139491Y-95958015D01*
X44241985Y-96060509D01*
X44287930Y-96087035D01*
X44367512Y-96132983D01*
X44367514Y-96132983D01*
X44367515Y-96132984D01*
X44402517Y-96142363D01*
X44507522Y-96170500D01*
X44507525Y-96170500D01*
X44652477Y-96170500D01*
X44722480Y-96151742D01*
X44792485Y-96132984D01*
X44918015Y-96060509D01*
X45020509Y-95958015D01*
X45087209Y-95842487D01*
X45092983Y-95832487D01*
X45092983Y-95832486D01*
X45092984Y-95832485D01*
X45127820Y-95702477D01*
X45130500Y-95692477D01*
X45130500Y-95547523D01*
X45130358Y-95546993D01*
X45130358Y-95546992D01*
X45127820Y-95537522D01*
X46879500Y-95537522D01*
X46879500Y-95682477D01*
X46917015Y-95822483D01*
X46917016Y-95822487D01*
X46989491Y-95948015D01*
X47091985Y-96050509D01*
X47126624Y-96070508D01*
X47217512Y-96122983D01*
X47217514Y-96122983D01*
X47217515Y-96122984D01*
X47252517Y-96132363D01*
X47357522Y-96160500D01*
X47357525Y-96160500D01*
X47502477Y-96160500D01*
X47572480Y-96141742D01*
X47642485Y-96122984D01*
X47768015Y-96050509D01*
X47870509Y-95948015D01*
X47937209Y-95832487D01*
X47942983Y-95822487D01*
X47942983Y-95822486D01*
X47942984Y-95822485D01*
X47961742Y-95752480D01*
X47980500Y-95682477D01*
X47980500Y-95557522D01*
X50429500Y-95557522D01*
X50429500Y-95702477D01*
X50467015Y-95842483D01*
X50467016Y-95842487D01*
X50533717Y-95958015D01*
X50539491Y-95968015D01*
X50641985Y-96070509D01*
X50687930Y-96097035D01*
X50767512Y-96142983D01*
X50767514Y-96142983D01*
X50767515Y-96142984D01*
X50802517Y-96152363D01*
X50907522Y-96180500D01*
X50907525Y-96180500D01*
X51052477Y-96180500D01*
X51127115Y-96160500D01*
X51192485Y-96142984D01*
X51318015Y-96070509D01*
X51420509Y-95968015D01*
X51492984Y-95842485D01*
X51511742Y-95772480D01*
X51530500Y-95702477D01*
X51530500Y-95557522D01*
X51492984Y-95417516D01*
X51492983Y-95417512D01*
X51420508Y-95291984D01*
X51318015Y-95189491D01*
X51192487Y-95117016D01*
X51192483Y-95117015D01*
X51052478Y-95079500D01*
X51052475Y-95079500D01*
X50907525Y-95079500D01*
X50907522Y-95079500D01*
X50767516Y-95117015D01*
X50767512Y-95117016D01*
X50641984Y-95189491D01*
X50641984Y-95189492D01*
X50539492Y-95291984D01*
X50539491Y-95291984D01*
X50467016Y-95417512D01*
X50467015Y-95417516D01*
X50429500Y-95557522D01*
X47980500Y-95557522D01*
X47980500Y-95537522D01*
X47945664Y-95407516D01*
X47942984Y-95397515D01*
X47942983Y-95397514D01*
X47942983Y-95397512D01*
X47882055Y-95291984D01*
X47870509Y-95271985D01*
X47768015Y-95169491D01*
X47642487Y-95097016D01*
X47642483Y-95097015D01*
X47502478Y-95059500D01*
X47502475Y-95059500D01*
X47357525Y-95059500D01*
X47357522Y-95059500D01*
X47217516Y-95097015D01*
X47217512Y-95097016D01*
X47091984Y-95169491D01*
X47091984Y-95169492D01*
X46989492Y-95271984D01*
X46989491Y-95271984D01*
X46917016Y-95397512D01*
X46917015Y-95397516D01*
X46879500Y-95537522D01*
X45127820Y-95537522D01*
X45110627Y-95473361D01*
X45092984Y-95407515D01*
X45092983Y-95407513D01*
X45092983Y-95407512D01*
X45047035Y-95327930D01*
X45020509Y-95281985D01*
X44918015Y-95179491D01*
X44792487Y-95107016D01*
X44792483Y-95107015D01*
X44652478Y-95069500D01*
X44652475Y-95069500D01*
X44507525Y-95069500D01*
X44507522Y-95069500D01*
X44367516Y-95107015D01*
X44367512Y-95107016D01*
X44241984Y-95179491D01*
X44241984Y-95179492D01*
X44139492Y-95281984D01*
X44139491Y-95281984D01*
X44067016Y-95407512D01*
X44067015Y-95407516D01*
X44029500Y-95547522D01*
X42630500Y-95547522D01*
X42595664Y-95417516D01*
X42592984Y-95407515D01*
X42592983Y-95407514D01*
X42592983Y-95407512D01*
X42547035Y-95327930D01*
X42520509Y-95281985D01*
X42418015Y-95179491D01*
X42292487Y-95107016D01*
X42292483Y-95107015D01*
X42152478Y-95069500D01*
X42152475Y-95069500D01*
X42007525Y-95069500D01*
X42007522Y-95069500D01*
X41867516Y-95107015D01*
X41867512Y-95107016D01*
X41741984Y-95179491D01*
X41741984Y-95179492D01*
X41639492Y-95281984D01*
X41639491Y-95281984D01*
X41567016Y-95407512D01*
X41567015Y-95407516D01*
X41529500Y-95547522D01*
X32280500Y-95547522D01*
X32280500Y-91247522D01*
X49339500Y-91247522D01*
X49339500Y-91392477D01*
X49377015Y-91532483D01*
X49377016Y-91532487D01*
X49449491Y-91658015D01*
X49551985Y-91760509D01*
X49597930Y-91787035D01*
X49677512Y-91832983D01*
X49677514Y-91832983D01*
X49677515Y-91832984D01*
X49712517Y-91842363D01*
X49817522Y-91870500D01*
X49817525Y-91870500D01*
X49962477Y-91870500D01*
X50032480Y-91851742D01*
X50102485Y-91832984D01*
X50228015Y-91760509D01*
X50330509Y-91658015D01*
X50402984Y-91532485D01*
X50421742Y-91462480D01*
X50440500Y-91392477D01*
X50440500Y-91247522D01*
X50402984Y-91107516D01*
X50402983Y-91107512D01*
X50330508Y-90981984D01*
X50228015Y-90879491D01*
X50102487Y-90807016D01*
X50102483Y-90807015D01*
X49962478Y-90769500D01*
X49962475Y-90769500D01*
X49817525Y-90769500D01*
X49817522Y-90769500D01*
X49677516Y-90807015D01*
X49677512Y-90807016D01*
X49551984Y-90879491D01*
X49551984Y-90879492D01*
X49449492Y-90981984D01*
X49449491Y-90981984D01*
X49377016Y-91107512D01*
X49377015Y-91107516D01*
X49339500Y-91247522D01*
X32280500Y-91247522D01*
X32280500Y-86611455D01*
X54539500Y-86611455D01*
X54539500Y-86808544D01*
X54577947Y-87001827D01*
X54577949Y-87001835D01*
X54653368Y-87183914D01*
X54762861Y-87347782D01*
X54902218Y-87487139D01*
X55066086Y-87596632D01*
X55248165Y-87672051D01*
X55441459Y-87710500D01*
X56138541Y-87710500D01*
X56331835Y-87672051D01*
X56513914Y-87596632D01*
X56677782Y-87487139D01*
X56817139Y-87347782D01*
X56926632Y-87183914D01*
X57002051Y-87001835D01*
X57040500Y-86808541D01*
X57040500Y-86611459D01*
X57002051Y-86418165D01*
X56926632Y-86236086D01*
X56817139Y-86072218D01*
X56677782Y-85932861D01*
X56513914Y-85823368D01*
X56513911Y-85823366D01*
X56513910Y-85823366D01*
X56331836Y-85747949D01*
X56331827Y-85747947D01*
X56138544Y-85709500D01*
X56138541Y-85709500D01*
X55441459Y-85709500D01*
X55441455Y-85709500D01*
X55248172Y-85747947D01*
X55248163Y-85747949D01*
X55066089Y-85823366D01*
X54902218Y-85932860D01*
X54762860Y-86072218D01*
X54653366Y-86236089D01*
X54577949Y-86418163D01*
X54577947Y-86418172D01*
X54539500Y-86611455D01*
X32280500Y-86611455D01*
X32280500Y-85277522D01*
X35599500Y-85277522D01*
X35599500Y-85422477D01*
X35637015Y-85562483D01*
X35637016Y-85562487D01*
X35692325Y-85658283D01*
X35709491Y-85688015D01*
X35811985Y-85790509D01*
X35857930Y-85817035D01*
X35937512Y-85862983D01*
X35937514Y-85862983D01*
X35937515Y-85862984D01*
X35972517Y-85872363D01*
X36077522Y-85900500D01*
X36077525Y-85900500D01*
X36222477Y-85900500D01*
X36292480Y-85881742D01*
X36362485Y-85862984D01*
X36488015Y-85790509D01*
X36590509Y-85688015D01*
X36662984Y-85562485D01*
X36681742Y-85492480D01*
X36700500Y-85422477D01*
X36700500Y-85277522D01*
X37749500Y-85277522D01*
X37749500Y-85422477D01*
X37787015Y-85562483D01*
X37787016Y-85562487D01*
X37842325Y-85658283D01*
X37859491Y-85688015D01*
X37961985Y-85790509D01*
X38007930Y-85817035D01*
X38087512Y-85862983D01*
X38087514Y-85862983D01*
X38087515Y-85862984D01*
X38122517Y-85872363D01*
X38227522Y-85900500D01*
X38227525Y-85900500D01*
X38372477Y-85900500D01*
X38442480Y-85881742D01*
X38512485Y-85862984D01*
X38638015Y-85790509D01*
X38740509Y-85688015D01*
X38812984Y-85562485D01*
X38831742Y-85492480D01*
X38850500Y-85422477D01*
X38850500Y-85277522D01*
X39999500Y-85277522D01*
X39999500Y-85422477D01*
X40037015Y-85562483D01*
X40037016Y-85562487D01*
X40092325Y-85658283D01*
X40109491Y-85688015D01*
X40211985Y-85790509D01*
X40257930Y-85817035D01*
X40337512Y-85862983D01*
X40337514Y-85862983D01*
X40337515Y-85862984D01*
X40372517Y-85872363D01*
X40477522Y-85900500D01*
X40477525Y-85900500D01*
X40622477Y-85900500D01*
X40692480Y-85881742D01*
X40762485Y-85862984D01*
X40888015Y-85790509D01*
X40990509Y-85688015D01*
X41062984Y-85562485D01*
X41081742Y-85492480D01*
X41100500Y-85422477D01*
X41100500Y-85277522D01*
X42149500Y-85277522D01*
X42149500Y-85422477D01*
X42187015Y-85562483D01*
X42187016Y-85562487D01*
X42242325Y-85658283D01*
X42259491Y-85688015D01*
X42361985Y-85790509D01*
X42407930Y-85817035D01*
X42487512Y-85862983D01*
X42487514Y-85862983D01*
X42487515Y-85862984D01*
X42522517Y-85872363D01*
X42627522Y-85900500D01*
X42627525Y-85900500D01*
X42772477Y-85900500D01*
X42842480Y-85881742D01*
X42912485Y-85862984D01*
X43038015Y-85790509D01*
X43055668Y-85772856D01*
X50839500Y-85772856D01*
X50839500Y-85891479D01*
X50870200Y-86006052D01*
X50870201Y-86006055D01*
X50908401Y-86072218D01*
X50929511Y-86108781D01*
X51013387Y-86192657D01*
X51116114Y-86251967D01*
X51144758Y-86259642D01*
X51230688Y-86282668D01*
X51230691Y-86282668D01*
X51349311Y-86282668D01*
X51406597Y-86267317D01*
X51463886Y-86251967D01*
X51566613Y-86192657D01*
X51650489Y-86108781D01*
X51709799Y-86006054D01*
X51729411Y-85932861D01*
X51740500Y-85891479D01*
X51740500Y-85772856D01*
X51709799Y-85658283D01*
X51709798Y-85658280D01*
X51650488Y-85555554D01*
X51566613Y-85471679D01*
X51463887Y-85412369D01*
X51463884Y-85412368D01*
X51349312Y-85381668D01*
X51349309Y-85381668D01*
X51230691Y-85381668D01*
X51230688Y-85381668D01*
X51116115Y-85412368D01*
X51116112Y-85412369D01*
X51013386Y-85471679D01*
X51013386Y-85471680D01*
X50929512Y-85555554D01*
X50929511Y-85555554D01*
X50870201Y-85658280D01*
X50870200Y-85658283D01*
X50839500Y-85772856D01*
X43055668Y-85772856D01*
X43140509Y-85688015D01*
X43212984Y-85562485D01*
X43231742Y-85492480D01*
X43250500Y-85422477D01*
X43250500Y-85277522D01*
X43212984Y-85137516D01*
X43212983Y-85137512D01*
X43140508Y-85011984D01*
X43038015Y-84909491D01*
X42918847Y-84840688D01*
X46574500Y-84840688D01*
X46574500Y-84959311D01*
X46605200Y-85073884D01*
X46605201Y-85073887D01*
X46641938Y-85137516D01*
X46664511Y-85176613D01*
X46748387Y-85260489D01*
X46851114Y-85319799D01*
X46861620Y-85322614D01*
X46965688Y-85350500D01*
X46965691Y-85350500D01*
X47084311Y-85350500D01*
X47141597Y-85335149D01*
X47198886Y-85319799D01*
X47301613Y-85260489D01*
X47385489Y-85176613D01*
X47444799Y-85073886D01*
X47458957Y-85021045D01*
X47468164Y-84986688D01*
X52138500Y-84986688D01*
X52138500Y-85105311D01*
X52169200Y-85219884D01*
X52169201Y-85219887D01*
X52192643Y-85260489D01*
X52228511Y-85322613D01*
X52312387Y-85406489D01*
X52415114Y-85465799D01*
X52437062Y-85471680D01*
X52529688Y-85496500D01*
X52529691Y-85496500D01*
X52648311Y-85496500D01*
X52705597Y-85481149D01*
X52762886Y-85465799D01*
X52865613Y-85406489D01*
X52949489Y-85322613D01*
X53008799Y-85219886D01*
X53030870Y-85137516D01*
X53039500Y-85105311D01*
X53039500Y-84986688D01*
X53008799Y-84872115D01*
X53008798Y-84872112D01*
X52988534Y-84837015D01*
X52949489Y-84769387D01*
X52865613Y-84685511D01*
X52862840Y-84683910D01*
X52762887Y-84626201D01*
X52762884Y-84626200D01*
X52648312Y-84595500D01*
X52648309Y-84595500D01*
X52529691Y-84595500D01*
X52529688Y-84595500D01*
X52415115Y-84626200D01*
X52415112Y-84626201D01*
X52312386Y-84685511D01*
X52312386Y-84685512D01*
X52228512Y-84769386D01*
X52228511Y-84769386D01*
X52169201Y-84872112D01*
X52169200Y-84872115D01*
X52138500Y-84986688D01*
X47468164Y-84986688D01*
X47472423Y-84970796D01*
X47475500Y-84959309D01*
X47475500Y-84840688D01*
X47444799Y-84726115D01*
X47444798Y-84726112D01*
X47420432Y-84683910D01*
X47385489Y-84623387D01*
X47301613Y-84539511D01*
X47236357Y-84501835D01*
X47198887Y-84480201D01*
X47198884Y-84480200D01*
X47084312Y-84449500D01*
X47084309Y-84449500D01*
X46965691Y-84449500D01*
X46965688Y-84449500D01*
X46851115Y-84480200D01*
X46851112Y-84480201D01*
X46748386Y-84539511D01*
X46748386Y-84539512D01*
X46664512Y-84623386D01*
X46664511Y-84623386D01*
X46605201Y-84726112D01*
X46605200Y-84726115D01*
X46574500Y-84840688D01*
X42918847Y-84840688D01*
X42912487Y-84837016D01*
X42912483Y-84837015D01*
X42772478Y-84799500D01*
X42772475Y-84799500D01*
X42627525Y-84799500D01*
X42627522Y-84799500D01*
X42487516Y-84837015D01*
X42487512Y-84837016D01*
X42361984Y-84909491D01*
X42361984Y-84909492D01*
X42259492Y-85011984D01*
X42259491Y-85011984D01*
X42187016Y-85137512D01*
X42187015Y-85137516D01*
X42149500Y-85277522D01*
X41100500Y-85277522D01*
X41062984Y-85137516D01*
X41062983Y-85137512D01*
X40990508Y-85011984D01*
X40888015Y-84909491D01*
X40762487Y-84837016D01*
X40762483Y-84837015D01*
X40622478Y-84799500D01*
X40622475Y-84799500D01*
X40477525Y-84799500D01*
X40477522Y-84799500D01*
X40337516Y-84837015D01*
X40337512Y-84837016D01*
X40211984Y-84909491D01*
X40211984Y-84909492D01*
X40109492Y-85011984D01*
X40109491Y-85011984D01*
X40037016Y-85137512D01*
X40037015Y-85137516D01*
X39999500Y-85277522D01*
X38850500Y-85277522D01*
X38812984Y-85137516D01*
X38812983Y-85137512D01*
X38740508Y-85011984D01*
X38638015Y-84909491D01*
X38512487Y-84837016D01*
X38512483Y-84837015D01*
X38372478Y-84799500D01*
X38372475Y-84799500D01*
X38227525Y-84799500D01*
X38227522Y-84799500D01*
X38087516Y-84837015D01*
X38087512Y-84837016D01*
X37961984Y-84909491D01*
X37961984Y-84909492D01*
X37859492Y-85011984D01*
X37859491Y-85011984D01*
X37787016Y-85137512D01*
X37787015Y-85137516D01*
X37749500Y-85277522D01*
X36700500Y-85277522D01*
X36662984Y-85137516D01*
X36662983Y-85137512D01*
X36590508Y-85011984D01*
X36488015Y-84909491D01*
X36362487Y-84837016D01*
X36362483Y-84837015D01*
X36222478Y-84799500D01*
X36222475Y-84799500D01*
X36077525Y-84799500D01*
X36077522Y-84799500D01*
X35937516Y-84837015D01*
X35937512Y-84837016D01*
X35811984Y-84909491D01*
X35811984Y-84909492D01*
X35709492Y-85011984D01*
X35709491Y-85011984D01*
X35637016Y-85137512D01*
X35637015Y-85137516D01*
X35599500Y-85277522D01*
X32280500Y-85277522D01*
X32280500Y-84178522D01*
X44953500Y-84178522D01*
X44953500Y-84323477D01*
X44991015Y-84463483D01*
X44991016Y-84463487D01*
X45034910Y-84539512D01*
X45063491Y-84589015D01*
X45165985Y-84691509D01*
X45211930Y-84718035D01*
X45291512Y-84763983D01*
X45291514Y-84763983D01*
X45291515Y-84763984D01*
X45311679Y-84769387D01*
X45431522Y-84801500D01*
X45431525Y-84801500D01*
X45576477Y-84801500D01*
X45618838Y-84790149D01*
X45618838Y-84790148D01*
X45716485Y-84763984D01*
X45842015Y-84691509D01*
X45944509Y-84589015D01*
X46016984Y-84463485D01*
X46035742Y-84393480D01*
X46054500Y-84323477D01*
X46054500Y-84178523D01*
X46039283Y-84121735D01*
X46039283Y-84121734D01*
X46036529Y-84111455D01*
X54539500Y-84111455D01*
X54539500Y-84308544D01*
X54577947Y-84501827D01*
X54577949Y-84501836D01*
X54653366Y-84683910D01*
X54653368Y-84683914D01*
X54706869Y-84763984D01*
X54755666Y-84837015D01*
X54762861Y-84847782D01*
X54902218Y-84987139D01*
X55066086Y-85096632D01*
X55248165Y-85172051D01*
X55441459Y-85210500D01*
X56138541Y-85210500D01*
X56331835Y-85172051D01*
X56513914Y-85096632D01*
X56677782Y-84987139D01*
X56817139Y-84847782D01*
X56926632Y-84683914D01*
X57002051Y-84501835D01*
X57040500Y-84308541D01*
X57040500Y-84111459D01*
X57002051Y-83918165D01*
X56926632Y-83736086D01*
X56817139Y-83572218D01*
X56677782Y-83432861D01*
X56669796Y-83427525D01*
X56623650Y-83396691D01*
X56513914Y-83323368D01*
X56513911Y-83323366D01*
X56513910Y-83323366D01*
X56331836Y-83247949D01*
X56331827Y-83247947D01*
X56138544Y-83209500D01*
X56138541Y-83209500D01*
X55441459Y-83209500D01*
X55441455Y-83209500D01*
X55248172Y-83247947D01*
X55248163Y-83247949D01*
X55066089Y-83323366D01*
X54902218Y-83432860D01*
X54762860Y-83572218D01*
X54653366Y-83736089D01*
X54577949Y-83918163D01*
X54577947Y-83918172D01*
X54539500Y-84111455D01*
X46036529Y-84111455D01*
X46016984Y-84038516D01*
X46016983Y-84038512D01*
X45960399Y-83940508D01*
X45944509Y-83912985D01*
X45842015Y-83810491D01*
X45716487Y-83738016D01*
X45716483Y-83738015D01*
X45576478Y-83700500D01*
X45576475Y-83700500D01*
X45431525Y-83700500D01*
X45431522Y-83700500D01*
X45291516Y-83738015D01*
X45291512Y-83738016D01*
X45165984Y-83810491D01*
X45165984Y-83810492D01*
X45063492Y-83912984D01*
X45063491Y-83912984D01*
X44991016Y-84038512D01*
X44991015Y-84038516D01*
X44953500Y-84178522D01*
X32280500Y-84178522D01*
X32280500Y-83427522D01*
X42149500Y-83427522D01*
X42149500Y-83572477D01*
X42187015Y-83712483D01*
X42187016Y-83712487D01*
X42259491Y-83838015D01*
X42361985Y-83940509D01*
X42407930Y-83967035D01*
X42487512Y-84012983D01*
X42487514Y-84012983D01*
X42487515Y-84012984D01*
X42522517Y-84022363D01*
X42627522Y-84050500D01*
X42627525Y-84050500D01*
X42772477Y-84050500D01*
X42842480Y-84031742D01*
X42912485Y-84012984D01*
X43038015Y-83940509D01*
X43140509Y-83838015D01*
X43212984Y-83712485D01*
X43231742Y-83642480D01*
X43250500Y-83572477D01*
X43250500Y-83427522D01*
X43212984Y-83287516D01*
X43212983Y-83287512D01*
X43140508Y-83161984D01*
X43038015Y-83059491D01*
X42912487Y-82987016D01*
X42912483Y-82987015D01*
X42772478Y-82949500D01*
X42772475Y-82949500D01*
X42627525Y-82949500D01*
X42627522Y-82949500D01*
X42487516Y-82987015D01*
X42487512Y-82987016D01*
X42361984Y-83059491D01*
X42361984Y-83059492D01*
X42259492Y-83161984D01*
X42259491Y-83161984D01*
X42187016Y-83287512D01*
X42187015Y-83287516D01*
X42149500Y-83427522D01*
X32280500Y-83427522D01*
X32280500Y-81377522D01*
X35749500Y-81377522D01*
X35749500Y-81522477D01*
X35787015Y-81662483D01*
X35787016Y-81662487D01*
X35859491Y-81788015D01*
X35961985Y-81890509D01*
X36005284Y-81915508D01*
X36087512Y-81962983D01*
X36087514Y-81962983D01*
X36087515Y-81962984D01*
X36108616Y-81968638D01*
X36227522Y-82000500D01*
X36227525Y-82000500D01*
X36372477Y-82000500D01*
X36442480Y-81981742D01*
X36512485Y-81962984D01*
X36638015Y-81890509D01*
X36740509Y-81788015D01*
X36812984Y-81662485D01*
X36837102Y-81572477D01*
X36850500Y-81522477D01*
X36850500Y-81427522D01*
X38799500Y-81427522D01*
X38799500Y-81572477D01*
X38837015Y-81712483D01*
X38837016Y-81712487D01*
X38880623Y-81788015D01*
X38909491Y-81838015D01*
X39011985Y-81940509D01*
X39050911Y-81962983D01*
X39137512Y-82012983D01*
X39137514Y-82012983D01*
X39137515Y-82012984D01*
X39172517Y-82022363D01*
X39277522Y-82050500D01*
X39277525Y-82050500D01*
X39422477Y-82050500D01*
X39515775Y-82025500D01*
X39562485Y-82012984D01*
X39688015Y-81940509D01*
X39790509Y-81838015D01*
X39862984Y-81712485D01*
X39886942Y-81623074D01*
X39900500Y-81572477D01*
X39900500Y-81427523D01*
X39896339Y-81411996D01*
X39896339Y-81411995D01*
X39893801Y-81402522D01*
X42049500Y-81402522D01*
X42049500Y-81547477D01*
X42087015Y-81687483D01*
X42087016Y-81687487D01*
X42145057Y-81788015D01*
X42159491Y-81813015D01*
X42261985Y-81915509D01*
X42305284Y-81940508D01*
X42387512Y-81987983D01*
X42387514Y-81987983D01*
X42387515Y-81987984D01*
X42422517Y-81997363D01*
X42527522Y-82025500D01*
X42527525Y-82025500D01*
X42672477Y-82025500D01*
X42765775Y-82000500D01*
X42812485Y-81987984D01*
X42938015Y-81915509D01*
X43040509Y-81813015D01*
X43112984Y-81687485D01*
X43143801Y-81572477D01*
X43150500Y-81547477D01*
X43150500Y-81402522D01*
X43112984Y-81262516D01*
X43112983Y-81262512D01*
X43040508Y-81136984D01*
X42938015Y-81034491D01*
X42812487Y-80962016D01*
X42812483Y-80962015D01*
X42672478Y-80924500D01*
X42672475Y-80924500D01*
X42527525Y-80924500D01*
X42527522Y-80924500D01*
X42387516Y-80962015D01*
X42387512Y-80962016D01*
X42261984Y-81034491D01*
X42261984Y-81034492D01*
X42159492Y-81136984D01*
X42159491Y-81136984D01*
X42087016Y-81262512D01*
X42087015Y-81262516D01*
X42049500Y-81402522D01*
X39893801Y-81402522D01*
X39878746Y-81346341D01*
X39862984Y-81287515D01*
X39862983Y-81287514D01*
X39862983Y-81287512D01*
X39798955Y-81176614D01*
X39790509Y-81161985D01*
X39688015Y-81059491D01*
X39644716Y-81034492D01*
X39562487Y-80987016D01*
X39562483Y-80987015D01*
X39422478Y-80949500D01*
X39422475Y-80949500D01*
X39277525Y-80949500D01*
X39277522Y-80949500D01*
X39137516Y-80987015D01*
X39137512Y-80987016D01*
X39011984Y-81059491D01*
X39011984Y-81059492D01*
X38909492Y-81161984D01*
X38909491Y-81161984D01*
X38837016Y-81287512D01*
X38837015Y-81287516D01*
X38799500Y-81427522D01*
X36850500Y-81427522D01*
X36850500Y-81377522D01*
X36812984Y-81237516D01*
X36812983Y-81237512D01*
X36740508Y-81111984D01*
X36638015Y-81009491D01*
X36512487Y-80937016D01*
X36512483Y-80937015D01*
X36372478Y-80899500D01*
X36372475Y-80899500D01*
X36227525Y-80899500D01*
X36227522Y-80899500D01*
X36087516Y-80937015D01*
X36087512Y-80937016D01*
X35961984Y-81009491D01*
X35961984Y-81009492D01*
X35859492Y-81111984D01*
X35859491Y-81111984D01*
X35787016Y-81237512D01*
X35787015Y-81237516D01*
X35749500Y-81377522D01*
X32280500Y-81377522D01*
X32280500Y-80840688D01*
X49124500Y-80840688D01*
X49124500Y-80959311D01*
X49155200Y-81073884D01*
X49155201Y-81073887D01*
X49206065Y-81161984D01*
X49214511Y-81176613D01*
X49298387Y-81260489D01*
X49401114Y-81319799D01*
X49429758Y-81327474D01*
X49515688Y-81350500D01*
X49515691Y-81350500D01*
X49634311Y-81350500D01*
X49691597Y-81335149D01*
X49748886Y-81319799D01*
X49851613Y-81260489D01*
X49935489Y-81176613D01*
X49994799Y-81073886D01*
X50024775Y-80962015D01*
X50025500Y-80959311D01*
X50025500Y-80840688D01*
X49994799Y-80726115D01*
X49994798Y-80726112D01*
X49935488Y-80623386D01*
X49851613Y-80539511D01*
X49748887Y-80480201D01*
X49748884Y-80480200D01*
X49634312Y-80449500D01*
X49634309Y-80449500D01*
X49515691Y-80449500D01*
X49515688Y-80449500D01*
X49401115Y-80480200D01*
X49401112Y-80480201D01*
X49298386Y-80539511D01*
X49298386Y-80539512D01*
X49214512Y-80623386D01*
X49214511Y-80623386D01*
X49155201Y-80726112D01*
X49155200Y-80726115D01*
X49124500Y-80840688D01*
X32280500Y-80840688D01*
X32280500Y-78731908D01*
X40874500Y-78731908D01*
X40874500Y-78968091D01*
X40911446Y-79201365D01*
X40911447Y-79201368D01*
X40984432Y-79425993D01*
X41091653Y-79636427D01*
X41091656Y-79636431D01*
X41091657Y-79636433D01*
X41230483Y-79827510D01*
X41230485Y-79827512D01*
X41230488Y-79827516D01*
X41397483Y-79994511D01*
X41397486Y-79994513D01*
X41397490Y-79994517D01*
X41588567Y-80133343D01*
X41588569Y-80133344D01*
X41588572Y-80133346D01*
X41799006Y-80240567D01*
X41799008Y-80240568D01*
X42023632Y-80313553D01*
X42256908Y-80350500D01*
X42256909Y-80350500D01*
X43493091Y-80350500D01*
X43493092Y-80350500D01*
X43726368Y-80313553D01*
X43950992Y-80240568D01*
X44161433Y-80133343D01*
X44352510Y-79994517D01*
X44519517Y-79827510D01*
X44658343Y-79636433D01*
X44765568Y-79425992D01*
X44838553Y-79201368D01*
X44875500Y-78968092D01*
X44875500Y-78731908D01*
X44838553Y-78498632D01*
X44765568Y-78274008D01*
X44658343Y-78063567D01*
X44519517Y-77872490D01*
X44519513Y-77872486D01*
X44519511Y-77872483D01*
X44352516Y-77705488D01*
X44352517Y-77705488D01*
X44161427Y-77566653D01*
X43950993Y-77459432D01*
X43726368Y-77386447D01*
X43726365Y-77386446D01*
X43547167Y-77358064D01*
X43493092Y-77349500D01*
X42256908Y-77349500D01*
X42213009Y-77356452D01*
X42023634Y-77386446D01*
X42023631Y-77386447D01*
X41799006Y-77459432D01*
X41588572Y-77566653D01*
X41397483Y-77705488D01*
X41230488Y-77872483D01*
X41091653Y-78063572D01*
X40984432Y-78274006D01*
X40911447Y-78498631D01*
X40911446Y-78498634D01*
X40874500Y-78731908D01*
X32280500Y-78731908D01*
X32280500Y-74531908D01*
X40874500Y-74531908D01*
X40874500Y-74768091D01*
X40911446Y-75001365D01*
X40911447Y-75001368D01*
X40984432Y-75225993D01*
X41091653Y-75436427D01*
X41091656Y-75436431D01*
X41091657Y-75436433D01*
X41230483Y-75627510D01*
X41230485Y-75627512D01*
X41230488Y-75627516D01*
X41397483Y-75794511D01*
X41397486Y-75794513D01*
X41397490Y-75794517D01*
X41588567Y-75933343D01*
X41588569Y-75933344D01*
X41588572Y-75933346D01*
X41646917Y-75963074D01*
X41799008Y-76040568D01*
X42023632Y-76113553D01*
X42256908Y-76150500D01*
X42256909Y-76150500D01*
X43493091Y-76150500D01*
X43493092Y-76150500D01*
X43726368Y-76113553D01*
X43950992Y-76040568D01*
X44125886Y-75951455D01*
X54539500Y-75951455D01*
X54539500Y-76148544D01*
X54577947Y-76341827D01*
X54577949Y-76341835D01*
X54653368Y-76523914D01*
X54762861Y-76687782D01*
X54902218Y-76827139D01*
X55066086Y-76936632D01*
X55248165Y-77012051D01*
X55441459Y-77050500D01*
X56138541Y-77050500D01*
X56331835Y-77012051D01*
X56513914Y-76936632D01*
X56677782Y-76827139D01*
X56817139Y-76687782D01*
X56926632Y-76523914D01*
X57002051Y-76341835D01*
X57040500Y-76148541D01*
X57040500Y-75951459D01*
X57002051Y-75758165D01*
X56926632Y-75576086D01*
X56817139Y-75412218D01*
X56677782Y-75272861D01*
X56513914Y-75163368D01*
X56513911Y-75163366D01*
X56513910Y-75163366D01*
X56331836Y-75087949D01*
X56331827Y-75087947D01*
X56138544Y-75049500D01*
X56138541Y-75049500D01*
X55441459Y-75049500D01*
X55441455Y-75049500D01*
X55248172Y-75087947D01*
X55248163Y-75087949D01*
X55066089Y-75163366D01*
X54902218Y-75272860D01*
X54762860Y-75412218D01*
X54653366Y-75576089D01*
X54577949Y-75758163D01*
X54577947Y-75758172D01*
X54539500Y-75951455D01*
X44125886Y-75951455D01*
X44161433Y-75933343D01*
X44352510Y-75794517D01*
X44519517Y-75627510D01*
X44658343Y-75436433D01*
X44765568Y-75225992D01*
X44838553Y-75001368D01*
X44875500Y-74768092D01*
X44875500Y-74531908D01*
X44845214Y-74340691D01*
X44845214Y-74340688D01*
X46509500Y-74340688D01*
X46509500Y-74459311D01*
X46540200Y-74573884D01*
X46540201Y-74573887D01*
X46599511Y-74676613D01*
X46683387Y-74760489D01*
X46786114Y-74819799D01*
X46814758Y-74827474D01*
X46900688Y-74850500D01*
X46900691Y-74850500D01*
X47019311Y-74850500D01*
X47076597Y-74835149D01*
X47133886Y-74819799D01*
X47236613Y-74760489D01*
X47320489Y-74676613D01*
X47379799Y-74573886D01*
X47395149Y-74516597D01*
X47410500Y-74459311D01*
X47410500Y-74340688D01*
X47379799Y-74226115D01*
X47379798Y-74226112D01*
X47320488Y-74123386D01*
X47236613Y-74039511D01*
X47133887Y-73980201D01*
X47133884Y-73980200D01*
X47019312Y-73949500D01*
X47019309Y-73949500D01*
X46900691Y-73949500D01*
X46900688Y-73949500D01*
X46786115Y-73980200D01*
X46786112Y-73980201D01*
X46683386Y-74039511D01*
X46683386Y-74039512D01*
X46599512Y-74123386D01*
X46599511Y-74123386D01*
X46540201Y-74226112D01*
X46540200Y-74226115D01*
X46509500Y-74340688D01*
X44845214Y-74340688D01*
X44838553Y-74298634D01*
X44838553Y-74298632D01*
X44765568Y-74074008D01*
X44765567Y-74074006D01*
X44658346Y-73863572D01*
X44658344Y-73863569D01*
X44658343Y-73863567D01*
X44519517Y-73672490D01*
X44519513Y-73672486D01*
X44519511Y-73672483D01*
X44352516Y-73505488D01*
X44352517Y-73505488D01*
X44335986Y-73493478D01*
X44161433Y-73366657D01*
X44101535Y-73336137D01*
X44022149Y-73295688D01*
X47697500Y-73295688D01*
X47697500Y-73414311D01*
X47728200Y-73528884D01*
X47728201Y-73528887D01*
X47787511Y-73631613D01*
X47871387Y-73715489D01*
X47974114Y-73774799D01*
X48002758Y-73782474D01*
X48088688Y-73805500D01*
X48088691Y-73805500D01*
X48207311Y-73805500D01*
X48264597Y-73790149D01*
X48321886Y-73774799D01*
X48424613Y-73715489D01*
X48508489Y-73631613D01*
X48567799Y-73528886D01*
X48588546Y-73451455D01*
X54539500Y-73451455D01*
X54539500Y-73648544D01*
X54577947Y-73841827D01*
X54577949Y-73841836D01*
X54653366Y-74023910D01*
X54653368Y-74023914D01*
X54762861Y-74187782D01*
X54902218Y-74327139D01*
X55066086Y-74436632D01*
X55248165Y-74512051D01*
X55441459Y-74550500D01*
X56138541Y-74550500D01*
X56331835Y-74512051D01*
X56513914Y-74436632D01*
X56677782Y-74327139D01*
X56817139Y-74187782D01*
X56926632Y-74023914D01*
X57002051Y-73841835D01*
X57040500Y-73648541D01*
X57040500Y-73451459D01*
X57002051Y-73258165D01*
X56926632Y-73076086D01*
X56817139Y-72912218D01*
X56677782Y-72772861D01*
X56513914Y-72663368D01*
X56513911Y-72663366D01*
X56513910Y-72663366D01*
X56331836Y-72587949D01*
X56331827Y-72587947D01*
X56138544Y-72549500D01*
X56138541Y-72549500D01*
X55441459Y-72549500D01*
X55441455Y-72549500D01*
X55248172Y-72587947D01*
X55248163Y-72587949D01*
X55066089Y-72663366D01*
X54902218Y-72772860D01*
X54762860Y-72912218D01*
X54653366Y-73076089D01*
X54577949Y-73258163D01*
X54577947Y-73258172D01*
X54539500Y-73451455D01*
X48588546Y-73451455D01*
X48592699Y-73435955D01*
X48598500Y-73414310D01*
X48598500Y-73295688D01*
X48569228Y-73186447D01*
X48567799Y-73181114D01*
X48508489Y-73078387D01*
X48424613Y-72994511D01*
X48321887Y-72935201D01*
X48321884Y-72935200D01*
X48207312Y-72904500D01*
X48207309Y-72904500D01*
X48088691Y-72904500D01*
X48088688Y-72904500D01*
X47974115Y-72935200D01*
X47974112Y-72935201D01*
X47871386Y-72994511D01*
X47871386Y-72994512D01*
X47787512Y-73078386D01*
X47787511Y-73078386D01*
X47728201Y-73181112D01*
X47728200Y-73181115D01*
X47697500Y-73295688D01*
X44022149Y-73295688D01*
X43950993Y-73259432D01*
X43726368Y-73186447D01*
X43726365Y-73186446D01*
X43547167Y-73158064D01*
X43493092Y-73149500D01*
X42256908Y-73149500D01*
X42213009Y-73156452D01*
X42023634Y-73186446D01*
X42023631Y-73186447D01*
X41799006Y-73259432D01*
X41588572Y-73366653D01*
X41397483Y-73505488D01*
X41230488Y-73672483D01*
X41091653Y-73863572D01*
X40984432Y-74074006D01*
X40911447Y-74298631D01*
X40911446Y-74298634D01*
X40874500Y-74531908D01*
X32280500Y-74531908D01*
X32280500Y-71967688D01*
X50092500Y-71967688D01*
X50092500Y-72086311D01*
X50123200Y-72200884D01*
X50123201Y-72200887D01*
X50182511Y-72303613D01*
X50266387Y-72387489D01*
X50369114Y-72446799D01*
X50397758Y-72454474D01*
X50483688Y-72477500D01*
X50483691Y-72477500D01*
X50602311Y-72477500D01*
X50659597Y-72462149D01*
X50716886Y-72446799D01*
X50819613Y-72387489D01*
X50903489Y-72303613D01*
X50962799Y-72200886D01*
X50983700Y-72122884D01*
X50993500Y-72086311D01*
X50993500Y-71967688D01*
X50993499Y-71967687D01*
X50975138Y-71899161D01*
X50972600Y-71889688D01*
X52259500Y-71889688D01*
X52259500Y-72008311D01*
X52290200Y-72122884D01*
X52290201Y-72122887D01*
X52335235Y-72200886D01*
X52349511Y-72225613D01*
X52433387Y-72309489D01*
X52536114Y-72368799D01*
X52564758Y-72376474D01*
X52650688Y-72399500D01*
X52650691Y-72399500D01*
X52769311Y-72399500D01*
X52826597Y-72384149D01*
X52883886Y-72368799D01*
X52986613Y-72309489D01*
X53070489Y-72225613D01*
X53129799Y-72122886D01*
X53145149Y-72065597D01*
X53160500Y-72008311D01*
X53160500Y-71889688D01*
X53129799Y-71775115D01*
X53129798Y-71775112D01*
X53070488Y-71672386D01*
X52986613Y-71588511D01*
X52883887Y-71529201D01*
X52883884Y-71529200D01*
X52769312Y-71498500D01*
X52769309Y-71498500D01*
X52650691Y-71498500D01*
X52650688Y-71498500D01*
X52536115Y-71529200D01*
X52536112Y-71529201D01*
X52433386Y-71588511D01*
X52433386Y-71588512D01*
X52349512Y-71672386D01*
X52349511Y-71672386D01*
X52290201Y-71775112D01*
X52290200Y-71775115D01*
X52259500Y-71889688D01*
X50972600Y-71889688D01*
X50962799Y-71853115D01*
X50962799Y-71853114D01*
X50955555Y-71840568D01*
X50903488Y-71750386D01*
X50819613Y-71666511D01*
X50716887Y-71607201D01*
X50716884Y-71607200D01*
X50602312Y-71576500D01*
X50602309Y-71576500D01*
X50483691Y-71576500D01*
X50483688Y-71576500D01*
X50369115Y-71607200D01*
X50369112Y-71607201D01*
X50266386Y-71666511D01*
X50266386Y-71666512D01*
X50182512Y-71750386D01*
X50182511Y-71750386D01*
X50123201Y-71853112D01*
X50123200Y-71853115D01*
X50092500Y-71967688D01*
X32280500Y-71967688D01*
X32280500Y-70331908D01*
X35374500Y-70331908D01*
X35374500Y-70568091D01*
X35411446Y-70801365D01*
X35411447Y-70801368D01*
X35484432Y-71025993D01*
X35591653Y-71236427D01*
X35591656Y-71236431D01*
X35591657Y-71236433D01*
X35730483Y-71427510D01*
X35730485Y-71427512D01*
X35730488Y-71427516D01*
X35897483Y-71594511D01*
X35897486Y-71594513D01*
X35897490Y-71594517D01*
X36088567Y-71733343D01*
X36088569Y-71733344D01*
X36088572Y-71733346D01*
X36170543Y-71775112D01*
X36299008Y-71840568D01*
X36523632Y-71913553D01*
X36756908Y-71950500D01*
X36756909Y-71950500D01*
X37993091Y-71950500D01*
X37993092Y-71950500D01*
X38226368Y-71913553D01*
X38450992Y-71840568D01*
X38661433Y-71733343D01*
X38852510Y-71594517D01*
X39019517Y-71427510D01*
X39158343Y-71236433D01*
X39265568Y-71025992D01*
X39338553Y-70801368D01*
X39375500Y-70568092D01*
X39375500Y-70331908D01*
X40874500Y-70331908D01*
X40874500Y-70568091D01*
X40911446Y-70801365D01*
X40911447Y-70801368D01*
X40984432Y-71025993D01*
X41091653Y-71236427D01*
X41091656Y-71236431D01*
X41091657Y-71236433D01*
X41230483Y-71427510D01*
X41230485Y-71427512D01*
X41230488Y-71427516D01*
X41397483Y-71594511D01*
X41397486Y-71594513D01*
X41397490Y-71594517D01*
X41588567Y-71733343D01*
X41588569Y-71733344D01*
X41588572Y-71733346D01*
X41670543Y-71775112D01*
X41799008Y-71840568D01*
X42023632Y-71913553D01*
X42256908Y-71950500D01*
X42256909Y-71950500D01*
X43493091Y-71950500D01*
X43493092Y-71950500D01*
X43576596Y-71937274D01*
X43710402Y-71916082D01*
X43715959Y-71915201D01*
X43726368Y-71913553D01*
X43950992Y-71840568D01*
X44161433Y-71733343D01*
X44352510Y-71594517D01*
X44519517Y-71427510D01*
X44658343Y-71236433D01*
X44765568Y-71025992D01*
X44838553Y-70801368D01*
X44875500Y-70568092D01*
X44875500Y-70331908D01*
X44838553Y-70098632D01*
X44765568Y-69874008D01*
X44658343Y-69663567D01*
X44519517Y-69472490D01*
X44519513Y-69472486D01*
X44519511Y-69472483D01*
X44352516Y-69305488D01*
X44352517Y-69305488D01*
X44161427Y-69166653D01*
X43950993Y-69059432D01*
X43726368Y-68986447D01*
X43726365Y-68986446D01*
X43547167Y-68958064D01*
X43493092Y-68949500D01*
X42256908Y-68949500D01*
X42213009Y-68956452D01*
X42023634Y-68986446D01*
X42023631Y-68986447D01*
X41799006Y-69059432D01*
X41588572Y-69166653D01*
X41397483Y-69305488D01*
X41230488Y-69472483D01*
X41091653Y-69663572D01*
X40984432Y-69874006D01*
X40911447Y-70098631D01*
X40911446Y-70098634D01*
X40874500Y-70331908D01*
X39375500Y-70331908D01*
X39338553Y-70098632D01*
X39265568Y-69874008D01*
X39158343Y-69663567D01*
X39019517Y-69472490D01*
X39019513Y-69472486D01*
X39019511Y-69472483D01*
X38852516Y-69305488D01*
X38852517Y-69305488D01*
X38661427Y-69166653D01*
X38450993Y-69059432D01*
X38226368Y-68986447D01*
X38226365Y-68986446D01*
X38047167Y-68958064D01*
X37993092Y-68949500D01*
X36756908Y-68949500D01*
X36713009Y-68956452D01*
X36523634Y-68986446D01*
X36523631Y-68986447D01*
X36299006Y-69059432D01*
X36088572Y-69166653D01*
X35897483Y-69305488D01*
X35730488Y-69472483D01*
X35591653Y-69663572D01*
X35484432Y-69874006D01*
X35411447Y-70098631D01*
X35411446Y-70098634D01*
X35374500Y-70331908D01*
X32280500Y-70331908D01*
X32280500Y-67110688D01*
X42229500Y-67110688D01*
X42229500Y-67229311D01*
X42260200Y-67343884D01*
X42260201Y-67343887D01*
X42319511Y-67446613D01*
X42403387Y-67530489D01*
X42506114Y-67589799D01*
X42534758Y-67597474D01*
X42620688Y-67620500D01*
X42620691Y-67620500D01*
X42739311Y-67620500D01*
X42796597Y-67605149D01*
X42853886Y-67589799D01*
X42956613Y-67530489D01*
X43040489Y-67446613D01*
X43099799Y-67343886D01*
X43115149Y-67286597D01*
X43130500Y-67229311D01*
X43130500Y-67110688D01*
X43099799Y-66996115D01*
X43099798Y-66996112D01*
X43040488Y-66893386D01*
X42956613Y-66809511D01*
X42853887Y-66750201D01*
X42853884Y-66750200D01*
X42739312Y-66719500D01*
X42739309Y-66719500D01*
X42620691Y-66719500D01*
X42620688Y-66719500D01*
X42506115Y-66750200D01*
X42506112Y-66750201D01*
X42403386Y-66809511D01*
X42403386Y-66809512D01*
X42319512Y-66893386D01*
X42319511Y-66893386D01*
X42260201Y-66996112D01*
X42260200Y-66996115D01*
X42229500Y-67110688D01*
X32280500Y-67110688D01*
X32280500Y-66237688D01*
X46384500Y-66237688D01*
X46384500Y-66356311D01*
X46415200Y-66470884D01*
X46415201Y-66470887D01*
X46474511Y-66573613D01*
X46558387Y-66657489D01*
X46661114Y-66716799D01*
X46689758Y-66724474D01*
X46775688Y-66747500D01*
X46775691Y-66747500D01*
X46894311Y-66747500D01*
X46951597Y-66732149D01*
X47008886Y-66716799D01*
X47111613Y-66657489D01*
X47195489Y-66573613D01*
X47254799Y-66470886D01*
X47270149Y-66413597D01*
X47285500Y-66356311D01*
X47285500Y-66237688D01*
X47254799Y-66123115D01*
X47254798Y-66123112D01*
X47195488Y-66020386D01*
X47111613Y-65936511D01*
X47008887Y-65877201D01*
X47008884Y-65877200D01*
X46894312Y-65846500D01*
X46894309Y-65846500D01*
X46775691Y-65846500D01*
X46775688Y-65846500D01*
X46661115Y-65877200D01*
X46661112Y-65877201D01*
X46558386Y-65936511D01*
X46558386Y-65936512D01*
X46474512Y-66020386D01*
X46474511Y-66020386D01*
X46415201Y-66123112D01*
X46415200Y-66123115D01*
X46384500Y-66237688D01*
X32280500Y-66237688D01*
X32280500Y-65450688D01*
X53359500Y-65450688D01*
X53359500Y-65569311D01*
X53390200Y-65683884D01*
X53390201Y-65683887D01*
X53449511Y-65786613D01*
X53533387Y-65870489D01*
X53636114Y-65929799D01*
X53661163Y-65936511D01*
X53750688Y-65960500D01*
X53750691Y-65960500D01*
X53869311Y-65960500D01*
X53942143Y-65940984D01*
X53983886Y-65929799D01*
X54086613Y-65870489D01*
X54170489Y-65786613D01*
X54229799Y-65683886D01*
X54247107Y-65619292D01*
X54250921Y-65605058D01*
X56647503Y-65605058D01*
X56647503Y-65723681D01*
X56678203Y-65838254D01*
X56678204Y-65838257D01*
X56700689Y-65877201D01*
X56737514Y-65940983D01*
X56821390Y-66024859D01*
X56924117Y-66084169D01*
X56952761Y-66091844D01*
X57038691Y-66114870D01*
X57038694Y-66114870D01*
X57157314Y-66114870D01*
X57214600Y-66099519D01*
X57271889Y-66084169D01*
X57374616Y-66024859D01*
X57458492Y-65940983D01*
X57517802Y-65838256D01*
X57545963Y-65733159D01*
X57548503Y-65723681D01*
X57548503Y-65605058D01*
X57517802Y-65490485D01*
X57517801Y-65490482D01*
X57494827Y-65450691D01*
X57458492Y-65387757D01*
X57374616Y-65303881D01*
X57271890Y-65244571D01*
X57271887Y-65244570D01*
X57157315Y-65213870D01*
X57157312Y-65213870D01*
X57038694Y-65213870D01*
X57038691Y-65213870D01*
X56924118Y-65244570D01*
X56924115Y-65244571D01*
X56821389Y-65303881D01*
X56821389Y-65303882D01*
X56737515Y-65387756D01*
X56737514Y-65387756D01*
X56678204Y-65490482D01*
X56678203Y-65490485D01*
X56647503Y-65605058D01*
X54250921Y-65605058D01*
X54255180Y-65589166D01*
X54255180Y-65589165D01*
X54260499Y-65569312D01*
X54260500Y-65569312D01*
X54260500Y-65450688D01*
X54229799Y-65336115D01*
X54229798Y-65336112D01*
X54176946Y-65244571D01*
X54170489Y-65233387D01*
X54086613Y-65149511D01*
X53983887Y-65090201D01*
X53983884Y-65090200D01*
X53869312Y-65059500D01*
X53869309Y-65059500D01*
X53750691Y-65059500D01*
X53750688Y-65059500D01*
X53636115Y-65090200D01*
X53636112Y-65090201D01*
X53533386Y-65149511D01*
X53533386Y-65149512D01*
X53449512Y-65233386D01*
X53449511Y-65233386D01*
X53390201Y-65336112D01*
X53390200Y-65336115D01*
X53359500Y-65450688D01*
X32280500Y-65450688D01*
X32280500Y-64595688D01*
X44719500Y-64595688D01*
X44719500Y-64714311D01*
X44750200Y-64828884D01*
X44750201Y-64828887D01*
X44751539Y-64831204D01*
X44809511Y-64931613D01*
X44893387Y-65015489D01*
X44996114Y-65074799D01*
X45024758Y-65082474D01*
X45110688Y-65105500D01*
X45110691Y-65105500D01*
X45229311Y-65105500D01*
X45286597Y-65090149D01*
X45343886Y-65074799D01*
X45446613Y-65015489D01*
X45530489Y-64931613D01*
X45589799Y-64828886D01*
X45605149Y-64771597D01*
X45620500Y-64714311D01*
X45620500Y-64634115D01*
X59215732Y-64634115D01*
X59215732Y-64831204D01*
X59254179Y-65024487D01*
X59254181Y-65024496D01*
X59281397Y-65090201D01*
X59329600Y-65206574D01*
X59439093Y-65370442D01*
X59578450Y-65509799D01*
X59742318Y-65619292D01*
X59924397Y-65694711D01*
X60117691Y-65733160D01*
X60314773Y-65733160D01*
X60508067Y-65694711D01*
X60690146Y-65619292D01*
X60854014Y-65509799D01*
X60993371Y-65370442D01*
X61102864Y-65206574D01*
X61178283Y-65024495D01*
X61216732Y-64831201D01*
X61216732Y-64634119D01*
X61178283Y-64440825D01*
X61102864Y-64258746D01*
X60993371Y-64094878D01*
X60854014Y-63955521D01*
X60690146Y-63846028D01*
X60690143Y-63846026D01*
X60690142Y-63846026D01*
X60508068Y-63770609D01*
X60508059Y-63770607D01*
X60314776Y-63732160D01*
X60314773Y-63732160D01*
X60117691Y-63732160D01*
X60117687Y-63732160D01*
X59924404Y-63770607D01*
X59924395Y-63770609D01*
X59742321Y-63846026D01*
X59578450Y-63955520D01*
X59439092Y-64094878D01*
X59329598Y-64258749D01*
X59254181Y-64440823D01*
X59254179Y-64440832D01*
X59215732Y-64634115D01*
X45620500Y-64634115D01*
X45620500Y-64595688D01*
X45589799Y-64481115D01*
X45589798Y-64481112D01*
X45530488Y-64378386D01*
X45446613Y-64294511D01*
X45343887Y-64235201D01*
X45343884Y-64235200D01*
X45229312Y-64204500D01*
X45229309Y-64204500D01*
X45110691Y-64204500D01*
X45110688Y-64204500D01*
X44996115Y-64235200D01*
X44996112Y-64235201D01*
X44893386Y-64294511D01*
X44893386Y-64294512D01*
X44809512Y-64378386D01*
X44809511Y-64378386D01*
X44750201Y-64481112D01*
X44750200Y-64481115D01*
X44719500Y-64595688D01*
X32280500Y-64595688D01*
X32280500Y-63750688D01*
X46309500Y-63750688D01*
X46309500Y-63869311D01*
X46340200Y-63983884D01*
X46340201Y-63983887D01*
X46399511Y-64086613D01*
X46483387Y-64170489D01*
X46586114Y-64229799D01*
X46614758Y-64237474D01*
X46700688Y-64260500D01*
X46700691Y-64260500D01*
X46819311Y-64260500D01*
X46876597Y-64245149D01*
X46933886Y-64229799D01*
X47036613Y-64170489D01*
X47120489Y-64086613D01*
X47179799Y-63983886D01*
X47195149Y-63926597D01*
X47210500Y-63869311D01*
X47210500Y-63750688D01*
X47179799Y-63636115D01*
X47179798Y-63636112D01*
X47120488Y-63533386D01*
X47036613Y-63449511D01*
X46933887Y-63390201D01*
X46933884Y-63390200D01*
X46819312Y-63359500D01*
X46819309Y-63359500D01*
X46700691Y-63359500D01*
X46700688Y-63359500D01*
X46586115Y-63390200D01*
X46586112Y-63390201D01*
X46483386Y-63449511D01*
X46483386Y-63449512D01*
X46399512Y-63533386D01*
X46399511Y-63533386D01*
X46340201Y-63636112D01*
X46340200Y-63636115D01*
X46309500Y-63750688D01*
X32280500Y-63750688D01*
X32280500Y-62540688D01*
X46374500Y-62540688D01*
X46374500Y-62659311D01*
X46405200Y-62773884D01*
X46405201Y-62773887D01*
X46464511Y-62876613D01*
X46548387Y-62960489D01*
X46651114Y-63019799D01*
X46679758Y-63027474D01*
X46765688Y-63050500D01*
X46765691Y-63050500D01*
X46884311Y-63050500D01*
X46941597Y-63035149D01*
X46998886Y-63019799D01*
X47101613Y-62960489D01*
X47185489Y-62876613D01*
X47244799Y-62773886D01*
X47260149Y-62716597D01*
X47275500Y-62659311D01*
X47275500Y-62540688D01*
X47244799Y-62426115D01*
X47244798Y-62426112D01*
X47185488Y-62323386D01*
X47101613Y-62239511D01*
X46998887Y-62180201D01*
X46998884Y-62180200D01*
X46884312Y-62149500D01*
X46884309Y-62149500D01*
X46765691Y-62149500D01*
X46765688Y-62149500D01*
X46651115Y-62180200D01*
X46651112Y-62180201D01*
X46548386Y-62239511D01*
X46548386Y-62239512D01*
X46464512Y-62323386D01*
X46464511Y-62323386D01*
X46405201Y-62426112D01*
X46405200Y-62426115D01*
X46374500Y-62540688D01*
X32280500Y-62540688D01*
X32280500Y-61600188D01*
X36505553Y-61600188D01*
X36505553Y-61718811D01*
X36536253Y-61833384D01*
X36536254Y-61833387D01*
X36566408Y-61885614D01*
X36595564Y-61936113D01*
X36679440Y-62019989D01*
X36782167Y-62079299D01*
X36810811Y-62086974D01*
X36896741Y-62110000D01*
X36896744Y-62110000D01*
X37015364Y-62110000D01*
X37072650Y-62094649D01*
X37129939Y-62079299D01*
X37232666Y-62019989D01*
X37316542Y-61936113D01*
X37375852Y-61833386D01*
X37394273Y-61764638D01*
X37406553Y-61718811D01*
X37406553Y-61600188D01*
X37406552Y-61600187D01*
X37395560Y-61559161D01*
X37393022Y-61549688D01*
X44478500Y-61549688D01*
X44478500Y-61668311D01*
X44509200Y-61782884D01*
X44509201Y-61782887D01*
X44538356Y-61833384D01*
X44568511Y-61885613D01*
X44652387Y-61969489D01*
X44755114Y-62028799D01*
X44783758Y-62036474D01*
X44869688Y-62059500D01*
X44869691Y-62059500D01*
X44988311Y-62059500D01*
X45045597Y-62044149D01*
X45102886Y-62028799D01*
X45205613Y-61969489D01*
X45289489Y-61885613D01*
X45348799Y-61782886D01*
X45365968Y-61718811D01*
X45379500Y-61668311D01*
X45379500Y-61549688D01*
X45348799Y-61435115D01*
X45348798Y-61435112D01*
X45318645Y-61382886D01*
X45289489Y-61332387D01*
X45205613Y-61248511D01*
X45165586Y-61225401D01*
X45157423Y-61220688D01*
X53449500Y-61220688D01*
X53449500Y-61339311D01*
X53480200Y-61453884D01*
X53480201Y-61453887D01*
X53498519Y-61485614D01*
X53539511Y-61556613D01*
X53623387Y-61640489D01*
X53726114Y-61699799D01*
X53754758Y-61707474D01*
X53840688Y-61730500D01*
X53840691Y-61730500D01*
X53959311Y-61730500D01*
X54016597Y-61715149D01*
X54073886Y-61699799D01*
X54176613Y-61640489D01*
X54260489Y-61556613D01*
X54319799Y-61453886D01*
X54338824Y-61382886D01*
X54350500Y-61339311D01*
X54350500Y-61220688D01*
X54319799Y-61106115D01*
X54319799Y-61106114D01*
X54274880Y-61028312D01*
X56674278Y-61028312D01*
X56674278Y-61225401D01*
X56712725Y-61418684D01*
X56712727Y-61418693D01*
X56788144Y-61600767D01*
X56788146Y-61600771D01*
X56897639Y-61764639D01*
X57036996Y-61903996D01*
X57200864Y-62013489D01*
X57382943Y-62088908D01*
X57576237Y-62127357D01*
X57773319Y-62127357D01*
X57966613Y-62088908D01*
X58148692Y-62013489D01*
X58312560Y-61903996D01*
X58451917Y-61764639D01*
X58561410Y-61600771D01*
X58636829Y-61418692D01*
X58675278Y-61225398D01*
X58675278Y-61028316D01*
X58636829Y-60835022D01*
X58561410Y-60652943D01*
X58451917Y-60489075D01*
X58312560Y-60349718D01*
X58288117Y-60333386D01*
X58258428Y-60313548D01*
X58148692Y-60240225D01*
X58148689Y-60240223D01*
X58148688Y-60240223D01*
X57966614Y-60164806D01*
X57966605Y-60164804D01*
X57773322Y-60126357D01*
X57773319Y-60126357D01*
X57576237Y-60126357D01*
X57576233Y-60126357D01*
X57382950Y-60164804D01*
X57382941Y-60164806D01*
X57200867Y-60240223D01*
X57036996Y-60349717D01*
X56897638Y-60489075D01*
X56788144Y-60652946D01*
X56712727Y-60835020D01*
X56712725Y-60835029D01*
X56674278Y-61028312D01*
X54274880Y-61028312D01*
X54260489Y-61003387D01*
X54176613Y-60919511D01*
X54073887Y-60860201D01*
X54073884Y-60860200D01*
X53959312Y-60829500D01*
X53959309Y-60829500D01*
X53840691Y-60829500D01*
X53840688Y-60829500D01*
X53726115Y-60860200D01*
X53726112Y-60860201D01*
X53623386Y-60919511D01*
X53623386Y-60919512D01*
X53539512Y-61003386D01*
X53539511Y-61003386D01*
X53480201Y-61106112D01*
X53480200Y-61106115D01*
X53449500Y-61220688D01*
X45157423Y-61220688D01*
X45102887Y-61189201D01*
X45102884Y-61189200D01*
X44988312Y-61158500D01*
X44988309Y-61158500D01*
X44869691Y-61158500D01*
X44869688Y-61158500D01*
X44755115Y-61189200D01*
X44755112Y-61189201D01*
X44652386Y-61248511D01*
X44652386Y-61248512D01*
X44568512Y-61332386D01*
X44568511Y-61332386D01*
X44509201Y-61435112D01*
X44509200Y-61435115D01*
X44478500Y-61549688D01*
X37393022Y-61549688D01*
X37375852Y-61485615D01*
X37375852Y-61485614D01*
X37316542Y-61382887D01*
X37232666Y-61299011D01*
X37129940Y-61239701D01*
X37129937Y-61239700D01*
X37015365Y-61209000D01*
X37015362Y-61209000D01*
X36896744Y-61209000D01*
X36896741Y-61209000D01*
X36782168Y-61239700D01*
X36782165Y-61239701D01*
X36679439Y-61299011D01*
X36679439Y-61299012D01*
X36595565Y-61382886D01*
X36595564Y-61382886D01*
X36536254Y-61485612D01*
X36536253Y-61485615D01*
X36505553Y-61600188D01*
X32280500Y-61600188D01*
X32280500Y-60550688D01*
X51432945Y-60550688D01*
X51432945Y-60669311D01*
X51463645Y-60783884D01*
X51463646Y-60783887D01*
X51507706Y-60860200D01*
X51522956Y-60886613D01*
X51606832Y-60970489D01*
X51709559Y-61029799D01*
X51738203Y-61037474D01*
X51824133Y-61060500D01*
X51824136Y-61060500D01*
X51942756Y-61060500D01*
X52000042Y-61045149D01*
X52057331Y-61029799D01*
X52160058Y-60970489D01*
X52243934Y-60886613D01*
X52303244Y-60783886D01*
X52318594Y-60726597D01*
X52333945Y-60669311D01*
X52333945Y-60550688D01*
X52303244Y-60436115D01*
X52303243Y-60436112D01*
X52287350Y-60408585D01*
X52243934Y-60333387D01*
X52160058Y-60249511D01*
X52143971Y-60240223D01*
X52057332Y-60190201D01*
X52057329Y-60190200D01*
X51942757Y-60159500D01*
X51942754Y-60159500D01*
X51824136Y-60159500D01*
X51824133Y-60159500D01*
X51709560Y-60190200D01*
X51709557Y-60190201D01*
X51606831Y-60249511D01*
X51606831Y-60249512D01*
X51522957Y-60333386D01*
X51522956Y-60333386D01*
X51463646Y-60436112D01*
X51463645Y-60436115D01*
X51432945Y-60550688D01*
X32280500Y-60550688D01*
X32280500Y-57110688D01*
X40799500Y-57110688D01*
X40799500Y-57229311D01*
X40830200Y-57343884D01*
X40830201Y-57343887D01*
X40872772Y-57417620D01*
X40889511Y-57446613D01*
X40973387Y-57530489D01*
X41076114Y-57589799D01*
X41104758Y-57597474D01*
X41190688Y-57620500D01*
X41190691Y-57620500D01*
X41309311Y-57620500D01*
X41366597Y-57605149D01*
X41423886Y-57589799D01*
X41526613Y-57530489D01*
X41610489Y-57446613D01*
X41611696Y-57444523D01*
X56675222Y-57444523D01*
X56675222Y-57641612D01*
X56713669Y-57834895D01*
X56713671Y-57834903D01*
X56789090Y-58016982D01*
X56898583Y-58180850D01*
X57037940Y-58320207D01*
X57201808Y-58429700D01*
X57383887Y-58505119D01*
X57577181Y-58543568D01*
X57774263Y-58543568D01*
X57967557Y-58505119D01*
X58149636Y-58429700D01*
X58313504Y-58320207D01*
X58452861Y-58180850D01*
X58562354Y-58016982D01*
X58637773Y-57834903D01*
X58676222Y-57641609D01*
X58676222Y-57444527D01*
X58676221Y-57444523D01*
X59215222Y-57444523D01*
X59215222Y-57641612D01*
X59253669Y-57834895D01*
X59253671Y-57834903D01*
X59329090Y-58016982D01*
X59438583Y-58180850D01*
X59577940Y-58320207D01*
X59741808Y-58429700D01*
X59923887Y-58505119D01*
X60117181Y-58543568D01*
X60314263Y-58543568D01*
X60507557Y-58505119D01*
X60689636Y-58429700D01*
X60853504Y-58320207D01*
X60992861Y-58180850D01*
X61102354Y-58016982D01*
X61177773Y-57834903D01*
X61216222Y-57641609D01*
X61216222Y-57444527D01*
X61177773Y-57251233D01*
X61102354Y-57069154D01*
X60992861Y-56905286D01*
X60853504Y-56765929D01*
X60829965Y-56750201D01*
X60784018Y-56719500D01*
X60689636Y-56656436D01*
X60689633Y-56656434D01*
X60689632Y-56656434D01*
X60507558Y-56581017D01*
X60507549Y-56581015D01*
X60314266Y-56542568D01*
X60314263Y-56542568D01*
X60117181Y-56542568D01*
X60117177Y-56542568D01*
X59923894Y-56581015D01*
X59923885Y-56581017D01*
X59741811Y-56656434D01*
X59577940Y-56765928D01*
X59438582Y-56905286D01*
X59329088Y-57069157D01*
X59253671Y-57251231D01*
X59253669Y-57251240D01*
X59215222Y-57444523D01*
X58676221Y-57444523D01*
X58637773Y-57251233D01*
X58562354Y-57069154D01*
X58452861Y-56905286D01*
X58313504Y-56765929D01*
X58289965Y-56750201D01*
X58244018Y-56719500D01*
X58149636Y-56656436D01*
X58149633Y-56656434D01*
X58149632Y-56656434D01*
X57967558Y-56581017D01*
X57967549Y-56581015D01*
X57774266Y-56542568D01*
X57774263Y-56542568D01*
X57577181Y-56542568D01*
X57577177Y-56542568D01*
X57383894Y-56581015D01*
X57383885Y-56581017D01*
X57201811Y-56656434D01*
X57037940Y-56765928D01*
X56898582Y-56905286D01*
X56789088Y-57069157D01*
X56713671Y-57251231D01*
X56713669Y-57251240D01*
X56675222Y-57444523D01*
X41611696Y-57444523D01*
X41669799Y-57343886D01*
X41694624Y-57251240D01*
X41700500Y-57229311D01*
X41700500Y-57110688D01*
X41669799Y-56996115D01*
X41669798Y-56996112D01*
X41610488Y-56893386D01*
X41526613Y-56809511D01*
X41423887Y-56750201D01*
X41423884Y-56750200D01*
X41309312Y-56719500D01*
X41309309Y-56719500D01*
X41190691Y-56719500D01*
X41190688Y-56719500D01*
X41076115Y-56750200D01*
X41076112Y-56750201D01*
X40973386Y-56809511D01*
X40973386Y-56809512D01*
X40889512Y-56893386D01*
X40889511Y-56893386D01*
X40830201Y-56996112D01*
X40830200Y-56996115D01*
X40799500Y-57110688D01*
X32280500Y-57110688D01*
X32280500Y-56077022D01*
X40943715Y-56077022D01*
X40943715Y-56195645D01*
X40974415Y-56310218D01*
X40974416Y-56310221D01*
X41020759Y-56390488D01*
X41033726Y-56412947D01*
X41117602Y-56496823D01*
X41220329Y-56556133D01*
X41248973Y-56563808D01*
X41334903Y-56586834D01*
X41334906Y-56586834D01*
X41453526Y-56586834D01*
X41510812Y-56571483D01*
X41568101Y-56556133D01*
X41670828Y-56496823D01*
X41754704Y-56412947D01*
X41814014Y-56310220D01*
X41842506Y-56203887D01*
X41844715Y-56195645D01*
X41844715Y-56077022D01*
X41844714Y-56077021D01*
X41818761Y-55980161D01*
X41816222Y-55970688D01*
X49659500Y-55970688D01*
X49659500Y-56089311D01*
X49690200Y-56203884D01*
X49690201Y-56203887D01*
X49749511Y-56306613D01*
X49833387Y-56390489D01*
X49936114Y-56449799D01*
X49964758Y-56457474D01*
X50050688Y-56480500D01*
X50050691Y-56480500D01*
X50169311Y-56480500D01*
X50226597Y-56465149D01*
X50283886Y-56449799D01*
X50386613Y-56390489D01*
X50470489Y-56306613D01*
X50529799Y-56203886D01*
X50545149Y-56146597D01*
X50560500Y-56089311D01*
X50560500Y-55970688D01*
X50529799Y-55856115D01*
X50529798Y-55856112D01*
X50513905Y-55828585D01*
X50470489Y-55753387D01*
X50386613Y-55669511D01*
X50283887Y-55610201D01*
X50283884Y-55610200D01*
X50169312Y-55579500D01*
X50169309Y-55579500D01*
X50050691Y-55579500D01*
X50050688Y-55579500D01*
X49936115Y-55610200D01*
X49936112Y-55610201D01*
X49833386Y-55669511D01*
X49833386Y-55669512D01*
X49749512Y-55753386D01*
X49749511Y-55753386D01*
X49690201Y-55856112D01*
X49690200Y-55856115D01*
X49659500Y-55970688D01*
X41816222Y-55970688D01*
X41814014Y-55962448D01*
X41754704Y-55859721D01*
X41670828Y-55775845D01*
X41631930Y-55753387D01*
X41568102Y-55716535D01*
X41568099Y-55716534D01*
X41453527Y-55685834D01*
X41453524Y-55685834D01*
X41334906Y-55685834D01*
X41334903Y-55685834D01*
X41220330Y-55716534D01*
X41220327Y-55716535D01*
X41117601Y-55775845D01*
X41117601Y-55775846D01*
X41033727Y-55859720D01*
X41033726Y-55859720D01*
X40974416Y-55962446D01*
X40974415Y-55962449D01*
X40943715Y-56077022D01*
X32280500Y-56077022D01*
X32280500Y-54904523D01*
X56675222Y-54904523D01*
X56675222Y-55101612D01*
X56713669Y-55294895D01*
X56713671Y-55294903D01*
X56789090Y-55476982D01*
X56898583Y-55640850D01*
X57037940Y-55780207D01*
X57201808Y-55889700D01*
X57383887Y-55965119D01*
X57577181Y-56003568D01*
X57774263Y-56003568D01*
X57967557Y-55965119D01*
X58149636Y-55889700D01*
X58313504Y-55780207D01*
X58452861Y-55640850D01*
X58562354Y-55476982D01*
X58637773Y-55294903D01*
X58676222Y-55101609D01*
X58676222Y-54904527D01*
X58676221Y-54904523D01*
X59215222Y-54904523D01*
X59215222Y-55101612D01*
X59253669Y-55294895D01*
X59253671Y-55294903D01*
X59329090Y-55476982D01*
X59438583Y-55640850D01*
X59577940Y-55780207D01*
X59741808Y-55889700D01*
X59923887Y-55965119D01*
X60117181Y-56003568D01*
X60314263Y-56003568D01*
X60507557Y-55965119D01*
X60689636Y-55889700D01*
X60853504Y-55780207D01*
X60992861Y-55640850D01*
X61102354Y-55476982D01*
X61177773Y-55294903D01*
X61216222Y-55101609D01*
X61216222Y-54904527D01*
X61177773Y-54711233D01*
X61102354Y-54529154D01*
X60992861Y-54365286D01*
X60853504Y-54225929D01*
X60689636Y-54116436D01*
X60689633Y-54116434D01*
X60689632Y-54116434D01*
X60507558Y-54041017D01*
X60507549Y-54041015D01*
X60314266Y-54002568D01*
X60314263Y-54002568D01*
X60117181Y-54002568D01*
X60117177Y-54002568D01*
X59923894Y-54041015D01*
X59923885Y-54041017D01*
X59741811Y-54116434D01*
X59577940Y-54225928D01*
X59438582Y-54365286D01*
X59329088Y-54529157D01*
X59253671Y-54711231D01*
X59253669Y-54711240D01*
X59215222Y-54904523D01*
X58676221Y-54904523D01*
X58637773Y-54711233D01*
X58562354Y-54529154D01*
X58452861Y-54365286D01*
X58313504Y-54225929D01*
X58149636Y-54116436D01*
X58149633Y-54116434D01*
X58149632Y-54116434D01*
X57967558Y-54041017D01*
X57967549Y-54041015D01*
X57774266Y-54002568D01*
X57774263Y-54002568D01*
X57577181Y-54002568D01*
X57577177Y-54002568D01*
X57383894Y-54041015D01*
X57383885Y-54041017D01*
X57201811Y-54116434D01*
X57037940Y-54225928D01*
X56898582Y-54365286D01*
X56789088Y-54529157D01*
X56713671Y-54711231D01*
X56713669Y-54711240D01*
X56675222Y-54904523D01*
X32280500Y-54904523D01*
X32280500Y-53953688D01*
X47697500Y-53953688D01*
X47697500Y-54072311D01*
X47728200Y-54186884D01*
X47728201Y-54186887D01*
X47787511Y-54289613D01*
X47871387Y-54373489D01*
X47974114Y-54432799D01*
X48002758Y-54440474D01*
X48088688Y-54463500D01*
X48088691Y-54463500D01*
X48207311Y-54463500D01*
X48264597Y-54448149D01*
X48321886Y-54432799D01*
X48424613Y-54373489D01*
X48508489Y-54289613D01*
X48567799Y-54186886D01*
X48586677Y-54116434D01*
X48598500Y-54072311D01*
X48598500Y-53953688D01*
X48567799Y-53839115D01*
X48567798Y-53839112D01*
X48508488Y-53736386D01*
X48424613Y-53652511D01*
X48321887Y-53593201D01*
X48321884Y-53593200D01*
X48207312Y-53562500D01*
X48207309Y-53562500D01*
X48088691Y-53562500D01*
X48088688Y-53562500D01*
X47974115Y-53593200D01*
X47974112Y-53593201D01*
X47871386Y-53652511D01*
X47871386Y-53652512D01*
X47787512Y-53736386D01*
X47787511Y-53736386D01*
X47728201Y-53839112D01*
X47728200Y-53839115D01*
X47697500Y-53953688D01*
X32280500Y-53953688D01*
X32280500Y-52340688D01*
X41949500Y-52340688D01*
X41949500Y-52459311D01*
X41980200Y-52573884D01*
X41980201Y-52573887D01*
X42039511Y-52676613D01*
X42123387Y-52760489D01*
X42226114Y-52819799D01*
X42254758Y-52827474D01*
X42340688Y-52850500D01*
X42340691Y-52850500D01*
X42459311Y-52850500D01*
X42516597Y-52835149D01*
X42573886Y-52819799D01*
X42676613Y-52760489D01*
X42760489Y-52676613D01*
X42819799Y-52573886D01*
X42835149Y-52516597D01*
X42850500Y-52459311D01*
X42850500Y-52364523D01*
X56675222Y-52364523D01*
X56675222Y-52561612D01*
X56713669Y-52754895D01*
X56713671Y-52754904D01*
X56753268Y-52850500D01*
X56789090Y-52936982D01*
X56898583Y-53100850D01*
X57037940Y-53240207D01*
X57201808Y-53349700D01*
X57383887Y-53425119D01*
X57577181Y-53463568D01*
X57774263Y-53463568D01*
X57967557Y-53425119D01*
X58149636Y-53349700D01*
X58313504Y-53240207D01*
X58452861Y-53100850D01*
X58562354Y-52936982D01*
X58637773Y-52754903D01*
X58676222Y-52561609D01*
X58676222Y-52364527D01*
X58676221Y-52364523D01*
X59215222Y-52364523D01*
X59215222Y-52561612D01*
X59253669Y-52754895D01*
X59253671Y-52754904D01*
X59293268Y-52850500D01*
X59329090Y-52936982D01*
X59438583Y-53100850D01*
X59577940Y-53240207D01*
X59741808Y-53349700D01*
X59923887Y-53425119D01*
X60117181Y-53463568D01*
X60314263Y-53463568D01*
X60507557Y-53425119D01*
X60689636Y-53349700D01*
X60853504Y-53240207D01*
X60992861Y-53100850D01*
X61102354Y-52936982D01*
X61177773Y-52754903D01*
X61216222Y-52561609D01*
X61216222Y-52364527D01*
X61177773Y-52171233D01*
X61102354Y-51989154D01*
X60992861Y-51825286D01*
X60853504Y-51685929D01*
X60689636Y-51576436D01*
X60689633Y-51576434D01*
X60689632Y-51576434D01*
X60507558Y-51501017D01*
X60507549Y-51501015D01*
X60314266Y-51462568D01*
X60314263Y-51462568D01*
X60117181Y-51462568D01*
X60117177Y-51462568D01*
X59923894Y-51501015D01*
X59923885Y-51501017D01*
X59741811Y-51576434D01*
X59577940Y-51685928D01*
X59438582Y-51825286D01*
X59329088Y-51989157D01*
X59253671Y-52171231D01*
X59253669Y-52171240D01*
X59215222Y-52364523D01*
X58676221Y-52364523D01*
X58637773Y-52171233D01*
X58562354Y-51989154D01*
X58452861Y-51825286D01*
X58313504Y-51685929D01*
X58149636Y-51576436D01*
X58149633Y-51576434D01*
X58149632Y-51576434D01*
X57967558Y-51501017D01*
X57967549Y-51501015D01*
X57774266Y-51462568D01*
X57774263Y-51462568D01*
X57577181Y-51462568D01*
X57577177Y-51462568D01*
X57383894Y-51501015D01*
X57383885Y-51501017D01*
X57201811Y-51576434D01*
X57037940Y-51685928D01*
X56898582Y-51825286D01*
X56789088Y-51989157D01*
X56713671Y-52171231D01*
X56713669Y-52171240D01*
X56675222Y-52364523D01*
X42850500Y-52364523D01*
X42850500Y-52340688D01*
X42819799Y-52226115D01*
X42819798Y-52226112D01*
X42760488Y-52123386D01*
X42676613Y-52039511D01*
X42573887Y-51980201D01*
X42573884Y-51980200D01*
X42459312Y-51949500D01*
X42459309Y-51949500D01*
X42340691Y-51949500D01*
X42340688Y-51949500D01*
X42226115Y-51980200D01*
X42226112Y-51980201D01*
X42123386Y-52039511D01*
X42123386Y-52039512D01*
X42039512Y-52123386D01*
X42039511Y-52123386D01*
X41980201Y-52226112D01*
X41980200Y-52226115D01*
X41949500Y-52340688D01*
X32280500Y-52340688D01*
X32280500Y-50242827D01*
X37647186Y-50242827D01*
X37647186Y-50361450D01*
X37677886Y-50476023D01*
X37677887Y-50476026D01*
X37697784Y-50510488D01*
X37737197Y-50578752D01*
X37821073Y-50662628D01*
X37923800Y-50721938D01*
X37952444Y-50729613D01*
X38038374Y-50752639D01*
X38038377Y-50752639D01*
X38156997Y-50752639D01*
X38214283Y-50737288D01*
X38271572Y-50721938D01*
X38374299Y-50662628D01*
X38418079Y-50618848D01*
X38452727Y-50604496D01*
X38487375Y-50618848D01*
X38532245Y-50663718D01*
X38634972Y-50723028D01*
X38663616Y-50730703D01*
X38749546Y-50753729D01*
X38749549Y-50753729D01*
X38868169Y-50753729D01*
X38925455Y-50738378D01*
X38982744Y-50723028D01*
X39085471Y-50663718D01*
X39169347Y-50579842D01*
X39228657Y-50477115D01*
X39250130Y-50396978D01*
X39259358Y-50362540D01*
X39259358Y-50243917D01*
X39228657Y-50129344D01*
X39228656Y-50129341D01*
X39169346Y-50026615D01*
X39085471Y-49942740D01*
X38982745Y-49883430D01*
X38982742Y-49883429D01*
X38868170Y-49852729D01*
X38868167Y-49852729D01*
X38749549Y-49852729D01*
X38749546Y-49852729D01*
X38634973Y-49883429D01*
X38634970Y-49883430D01*
X38532244Y-49942740D01*
X38532244Y-49942741D01*
X38488465Y-49986520D01*
X38453817Y-50000872D01*
X38419169Y-49986520D01*
X38374299Y-49941650D01*
X38271573Y-49882340D01*
X38271570Y-49882339D01*
X38156998Y-49851639D01*
X38156995Y-49851639D01*
X38038377Y-49851639D01*
X38038374Y-49851639D01*
X37923801Y-49882339D01*
X37923798Y-49882340D01*
X37821072Y-49941650D01*
X37821072Y-49941651D01*
X37737198Y-50025525D01*
X37737197Y-50025525D01*
X37677887Y-50128251D01*
X37677886Y-50128254D01*
X37647186Y-50242827D01*
X32280500Y-50242827D01*
X32280500Y-48777336D01*
X34770008Y-48777336D01*
X34770008Y-48922291D01*
X34807523Y-49062297D01*
X34807524Y-49062301D01*
X34879999Y-49187829D01*
X34982493Y-49290323D01*
X35028438Y-49316849D01*
X35108020Y-49362797D01*
X35108022Y-49362797D01*
X35108023Y-49362798D01*
X35135606Y-49370189D01*
X35248030Y-49400314D01*
X35248033Y-49400314D01*
X35392985Y-49400314D01*
X35462988Y-49381556D01*
X35532993Y-49362798D01*
X35658523Y-49290323D01*
X35761017Y-49187829D01*
X35814986Y-49094352D01*
X37679080Y-49094352D01*
X37679080Y-49212975D01*
X37709780Y-49327548D01*
X37709781Y-49327551D01*
X37731573Y-49365295D01*
X37769091Y-49430277D01*
X37852967Y-49514153D01*
X37955694Y-49573463D01*
X37984338Y-49581138D01*
X38070268Y-49604164D01*
X38070271Y-49604164D01*
X38188891Y-49604164D01*
X38246177Y-49588813D01*
X38303466Y-49573463D01*
X38406193Y-49514153D01*
X38411974Y-49508372D01*
X38446622Y-49494020D01*
X38481270Y-49508372D01*
X38483387Y-49510489D01*
X38586114Y-49569799D01*
X38608040Y-49575674D01*
X38700688Y-49600500D01*
X38700691Y-49600500D01*
X38819311Y-49600500D01*
X38876597Y-49585149D01*
X38933886Y-49569799D01*
X39036613Y-49510489D01*
X39090049Y-49457053D01*
X40247314Y-49457053D01*
X40247314Y-49575676D01*
X40278014Y-49690249D01*
X40278015Y-49690252D01*
X40337325Y-49792978D01*
X40342881Y-49798534D01*
X40357233Y-49833182D01*
X40342883Y-49867828D01*
X40337326Y-49873384D01*
X40337325Y-49873386D01*
X40278015Y-49976112D01*
X40278014Y-49976115D01*
X40247314Y-50090688D01*
X40247314Y-50209311D01*
X40278014Y-50323884D01*
X40278015Y-50323887D01*
X40300331Y-50362538D01*
X40337325Y-50426613D01*
X40421201Y-50510489D01*
X40523928Y-50569799D01*
X40552572Y-50577474D01*
X40638502Y-50600500D01*
X40638505Y-50600500D01*
X40757125Y-50600500D01*
X40817955Y-50584200D01*
X40871700Y-50569799D01*
X40974427Y-50510489D01*
X41058303Y-50426613D01*
X41117613Y-50323886D01*
X41146815Y-50214904D01*
X41148314Y-50209311D01*
X41148314Y-50090688D01*
X41117613Y-49976115D01*
X41117612Y-49976112D01*
X41064101Y-49883430D01*
X41058303Y-49873387D01*
X41052746Y-49867830D01*
X41045878Y-49851249D01*
X41038424Y-49834903D01*
X41038756Y-49834057D01*
X41038394Y-49833182D01*
X41041804Y-49824523D01*
X56675222Y-49824523D01*
X56675222Y-50021612D01*
X56713669Y-50214895D01*
X56713671Y-50214904D01*
X56789088Y-50396978D01*
X56789090Y-50396982D01*
X56898583Y-50560850D01*
X57037940Y-50700207D01*
X57201808Y-50809700D01*
X57383887Y-50885119D01*
X57577181Y-50923568D01*
X57774263Y-50923568D01*
X57967557Y-50885119D01*
X58149636Y-50809700D01*
X58313504Y-50700207D01*
X58452861Y-50560850D01*
X58562354Y-50396982D01*
X58637773Y-50214903D01*
X58676222Y-50021609D01*
X58676222Y-49824527D01*
X58637773Y-49631233D01*
X58562354Y-49449154D01*
X58452861Y-49285286D01*
X58313504Y-49145929D01*
X58149636Y-49036436D01*
X58149633Y-49036434D01*
X58149632Y-49036434D01*
X57967558Y-48961017D01*
X57967549Y-48961015D01*
X57774266Y-48922568D01*
X57774263Y-48922568D01*
X57577181Y-48922568D01*
X57577177Y-48922568D01*
X57383894Y-48961015D01*
X57383885Y-48961017D01*
X57201811Y-49036434D01*
X57037940Y-49145928D01*
X56898582Y-49285286D01*
X56789088Y-49449157D01*
X56713671Y-49631231D01*
X56713669Y-49631240D01*
X56675222Y-49824523D01*
X41041804Y-49824523D01*
X41051550Y-49799772D01*
X41052113Y-49799167D01*
X41058303Y-49792978D01*
X41117613Y-49690251D01*
X41141662Y-49600500D01*
X41148314Y-49575676D01*
X41148314Y-49457054D01*
X41140157Y-49426613D01*
X41139807Y-49425307D01*
X41144701Y-49388126D01*
X41174454Y-49365295D01*
X41211636Y-49370189D01*
X41221785Y-49377977D01*
X41222839Y-49379031D01*
X41306715Y-49462907D01*
X41409442Y-49522217D01*
X41438086Y-49529892D01*
X41524016Y-49552918D01*
X41524019Y-49552918D01*
X41642639Y-49552918D01*
X41699925Y-49537567D01*
X41757214Y-49522217D01*
X41859941Y-49462907D01*
X41943817Y-49379031D01*
X42003127Y-49276304D01*
X42026834Y-49187829D01*
X42033828Y-49161729D01*
X42033828Y-49043106D01*
X42003127Y-48928533D01*
X42003126Y-48928530D01*
X41973404Y-48877051D01*
X41943817Y-48825805D01*
X41859941Y-48741929D01*
X41792799Y-48703164D01*
X41757215Y-48682619D01*
X41757212Y-48682618D01*
X41697985Y-48666748D01*
X41668232Y-48643918D01*
X41663337Y-48606736D01*
X41686167Y-48576983D01*
X41697985Y-48572088D01*
X41717998Y-48566725D01*
X41757215Y-48556217D01*
X41859942Y-48496907D01*
X41943818Y-48413031D01*
X41992337Y-48328995D01*
X47118500Y-48328995D01*
X47118500Y-48475004D01*
X47156287Y-48616027D01*
X47156288Y-48616031D01*
X47206595Y-48703164D01*
X47229289Y-48742471D01*
X47332529Y-48845711D01*
X47378808Y-48872430D01*
X47458968Y-48918711D01*
X47458970Y-48918711D01*
X47458971Y-48918712D01*
X47495624Y-48928533D01*
X47599995Y-48956499D01*
X47599996Y-48956500D01*
X47599999Y-48956500D01*
X47746004Y-48956500D01*
X47746004Y-48956499D01*
X47887029Y-48918712D01*
X48013471Y-48845711D01*
X48116711Y-48742471D01*
X48189712Y-48616029D01*
X48227499Y-48475004D01*
X48227500Y-48475004D01*
X48227500Y-48328996D01*
X48227499Y-48328995D01*
X52898500Y-48328995D01*
X52898500Y-48475004D01*
X52936287Y-48616027D01*
X52936288Y-48616031D01*
X52986595Y-48703164D01*
X53009289Y-48742471D01*
X53112529Y-48845711D01*
X53158808Y-48872430D01*
X53238968Y-48918711D01*
X53238970Y-48918711D01*
X53238971Y-48918712D01*
X53275624Y-48928533D01*
X53379995Y-48956499D01*
X53379996Y-48956500D01*
X53379999Y-48956500D01*
X53526004Y-48956500D01*
X53526004Y-48956499D01*
X53667029Y-48918712D01*
X53793471Y-48845711D01*
X53896711Y-48742471D01*
X53969712Y-48616029D01*
X54007499Y-48475004D01*
X54007500Y-48475004D01*
X54007500Y-48328996D01*
X54007499Y-48328995D01*
X53991739Y-48270177D01*
X53969712Y-48187971D01*
X53969711Y-48187970D01*
X53969711Y-48187968D01*
X53905704Y-48077106D01*
X53896711Y-48061529D01*
X53793471Y-47958289D01*
X53667031Y-47885288D01*
X53667027Y-47885287D01*
X53526004Y-47847500D01*
X53526001Y-47847500D01*
X53379999Y-47847500D01*
X53379996Y-47847500D01*
X53238972Y-47885287D01*
X53238968Y-47885288D01*
X53112528Y-47958289D01*
X53112528Y-47958290D01*
X53009290Y-48061528D01*
X53009289Y-48061528D01*
X52936288Y-48187968D01*
X52936287Y-48187972D01*
X52898500Y-48328995D01*
X48227499Y-48328995D01*
X48211739Y-48270177D01*
X48189712Y-48187971D01*
X48189711Y-48187970D01*
X48189711Y-48187968D01*
X48125704Y-48077106D01*
X48116711Y-48061529D01*
X48013471Y-47958289D01*
X47887031Y-47885288D01*
X47887027Y-47885287D01*
X47746004Y-47847500D01*
X47746001Y-47847500D01*
X47599999Y-47847500D01*
X47599996Y-47847500D01*
X47458972Y-47885287D01*
X47458968Y-47885288D01*
X47332528Y-47958289D01*
X47332528Y-47958290D01*
X47229290Y-48061528D01*
X47229289Y-48061528D01*
X47156288Y-48187968D01*
X47156287Y-48187972D01*
X47118500Y-48328995D01*
X41992337Y-48328995D01*
X42003128Y-48310304D01*
X42033828Y-48195730D01*
X42033829Y-48195730D01*
X42033829Y-48077106D01*
X42003128Y-47962533D01*
X42003127Y-47962530D01*
X41963915Y-47894614D01*
X41943818Y-47859805D01*
X41859942Y-47775929D01*
X41853544Y-47772235D01*
X41757216Y-47716619D01*
X41757213Y-47716618D01*
X41642641Y-47685918D01*
X41642638Y-47685918D01*
X41524020Y-47685918D01*
X41524017Y-47685918D01*
X41409444Y-47716618D01*
X41409441Y-47716619D01*
X41306715Y-47775929D01*
X41306715Y-47775930D01*
X41222841Y-47859804D01*
X41222840Y-47859804D01*
X41163530Y-47962530D01*
X41163529Y-47962533D01*
X41132829Y-48077106D01*
X41132829Y-48195729D01*
X41163529Y-48310302D01*
X41163530Y-48310305D01*
X41178844Y-48336829D01*
X41222840Y-48413031D01*
X41306716Y-48496907D01*
X41409443Y-48556217D01*
X41468671Y-48572087D01*
X41498424Y-48594917D01*
X41503319Y-48632099D01*
X41480489Y-48661852D01*
X41468672Y-48666747D01*
X41409441Y-48682619D01*
X41409440Y-48682619D01*
X41306714Y-48741929D01*
X41306714Y-48741930D01*
X41222840Y-48825804D01*
X41222839Y-48825804D01*
X41163529Y-48928530D01*
X41163528Y-48928533D01*
X41132828Y-49043106D01*
X41132828Y-49161730D01*
X41141334Y-49193475D01*
X41136439Y-49230657D01*
X41106686Y-49253487D01*
X41069504Y-49248592D01*
X41059356Y-49240805D01*
X40974427Y-49155876D01*
X40871701Y-49096566D01*
X40871698Y-49096565D01*
X40757126Y-49065865D01*
X40757123Y-49065865D01*
X40638505Y-49065865D01*
X40638502Y-49065865D01*
X40523929Y-49096565D01*
X40523926Y-49096566D01*
X40421200Y-49155876D01*
X40421200Y-49155877D01*
X40337326Y-49239751D01*
X40337325Y-49239751D01*
X40278015Y-49342477D01*
X40278014Y-49342480D01*
X40247314Y-49457053D01*
X39090049Y-49457053D01*
X39120489Y-49426613D01*
X39179799Y-49323886D01*
X39195149Y-49266597D01*
X39210500Y-49209311D01*
X39210500Y-49090688D01*
X39179799Y-48976115D01*
X39179798Y-48976112D01*
X39148723Y-48922289D01*
X39120489Y-48873387D01*
X39036613Y-48789511D01*
X39015531Y-48777339D01*
X38933887Y-48730201D01*
X38933884Y-48730200D01*
X38819312Y-48699500D01*
X38819309Y-48699500D01*
X38700691Y-48699500D01*
X38700688Y-48699500D01*
X38586115Y-48730200D01*
X38586112Y-48730201D01*
X38483386Y-48789511D01*
X38483386Y-48789512D01*
X38477606Y-48795292D01*
X38442958Y-48809644D01*
X38408310Y-48795292D01*
X38406193Y-48793175D01*
X38303467Y-48733865D01*
X38303464Y-48733864D01*
X38188892Y-48703164D01*
X38188889Y-48703164D01*
X38070271Y-48703164D01*
X38070268Y-48703164D01*
X37955695Y-48733864D01*
X37955692Y-48733865D01*
X37852966Y-48793175D01*
X37852966Y-48793176D01*
X37769092Y-48877050D01*
X37769091Y-48877050D01*
X37709781Y-48979776D01*
X37709780Y-48979779D01*
X37679080Y-49094352D01*
X35814986Y-49094352D01*
X35833492Y-49062299D01*
X35852250Y-48992294D01*
X35871008Y-48922291D01*
X35871008Y-48777336D01*
X35837401Y-48651918D01*
X35833492Y-48637329D01*
X35833491Y-48637328D01*
X35833491Y-48637326D01*
X35781219Y-48546790D01*
X35761017Y-48511799D01*
X35658523Y-48409305D01*
X35532995Y-48336830D01*
X35532991Y-48336829D01*
X35392986Y-48299314D01*
X35392983Y-48299314D01*
X35248033Y-48299314D01*
X35248030Y-48299314D01*
X35108024Y-48336829D01*
X35108020Y-48336830D01*
X34982492Y-48409305D01*
X34982492Y-48409306D01*
X34880000Y-48511798D01*
X34879999Y-48511798D01*
X34807524Y-48637326D01*
X34807523Y-48637330D01*
X34770008Y-48777336D01*
X32280500Y-48777336D01*
X32280500Y-48036978D01*
X37703076Y-48036978D01*
X37703076Y-48155601D01*
X37733776Y-48270174D01*
X37733777Y-48270177D01*
X37767736Y-48328995D01*
X37793087Y-48372903D01*
X37876963Y-48456779D01*
X37946464Y-48496906D01*
X37972259Y-48511799D01*
X37979690Y-48516089D01*
X38008334Y-48523764D01*
X38094264Y-48546790D01*
X38094267Y-48546790D01*
X38212887Y-48546790D01*
X38270173Y-48531439D01*
X38327462Y-48516089D01*
X38430189Y-48456779D01*
X38430884Y-48456084D01*
X38431341Y-48455894D01*
X38432738Y-48454823D01*
X38433025Y-48455197D01*
X38465532Y-48441732D01*
X38500180Y-48456084D01*
X38501966Y-48457870D01*
X38577164Y-48501286D01*
X38602801Y-48516088D01*
X38604693Y-48517180D01*
X38633337Y-48524855D01*
X38719267Y-48547881D01*
X38719270Y-48547881D01*
X38837890Y-48547881D01*
X38895176Y-48532530D01*
X38952465Y-48517180D01*
X39055192Y-48457870D01*
X39139068Y-48373994D01*
X39198378Y-48271267D01*
X39218618Y-48195730D01*
X39229079Y-48156692D01*
X39229079Y-48038069D01*
X39198378Y-47923496D01*
X39198377Y-47923493D01*
X39161606Y-47859805D01*
X39139068Y-47820768D01*
X39055192Y-47736892D01*
X39053302Y-47735801D01*
X38952466Y-47677582D01*
X38952463Y-47677581D01*
X38837891Y-47646881D01*
X38837888Y-47646881D01*
X38719270Y-47646881D01*
X38719267Y-47646881D01*
X38604694Y-47677581D01*
X38604691Y-47677582D01*
X38501965Y-47736892D01*
X38501965Y-47736893D01*
X38501271Y-47737587D01*
X38500813Y-47737776D01*
X38499417Y-47738848D01*
X38499129Y-47738473D01*
X38466623Y-47751939D01*
X38431975Y-47737587D01*
X38430189Y-47735801D01*
X38327463Y-47676491D01*
X38327460Y-47676490D01*
X38212888Y-47645790D01*
X38212885Y-47645790D01*
X38094267Y-47645790D01*
X38094264Y-47645790D01*
X37979691Y-47676490D01*
X37979688Y-47676491D01*
X37876962Y-47735801D01*
X37876962Y-47735802D01*
X37793088Y-47819676D01*
X37793087Y-47819676D01*
X37733777Y-47922402D01*
X37733776Y-47922405D01*
X37703076Y-48036978D01*
X32280500Y-48036978D01*
X32280500Y-46882573D01*
X37712673Y-46882573D01*
X37712673Y-47001196D01*
X37743373Y-47115769D01*
X37743374Y-47115772D01*
X37798288Y-47210884D01*
X37802684Y-47218498D01*
X37886560Y-47302374D01*
X37989287Y-47361684D01*
X38017931Y-47369359D01*
X38103861Y-47392385D01*
X38103864Y-47392385D01*
X38222484Y-47392385D01*
X38279770Y-47377034D01*
X38337059Y-47361684D01*
X38430996Y-47307448D01*
X38468177Y-47302553D01*
X38479995Y-47307449D01*
X38573929Y-47361683D01*
X38573931Y-47361683D01*
X38573932Y-47361684D01*
X38602576Y-47369359D01*
X38688506Y-47392385D01*
X38688509Y-47392385D01*
X38807129Y-47392385D01*
X38864415Y-47377034D01*
X38921704Y-47361684D01*
X39024431Y-47302374D01*
X39108307Y-47218498D01*
X39167617Y-47115771D01*
X39182967Y-47058482D01*
X39198318Y-47001196D01*
X39198318Y-46977688D01*
X40252500Y-46977688D01*
X40252500Y-47096311D01*
X40283200Y-47210884D01*
X40283201Y-47210888D01*
X40336883Y-47303866D01*
X40341778Y-47341048D01*
X40336883Y-47352866D01*
X40284201Y-47444111D01*
X40284200Y-47444115D01*
X40253500Y-47558688D01*
X40253500Y-47677311D01*
X40284200Y-47791884D01*
X40284201Y-47791887D01*
X40300876Y-47820768D01*
X40343511Y-47894613D01*
X40427387Y-47978489D01*
X40530114Y-48037799D01*
X40558758Y-48045474D01*
X40644688Y-48068500D01*
X40644691Y-48068500D01*
X40763311Y-48068500D01*
X40820597Y-48053149D01*
X40877886Y-48037799D01*
X40980613Y-47978489D01*
X41064489Y-47894613D01*
X41123799Y-47791886D01*
X41143967Y-47716618D01*
X41154500Y-47677311D01*
X41154500Y-47558688D01*
X41123799Y-47444115D01*
X41123798Y-47444111D01*
X41070116Y-47351133D01*
X41065221Y-47313951D01*
X41070111Y-47302141D01*
X41122799Y-47210886D01*
X41148286Y-47115769D01*
X41153500Y-47096311D01*
X41153500Y-46977688D01*
X41122799Y-46863115D01*
X41122798Y-46863112D01*
X41067884Y-46768000D01*
X41063489Y-46760387D01*
X40979613Y-46676511D01*
X40960145Y-46665271D01*
X40876887Y-46617201D01*
X40876884Y-46617200D01*
X40762312Y-46586500D01*
X40762309Y-46586500D01*
X40643691Y-46586500D01*
X40643688Y-46586500D01*
X40529115Y-46617200D01*
X40529112Y-46617201D01*
X40426386Y-46676511D01*
X40426386Y-46676512D01*
X40342512Y-46760386D01*
X40342511Y-46760386D01*
X40283201Y-46863112D01*
X40283200Y-46863115D01*
X40252500Y-46977688D01*
X39198318Y-46977688D01*
X39198318Y-46882573D01*
X39167617Y-46768000D01*
X39167616Y-46767997D01*
X39108306Y-46665271D01*
X39024431Y-46581396D01*
X38921705Y-46522086D01*
X38921702Y-46522085D01*
X38807130Y-46491385D01*
X38807127Y-46491385D01*
X38688509Y-46491385D01*
X38688506Y-46491385D01*
X38573933Y-46522085D01*
X38573929Y-46522086D01*
X38479994Y-46576320D01*
X38442812Y-46581215D01*
X38430994Y-46576320D01*
X38337060Y-46522086D01*
X38337057Y-46522085D01*
X38222485Y-46491385D01*
X38222482Y-46491385D01*
X38103864Y-46491385D01*
X38103861Y-46491385D01*
X37989288Y-46522085D01*
X37989285Y-46522086D01*
X37886559Y-46581396D01*
X37886559Y-46581397D01*
X37802685Y-46665271D01*
X37802684Y-46665271D01*
X37743374Y-46767997D01*
X37743373Y-46768000D01*
X37712673Y-46882573D01*
X32280500Y-46882573D01*
X32280500Y-45091376D01*
X32280577Y-45088629D01*
X32290155Y-44918076D01*
X32297446Y-44788253D01*
X32298058Y-44782812D01*
X32348225Y-44487554D01*
X32349443Y-44482216D01*
X32432349Y-44194444D01*
X32434164Y-44189261D01*
X32486096Y-44063886D01*
X32548762Y-43912593D01*
X32551145Y-43907646D01*
X32570205Y-43873160D01*
X32593678Y-43830688D01*
X39569500Y-43830688D01*
X39569500Y-43949311D01*
X39600200Y-44063884D01*
X39600201Y-44063887D01*
X39624722Y-44106357D01*
X39659511Y-44166613D01*
X39743387Y-44250489D01*
X39846114Y-44309799D01*
X39874758Y-44317474D01*
X39960688Y-44340500D01*
X39960691Y-44340500D01*
X40079311Y-44340500D01*
X40142149Y-44323662D01*
X40193886Y-44309799D01*
X40296613Y-44250489D01*
X40380489Y-44166613D01*
X40439799Y-44063886D01*
X40460203Y-43987739D01*
X40460204Y-43987736D01*
X43221816Y-43987736D01*
X43221816Y-44106359D01*
X43252516Y-44220932D01*
X43252517Y-44220935D01*
X43303823Y-44309798D01*
X43311827Y-44323661D01*
X43395703Y-44407537D01*
X43498430Y-44466847D01*
X43527074Y-44474522D01*
X43613004Y-44497548D01*
X43613007Y-44497548D01*
X43731627Y-44497548D01*
X43788913Y-44482197D01*
X43846202Y-44466847D01*
X43948929Y-44407537D01*
X44032805Y-44323661D01*
X44092115Y-44220934D01*
X44107465Y-44163645D01*
X44122816Y-44106359D01*
X44122816Y-43987736D01*
X44092115Y-43873163D01*
X44092114Y-43873160D01*
X44052055Y-43803777D01*
X44032805Y-43770435D01*
X43948929Y-43686559D01*
X43846203Y-43627249D01*
X43846200Y-43627248D01*
X43731628Y-43596548D01*
X43731625Y-43596548D01*
X43613007Y-43596548D01*
X43613004Y-43596548D01*
X43498431Y-43627248D01*
X43498428Y-43627249D01*
X43395702Y-43686559D01*
X43395702Y-43686560D01*
X43311828Y-43770434D01*
X43311827Y-43770434D01*
X43252517Y-43873160D01*
X43252516Y-43873163D01*
X43221816Y-43987736D01*
X40460204Y-43987736D01*
X40464462Y-43971845D01*
X40464462Y-43971844D01*
X40470500Y-43949310D01*
X40470500Y-43830689D01*
X40458842Y-43787183D01*
X40463736Y-43750001D01*
X40493489Y-43727170D01*
X40506172Y-43725500D01*
X40609311Y-43725500D01*
X40666597Y-43710149D01*
X40723886Y-43694799D01*
X40826613Y-43635489D01*
X40910489Y-43551613D01*
X40969799Y-43448886D01*
X40976283Y-43424688D01*
X44729500Y-43424688D01*
X44729500Y-43543311D01*
X44760200Y-43657884D01*
X44760201Y-43657887D01*
X44793818Y-43716112D01*
X44819511Y-43760613D01*
X44903387Y-43844489D01*
X45006114Y-43903799D01*
X45029454Y-43910053D01*
X45120688Y-43934500D01*
X45120691Y-43934500D01*
X45239311Y-43934500D01*
X45296597Y-43919149D01*
X45353886Y-43903799D01*
X45456613Y-43844489D01*
X45540489Y-43760613D01*
X45599799Y-43657886D01*
X45628275Y-43551613D01*
X45630500Y-43543311D01*
X45630500Y-43424688D01*
X45599799Y-43310115D01*
X45599798Y-43310112D01*
X45545283Y-43215691D01*
X45540489Y-43207387D01*
X45456613Y-43123511D01*
X45353887Y-43064201D01*
X45353884Y-43064200D01*
X45239312Y-43033500D01*
X45239309Y-43033500D01*
X45120691Y-43033500D01*
X45120688Y-43033500D01*
X45006115Y-43064200D01*
X45006112Y-43064201D01*
X44903386Y-43123511D01*
X44903386Y-43123512D01*
X44819512Y-43207386D01*
X44819511Y-43207386D01*
X44760201Y-43310112D01*
X44760200Y-43310115D01*
X44729500Y-43424688D01*
X40976283Y-43424688D01*
X41000500Y-43334309D01*
X41000500Y-43215691D01*
X41000500Y-43215688D01*
X40969799Y-43101115D01*
X40969798Y-43101112D01*
X40948486Y-43064200D01*
X40910489Y-42998387D01*
X40826613Y-42914511D01*
X40723887Y-42855201D01*
X40723884Y-42855200D01*
X40609312Y-42824500D01*
X40609309Y-42824500D01*
X40490691Y-42824500D01*
X40490688Y-42824500D01*
X40376115Y-42855200D01*
X40376112Y-42855201D01*
X40273386Y-42914511D01*
X40273386Y-42914512D01*
X40189512Y-42998386D01*
X40189511Y-42998386D01*
X40130201Y-43101112D01*
X40130200Y-43101115D01*
X40099500Y-43215688D01*
X40099500Y-43334310D01*
X40111158Y-43377817D01*
X40106264Y-43414999D01*
X40076511Y-43437830D01*
X40063828Y-43439500D01*
X39960688Y-43439500D01*
X39846115Y-43470200D01*
X39846112Y-43470201D01*
X39743386Y-43529511D01*
X39743386Y-43529512D01*
X39659512Y-43613386D01*
X39659511Y-43613386D01*
X39600201Y-43716112D01*
X39600200Y-43716115D01*
X39569500Y-43830688D01*
X32593678Y-43830688D01*
X32696013Y-43645528D01*
X32698916Y-43640908D01*
X32872216Y-43396666D01*
X32875639Y-43392373D01*
X32949152Y-43310112D01*
X33075191Y-43169072D01*
X33079075Y-43165189D01*
X33125713Y-43123511D01*
X33302376Y-42965636D01*
X33306669Y-42962214D01*
X33550908Y-42788916D01*
X33555528Y-42786013D01*
X33817650Y-42641142D01*
X33822593Y-42638762D01*
X34099263Y-42524163D01*
X34104447Y-42522349D01*
X34392216Y-42439443D01*
X34397554Y-42438225D01*
X34692812Y-42388058D01*
X34698253Y-42387446D01*
X34969228Y-42372228D01*
X34998630Y-42370577D01*
X35001377Y-42370500D01*
X35049460Y-42370500D01*
X55848858Y-42370500D01*
X55825000Y-48750000D01*
G37*
%TD.AperFunction*%
%TD*%
%TA.AperFunction,Conductor*%
%TO.N,GND*%
G36*
X59002777Y-42370655D02*
G01*
X59298938Y-42387288D01*
X59309965Y-42388530D01*
X59599675Y-42437754D01*
X59610469Y-42440217D01*
X59892856Y-42521572D01*
X59903333Y-42525238D01*
X60174813Y-42637688D01*
X60184807Y-42642501D01*
X60441994Y-42784644D01*
X60451395Y-42790551D01*
X60691044Y-42960592D01*
X60699723Y-42967513D01*
X60761458Y-43022682D01*
X60918839Y-43163325D01*
X60926674Y-43171160D01*
X61031313Y-43288252D01*
X61122486Y-43390276D01*
X61129407Y-43398955D01*
X61299448Y-43638604D01*
X61305355Y-43648005D01*
X61447496Y-43905188D01*
X61452313Y-43915191D01*
X61564760Y-44186665D01*
X61568427Y-44197143D01*
X61649778Y-44479515D01*
X61652248Y-44490339D01*
X61701468Y-44780032D01*
X61702711Y-44791064D01*
X61719344Y-45087222D01*
X61719500Y-45092773D01*
X61719500Y-48678406D01*
X55825000Y-48750000D01*
X55848858Y-42370500D01*
X58950540Y-42370500D01*
X58997227Y-42370500D01*
X59002777Y-42370655D01*
G37*
%TD.AperFunction*%
%TD*%
M02*
